<svg width="246" height="266" viewBox="0 0 246 266" fill="none" xmlns="http://www.w3.org/2000/svg">
<g clip-path="url(#clip0_3455_6901)">
<path d="M173.239 127.544L171.845 130.081C169.674 134.029 165.086 135.363 161.137 133.193C157.476 131.18 155.861 126.436 158.032 122.488L159.426 119.951C161.517 116.147 166.463 114.83 170.124 116.843C174.073 119.013 175.33 123.739 173.239 127.544ZM190.207 96.6752L185.169 105.84C183.002 109.783 178.413 111.116 174.465 108.946C170.804 106.933 169.189 102.19 171.356 98.2476L179.416 83.5848C179.491 83.4468 179.634 83.5259 179.713 83.3821C179.645 83.1656 179.645 83.1656 179.725 83.0223C181.74 79.3553 186.765 77.8948 190.426 79.9077C199.31 84.7905 210.374 81.6961 215.178 72.9558C220.059 64.078 216.666 53.216 207.782 48.3326C202.003 45.1559 195.224 45.4722 189.988 48.6478C186.159 50.9515 181.311 49.7516 179.01 45.9164C176.85 42.1655 177.974 37.4557 181.806 35.1605C191.683 29.2089 204.523 28.554 215.375 34.5194C231.73 43.5098 237.835 64.1199 228.848 80.4697C221.177 94.4262 205.018 100.781 190.207 96.6752Z" fill="#38B89A" fill-opacity="0.28"/>
<path d="M161.774 6.46416L162.067 4.53193C162.522 1.52349 165.12 -0.390678 168.128 0.0651779C170.918 0.488129 173.046 3.11819 172.591 6.12611L172.298 8.05885C171.858 10.9574 169.031 12.9443 166.241 12.5214C163.233 12.066 161.335 9.36275 161.774 6.46416ZM158.211 29.9824L159.269 22.9997C159.724 19.996 162.321 18.0819 165.33 18.5377C168.119 18.9602 170.248 21.5907 169.792 24.5944L168.1 35.7653C168.084 35.8704 167.975 35.8534 167.958 35.9627C168.052 36.0842 168.052 36.0842 168.035 36.1936C167.612 38.9876 164.767 41.0833 161.978 40.6608C155.21 39.6356 148.918 44.1745 147.909 50.8335C146.884 57.5971 151.565 63.6914 158.333 64.7167C162.736 65.3838 166.959 63.6039 169.538 60.372C171.428 58.0195 174.78 57.6507 177.132 59.5457C179.375 61.4196 179.76 64.6668 177.866 67.014C172.992 73.0872 165.007 76.4931 156.739 75.2407C144.278 73.3525 135.607 61.712 137.494 49.2553C139.106 38.6225 147.867 30.8299 158.211 29.9824Z" fill="#38B89A" fill-opacity="0.28"/>
<path d="M26.3833 23.9937L25.5522 22.2244C24.2591 19.4707 25.3545 16.4352 28.1083 15.1424C30.662 13.9426 33.8933 14.9461 35.1866 17.6998L36.0175 19.4691C37.2638 22.1225 36.0175 25.3464 33.4638 26.5457C30.7101 27.839 27.6296 26.6476 26.3833 23.9937ZM36.4945 45.524L33.4924 39.1319C32.2012 36.3819 33.2965 33.3464 36.0503 32.0532C38.604 30.8538 41.8353 31.8573 43.1268 34.6073L47.9297 44.8341C47.9749 44.9297 47.8747 44.9769 47.9218 45.0772C48.0669 45.126 48.0669 45.126 48.114 45.2263C49.3151 47.7837 48.1156 51.1073 45.5619 52.3067C39.366 55.2164 36.6591 62.4873 39.5219 68.5833C42.4299 74.7753 49.7085 77.2392 55.9045 74.3295C59.9354 72.4366 62.4567 68.6093 62.8031 64.4891C63.0672 61.4827 65.6485 59.3128 68.6568 59.5808C71.5634 59.8917 73.6877 62.3769 73.4181 65.3811C72.7425 73.1392 67.9982 80.409 60.4291 83.9635C49.0217 89.3208 35.343 84.4645 29.9874 73.0607C25.4159 63.3263 28.3676 51.9787 36.4945 45.524Z" fill="#38B89A" fill-opacity="0.28"/>
<path d="M169.638 213.413C168.776 212.292 167.882 211.143 167.039 210.066C167.04 210.067 167.041 210.067 167.042 210.068C167.884 211.143 168.777 212.291 169.638 213.411C169.638 213.412 169.638 213.412 169.638 213.413Z" fill="#38B89A" fill-opacity="0.19"/>
<path d="M170.06 222.641C169.079 222.157 167.972 221.607 166.77 221.007L166.705 220.601C167.924 221.239 169.046 221.83 170.038 222.354C170.045 222.452 170.053 222.547 170.06 222.641Z" fill="#38B89A" fill-opacity="0.19"/>
<path d="M166.327 209.156C166.326 209.155 166.324 209.154 166.323 209.153C165.997 208.739 165.684 208.342 165.389 207.967C165.39 207.967 165.391 207.968 165.392 207.968C165.688 208.343 166.002 208.742 166.327 209.156Z" fill="#38B89A" fill-opacity="0.19"/>
<path d="M164.525 206.87C164.524 206.87 164.522 206.869 164.52 206.868C164.515 206.861 164.51 206.855 164.504 206.848L164.504 206.844C164.511 206.853 164.518 206.862 164.525 206.87Z" fill="#38B89A" fill-opacity="0.19"/>
<path d="M164.522 206.868C164.516 206.865 164.512 206.862 164.506 206.859L164.504 206.845C164.51 206.853 164.516 206.86 164.522 206.868Z" fill="#142228"/>
<path d="M167.699 77.8999C167.695 77.8372 167.602 77.8495 167.594 77.9057C167.266 80.3171 167.078 82.8193 165.913 85.0078C164.844 87.0154 162.98 88.3097 160.949 89.2161C159.775 89.7399 158.553 90.1528 157.331 90.5503C157.244 90.579 157.263 90.7164 157.359 90.6962C159.664 90.2176 162.008 89.6805 164.011 88.3856C166.156 86.9995 167.259 84.7823 167.612 82.2992C167.819 80.8399 167.797 79.3656 167.699 77.8999Z" fill="#273E47"/>
<path d="M207.732 48.9363V48.9357C207.901 48.8227 208.071 48.7081 208.241 48.5924C208.071 48.7086 207.902 48.8232 207.732 48.9363Z" fill="#38B89A" fill-opacity="0.19"/>
<path d="M208.24 48.5923C208.583 48.3572 208.927 48.1168 209.269 47.8716L209.269 47.8727C208.927 48.1173 208.583 48.3577 208.24 48.5923ZM203.936 35.5858H203.936C204.358 35.131 204.778 34.6788 205.184 34.2458L205.167 34.2315L205.184 34.2458C204.778 34.6794 204.359 35.131 203.936 35.5858Z" fill="#38B89A" fill-opacity="0.22"/>
<path d="M214.141 26.2231C214.203 26.1595 214.243 26.1149 214.257 26.0926C215.235 24.5101 215.719 21.1917 216.876 20.3209C215.719 21.1928 215.236 24.5106 214.257 26.0915C214.244 26.1144 214.204 26.1589 214.141 26.2231ZM218.638 22.3821V22.3815C218.733 22.113 218.949 21.5749 219.274 21.1174C218.949 21.5754 218.733 22.1141 218.638 22.3821ZM221.085 20.5385C220.972 20.4546 220.838 20.3925 220.68 20.3591C220.615 20.3453 220.552 20.3379 220.49 20.3363C220.552 20.3379 220.616 20.3453 220.681 20.3591C220.84 20.3925 220.973 20.4541 221.085 20.5385Z" fill="#38B89A" fill-opacity="0.19"/>
<path d="M207.475 29.9543C207.567 29.7755 207.653 29.6078 207.729 29.4555C207.801 29.3128 207.88 29.1429 207.964 28.953C207.88 29.1435 207.801 29.3133 207.729 29.4566C207.653 29.6083 207.567 29.776 207.475 29.9543ZM208.634 27.3896C209.462 25.4547 210.549 23.099 211.576 22.8989C211.631 22.8878 211.686 22.8825 211.738 22.8825C211.879 22.8825 212.005 22.9207 212.118 22.9928C212.005 22.9212 211.879 22.8825 211.739 22.8825C211.687 22.8825 211.632 22.8878 211.576 22.8989C210.549 23.1 209.462 25.4547 208.634 27.3896Z" fill="#38B89A" fill-opacity="0.19"/>
<path d="M192.917 47.4573C192.856 47.4297 192.781 47.3968 192.693 47.3575C192.724 47.2625 192.754 47.1675 192.784 47.0736L193.006 47.2291C192.977 47.3044 192.947 47.3809 192.917 47.4573Z" fill="#142228"/>
<path d="M175.008 40.6783L171.978 46.1868C171.829 46.0063 171.697 45.8259 171.58 45.6508L174.377 40.5721C174.578 40.5987 174.791 40.6305 175.008 40.6783Z" fill="#273E47"/>
<path d="M175.096 49.8617C175.897 50.0819 176.532 50.4773 177.125 51.0552C176.299 50.9766 175.581 50.5282 175.096 49.8617Z" fill="#17282F"/>
<path d="M134.222 198.376V203.844C134.222 212.355 127.839 218.738 119.329 218.738C111.436 218.738 104.435 212.355 104.435 203.844V198.376C104.435 190.174 111.436 183.495 119.329 183.495C127.839 183.495 134.222 190.174 134.222 198.376ZM134.222 131.836V151.592C134.222 160.09 127.839 166.473 119.329 166.473C111.436 166.473 104.435 160.09 104.435 151.592V119.985C104.435 119.688 104.756 119.688 104.756 119.379C104.435 119.082 104.435 119.082 104.435 118.772C104.435 110.868 111.436 103.879 119.329 103.879C138.478 103.879 153.965 88.688 153.965 69.8477C153.965 50.7108 138.478 35.8171 119.329 35.8171C106.884 35.8171 95.9484 42.5096 90.1592 52.5294C85.9036 59.8279 76.7992 62.2526 69.5007 57.997C62.5236 53.7537 60.0744 44.9337 64.3298 37.648C75.265 18.8077 95.9484 6.04158 119.329 6.04158C154.584 6.04158 183.456 34.6045 183.456 69.8477C183.456 99.9327 162.476 125.156 134.222 131.836Z" fill="#38B89A"/>
<path d="M178.244 69.5161C172.047 44.357 151.756 17.0878 124.975 12.5781C126.419 12.396 127.86 12.3079 129.286 12.3079C153.029 12.3079 173.709 36.6939 177.622 58.7953C178.097 61.3738 178.324 64.2135 178.359 66.8394C178.326 67.7373 178.303 68.6288 178.244 69.5161Z" fill="#40CDAC"/>
<path d="M172.815 197.91L171.452 200.39C169.33 204.25 164.845 205.553 160.985 203.431C157.406 201.464 155.828 196.827 157.949 192.968L159.312 190.488C161.356 186.769 166.191 185.481 169.77 187.449C173.63 189.57 174.86 194.191 172.815 197.91ZM189.402 167.734L184.477 176.693C182.359 180.548 177.873 181.851 174.013 179.73C170.434 177.762 168.856 173.126 170.974 169.271L178.853 154.938C178.927 154.803 179.067 154.881 179.144 154.74C179.078 154.528 179.078 154.528 179.155 154.388C181.125 150.804 186.037 149.376 189.616 151.344C198.3 156.117 209.116 153.092 213.812 144.548C218.583 135.869 215.266 125.251 206.582 120.478C200.933 117.373 194.305 117.682 189.188 120.786C185.445 123.038 180.706 121.865 178.457 118.116C176.345 114.449 177.444 109.845 181.19 107.602C190.845 101.784 203.396 101.144 214.004 106.975C229.993 115.763 235.96 135.91 227.175 151.893C219.676 165.536 203.88 171.748 189.402 167.734Z" fill="#3A3A3A"/>
<path d="M164.82 204.445C163.886 204.445 162.934 204.269 162.002 203.907C161.66 203.774 161.32 203.616 160.986 203.432C160.853 203.359 160.724 203.283 160.598 203.203C158.353 201.79 156.992 199.287 156.992 196.662C156.992 195.424 157.295 194.159 157.949 192.968L159.312 190.488C160.713 187.94 163.425 186.533 166.144 186.533C167.393 186.533 168.644 186.83 169.771 187.449C172.386 188.887 173.794 191.473 173.793 194.148C173.793 195.42 173.474 196.712 172.815 197.91L171.452 200.39C171.405 200.476 171.357 200.561 171.307 200.644C171.27 200.707 171.231 200.769 171.193 200.83C170.608 201.76 169.878 202.523 169.051 203.104C167.804 203.981 166.336 204.445 164.82 204.445Z" fill="#38B89A"/>
<path d="M177.847 180.743C176.57 180.743 175.259 180.415 174.011 179.73C173.683 179.549 173.371 179.346 173.077 179.123C172.898 178.987 172.725 178.843 172.56 178.692C171.462 177.694 170.675 176.396 170.289 174.977C170.111 174.326 170.018 173.648 170.018 172.962C170.017 171.725 170.319 170.461 170.972 169.271L178.851 154.938C178.925 154.803 179.065 154.881 179.142 154.74C179.11 154.639 179.094 154.586 179.094 154.543C179.094 154.496 179.113 154.461 179.153 154.388C180.519 151.904 183.297 150.456 186.066 150.456C187.292 150.456 188.516 150.74 189.615 151.344C192.403 152.877 195.412 153.605 198.367 153.605C204.614 153.605 210.623 150.348 213.811 144.548C215.297 141.845 215.998 138.952 215.997 136.108C215.994 129.821 212.559 123.764 206.581 120.478C203.955 119.035 201.117 118.329 198.319 118.299C198.256 118.298 198.194 118.298 198.131 118.298C195.382 118.298 192.676 118.949 190.249 120.192C190.007 120.316 189.767 120.447 189.53 120.583C189.415 120.649 189.3 120.717 189.186 120.786C187.901 121.559 186.498 121.929 185.119 121.929C182.482 121.929 179.932 120.578 178.455 118.116C177.739 116.873 177.392 115.523 177.392 114.194C177.392 111.6 178.711 109.085 181.188 107.602C186.277 104.536 192.172 102.907 198.161 102.907C203.536 102.907 208.985 104.217 214.003 106.975C224.979 113.008 231.232 124.395 231.232 136.113C231.232 141.464 229.927 146.883 227.174 151.893C221.188 162.783 209.915 168.938 198.248 168.938C198.03 168.938 197.813 168.936 197.595 168.932C194.859 168.878 192.107 168.485 189.4 167.735L184.476 176.694C183.042 179.302 180.522 180.743 177.847 180.743Z" fill="#38B89A"/>
<path d="M18.9983 95.5621L18.1554 93.0334C16.8437 89.0973 18.8115 85.1618 22.7475 83.8499C26.3974 82.6331 30.6136 84.508 31.9256 88.4435L32.7683 90.9722C34.0324 94.765 31.8298 98.9319 28.18 100.148C24.2442 101.46 20.2624 99.3549 18.9983 95.5621ZM29.255 126.334L26.2098 117.198C24.8997 113.268 26.8677 109.332 30.8037 108.02C34.4537 106.804 38.6699 108.678 39.9798 112.609L44.8517 127.225C44.8973 127.362 44.7543 127.41 44.802 127.553C44.9908 127.643 44.9908 127.643 45.0385 127.786C46.257 131.442 44.1019 135.751 40.452 136.968C31.5962 139.919 26.7697 149.334 29.6735 158.046C32.6234 166.897 42.0874 171.395 50.9431 168.443C56.7042 166.523 60.7297 161.743 61.8568 156.219C62.6943 152.189 66.5363 149.663 70.5679 150.505C74.4541 151.39 76.9351 155.096 76.0902 159.121C73.9367 169.52 66.3511 178.608 55.533 182.214C39.2285 187.648 21.479 178.887 16.0466 162.588C11.4093 148.675 17.2182 133.779 29.255 126.334Z" fill="#3A3A3A"/>
<path d="M45.6442 183.824C32.5946 183.824 20.3879 175.613 16.0466 162.588C14.9666 159.348 14.4531 156.054 14.4531 152.813C14.4531 142.14 20.0218 132.045 29.2551 126.334L26.2098 117.198C25.9372 116.381 25.8066 115.563 25.806 114.769C25.8038 111.744 27.6864 109.059 30.8037 108.02C31.5471 107.773 32.3148 107.653 33.0758 107.653C36.0511 107.653 38.9365 109.479 39.9798 112.609L44.8517 127.225C44.8581 127.244 44.8609 127.262 44.8609 127.278C44.8609 127.361 44.7918 127.411 44.7922 127.496C44.7922 127.514 44.7952 127.533 44.802 127.553C44.9908 127.643 44.9908 127.643 45.0385 127.786C45.2705 128.482 45.3801 129.202 45.3806 129.92C45.382 132.97 43.407 135.983 40.452 136.968C33.3434 139.337 28.8307 145.871 28.829 152.863C28.8288 154.581 29.1008 156.327 29.6736 158.046C32.0127 165.064 38.4487 169.346 45.4286 169.346C47.251 169.346 49.1098 169.055 50.9432 168.443C56.7042 166.523 60.7297 161.743 61.8568 156.219C62.5857 152.712 65.5902 150.343 69.0146 150.343C69.5251 150.343 70.0447 150.396 70.5679 150.505C73.942 151.274 76.2563 154.168 76.2553 157.551C76.2553 158.065 76.2017 158.59 76.0902 159.121C73.9367 169.52 66.3511 178.608 55.533 182.214C52.2579 183.305 48.9241 183.824 45.6442 183.824ZM25.8087 100.539C22.7442 100.539 20.0068 98.5875 18.9983 95.5621L18.1555 93.0334C17.8812 92.2108 17.7504 91.3883 17.7508 90.5896C17.7521 87.5668 19.6341 84.8874 22.7476 83.8499C23.4909 83.6021 24.2581 83.4822 25.0191 83.4822C27.9947 83.4822 30.8809 85.3093 31.9257 88.4435L32.7683 90.9722C33.0127 91.7056 33.1276 92.4528 33.1273 93.1905C33.1265 96.2663 31.1242 99.167 28.18 100.148C27.384 100.414 26.5857 100.539 25.8087 100.539Z" fill="#38B89A"/>
<path d="M85.2749 104.709C81.6339 102.497 76.3589 99.1819 73.4523 96.8447C76.3589 99.1797 81.6302 102.491 85.2738 104.704L85.2749 104.709ZM70.5469 88.7041C70.5426 88.1909 70.5453 87.6597 70.5559 87.1141C70.5601 86.8573 70.5665 86.5951 70.5755 86.3324C70.5506 87.1539 70.5405 87.9489 70.5469 88.7041ZM70.602 85.5778C70.6052 85.4977 70.6084 85.4175 70.6116 85.3379C70.6084 85.4181 70.6052 85.4977 70.602 85.5778ZM70.6371 84.7802C70.6583 84.292 70.6859 83.7984 70.7193 83.3028C70.8509 81.2363 71.0462 79.1056 71.2771 77.0779C71.2967 76.8995 71.3148 76.726 71.337 76.5541C71.0271 79.2266 70.7681 82.0987 70.6371 84.7802ZM71.3445 76.4893C71.3816 76.1343 71.4262 75.7878 71.4702 75.4412C71.5106 75.0809 71.5589 74.7301 71.605 74.3836C71.6501 74.0227 71.6995 73.6666 71.7488 73.319C71.6093 74.3226 71.4724 75.3892 71.3445 76.4893ZM71.8216 72.8043C71.8231 72.7894 71.8253 72.7746 71.8269 72.7602C71.8704 72.4599 71.9139 72.1664 71.9574 71.8788C71.9123 72.1791 71.8667 72.489 71.8216 72.8043ZM72.0121 71.5232C72.0153 71.4993 72.019 71.4754 72.0222 71.4516C72.0227 71.4505 72.0232 71.4494 72.0237 71.4489C72.0195 71.4733 72.0158 71.4983 72.0121 71.5232Z" fill="#E1E1DE"/>
<path d="M72.0215 71.4514C72.0422 71.3145 72.0645 71.1792 72.0857 71.0465C72.065 71.1787 72.0438 71.3129 72.0231 71.4488C72.0225 71.4493 72.022 71.4504 72.0215 71.4514Z" fill="#38B89A" fill-opacity="0.22"/>
<path d="M72.0859 71.0466C72.0886 71.0307 72.0907 71.0148 72.0934 70.9994C72.1364 70.725 72.1793 70.4607 72.2244 70.2034C72.1783 70.4745 72.1326 70.7563 72.0859 71.0466ZM72.2722 69.9216C72.4059 69.1399 72.5375 68.4489 72.6607 67.8737C72.5381 68.4495 72.4065 69.141 72.2722 69.9216ZM73.9752 64.0039C74.0818 63.8028 74.189 63.6187 74.2978 63.4515C74.3997 63.2955 74.5027 63.1538 74.6088 63.0248C74.3939 63.2907 74.1821 63.6149 73.9752 64.0039ZM75.0615 62.5525C75.0795 62.5366 75.0981 62.5207 75.1161 62.5058C75.321 62.336 75.5327 62.2166 75.7344 62.1444C75.8506 62.1025 75.9658 62.0749 76.0804 62.0611C75.7461 62.103 75.4027 62.2596 75.0615 62.5525Z" fill="#142228"/>
<path d="M119.88 96.5779C118.35 96.5779 116.809 96.4463 115.271 96.1788C114.379 96.0233 113.5 95.8243 112.64 95.5839C112.402 94.4546 110.445 93.4092 108.212 93.4092C107.924 93.4092 107.632 93.4267 107.339 93.4633C104.379 91.8893 101.78 89.7835 99.6425 87.2941C99.0832 86.6414 98.5525 85.9579 98.051 85.2457C97.5363 84.5128 97.0602 83.7603 96.6251 82.9913C94.4206 79.0839 93.1852 74.606 93.1836 69.9376C93.1836 69.4446 93.1969 68.9505 93.2245 68.4538C93.2834 67.4179 93.4028 66.3799 93.5832 65.3429C94.6249 59.3505 97.6047 54.1721 101.765 50.3384C102.625 49.5482 103.543 48.8084 104.514 48.1244C105.464 47.4563 106.447 46.855 107.457 46.3217C110.714 44.6065 114.338 43.5536 118.124 43.309C118.681 43.2734 119.24 43.2554 119.802 43.2554C121.334 43.2554 122.876 43.388 124.416 43.6571C129.308 44.5062 133.767 46.6581 137.41 49.8661C137.088 52.4622 137.221 55.0174 137.749 57.448C136.363 55.4537 134.648 53.6589 132.68 52.1565C130.343 50.3702 127.604 49.0727 124.733 48.386C123.294 48.0692 121.831 47.8702 120.371 47.832C120.239 47.8304 120.107 47.8293 119.975 47.8293C118.648 47.8293 117.326 47.9206 116.037 48.1626C113.207 48.6742 110.47 49.6575 108.143 51.2427C110.807 50.3469 113.528 49.8035 116.254 49.5742C116.987 49.5196 117.72 49.4909 118.453 49.4909C120.446 49.4909 122.43 49.7021 124.36 50.1665C125.688 50.4477 126.976 50.9062 128.234 51.4348C129.51 51.931 130.7 52.6267 131.893 53.3261C134.011 54.6539 135.983 56.256 137.879 58.0147C139.148 63.2064 142.221 67.7958 146.485 70.9703C146.437 72.1399 146.311 73.3138 146.107 74.4866C144.891 81.49 141.005 87.6056 135.173 91.711C130.623 94.9105 125.319 96.5779 119.88 96.5779ZM97.6334 75.107C98.4029 77.8777 99.7073 80.5316 101.468 82.8873C103.228 85.2441 105.509 87.2405 108.083 88.685C109.381 89.3834 110.733 89.9746 112.128 90.4103C113.527 90.8274 114.951 91.1453 116.387 91.2758C117.178 91.3538 117.972 91.3952 118.764 91.3947C120.836 91.3947 122.89 91.1134 124.822 90.4703C124.285 90.4957 123.75 90.5085 123.217 90.5085C120.96 90.5085 118.735 90.2829 116.564 89.8589C113.885 89.3102 111.294 88.407 108.928 87.0749C107.727 86.4413 106.613 85.6485 105.549 84.7962C104.456 83.971 103.502 82.9765 102.545 81.9772C100.689 79.9197 99.0965 77.5869 97.6334 75.107Z" fill="#6AE59E" fill-opacity="0.22"/>
<path d="M92.6673 65.1878C90.0584 80.1733 100.128 94.4868 115.113 97.0957C130.098 99.7045 144.412 89.6353 147.02 74.6499C149.629 59.665 139.56 45.3514 124.575 42.7426C109.59 40.1337 95.2761 50.2029 92.6673 65.1878ZM89.1483 64.5754C92.0947 47.6498 108.262 36.2773 125.188 39.2236C142.113 42.17 153.486 58.3372 150.539 75.2628C147.593 92.1879 131.426 103.561 114.5 100.615C97.575 97.6683 86.2019 81.501 89.1483 64.5754Z" fill="white"/>
<path d="M118.764 91.3945C117.972 91.3951 117.178 91.3537 116.387 91.2757C114.95 91.1451 113.526 90.8272 112.127 90.4101C110.733 89.9744 109.381 89.3832 108.082 88.6849C105.508 87.2403 103.228 85.2439 101.468 82.8871C99.7067 80.5314 98.4023 77.8775 97.6328 75.1068C99.0959 77.5867 100.688 79.9196 102.545 81.977C103.501 82.9763 104.456 83.9708 105.548 84.796C106.612 85.6483 107.727 86.4411 108.928 87.0748C111.294 88.4068 113.884 89.31 116.563 89.8587C118.735 90.2827 120.96 90.5083 123.216 90.5083C123.75 90.5083 124.285 90.4956 124.822 90.4701C122.889 91.1133 120.835 91.3945 118.764 91.3945Z" fill="#F9F9F8"/>
<path d="M36.0586 25.6806C36.0586 33.7704 42.6202 40.3323 50.7102 40.3323C53.9797 40.3323 56.9982 39.2598 59.4389 37.4427L66.6166 39.2752L63.6282 32.5917C64.7383 30.5311 65.3618 28.1743 65.3618 25.6806C65.3618 17.5904 58.8002 11.029 50.7102 11.029C42.6202 11.029 36.0586 17.5904 36.0586 25.6806Z" fill="white"/>
<path d="M36.0588 25.6806C36.0967 13.2101 50.641 6.38607 60.2704 14.3272C65.5872 18.6305 67.2207 26.7213 63.8533 32.7133L63.8618 32.4877L66.8291 39.1802L67.026 39.6233L66.559 39.5012L59.3923 37.6263C50.2131 44.5815 36.1369 38.0434 36.0588 25.6806ZM36.0588 25.6806C36.2878 37.8954 49.6982 44.3442 59.4858 37.2596L66.6741 39.0496L66.404 39.3701L63.3954 32.6963L63.3442 32.5827C67.8666 24.4415 63.2747 13.8756 54.2355 11.6244C45.1782 9.15676 36.0084 16.3125 36.0588 25.6806Z" fill="#17282F"/>
<path d="M51.6674 33.0822V33.5306C51.6674 34.2285 51.1442 34.7517 50.4466 34.7517C49.7996 34.7517 49.2256 34.2285 49.2256 33.5306V33.0822C49.2256 32.4103 49.7996 31.8627 50.4466 31.8627C51.1442 31.8627 51.6674 32.4103 51.6674 33.0822ZM51.6674 27.6278V29.2469C51.6674 29.9437 51.1442 30.467 50.4466 30.467C49.7996 30.467 49.2256 29.9437 49.2256 29.2469V26.6561L49.252 26.6063L49.2256 26.5569C49.2256 25.9089 49.7996 25.3358 50.4466 25.3358C52.0163 25.3358 53.286 24.0908 53.286 22.546C53.286 20.9773 52.0163 19.7567 50.4466 19.7567C49.4263 19.7567 48.5299 20.3049 48.0552 21.1264C47.7066 21.7245 46.9601 21.9235 46.3618 21.5748C45.7899 21.2267 45.589 20.5039 45.9379 19.9064C46.8344 18.3621 48.5299 17.3156 50.4466 17.3156C53.3368 17.3156 55.7035 19.657 55.7035 22.546C55.7035 25.0121 53.9837 27.0802 51.6674 27.6278Z" fill="#38B89A"/>
</g>
<path d="M15.9545 242.99V260.444H13.9091L4.39773 246.74H4.22727V260.444H2.11364V242.99H4.15909L13.7045 256.728H13.875V242.99H15.9545ZM25.2294 260.717C24.0476 260.717 23.0107 260.436 22.1186 259.873C21.2322 259.311 20.5391 258.524 20.0391 257.513C19.5447 256.501 19.2976 255.319 19.2976 253.967C19.2976 252.603 19.5447 251.413 20.0391 250.396C20.5391 249.379 21.2322 248.589 22.1186 248.027C23.0107 247.464 24.0476 247.183 25.2294 247.183C26.4112 247.183 27.4453 247.464 28.3317 248.027C29.2237 248.589 29.9169 249.379 30.4112 250.396C30.9112 251.413 31.1612 252.603 31.1612 253.967C31.1612 255.319 30.9112 256.501 30.4112 257.513C29.9169 258.524 29.2237 259.311 28.3317 259.873C27.4453 260.436 26.4112 260.717 25.2294 260.717ZM25.2294 258.91C26.1271 258.91 26.8658 258.68 27.4453 258.22C28.0249 257.76 28.4538 257.155 28.7322 256.405C29.0107 255.655 29.1499 254.842 29.1499 253.967C29.1499 253.092 29.0107 252.277 28.7322 251.521C28.4538 250.765 28.0249 250.155 27.4453 249.689C26.8658 249.223 26.1271 248.99 25.2294 248.99C24.3317 248.99 23.593 249.223 23.0135 249.689C22.4339 250.155 22.005 250.765 21.7266 251.521C21.4482 252.277 21.3089 253.092 21.3089 253.967C21.3089 254.842 21.4482 255.655 21.7266 256.405C22.005 257.155 22.4339 257.76 23.0135 258.22C23.593 258.68 24.3317 258.91 25.2294 258.91ZM47.5952 254.99H49.9134L51.8565 257.547L52.3679 258.228L55.2656 262.081H52.9474L51.0384 259.524L50.5611 258.876L47.5952 254.99ZM55.9815 251.717C55.9815 253.558 55.6491 255.149 54.9844 256.49C54.3196 257.831 53.4077 258.865 52.2486 259.592C51.0895 260.319 49.7656 260.683 48.277 260.683C46.7884 260.683 45.4645 260.319 44.3054 259.592C43.1463 258.865 42.2344 257.831 41.5696 256.49C40.9048 255.149 40.5724 253.558 40.5724 251.717C40.5724 249.876 40.9048 248.285 41.5696 246.944C42.2344 245.603 43.1463 244.569 44.3054 243.842C45.4645 243.115 46.7884 242.751 48.277 242.751C49.7656 242.751 51.0895 243.115 52.2486 243.842C53.4077 244.569 54.3196 245.603 54.9844 246.944C55.6491 248.285 55.9815 249.876 55.9815 251.717ZM53.9361 251.717C53.9361 250.206 53.6832 248.93 53.1776 247.89C52.6776 246.851 51.9986 246.064 51.1406 245.53C50.2884 244.995 49.3338 244.728 48.277 244.728C47.2202 244.728 46.2628 244.995 45.4048 245.53C44.5526 246.064 43.8736 246.851 43.3679 247.89C42.8679 248.93 42.6179 250.206 42.6179 251.717C42.6179 253.228 42.8679 254.504 43.3679 255.544C43.8736 256.584 44.5526 257.37 45.4048 257.905C46.2628 258.439 47.2202 258.706 48.277 258.706C49.3338 258.706 50.2884 258.439 51.1406 257.905C51.9986 257.37 52.6776 256.584 53.1776 255.544C53.6832 254.504 53.9361 253.228 53.9361 251.717ZM67.5128 255.092V247.353H69.5241V260.444H67.5128V258.228H67.3764C67.0696 258.893 66.5923 259.459 65.9446 259.924C65.2969 260.385 64.4787 260.615 63.4901 260.615C62.6719 260.615 61.9446 260.436 61.3082 260.078C60.6719 259.714 60.1719 259.169 59.8082 258.441C59.4446 257.709 59.2628 256.785 59.2628 255.672V247.353H61.2741V255.535C61.2741 256.49 61.5412 257.251 62.0753 257.819C62.6151 258.388 63.3026 258.672 64.1378 258.672C64.6378 258.672 65.1463 258.544 65.6634 258.288C66.1861 258.032 66.6236 257.64 66.9759 257.112C67.3338 256.584 67.5128 255.91 67.5128 255.092ZM78.6967 260.717C77.4354 260.717 76.3473 260.439 75.4325 259.882C74.5234 259.319 73.8217 258.535 73.3274 257.53C72.8388 256.518 72.5945 255.342 72.5945 254.001C72.5945 252.66 72.8388 251.478 73.3274 250.456C73.8217 249.427 74.5092 248.626 75.3899 248.052C76.2763 247.473 77.3104 247.183 78.4922 247.183C79.174 247.183 79.8473 247.297 80.5121 247.524C81.1768 247.751 81.782 248.12 82.3274 248.632C82.8729 249.138 83.3075 249.808 83.6314 250.643C83.9553 251.478 84.1172 252.507 84.1172 253.728V254.581H74.0263V252.842H82.0717C82.0717 252.103 81.924 251.444 81.6286 250.865C81.3388 250.285 80.924 249.828 80.3842 249.493C79.8501 249.157 79.2195 248.99 78.4922 248.99C77.6911 248.99 76.9979 249.189 76.4126 249.586C75.8331 249.978 75.3871 250.49 75.0746 251.12C74.7621 251.751 74.6058 252.427 74.6058 253.149V254.308C74.6058 255.297 74.7763 256.135 75.1172 256.822C75.4638 257.504 75.9439 258.024 76.5575 258.382C77.1712 258.734 77.8842 258.91 78.6967 258.91C79.2251 258.91 79.7024 258.836 80.1286 258.689C80.5604 258.535 80.9325 258.308 81.245 258.007C81.5575 257.7 81.799 257.319 81.9695 256.865L83.9126 257.41C83.7081 258.069 83.3643 258.649 82.8814 259.149C82.3984 259.643 81.8018 260.03 81.0916 260.308C80.3814 260.581 79.5831 260.717 78.6967 260.717ZM96.4496 250.285L94.6428 250.797C94.5291 250.495 94.3615 250.203 94.1399 249.919C93.924 249.629 93.6286 249.39 93.2536 249.203C92.8786 249.015 92.3984 248.922 91.8132 248.922C91.0121 248.922 90.3445 249.106 89.8104 249.476C89.282 249.839 89.0178 250.302 89.0178 250.865C89.0178 251.365 89.1996 251.76 89.5632 252.049C89.9268 252.339 90.495 252.581 91.2678 252.774L93.2109 253.251C94.3814 253.535 95.2536 253.97 95.8274 254.555C96.4013 255.135 96.6882 255.882 96.6882 256.797C96.6882 257.547 96.4723 258.217 96.0405 258.808C95.6143 259.399 95.0178 259.865 94.2507 260.206C93.4837 260.547 92.5916 260.717 91.5746 260.717C90.2393 260.717 89.1342 260.427 88.2592 259.848C87.3842 259.268 86.8303 258.422 86.5973 257.308L88.5064 256.831C88.6882 257.535 89.032 258.064 89.5376 258.416C90.049 258.768 90.7166 258.944 91.5405 258.944C92.478 258.944 93.2223 258.745 93.7734 258.348C94.3303 257.944 94.6087 257.461 94.6087 256.899C94.6087 256.444 94.4496 256.064 94.1314 255.757C93.8132 255.444 93.3246 255.211 92.6655 255.058L90.4837 254.547C89.2848 254.263 88.4041 253.822 87.8416 253.226C87.2848 252.623 87.0064 251.87 87.0064 250.967C87.0064 250.228 87.2138 249.575 87.6286 249.007C88.049 248.439 88.62 247.993 89.3416 247.669C90.0689 247.345 90.8928 247.183 91.8132 247.183C93.1087 247.183 94.1257 247.467 94.8643 248.035C95.6087 248.603 96.1371 249.353 96.4496 250.285ZM105.409 247.353V249.058H98.625V247.353H105.409ZM100.602 244.217H102.614V256.694C102.614 257.263 102.696 257.689 102.861 257.973C103.031 258.251 103.247 258.439 103.509 258.535C103.776 258.626 104.057 258.672 104.352 258.672C104.574 258.672 104.756 258.66 104.898 258.638C105.04 258.609 105.153 258.586 105.239 258.569L105.648 260.376C105.511 260.427 105.321 260.478 105.077 260.53C104.832 260.586 104.523 260.615 104.148 260.615C103.58 260.615 103.023 260.493 102.477 260.248C101.938 260.004 101.489 259.632 101.131 259.132C100.778 258.632 100.602 258.001 100.602 257.24V244.217ZM108.435 260.444V247.353H110.446V260.444H108.435ZM109.457 245.172C109.065 245.172 108.727 245.038 108.443 244.771C108.165 244.504 108.026 244.183 108.026 243.808C108.026 243.433 108.165 243.112 108.443 242.845C108.727 242.578 109.065 242.444 109.457 242.444C109.849 242.444 110.185 242.578 110.463 242.845C110.747 243.112 110.889 243.433 110.889 243.808C110.889 244.183 110.747 244.504 110.463 244.771C110.185 245.038 109.849 245.172 109.457 245.172ZM119.448 260.717C118.266 260.717 117.229 260.436 116.337 259.873C115.451 259.311 114.758 258.524 114.258 257.513C113.763 256.501 113.516 255.319 113.516 253.967C113.516 252.603 113.763 251.413 114.258 250.396C114.758 249.379 115.451 248.589 116.337 248.027C117.229 247.464 118.266 247.183 119.448 247.183C120.63 247.183 121.664 247.464 122.55 248.027C123.442 248.589 124.136 249.379 124.63 250.396C125.13 251.413 125.38 252.603 125.38 253.967C125.38 255.319 125.13 256.501 124.63 257.513C124.136 258.524 123.442 259.311 122.55 259.873C121.664 260.436 120.63 260.717 119.448 260.717ZM119.448 258.91C120.346 258.91 121.085 258.68 121.664 258.22C122.244 257.76 122.673 257.155 122.951 256.405C123.229 255.655 123.369 254.842 123.369 253.967C123.369 253.092 123.229 252.277 122.951 251.521C122.673 250.765 122.244 250.155 121.664 249.689C121.085 249.223 120.346 248.99 119.448 248.99C118.55 248.99 117.812 249.223 117.232 249.689C116.653 250.155 116.224 250.765 115.945 251.521C115.667 252.277 115.528 253.092 115.528 253.967C115.528 254.842 115.667 255.655 115.945 256.405C116.224 257.155 116.653 257.76 117.232 258.22C117.812 258.68 118.55 258.91 119.448 258.91ZM130.462 252.569V260.444H128.45V247.353H130.393V249.399H130.564C130.871 248.734 131.337 248.2 131.962 247.797C132.587 247.388 133.393 247.183 134.382 247.183C135.268 247.183 136.044 247.365 136.709 247.728C137.374 248.086 137.891 248.632 138.26 249.365C138.629 250.092 138.814 251.013 138.814 252.126V260.444H136.803V252.263C136.803 251.234 136.536 250.433 136.001 249.859C135.467 249.28 134.734 248.99 133.803 248.99C133.161 248.99 132.587 249.129 132.081 249.407C131.581 249.686 131.186 250.092 130.896 250.626C130.607 251.16 130.462 251.808 130.462 252.569ZM149.239 260.444V247.353H151.183V249.331H151.319C151.558 248.683 151.989 248.157 152.614 247.754C153.239 247.351 153.944 247.149 154.728 247.149C154.876 247.149 155.06 247.152 155.282 247.157C155.504 247.163 155.671 247.172 155.785 247.183V249.228C155.717 249.211 155.56 249.186 155.316 249.152C155.077 249.112 154.825 249.092 154.558 249.092C153.921 249.092 153.353 249.226 152.853 249.493C152.359 249.754 151.967 250.118 151.677 250.584C151.393 251.044 151.251 251.569 151.251 252.16V260.444H149.239ZM163.259 260.717C161.998 260.717 160.91 260.439 159.995 259.882C159.086 259.319 158.384 258.535 157.89 257.53C157.401 256.518 157.157 255.342 157.157 254.001C157.157 252.66 157.401 251.478 157.89 250.456C158.384 249.427 159.072 248.626 159.952 248.052C160.839 247.473 161.873 247.183 163.055 247.183C163.737 247.183 164.41 247.297 165.075 247.524C165.739 247.751 166.344 248.12 166.89 248.632C167.435 249.138 167.87 249.808 168.194 250.643C168.518 251.478 168.68 252.507 168.68 253.728V254.581H158.589V252.842H166.634C166.634 252.103 166.487 251.444 166.191 250.865C165.901 250.285 165.487 249.828 164.947 249.493C164.413 249.157 163.782 248.99 163.055 248.99C162.254 248.99 161.56 249.189 160.975 249.586C160.396 249.978 159.95 250.49 159.637 251.12C159.325 251.751 159.168 252.427 159.168 253.149V254.308C159.168 255.297 159.339 256.135 159.68 256.822C160.026 257.504 160.506 258.024 161.12 258.382C161.734 258.734 162.447 258.91 163.259 258.91C163.788 258.91 164.265 258.836 164.691 258.689C165.123 258.535 165.495 258.308 165.808 258.007C166.12 257.7 166.362 257.319 166.532 256.865L168.475 257.41C168.271 258.069 167.927 258.649 167.444 259.149C166.961 259.643 166.364 260.03 165.654 260.308C164.944 260.581 164.146 260.717 163.259 260.717ZM180.671 265.353V258.433H180.501C180.353 258.672 180.143 258.973 179.87 259.336C179.597 259.694 179.208 260.015 178.702 260.299C178.197 260.578 177.523 260.717 176.683 260.717C175.592 260.717 174.629 260.441 173.793 259.89C172.958 259.334 172.305 258.549 171.833 257.538C171.362 256.521 171.126 255.319 171.126 253.933C171.126 252.558 171.362 251.365 171.833 250.353C172.305 249.342 172.961 248.561 173.802 248.01C174.643 247.459 175.614 247.183 176.717 247.183C177.569 247.183 178.242 247.325 178.737 247.609C179.237 247.888 179.617 248.206 179.879 248.564C180.146 248.916 180.353 249.206 180.501 249.433H180.739V247.353H182.683V265.353H180.671ZM176.955 258.91C177.762 258.91 178.444 258.7 179.001 258.28C179.558 257.853 179.981 257.265 180.271 256.515C180.56 255.76 180.705 254.888 180.705 253.899C180.705 252.922 180.563 252.066 180.279 251.334C179.995 250.595 179.575 250.021 179.018 249.612C178.461 249.197 177.773 248.99 176.955 248.99C176.103 248.99 175.393 249.209 174.825 249.646C174.262 250.078 173.839 250.666 173.555 251.41C173.276 252.149 173.137 252.978 173.137 253.899C173.137 254.831 173.279 255.677 173.563 256.439C173.853 257.194 174.279 257.797 174.842 258.245C175.41 258.689 176.114 258.91 176.955 258.91ZM194.614 255.092V247.353H196.626V260.444H194.614V258.228H194.478C194.171 258.893 193.694 259.459 193.046 259.924C192.398 260.385 191.58 260.615 190.592 260.615C189.773 260.615 189.046 260.436 188.41 260.078C187.773 259.714 187.273 259.169 186.91 258.441C186.546 257.709 186.364 256.785 186.364 255.672V247.353H188.376V255.535C188.376 256.49 188.643 257.251 189.177 257.819C189.717 258.388 190.404 258.672 191.239 258.672C191.739 258.672 192.248 258.544 192.765 258.288C193.288 258.032 193.725 257.64 194.077 257.112C194.435 256.584 194.614 255.91 194.614 255.092ZM205.798 260.717C204.537 260.717 203.449 260.439 202.534 259.882C201.625 259.319 200.923 258.535 200.429 257.53C199.94 256.518 199.696 255.342 199.696 254.001C199.696 252.66 199.94 251.478 200.429 250.456C200.923 249.427 201.611 248.626 202.491 248.052C203.378 247.473 204.412 247.183 205.594 247.183C206.276 247.183 206.949 247.297 207.614 247.524C208.278 247.751 208.884 248.12 209.429 248.632C209.974 249.138 210.409 249.808 210.733 250.643C211.057 251.478 211.219 252.507 211.219 253.728V254.581H201.128V252.842H209.173C209.173 252.103 209.026 251.444 208.73 250.865C208.44 250.285 208.026 249.828 207.486 249.493C206.952 249.157 206.321 248.99 205.594 248.99C204.793 248.99 204.099 249.189 203.514 249.586C202.935 249.978 202.489 250.49 202.176 251.12C201.864 251.751 201.707 252.427 201.707 253.149V254.308C201.707 255.297 201.878 256.135 202.219 256.822C202.565 257.504 203.045 258.024 203.659 258.382C204.273 258.734 204.986 258.91 205.798 258.91C206.327 258.91 206.804 258.836 207.23 258.689C207.662 258.535 208.034 258.308 208.347 258.007C208.659 257.7 208.901 257.319 209.071 256.865L211.014 257.41C210.81 258.069 210.466 258.649 209.983 259.149C209.5 259.643 208.903 260.03 208.193 260.308C207.483 260.581 206.685 260.717 205.798 260.717ZM223.551 250.285L221.744 250.797C221.631 250.495 221.463 250.203 221.241 249.919C221.026 249.629 220.73 249.39 220.355 249.203C219.98 249.015 219.5 248.922 218.915 248.922C218.114 248.922 217.446 249.106 216.912 249.476C216.384 249.839 216.119 250.302 216.119 250.865C216.119 251.365 216.301 251.76 216.665 252.049C217.028 252.339 217.597 252.581 218.369 252.774L220.312 253.251C221.483 253.535 222.355 253.97 222.929 254.555C223.503 255.135 223.79 255.882 223.79 256.797C223.79 257.547 223.574 258.217 223.142 258.808C222.716 259.399 222.119 259.865 221.352 260.206C220.585 260.547 219.693 260.717 218.676 260.717C217.341 260.717 216.236 260.427 215.361 259.848C214.486 259.268 213.932 258.422 213.699 257.308L215.608 256.831C215.79 257.535 216.134 258.064 216.639 258.416C217.151 258.768 217.818 258.944 218.642 258.944C219.58 258.944 220.324 258.745 220.875 258.348C221.432 257.944 221.71 257.461 221.71 256.899C221.71 256.444 221.551 256.064 221.233 255.757C220.915 255.444 220.426 255.211 219.767 255.058L217.585 254.547C216.386 254.263 215.506 253.822 214.943 253.226C214.386 252.623 214.108 251.87 214.108 250.967C214.108 250.228 214.315 249.575 214.73 249.007C215.151 248.439 215.722 247.993 216.443 247.669C217.17 247.345 217.994 247.183 218.915 247.183C220.21 247.183 221.227 247.467 221.966 248.035C222.71 248.603 223.239 249.353 223.551 250.285ZM232.511 247.353V249.058H225.727V247.353H232.511ZM227.704 244.217H229.715V256.694C229.715 257.263 229.798 257.689 229.962 257.973C230.133 258.251 230.349 258.439 230.61 258.535C230.877 258.626 231.158 258.672 231.454 258.672C231.675 258.672 231.857 258.66 231.999 258.638C232.141 258.609 232.255 258.586 232.34 258.569L232.749 260.376C232.613 260.427 232.423 260.478 232.178 260.53C231.934 260.586 231.624 260.615 231.249 260.615C230.681 260.615 230.124 260.493 229.579 260.248C229.039 260.004 228.59 259.632 228.232 259.132C227.88 258.632 227.704 258.001 227.704 257.24V244.217ZM244.575 250.285L242.768 250.797C242.654 250.495 242.487 250.203 242.265 249.919C242.049 249.629 241.754 249.39 241.379 249.203C241.004 249.015 240.523 248.922 239.938 248.922C239.137 248.922 238.469 249.106 237.935 249.476C237.407 249.839 237.143 250.302 237.143 250.865C237.143 251.365 237.325 251.76 237.688 252.049C238.052 252.339 238.62 252.581 239.393 252.774L241.336 253.251C242.506 253.535 243.379 253.97 243.952 254.555C244.526 255.135 244.813 255.882 244.813 256.797C244.813 257.547 244.597 258.217 244.165 258.808C243.739 259.399 243.143 259.865 242.376 260.206C241.609 260.547 240.717 260.717 239.7 260.717C238.364 260.717 237.259 260.427 236.384 259.848C235.509 259.268 234.955 258.422 234.722 257.308L236.631 256.831C236.813 257.535 237.157 258.064 237.663 258.416C238.174 258.768 238.842 258.944 239.665 258.944C240.603 258.944 241.347 258.745 241.898 258.348C242.455 257.944 242.734 257.461 242.734 256.899C242.734 256.444 242.575 256.064 242.256 255.757C241.938 255.444 241.45 255.211 240.79 255.058L238.609 254.547C237.41 254.263 236.529 253.822 235.967 253.226C235.41 252.623 235.131 251.87 235.131 250.967C235.131 250.228 235.339 249.575 235.754 249.007C236.174 248.439 236.745 247.993 237.467 247.669C238.194 247.345 239.018 247.183 239.938 247.183C241.234 247.183 242.251 247.467 242.989 248.035C243.734 248.603 244.262 249.353 244.575 250.285Z" fill="#7B849A"/>
<defs>
<clipPath id="clip0_3455_6901">
<rect width="220" height="222.444" fill="white" transform="translate(13)"/>
</clipPath>
</defs>
</svg>
