<svg width="50" height="50" viewBox="0 0 50 50" fill="none" xmlns="http://www.w3.org/2000/svg">
<path d="M0 8.45012C0 3.78332 3.78319 0.00012207 8.45 0.00012207H41.55C46.2168 0.00012207 50 3.78332 50 8.45012V41.5501C50 46.2169 46.2168 50.0001 41.55 50.0001H8.45C3.7832 50.0001 0 46.2169 0 41.5501V8.45012Z" fill="#38B89A" fill-opacity="0.1"/>
<circle cx="24.999" cy="18.9996" r="4" fill="#38B89A"/>
<path opacity="0.4" d="M32.9995 30.4999C32.9995 32.9852 32.9995 34.9999 24.9995 34.9999C16.9995 34.9999 16.9995 32.9852 16.9995 30.4999C16.9995 28.0147 20.5812 25.9999 24.9995 25.9999C29.4178 25.9999 32.9995 28.0147 32.9995 30.4999Z" fill="#38B89A"/>
</svg>
