<svg width="24" height="25" viewBox="0 0 24 25" fill="none" xmlns="http://www.w3.org/2000/svg">
<path opacity="0.5" d="M19.9581 12.3257C19.9581 16.7335 16.3849 20.3067 11.9771 20.3067C7.56932 20.3067 3.99609 16.7335 3.99609 12.3257C3.99609 7.91794 7.56932 4.34473 11.9771 4.34473C16.3849 4.34473 19.9581 7.91794 19.9581 12.3257Z" fill="#38B89A"/>
<path d="M15.1867 9.90676C15.4204 10.1405 15.4204 10.5195 15.1867 10.7533L11.1962 14.7438C10.9624 14.9775 10.5834 14.9775 10.3496 14.7438L8.75344 13.1476C8.51969 12.9138 8.51969 12.5348 8.75344 12.3011C8.9872 12.0673 9.3662 12.0673 9.59996 12.3011L10.7729 13.474L12.5565 11.6904L14.3402 9.90676C14.5739 9.67301 14.9529 9.67301 15.1867 9.90676Z" fill="#38B89A"/>
</svg>
