<svg width="49" height="49" viewBox="0 0 49 49" fill="none" xmlns="http://www.w3.org/2000/svg">
<path opacity="0.5" d="M40.3337 24.2545C40.3337 33.1378 33.1323 40.3392 24.2489 40.3392C15.3655 40.3392 8.16406 33.1378 8.16406 24.2545C8.16406 15.3711 15.3655 8.16968 24.2489 8.16968C33.1323 8.16968 40.3337 15.3711 40.3337 24.2545Z" fill="white"/>
<path d="M30.7172 19.3795C31.1883 19.8506 31.1883 20.6144 30.7172 21.0855L22.6748 29.1279C22.2037 29.599 21.4399 29.599 20.9687 29.1279L17.7518 25.9109C17.2807 25.4398 17.2807 24.676 17.7518 24.2049C18.2229 23.7338 18.9867 23.7338 19.4578 24.2049L21.8218 26.5688L25.4165 22.9741L29.0112 19.3795C29.4823 18.9083 30.2461 18.9083 30.7172 19.3795Z" fill="white"/>
</svg>
