<svg width="49" height="49" viewBox="0 0 49 49" fill="none" xmlns="http://www.w3.org/2000/svg">
<path opacity="0.5" d="M40.7986 24.2535C40.7986 33.1369 33.5972 40.3382 24.7137 40.3382C15.8303 40.3382 8.62891 33.1369 8.62891 24.2535C8.62891 15.3701 15.8303 8.1687 24.7137 8.1687C33.5972 8.1687 40.7986 15.3701 40.7986 24.2535Z" fill="#F52E2E"/>
<path d="M19.8338 19.3797C20.3049 18.9086 21.0687 18.9086 21.5399 19.3797L24.7081 22.5479L27.8762 19.3797C28.3473 18.9086 29.1112 18.9086 29.5823 19.3797C30.0534 19.8508 30.0534 20.6147 29.5823 21.0858L26.4141 24.2539L29.5822 27.4221C30.0534 27.8932 30.0534 28.657 29.5822 29.1281C29.1111 29.5992 28.3473 29.5992 27.8762 29.1281L24.7081 25.96L21.5399 29.1281C21.0688 29.5992 20.305 29.5992 19.8338 29.1281C19.3627 28.657 19.3627 27.8932 19.8338 27.4221L23.002 24.2539L19.8338 21.0857C19.3627 20.6146 19.3627 19.8508 19.8338 19.3797Z" fill="#F52E2E"/>
</svg>
