<svg width="19" height="19" viewBox="0 0 19 19" fill="none" xmlns="http://www.w3.org/2000/svg">
<path fill-rule="evenodd" clip-rule="evenodd" d="M8.92815 0.984016C8.92815 0.6358 9.21044 0.353516 9.55865 0.353516C14.5497 0.353516 18.5958 4.39959 18.5958 9.39068C18.5958 14.3818 14.5497 18.4278 9.55865 18.4278C4.56756 18.4278 0.521484 14.3818 0.521484 9.39068C0.521484 9.04247 0.803769 8.76018 1.15198 8.76018C1.5002 8.76018 1.78248 9.04247 1.78248 9.39068C1.78248 13.6853 5.26399 17.1668 9.55865 17.1668C13.8533 17.1668 17.3348 13.6853 17.3348 9.39068C17.3348 5.09602 13.8533 1.61452 9.55865 1.61452C9.21044 1.61452 8.92815 1.33223 8.92815 0.984016ZM9.55865 6.23818C9.90687 6.23818 10.1892 6.52047 10.1892 6.86868V9.60085H12.9213C13.2695 9.60085 13.5518 9.88313 13.5518 10.2313C13.5518 10.5796 13.2695 10.8618 12.9213 10.8618H9.55865C9.21044 10.8618 8.92815 10.5796 8.92815 10.2313V6.86868C8.92815 6.52047 9.21044 6.23818 9.55865 6.23818Z" fill="#7B849A"/>
<path fill-rule="evenodd" clip-rule="evenodd" d="M7.12036 1.31821C7.24576 1.64307 7.08407 2.00807 6.75922 2.13347C6.64032 2.17937 6.52283 2.2281 6.40682 2.2796C6.08856 2.42089 5.71602 2.27743 5.57473 1.95917C5.43344 1.6409 5.5769 1.26836 5.89517 1.12707C6.0301 1.06717 6.16678 1.01047 6.30511 0.957074C6.62996 0.831674 6.99496 0.993362 7.12036 1.31821ZM4.21849 2.86733C4.45863 3.11949 4.4489 3.51858 4.19674 3.75873C4.10454 3.84653 4.0145 3.93658 3.9267 4.02877C3.68655 4.28093 3.28746 4.29067 3.0353 4.05052C2.78314 3.81037 2.7734 3.41128 3.01355 3.15912C3.1155 3.05208 3.22004 2.94753 3.32709 2.84558C3.57925 2.60544 3.97834 2.61517 4.21849 2.86733ZM2.12713 5.40676C2.4454 5.54805 2.58886 5.92059 2.44757 6.23885C2.39607 6.35486 2.34733 6.47235 2.30144 6.59125C2.17604 6.9161 1.81103 7.07779 1.48618 6.95239C1.16133 6.82699 0.999642 6.46199 1.12504 6.13714C1.17844 5.99881 1.23514 5.86213 1.29504 5.7272C1.43633 5.40894 1.80887 5.26547 2.12713 5.40676Z" fill="#7B849A"/>
</svg>
