<svg width="91" height="87" viewBox="0 0 91 87" fill="none" xmlns="http://www.w3.org/2000/svg">
<rect x="3.97504" y="1.06098" width="84.8781" height="84.8781" rx="42.439" stroke="#7B849A" stroke-opacity="0.37" stroke-width="2.12195"/>
<path d="M70.9181 34.1299C74.9659 34.5276 77.7846 36.2013 79.0342 37.451C83.4299 41.8467 84.3411 45.9464 83.5221 49.4228C81.5736 57.6936 70.9679 59.0939 62.4707 59.0939H27.3414C20.9807 59.0939 13.877 58.4112 10.35 53.1179C8.67478 50.6037 7.9493 48.0321 7.79297 46.4687C7.79297 32.0401 19.2156 27.9263 24.9269 27.673M70.9181 34.1299C68.1501 33.8578 64.8073 34.1825 60.9984 35.6474C63.7038 34.6357 69.4752 32.9158 70.9181 34.1299ZM70.9181 34.1299C70.9181 25.9183 65.1467 10.0363 42.0609 12.2006C37.2135 12.8931 28.6439 16.9889 24.9269 27.673M24.9269 27.673C23.8035 30.9022 23.1234 34.7334 23.1234 39.2544C23.1234 36.0424 23.4841 29.2292 24.9269 27.673Z" stroke="#CED1DA" stroke-width="1.80358"/>
<rect x="27.793" y="40" width="38.1951" height="38.1951" rx="19.0976" fill="#28A4AD"/>
<path d="M47.6408 49.8597C47.2265 49.4454 46.5547 49.4454 46.1404 49.8597L39.3884 56.6117C38.9741 57.0261 38.9741 57.6979 39.3884 58.1122C39.8027 58.5265 40.4745 58.5265 40.8888 58.1122L46.8906 52.1104L52.8924 58.1122C53.3067 58.5265 53.9785 58.5265 54.3929 58.1122C54.8072 57.6979 54.8072 57.0261 54.3929 56.6117L47.6408 49.8597ZM47.9516 69.7075L47.9516 50.61L45.8296 50.61L45.8296 69.7075L47.9516 69.7075Z" fill="white"/>
</svg>
