<svg width="608" height="806" viewBox="0 0 608 806" fill="none" xmlns="http://www.w3.org/2000/svg">
<rect x="83.3129" y="170.577" width="418.294" height="419.38" rx="209.147" fill="#F2F3F5"/>
<g clip-path="url(#clip0_3161_5075)">
<rect x="103.956" y="215.123" width="377.008" height="283.571" rx="13.0377" fill="white"/>
<circle cx="137.094" cy="249.347" r="4.88915" fill="#D9D9D9"/>
<circle cx="154.477" cy="249.347" r="4.88915" fill="#38B89A"/>
<circle cx="171.861" cy="249.347" r="4.88915" fill="#38B89A"/>
<circle cx="293.003" cy="471.531" r="10.8648" stroke="black" stroke-width="2.17296"/>
<path d="M116.45 438.394V267.817H190.874V438.394H116.45Z" fill="#38B89A"/>
<path d="M464.123 267.817H190.874M190.874 267.817H116.45V438.394H190.874V267.817Z" stroke="#38B89A" stroke-width="2.17296"/>
<rect x="126.229" y="314.535" width="57.5833" height="5.43239" rx="2.71619" stroke="black" stroke-width="1.08648"/>
<rect x="126.229" y="326.487" width="57.5833" height="5.43239" rx="2.71619" stroke="black" stroke-width="1.08648"/>
<rect x="126.229" y="338.438" width="57.5833" height="5.43239" rx="2.71619" stroke="black" stroke-width="1.08648"/>
<rect x="126.229" y="350.389" width="57.5833" height="5.43239" rx="2.71619" stroke="black" stroke-width="1.08648"/>
<rect x="126.229" y="362.34" width="57.5833" height="5.43239" rx="2.71619" stroke="black" stroke-width="1.08648"/>
<circle cx="134.921" cy="294.979" r="9.23506" fill="white"/>
<rect x="125.686" y="313.992" width="58.6698" height="6.51887" rx="3.25943" fill="white"/>
<rect x="125.686" y="325.943" width="58.6698" height="6.51887" rx="3.25943" fill="white"/>
<rect x="125.686" y="337.895" width="58.6698" height="6.51887" rx="3.25943" fill="white"/>
<rect x="125.686" y="349.846" width="58.6698" height="6.51887" rx="3.25943" fill="white"/>
<rect x="125.686" y="361.797" width="58.6698" height="6.51887" rx="3.25943" fill="white"/>
<rect x="125.686" y="373.748" width="29.3349" height="6.51887" rx="3.25943" fill="white"/>
<rect x="211.517" y="292.262" width="32.5943" height="6.51887" rx="3.25943" fill="#EFF0F2"/>
<rect x="211.517" y="310.733" width="57.5833" height="6.51887" rx="3.25943" fill="#EFF0F2"/>
<path d="M281.052 341.154H261.495V391.132H281.052V341.154Z" fill="#EFF0F2"/>
<path d="M328.857 373.748H309.3V397.651H328.857V373.748Z" fill="#EFF0F2"/>
<path d="M376.662 309.646H357.105V375.921H376.662V309.646Z" fill="#EFF0F2"/>
<path d="M423.38 341.154H403.824V372.662H423.38V341.154Z" fill="#EFF0F2"/>
<path d="M233.247 362.884H213.69V396.564H233.247V362.884Z" fill="#EFF0F2"/>
<path d="M213.69 410.689V400.91H233.247V410.689H213.69Z" fill="#38B89A"/>
<path d="M262.582 410.689V395.478H282.138V410.689H262.582Z" fill="#38B89A"/>
<path d="M309.3 410.689V400.91H328.857V410.689H309.3Z" fill="#38B89A"/>
<path d="M357.105 410.689V379.181H376.662V410.689H357.105Z" fill="#38B89A"/>
<path d="M404.91 410.689V375.921H424.467V410.689H404.91Z" fill="#38B89A"/>
<line x1="138.723" y1="447.086" x2="340.808" y2="447.086" stroke="#7C809B" stroke-width="1.08648"/>
<line x1="348.413" y1="447.086" x2="357.105" y2="447.086" stroke="#7C809B" stroke-width="1.08648"/>
<path d="M213.706 391.132C213.163 379.724 226.092 358.429 282.155 364.513C350.043 367.773 395.691 348.107 415.248 306.387" stroke="#38B89A" stroke-width="3.25943"/>
<path d="M213.706 385.7C213.163 374.292 226.092 352.997 282.155 359.081C350.043 362.34 406.54 366.034 426.097 324.314" stroke="#AD68C7" stroke-width="3.25943"/>
</g>
<rect x="105.042" y="216.209" width="374.835" height="281.398" rx="11.9513" stroke="#7C809B" stroke-width="2.17296"/>
<path d="M260.409 215.666C246.103 201.723 222.708 166.774 243.568 138.526C250.268 131.464 266.167 121.794 276.163 139.612C276.887 146.675 273.447 159.169 253.89 152.65C248.276 150.296 237.701 140.808 240.309 121.686C241.758 111.545 257.475 92.1334 308.757 95.6102" stroke="black" stroke-width="2.17296"/>
<path d="M305.498 69.5347L395.675 76.0535L317.449 86.3751L305.498 69.5347Z" fill="#38B89A"/>
<path d="M334.289 110.821L395.675 76.0535L319.622 90.1777L334.289 110.821Z" fill="#38B89A"/>
<path d="M317.449 86.375L395.675 76.0535L319.622 90.1777L325.597 98.3263L315.819 104.302L317.449 86.375Z" fill="#20715E"/>
<line x1="83.3129" y1="562.252" x2="512.472" y2="562.252" stroke="#484F75" stroke-width="1.08648"/>
<circle cx="492.915" cy="212.95" r="57.0401" stroke="#3A3A3A" stroke-width="1.08648"/>
<circle cx="492.372" cy="214.579" r="54.8671" fill="#3A3A3A"/>
<circle cx="77.8805" cy="403.083" r="57.0401" stroke="#AD68C7" stroke-width="1.08648"/>
<circle cx="77.3373" cy="404.713" r="54.8671" fill="#AD68C7"/>
<path d="M53.978 426.986V421.01H65.386V426.986H53.978Z" fill="white"/>
<path d="M83.3129 412.862H72.4481V426.986H83.3129V412.862Z" fill="white"/>
<path d="M100.697 401.454H88.7453V426.986H100.697V401.454Z" fill="white"/>
<path d="M53.978 416.121V410.689C73.5346 402.431 87.1155 390.227 91.4615 385.156H83.3129V381.354H100.697V397.108H96.8938L94.1777 391.132C83.7475 402.866 63.0319 412.681 53.978 416.121Z" fill="white"/>
<path d="M518.991 215.123C518.991 220.71 517.334 226.171 514.23 230.817C511.126 235.462 506.714 239.083 501.552 241.221C496.391 243.359 490.711 243.918 485.231 242.828C479.751 241.738 474.718 239.048 470.767 235.097C466.817 231.147 464.126 226.113 463.036 220.634C461.946 215.154 462.506 209.474 464.644 204.312C466.782 199.151 470.403 194.739 475.048 191.635C479.694 188.531 485.155 186.874 490.742 186.874V215.123H518.991Z" fill="white"/>
<path d="M497.594 185.095C504.463 185.35 511.004 188.1 515.991 192.831C520.978 197.562 524.069 203.949 524.684 210.795L496.55 213.325L497.594 185.095Z" fill="white"/>
<path d="M72.4481 194.044H-47.3822C-50.729 194.044 -54.2665 193.389 -56.5324 190.926C-56.6548 190.793 -56.7698 190.661 -56.8777 190.531C-59.4772 187.39 -59.1344 182.275 -56.2944 179.349C-52.5355 175.477 -46.0343 174.781 -42.2934 174.38C-42.5098 173.406 -42.6336 172.205 -42.6667 170.903C-42.8586 163.355 -37.5428 155.586 -30.0108 156.118C-24.5258 156.505 -20.5562 160.606 -18.8161 163.622C-12.7318 131.028 9.0702 124.328 19.2107 125.053C53.1088 122.88 60.859 154.206 60.4968 170.141C68.3607 168.175 74.2281 170.187 77.9817 172.834C81.3148 175.185 83.3411 179.129 83.3722 183.208C83.4324 191.092 76.6028 193.747 72.4481 194.044Z" fill="#F8F8F9"/>
<path d="M596.13 69.0989H476.3C472.953 69.0989 469.416 68.4439 467.15 65.9809C467.028 65.8477 466.913 65.716 466.805 65.5855C464.205 62.4445 464.548 57.3297 467.388 54.4042C471.147 50.5321 477.648 49.8355 481.389 49.4347C481.173 48.4608 481.049 47.26 481.016 45.9581C480.824 38.4098 486.14 30.6414 493.672 31.1729C499.157 31.56 503.126 35.6612 504.866 38.6774C510.951 6.08306 532.753 -0.616882 542.893 0.107441C576.791 -2.06551 584.541 29.2613 584.179 45.1963C592.043 43.2304 597.91 45.2423 601.664 47.8892C604.997 50.2397 607.023 54.1844 607.055 58.2628C607.115 66.1465 600.285 68.8021 596.13 69.0989Z" fill="#F8F8F9"/>
<path d="M345.154 498.693C346.965 514.628 359.713 549.649 396.219 562.252" stroke="#7C809B" stroke-width="2.17296"/>
<path d="M241.395 498.693C239.585 514.628 226.837 549.649 190.331 562.252" stroke="#7C809B" stroke-width="2.17296"/>
<path d="M83.213 721.678C81.3568 721.678 79.7175 721.364 78.2952 720.737C76.8729 720.087 75.752 719.17 74.9323 717.989C74.1127 716.784 73.6908 715.325 73.6667 713.614H78.5483C78.5965 714.795 79.0184 715.796 79.8139 716.615C80.6336 717.411 81.7545 717.808 83.1768 717.808C84.4062 717.808 85.3826 717.519 86.1058 716.941C86.829 716.338 87.1906 715.542 87.1906 714.554C87.1906 713.517 86.8651 712.71 86.2142 712.131C85.5875 711.553 84.7437 711.083 83.683 710.721C82.6224 710.359 81.4893 709.974 80.284 709.564C78.3314 708.889 76.8368 708.021 75.8002 706.96C74.7877 705.9 74.2814 704.49 74.2814 702.73C74.2573 701.235 74.6069 699.957 75.3301 698.897C76.0774 697.812 77.0899 696.98 78.3675 696.402C79.6452 695.799 81.1157 695.498 82.779 695.498C84.4665 695.498 85.9491 695.799 87.2267 696.402C88.5285 697.004 89.541 697.848 90.2642 698.933C91.0115 700.018 91.4092 701.307 91.4574 702.802H86.5035C86.4794 701.91 86.1299 701.127 85.4549 700.452C84.804 699.753 83.888 699.403 82.7067 699.403C81.6942 699.379 80.8385 699.632 80.1394 700.162C79.4644 700.669 79.1269 701.416 79.1269 702.404C79.1269 703.248 79.3921 703.923 79.9224 704.429C80.4528 704.911 81.176 705.321 82.092 705.659C83.0081 705.996 84.0567 706.358 85.2379 706.743C86.4915 707.177 87.6365 707.684 88.6731 708.262C89.7097 708.841 90.5414 709.612 91.1682 710.576C91.7949 711.517 92.1083 712.734 92.1083 714.229C92.1083 715.554 91.7708 716.784 91.0958 717.917C90.4209 719.05 89.4204 719.966 88.0946 720.665C86.7687 721.34 85.1415 721.678 83.213 721.678ZM104.644 721.678C102.909 721.678 101.342 721.28 99.9435 720.484C98.5694 719.689 97.4725 718.592 96.6529 717.194C95.8574 715.771 95.4596 714.132 95.4596 712.276C95.4596 710.42 95.8694 708.793 96.6891 707.394C97.5087 705.972 98.6055 704.863 99.9796 704.068C101.378 703.272 102.945 702.874 104.68 702.874C106.392 702.874 107.935 703.272 109.309 704.068C110.707 704.863 111.804 705.972 112.599 707.394C113.419 708.793 113.829 710.42 113.829 712.276C113.829 714.132 113.419 715.771 112.599 717.194C111.804 718.592 110.707 719.689 109.309 720.484C107.911 721.28 106.356 721.678 104.644 721.678ZM104.644 717.664C105.85 717.664 106.898 717.218 107.79 716.326C108.682 715.41 109.128 714.06 109.128 712.276C109.128 710.492 108.682 709.154 107.79 708.262C106.898 707.346 105.862 706.888 104.68 706.888C103.451 706.888 102.39 707.346 101.498 708.262C100.631 709.154 100.197 710.492 100.197 712.276C100.197 714.06 100.631 715.41 101.498 716.326C102.39 717.218 103.439 717.664 104.644 717.664ZM117.967 721.244V695.208H122.596V721.244H117.967ZM134.051 721.678C131.809 721.678 130.073 720.978 128.844 719.58C127.638 718.182 127.036 716.133 127.036 713.433V703.308H131.628V712.999C131.628 714.542 131.941 715.723 132.568 716.543C133.195 717.362 134.183 717.772 135.533 717.772C136.811 717.772 137.86 717.314 138.679 716.398C139.523 715.482 139.945 714.205 139.945 712.565V703.308H144.573V721.244H140.487L140.126 718.206C139.571 719.267 138.764 720.111 137.703 720.737C136.666 721.364 135.449 721.678 134.051 721.678ZM157.316 721.244C155.436 721.244 153.929 720.786 152.796 719.87C151.663 718.954 151.097 717.326 151.097 714.988V707.177H148.023V703.308H151.097L151.639 698.499H155.725V703.308H160.571V707.177H155.725V715.024C155.725 715.892 155.906 716.495 156.267 716.832C156.653 717.146 157.304 717.302 158.22 717.302H160.462V721.244H157.316ZM167.039 700.524C166.196 700.524 165.497 700.271 164.942 699.765C164.412 699.258 164.147 698.62 164.147 697.848C164.147 697.077 164.412 696.45 164.942 695.968C165.497 695.462 166.196 695.208 167.039 695.208C167.883 695.208 168.57 695.462 169.101 695.968C169.655 696.45 169.932 697.077 169.932 697.848C169.932 698.62 169.655 699.258 169.101 699.765C168.57 700.271 167.883 700.524 167.039 700.524ZM164.725 721.244V703.308H169.354V721.244H164.725ZM182.791 721.678C181.055 721.678 179.488 721.28 178.09 720.484C176.716 719.689 175.619 718.592 174.799 717.194C174.004 715.771 173.606 714.132 173.606 712.276C173.606 710.42 174.016 708.793 174.836 707.394C175.655 705.972 176.752 704.863 178.126 704.068C179.524 703.272 181.091 702.874 182.827 702.874C184.539 702.874 186.081 703.272 187.455 704.068C188.854 704.863 189.951 705.972 190.746 707.394C191.566 708.793 191.975 710.42 191.975 712.276C191.975 714.132 191.566 715.771 190.746 717.194C189.951 718.592 188.854 719.689 187.455 720.484C186.057 721.28 184.502 721.678 182.791 721.678ZM182.791 717.664C183.996 717.664 185.045 717.218 185.937 716.326C186.829 715.41 187.275 714.06 187.275 712.276C187.275 710.492 186.829 709.154 185.937 708.262C185.045 707.346 184.008 706.888 182.827 706.888C181.598 706.888 180.537 707.346 179.645 708.262C178.777 709.154 178.343 710.492 178.343 712.276C178.343 714.06 178.777 715.41 179.645 716.326C180.537 717.218 181.585 717.664 182.791 717.664ZM196.114 721.244V703.308H200.2L200.561 706.346C201.116 705.285 201.911 704.441 202.948 703.815C204.009 703.188 205.25 702.874 206.673 702.874C208.89 702.874 210.614 703.573 211.843 704.972C213.073 706.37 213.688 708.419 213.688 711.119V721.244H209.059V711.553C209.059 710.01 208.746 708.829 208.119 708.009C207.492 707.189 206.516 706.78 205.19 706.78C203.888 706.78 202.815 707.238 201.972 708.154C201.152 709.07 200.742 710.347 200.742 711.987V721.244H196.114ZM423.754 729.199V718.676C423.176 719.472 422.404 720.171 421.44 720.774C420.5 721.376 419.27 721.678 417.752 721.678C416.064 721.678 414.558 721.268 413.232 720.448C411.906 719.629 410.857 718.508 410.086 717.085C409.314 715.663 408.929 714.048 408.929 712.24C408.929 710.432 409.314 708.829 410.086 707.431C410.857 706.008 411.906 704.899 413.232 704.104C414.558 703.284 416.064 702.874 417.752 702.874C419.102 702.874 420.283 703.127 421.295 703.634C422.308 704.14 423.128 704.851 423.754 705.767L424.261 703.308H428.383V729.199H423.754ZM418.728 717.628C420.223 717.628 421.44 717.133 422.38 716.145C423.344 715.133 423.827 713.843 423.827 712.276C423.827 710.709 423.344 709.431 422.38 708.443C421.44 707.431 420.223 706.924 418.728 706.924C417.258 706.924 416.04 707.418 415.076 708.407C414.112 709.395 413.63 710.673 413.63 712.24C413.63 713.807 414.112 715.096 415.076 716.109C416.04 717.121 417.258 717.628 418.728 717.628ZM439.822 721.678C437.58 721.678 435.844 720.978 434.615 719.58C433.409 718.182 432.807 716.133 432.807 713.433V703.308H437.399V712.999C437.399 714.542 437.712 715.723 438.339 716.543C438.966 717.362 439.954 717.772 441.304 717.772C442.582 717.772 443.631 717.314 444.45 716.398C445.294 715.482 445.716 714.205 445.716 712.565V703.308H450.344V721.244H446.258L445.897 718.206C445.342 719.267 444.535 720.111 443.474 720.737C442.437 721.364 441.22 721.678 439.822 721.678ZM463.81 721.678C462.002 721.678 460.399 721.292 459.001 720.52C457.603 719.749 456.506 718.664 455.71 717.266C454.915 715.868 454.517 714.253 454.517 712.421C454.517 710.564 454.903 708.913 455.674 707.467C456.47 706.02 457.555 704.899 458.929 704.104C460.327 703.284 461.966 702.874 463.846 702.874C465.606 702.874 467.161 703.26 468.511 704.031C469.861 704.803 470.91 705.864 471.657 707.214C472.428 708.539 472.814 710.022 472.814 711.661C472.814 711.926 472.802 712.204 472.778 712.493C472.778 712.782 472.766 713.084 472.742 713.397H459.109C459.206 714.795 459.688 715.892 460.556 716.687C461.448 717.483 462.521 717.881 463.774 717.881C464.714 717.881 465.498 717.676 466.124 717.266C466.775 716.832 467.257 716.278 467.571 715.603H472.272C471.934 716.736 471.368 717.772 470.572 718.712C469.801 719.629 468.836 720.352 467.679 720.882C466.546 721.412 465.257 721.678 463.81 721.678ZM463.846 706.635C462.713 706.635 461.713 706.96 460.845 707.611C459.977 708.238 459.423 709.202 459.182 710.504H468.113C468.041 709.323 467.607 708.383 466.812 707.684C466.016 706.985 465.028 706.635 463.846 706.635ZM476.707 721.244V703.308H480.829L481.263 706.671C481.914 705.514 482.794 704.598 483.903 703.923C485.036 703.224 486.362 702.874 487.88 702.874V707.756H486.579C485.566 707.756 484.662 707.913 483.867 708.226C483.071 708.539 482.444 709.082 481.986 709.853C481.552 710.625 481.335 711.697 481.335 713.071V721.244H476.707ZM493.539 700.524C492.695 700.524 491.996 700.271 491.442 699.765C490.911 699.258 490.646 698.62 490.646 697.848C490.646 697.077 490.911 696.45 491.442 695.968C491.996 695.462 492.695 695.208 493.539 695.208C494.383 695.208 495.07 695.462 495.6 695.968C496.154 696.45 496.432 697.077 496.432 697.848C496.432 698.62 496.154 699.258 495.6 699.765C495.07 700.271 494.383 700.524 493.539 700.524ZM491.225 721.244V703.308H495.853V721.244H491.225ZM509.399 721.678C507.591 721.678 505.988 721.292 504.589 720.52C503.191 719.749 502.094 718.664 501.299 717.266C500.503 715.868 500.106 714.253 500.106 712.421C500.106 710.564 500.491 708.913 501.263 707.467C502.058 706.02 503.143 704.899 504.517 704.104C505.915 703.284 507.555 702.874 509.435 702.874C511.195 702.874 512.749 703.26 514.099 704.031C515.449 704.803 516.498 705.864 517.245 707.214C518.017 708.539 518.403 710.022 518.403 711.661C518.403 711.926 518.39 712.204 518.366 712.493C518.366 712.782 518.354 713.084 518.33 713.397H504.698C504.794 714.795 505.276 715.892 506.144 716.687C507.036 717.483 508.109 717.881 509.363 717.881C510.303 717.881 511.086 717.676 511.713 717.266C512.364 716.832 512.846 716.278 513.159 715.603H517.86C517.523 716.736 516.956 717.772 516.161 718.712C515.389 719.629 514.425 720.352 513.268 720.882C512.135 721.412 510.845 721.678 509.399 721.678ZM509.435 706.635C508.302 706.635 507.301 706.96 506.434 707.611C505.566 708.238 505.011 709.202 504.77 710.504H513.702C513.629 709.323 513.195 708.383 512.4 707.684C511.604 706.985 510.616 706.635 509.435 706.635ZM529.708 721.678C528.117 721.678 526.719 721.424 525.514 720.918C524.308 720.388 523.344 719.665 522.621 718.749C521.898 717.833 521.464 716.772 521.319 715.567H525.984C526.128 716.266 526.514 716.868 527.141 717.375C527.792 717.857 528.623 718.098 529.636 718.098C530.648 718.098 531.384 717.893 531.842 717.483C532.324 717.073 532.565 716.603 532.565 716.073C532.565 715.301 532.227 714.783 531.552 714.518C530.877 714.229 529.937 713.951 528.732 713.686C527.96 713.517 527.177 713.313 526.381 713.071C525.586 712.83 524.851 712.529 524.176 712.167C523.525 711.782 522.994 711.3 522.585 710.721C522.175 710.118 521.97 709.383 521.97 708.515C521.97 706.924 522.597 705.586 523.85 704.502C525.128 703.417 526.912 702.874 529.202 702.874C531.323 702.874 533.011 703.369 534.264 704.357C535.542 705.345 536.301 706.707 536.542 708.443H532.167C531.902 707.117 530.901 706.454 529.166 706.454C528.298 706.454 527.623 706.623 527.141 706.96C526.683 707.298 526.454 707.72 526.454 708.226C526.454 708.756 526.803 709.178 527.502 709.492C528.202 709.805 529.13 710.094 530.287 710.359C531.54 710.649 532.685 710.974 533.722 711.336C534.783 711.673 535.626 712.192 536.253 712.891C536.88 713.566 537.193 714.542 537.193 715.82C537.217 716.929 536.928 717.929 536.325 718.821C535.723 719.713 534.855 720.412 533.722 720.918C532.589 721.424 531.251 721.678 529.708 721.678Z" fill="#38B89A"/>
<path d="M238.699 721.678C236.168 721.678 233.95 721.123 232.045 720.014C230.165 718.905 228.682 717.375 227.598 715.422C226.537 713.445 226.007 711.167 226.007 708.588C226.007 706.008 226.537 703.742 227.598 701.79C228.682 699.813 230.165 698.27 232.045 697.161C233.95 696.052 236.168 695.498 238.699 695.498C241.206 695.498 243.412 696.052 245.316 697.161C247.22 698.27 248.703 699.813 249.764 701.79C250.824 703.742 251.355 706.008 251.355 708.588C251.355 711.167 250.824 713.445 249.764 715.422C248.703 717.375 247.22 718.905 245.316 720.014C243.412 721.123 241.206 721.678 238.699 721.678ZM238.699 717.519C241.109 717.519 243.026 716.724 244.448 715.133C245.895 713.542 246.618 711.36 246.618 708.588C246.618 705.815 245.895 703.634 244.448 702.043C243.026 700.452 241.109 699.656 238.699 699.656C236.288 699.656 234.36 700.452 232.913 702.043C231.467 703.634 230.744 705.815 230.744 708.588C230.744 711.36 231.467 713.542 232.913 715.133C234.36 716.724 236.288 717.519 238.699 717.519ZM256.165 721.244V707.177H253.706V703.308H256.165V701.211C256.165 699.041 256.707 697.499 257.792 696.583C258.901 695.666 260.395 695.208 262.276 695.208H264.264V699.15H262.999C262.203 699.15 261.637 699.307 261.299 699.62C260.962 699.933 260.793 700.464 260.793 701.211V703.308H264.662V707.177H260.793V721.244H256.165ZM277.053 721.244V695.932H281.681V721.244H277.053ZM293.891 721.678C292.3 721.678 290.902 721.424 289.697 720.918C288.491 720.388 287.527 719.665 286.804 718.749C286.081 717.833 285.647 716.772 285.502 715.567H290.167C290.311 716.266 290.697 716.868 291.324 717.375C291.975 717.857 292.806 718.098 293.819 718.098C294.831 718.098 295.567 717.893 296.025 717.483C296.507 717.073 296.748 716.603 296.748 716.073C296.748 715.301 296.41 714.783 295.735 714.518C295.06 714.229 294.12 713.951 292.915 713.686C292.144 713.517 291.36 713.313 290.565 713.071C289.769 712.83 289.034 712.529 288.359 712.167C287.708 711.782 287.178 711.3 286.768 710.721C286.358 710.118 286.153 709.383 286.153 708.515C286.153 706.924 286.78 705.586 288.033 704.502C289.311 703.417 291.095 702.874 293.385 702.874C295.506 702.874 297.194 703.369 298.447 704.357C299.725 705.345 300.484 706.707 300.726 708.443H296.35C296.085 707.117 295.085 706.454 293.349 706.454C292.481 706.454 291.806 706.623 291.324 706.96C290.866 707.298 290.637 707.72 290.637 708.226C290.637 708.756 290.986 709.178 291.686 709.492C292.385 709.805 293.313 710.094 294.47 710.359C295.723 710.649 296.868 710.974 297.905 711.336C298.966 711.673 299.809 712.192 300.436 712.891C301.063 713.566 301.376 714.542 301.376 715.82C301.401 716.929 301.111 717.929 300.509 718.821C299.906 719.713 299.038 720.412 297.905 720.918C296.772 721.424 295.434 721.678 293.891 721.678ZM305.477 721.244V695.208H310.105V721.244H305.477ZM321.018 721.678C319.475 721.678 318.209 721.437 317.221 720.954C316.233 720.448 315.497 719.785 315.015 718.966C314.533 718.146 314.292 717.242 314.292 716.254C314.292 714.59 314.943 713.24 316.245 712.204C317.546 711.167 319.499 710.649 322.103 710.649H326.659V710.215C326.659 708.985 326.309 708.081 325.61 707.503C324.911 706.924 324.043 706.635 323.007 706.635C322.066 706.635 321.247 706.864 320.548 707.322C319.849 707.756 319.415 708.407 319.246 709.275H314.726C314.846 707.973 315.28 706.84 316.028 705.876C316.799 704.911 317.788 704.176 318.993 703.67C320.198 703.14 321.548 702.874 323.043 702.874C325.598 702.874 327.611 703.513 329.081 704.791C330.552 706.069 331.287 707.877 331.287 710.215V721.244H327.346L326.912 718.351C326.382 719.315 325.634 720.111 324.67 720.737C323.73 721.364 322.512 721.678 321.018 721.678ZM322.066 718.062C323.392 718.062 324.417 717.628 325.14 716.76C325.887 715.892 326.357 714.819 326.55 713.542H322.609C321.379 713.542 320.5 713.771 319.969 714.229C319.439 714.663 319.174 715.205 319.174 715.856C319.174 716.555 319.439 717.097 319.969 717.483C320.5 717.869 321.199 718.062 322.066 718.062ZM335.704 721.244V703.308H339.79L340.188 705.731C340.767 704.863 341.526 704.176 342.466 703.67C343.43 703.14 344.539 702.874 345.793 702.874C348.565 702.874 350.53 703.947 351.687 706.093C352.338 705.104 353.206 704.321 354.29 703.742C355.399 703.164 356.605 702.874 357.906 702.874C360.245 702.874 362.041 703.573 363.294 704.972C364.548 706.37 365.175 708.419 365.175 711.119V721.244H360.546V711.553C360.546 710.01 360.245 708.829 359.642 708.009C359.063 707.189 358.159 706.78 356.93 706.78C355.677 706.78 354.664 707.238 353.893 708.154C353.145 709.07 352.772 710.347 352.772 711.987V721.244H348.143V711.553C348.143 710.01 347.842 708.829 347.239 708.009C346.637 707.189 345.708 706.78 344.455 706.78C343.225 706.78 342.225 707.238 341.454 708.154C340.706 709.07 340.333 710.347 340.333 711.987V721.244H335.704ZM372.064 700.524C371.22 700.524 370.521 700.271 369.967 699.765C369.436 699.258 369.171 698.62 369.171 697.848C369.171 697.077 369.436 696.45 369.967 695.968C370.521 695.462 371.22 695.208 372.064 695.208C372.908 695.208 373.595 695.462 374.125 695.968C374.679 696.45 374.957 697.077 374.957 697.848C374.957 698.62 374.679 699.258 374.125 699.765C373.595 700.271 372.908 700.524 372.064 700.524ZM369.75 721.244V703.308H374.378V721.244H369.75ZM387.996 721.678C386.164 721.678 384.549 721.28 383.151 720.484C381.752 719.689 380.643 718.58 379.824 717.158C379.028 715.735 378.631 714.108 378.631 712.276C378.631 710.444 379.028 708.817 379.824 707.394C380.643 705.972 381.752 704.863 383.151 704.068C384.549 703.272 386.164 702.874 387.996 702.874C390.286 702.874 392.215 703.477 393.782 704.682C395.349 705.864 396.349 707.503 396.783 709.6H391.901C391.66 708.732 391.178 708.057 390.455 707.575C389.756 707.069 388.924 706.816 387.96 706.816C386.682 706.816 385.597 707.298 384.705 708.262C383.814 709.226 383.368 710.564 383.368 712.276C383.368 713.988 383.814 715.325 384.705 716.29C385.597 717.254 386.682 717.736 387.96 717.736C388.924 717.736 389.756 717.495 390.455 717.013C391.178 716.531 391.66 715.844 391.901 714.952H396.783C396.349 716.977 395.349 718.604 393.782 719.833C392.215 721.063 390.286 721.678 387.996 721.678Z" fill="#14201B"/>
<path d="M129.144 769.508C127.633 769.508 126.328 769.178 125.228 768.518C124.143 767.843 123.299 766.912 122.698 765.724C122.097 764.521 121.796 763.128 121.796 761.544C121.796 759.974 122.097 758.596 122.698 757.408C123.299 756.205 124.143 755.266 125.228 754.592C126.328 753.917 127.633 753.58 129.144 753.58C130.904 753.58 132.334 754.005 133.434 754.856C134.549 755.692 135.26 756.865 135.568 758.376H133.522C133.287 757.422 132.803 756.66 132.07 756.088C131.351 755.501 130.376 755.208 129.144 755.208C128.044 755.208 127.083 755.464 126.262 755.978C125.441 756.476 124.803 757.202 124.348 758.156C123.908 759.094 123.688 760.224 123.688 761.544C123.688 762.864 123.908 764 124.348 764.954C124.803 765.892 125.441 766.618 126.262 767.132C127.083 767.63 128.044 767.88 129.144 767.88C130.376 767.88 131.351 767.601 132.07 767.044C132.803 766.472 133.287 765.716 133.522 764.778H135.568C135.26 766.259 134.549 767.418 133.434 768.254C132.334 769.09 130.904 769.508 129.144 769.508ZM143.086 769.508C142.059 769.508 141.135 769.273 140.314 768.804C139.492 768.334 138.84 767.674 138.356 766.824C137.886 765.958 137.652 764.946 137.652 763.788C137.652 762.629 137.894 761.624 138.378 760.774C138.862 759.908 139.514 759.241 140.336 758.772C141.172 758.302 142.103 758.068 143.13 758.068C144.156 758.068 145.08 758.302 145.902 758.772C146.723 759.241 147.368 759.908 147.838 760.774C148.322 761.624 148.564 762.629 148.564 763.788C148.564 764.946 148.322 765.958 147.838 766.824C147.354 767.674 146.694 768.334 145.858 768.804C145.036 769.273 144.112 769.508 143.086 769.508ZM143.086 767.924C143.716 767.924 144.303 767.77 144.846 767.462C145.388 767.154 145.828 766.692 146.166 766.076C146.503 765.46 146.672 764.697 146.672 763.788C146.672 762.878 146.503 762.116 146.166 761.5C145.843 760.884 145.41 760.422 144.868 760.114C144.325 759.806 143.746 759.652 143.13 759.652C142.499 759.652 141.912 759.806 141.37 760.114C140.827 760.422 140.387 760.884 140.05 761.5C139.712 762.116 139.544 762.878 139.544 763.788C139.544 764.697 139.712 765.46 140.05 766.076C140.387 766.692 140.82 767.154 141.348 767.462C141.89 767.77 142.47 767.924 143.086 767.924ZM151.133 769.244V758.332H152.805L152.915 760.29C153.267 759.6 153.773 759.058 154.433 758.662C155.093 758.266 155.841 758.068 156.677 758.068C157.968 758.068 158.995 758.464 159.757 759.256C160.535 760.033 160.923 761.236 160.923 762.864V769.244H159.075V763.062C159.075 760.788 158.137 759.652 156.259 759.652C155.321 759.652 154.536 759.996 153.905 760.686C153.289 761.36 152.981 762.328 152.981 763.59V769.244H151.133ZM163.723 769.244V758.332H165.395L165.505 760.29C165.857 759.6 166.363 759.058 167.023 758.662C167.683 758.266 168.431 758.068 169.267 758.068C170.558 758.068 171.585 758.464 172.347 759.256C173.125 760.033 173.513 761.236 173.513 762.864V769.244H171.665V763.062C171.665 760.788 170.727 759.652 168.849 759.652C167.911 759.652 167.126 759.996 166.495 760.686C165.879 761.36 165.571 762.328 165.571 763.59V769.244H163.723ZM181.219 769.508C180.178 769.508 179.254 769.273 178.447 768.804C177.64 768.32 177.002 767.652 176.533 766.802C176.078 765.951 175.851 764.946 175.851 763.788C175.851 762.644 176.078 761.646 176.533 760.796C176.988 759.93 177.618 759.263 178.425 758.794C179.246 758.31 180.192 758.068 181.263 758.068C182.319 758.068 183.228 758.31 183.991 758.794C184.768 759.263 185.362 759.886 185.773 760.664C186.184 761.441 186.389 762.277 186.389 763.172C186.389 763.333 186.382 763.494 186.367 763.656C186.367 763.817 186.367 764 186.367 764.206H177.677C177.721 765.042 177.912 765.738 178.249 766.296C178.601 766.838 179.034 767.249 179.547 767.528C180.075 767.806 180.632 767.946 181.219 767.946C181.982 767.946 182.62 767.77 183.133 767.418C183.646 767.066 184.02 766.589 184.255 765.988H186.081C185.788 767 185.223 767.843 184.387 768.518C183.566 769.178 182.51 769.508 181.219 769.508ZM181.219 759.63C180.339 759.63 179.554 759.901 178.865 760.444C178.19 760.972 177.802 761.749 177.699 762.776H184.563C184.519 761.793 184.182 761.023 183.551 760.466C182.92 759.908 182.143 759.63 181.219 759.63ZM193.854 769.508C192.813 769.508 191.874 769.273 191.038 768.804C190.217 768.32 189.564 767.652 189.08 766.802C188.611 765.936 188.376 764.932 188.376 763.788C188.376 762.644 188.611 761.646 189.08 760.796C189.564 759.93 190.217 759.263 191.038 758.794C191.874 758.31 192.813 758.068 193.854 758.068C195.145 758.068 196.23 758.405 197.11 759.08C198.005 759.754 198.57 760.656 198.804 761.786H196.912C196.766 761.111 196.406 760.59 195.834 760.224C195.262 759.842 194.595 759.652 193.832 759.652C193.216 759.652 192.637 759.806 192.094 760.114C191.552 760.422 191.112 760.884 190.774 761.5C190.437 762.116 190.268 762.878 190.268 763.788C190.268 764.697 190.437 765.46 190.774 766.076C191.112 766.692 191.552 767.161 192.094 767.484C192.637 767.792 193.216 767.946 193.832 767.946C194.595 767.946 195.262 767.762 195.834 767.396C196.406 767.014 196.766 766.479 196.912 765.79H198.804C198.584 766.89 198.027 767.784 197.132 768.474C196.238 769.163 195.145 769.508 193.854 769.508ZM205.397 769.244C204.399 769.244 203.615 769.002 203.043 768.518C202.471 768.034 202.185 767.161 202.185 765.9V759.894H200.293V758.332H202.185L202.427 755.714H204.033V758.332H207.245V759.894H204.033V765.9C204.033 766.589 204.172 767.058 204.451 767.308C204.729 767.542 205.221 767.66 205.925 767.66H207.069V769.244H205.397ZM217.615 769.244L214.425 758.332H216.273L218.583 766.89L221.135 758.332H223.225L225.799 766.89L228.087 758.332H229.957L226.767 769.244H224.875L222.191 760.246L219.507 769.244H217.615ZM233.123 755.912C232.756 755.912 232.448 755.794 232.199 755.56C231.964 755.31 231.847 755.002 231.847 754.636C231.847 754.284 231.964 753.99 232.199 753.756C232.448 753.521 232.756 753.404 233.123 753.404C233.475 753.404 233.775 753.521 234.025 753.756C234.274 753.99 234.399 754.284 234.399 754.636C234.399 755.002 234.274 755.31 234.025 755.56C233.775 755.794 233.475 755.912 233.123 755.912ZM232.199 769.244V758.332H234.047V769.244H232.199ZM241.576 769.244C240.579 769.244 239.794 769.002 239.222 768.518C238.65 768.034 238.364 767.161 238.364 765.9V759.894H236.472V758.332H238.364L238.606 755.714H240.212V758.332H243.424V759.894H240.212V765.9C240.212 766.589 240.352 767.058 240.63 767.308C240.909 767.542 241.4 767.66 242.104 767.66H243.248V769.244H241.576ZM245.772 769.244V753.404H247.62V760.202C247.987 759.527 248.507 759.006 249.182 758.64C249.857 758.258 250.59 758.068 251.382 758.068C252.643 758.068 253.655 758.464 254.418 759.256C255.181 760.033 255.562 761.236 255.562 762.864V769.244H253.736V763.062C253.736 760.788 252.819 759.652 250.986 759.652C250.033 759.652 249.233 759.996 248.588 760.686C247.943 761.36 247.62 762.328 247.62 763.59V769.244H245.772ZM268.364 769.508C267.059 769.508 265.973 769.178 265.108 768.518C264.243 767.858 263.737 766.963 263.59 765.834H265.482C265.599 766.406 265.9 766.904 266.384 767.33C266.883 767.74 267.55 767.946 268.386 767.946C269.163 767.946 269.735 767.784 270.102 767.462C270.469 767.124 270.652 766.728 270.652 766.274C270.652 765.614 270.41 765.174 269.926 764.954C269.457 764.734 268.789 764.536 267.924 764.36C267.337 764.242 266.751 764.074 266.164 763.854C265.577 763.634 265.086 763.326 264.69 762.93C264.294 762.519 264.096 761.984 264.096 761.324C264.096 760.37 264.448 759.593 265.152 758.992C265.871 758.376 266.839 758.068 268.056 758.068C269.215 758.068 270.161 758.361 270.894 758.948C271.642 759.52 272.075 760.341 272.192 761.412H270.366C270.293 760.854 270.051 760.422 269.64 760.114C269.244 759.791 268.709 759.63 268.034 759.63C267.374 759.63 266.861 759.769 266.494 760.048C266.142 760.326 265.966 760.693 265.966 761.148C265.966 761.588 266.193 761.932 266.648 762.182C267.117 762.431 267.748 762.644 268.54 762.82C269.215 762.966 269.853 763.15 270.454 763.37C271.07 763.575 271.569 763.89 271.95 764.316C272.346 764.726 272.544 765.328 272.544 766.12C272.559 767.102 272.185 767.916 271.422 768.562C270.674 769.192 269.655 769.508 268.364 769.508ZM280.2 769.508C279.159 769.508 278.22 769.273 277.384 768.804C276.563 768.32 275.91 767.652 275.426 766.802C274.957 765.936 274.722 764.932 274.722 763.788C274.722 762.644 274.957 761.646 275.426 760.796C275.91 759.93 276.563 759.263 277.384 758.794C278.22 758.31 279.159 758.068 280.2 758.068C281.491 758.068 282.576 758.405 283.456 759.08C284.351 759.754 284.915 760.656 285.15 761.786H283.258C283.111 761.111 282.752 760.59 282.18 760.224C281.608 759.842 280.941 759.652 280.178 759.652C279.562 759.652 278.983 759.806 278.44 760.114C277.897 760.422 277.457 760.884 277.12 761.5C276.783 762.116 276.614 762.878 276.614 763.788C276.614 764.697 276.783 765.46 277.12 766.076C277.457 766.692 277.897 767.161 278.44 767.484C278.983 767.792 279.562 767.946 280.178 767.946C280.941 767.946 281.608 767.762 282.18 767.396C282.752 767.014 283.111 766.479 283.258 765.79H285.15C284.93 766.89 284.373 767.784 283.478 768.474C282.583 769.163 281.491 769.508 280.2 769.508ZM287.731 769.244V753.404H289.579V760.202C289.946 759.527 290.466 759.006 291.141 758.64C291.816 758.258 292.549 758.068 293.341 758.068C294.602 758.068 295.614 758.464 296.377 759.256C297.14 760.033 297.521 761.236 297.521 762.864V769.244H295.695V763.062C295.695 760.788 294.778 759.652 292.945 759.652C291.992 759.652 291.192 759.996 290.547 760.686C289.902 761.36 289.579 762.328 289.579 763.59V769.244H287.731ZM305.293 769.508C304.266 769.508 303.342 769.273 302.521 768.804C301.7 768.334 301.047 767.674 300.563 766.824C300.094 765.958 299.859 764.946 299.859 763.788C299.859 762.629 300.101 761.624 300.585 760.774C301.069 759.908 301.722 759.241 302.543 758.772C303.379 758.302 304.31 758.068 305.337 758.068C306.364 758.068 307.288 758.302 308.109 758.772C308.93 759.241 309.576 759.908 310.045 760.774C310.529 761.624 310.771 762.629 310.771 763.788C310.771 764.946 310.529 765.958 310.045 766.824C309.561 767.674 308.901 768.334 308.065 768.804C307.244 769.273 306.32 769.508 305.293 769.508ZM305.293 767.924C305.924 767.924 306.51 767.77 307.053 767.462C307.596 767.154 308.036 766.692 308.373 766.076C308.71 765.46 308.879 764.697 308.879 763.788C308.879 762.878 308.71 762.116 308.373 761.5C308.05 760.884 307.618 760.422 307.075 760.114C306.532 759.806 305.953 759.652 305.337 759.652C304.706 759.652 304.12 759.806 303.577 760.114C303.034 760.422 302.594 760.884 302.257 761.5C301.92 762.116 301.751 762.878 301.751 763.788C301.751 764.697 301.92 765.46 302.257 766.076C302.594 766.692 303.027 767.154 303.555 767.462C304.098 767.77 304.677 767.924 305.293 767.924ZM313.34 769.244V753.404H315.188V769.244H313.34ZM321.847 769.508C320.938 769.508 320.183 769.354 319.581 769.046C318.98 768.738 318.533 768.327 318.239 767.814C317.946 767.3 317.799 766.743 317.799 766.142C317.799 765.027 318.225 764.169 319.075 763.568C319.926 762.966 321.085 762.666 322.551 762.666H325.499V762.534C325.499 761.58 325.25 760.862 324.751 760.378C324.253 759.879 323.585 759.63 322.749 759.63C322.031 759.63 321.407 759.813 320.879 760.18C320.366 760.532 320.043 761.052 319.911 761.742H318.019C318.093 760.95 318.357 760.282 318.811 759.74C319.281 759.197 319.86 758.786 320.549 758.508C321.239 758.214 321.972 758.068 322.749 758.068C324.275 758.068 325.419 758.478 326.181 759.3C326.959 760.106 327.347 761.184 327.347 762.534V769.244H325.697L325.587 767.286C325.279 767.902 324.825 768.43 324.223 768.87C323.637 769.295 322.845 769.508 321.847 769.508ZM322.133 767.946C322.837 767.946 323.439 767.762 323.937 767.396C324.451 767.029 324.839 766.552 325.103 765.966C325.367 765.379 325.499 764.763 325.499 764.118V764.096H322.705C321.62 764.096 320.85 764.286 320.395 764.668C319.955 765.034 319.735 765.496 319.735 766.054C319.735 766.626 319.941 767.088 320.351 767.44C320.777 767.777 321.371 767.946 322.133 767.946ZM330.12 769.244V758.332H331.792L331.946 760.422C332.283 759.703 332.796 759.131 333.486 758.706C334.175 758.28 335.026 758.068 336.038 758.068V760.004H335.532C334.886 760.004 334.292 760.121 333.75 760.356C333.207 760.576 332.774 760.957 332.452 761.5C332.129 762.042 331.968 762.79 331.968 763.744V769.244H330.12ZM342.292 769.508C340.987 769.508 339.901 769.178 339.036 768.518C338.171 767.858 337.665 766.963 337.518 765.834H339.41C339.527 766.406 339.828 766.904 340.312 767.33C340.811 767.74 341.478 767.946 342.314 767.946C343.091 767.946 343.663 767.784 344.03 767.462C344.397 767.124 344.58 766.728 344.58 766.274C344.58 765.614 344.338 765.174 343.854 764.954C343.385 764.734 342.717 764.536 341.852 764.36C341.265 764.242 340.679 764.074 340.092 763.854C339.505 763.634 339.014 763.326 338.618 762.93C338.222 762.519 338.024 761.984 338.024 761.324C338.024 760.37 338.376 759.593 339.08 758.992C339.799 758.376 340.767 758.068 341.984 758.068C343.143 758.068 344.089 758.361 344.822 758.948C345.57 759.52 346.003 760.341 346.12 761.412H344.294C344.221 760.854 343.979 760.422 343.568 760.114C343.172 759.791 342.637 759.63 341.962 759.63C341.302 759.63 340.789 759.769 340.422 760.048C340.07 760.326 339.894 760.693 339.894 761.148C339.894 761.588 340.121 761.932 340.576 762.182C341.045 762.431 341.676 762.644 342.468 762.82C343.143 762.966 343.781 763.15 344.382 763.37C344.998 763.575 345.497 763.89 345.878 764.316C346.274 764.726 346.472 765.328 346.472 766.12C346.487 767.102 346.113 767.916 345.35 768.562C344.602 769.192 343.583 769.508 342.292 769.508ZM355.528 769.244V759.894H353.878V758.332H355.528V756.44C355.528 755.384 355.792 754.614 356.32 754.13C356.848 753.646 357.618 753.404 358.63 753.404H359.73V754.988H358.916C358.359 754.988 357.963 755.105 357.728 755.34C357.493 755.56 357.376 755.941 357.376 756.484V758.332H360.06V759.894H357.376V769.244H355.528ZM366.803 769.508C365.776 769.508 364.852 769.273 364.031 768.804C363.209 768.334 362.557 767.674 362.073 766.824C361.603 765.958 361.369 764.946 361.369 763.788C361.369 762.629 361.611 761.624 362.095 760.774C362.579 759.908 363.231 759.241 364.053 758.772C364.889 758.302 365.82 758.068 366.847 758.068C367.873 758.068 368.797 758.302 369.619 758.772C370.44 759.241 371.085 759.908 371.555 760.774C372.039 761.624 372.281 762.629 372.281 763.788C372.281 764.946 372.039 765.958 371.555 766.824C371.071 767.674 370.411 768.334 369.575 768.804C368.753 769.273 367.829 769.508 366.803 769.508ZM366.803 767.924C367.433 767.924 368.02 767.77 368.563 767.462C369.105 767.154 369.545 766.692 369.883 766.076C370.22 765.46 370.389 764.697 370.389 763.788C370.389 762.878 370.22 762.116 369.883 761.5C369.56 760.884 369.127 760.422 368.585 760.114C368.042 759.806 367.463 759.652 366.847 759.652C366.216 759.652 365.629 759.806 365.087 760.114C364.544 760.422 364.104 760.884 363.767 761.5C363.429 762.116 363.261 762.878 363.261 763.788C363.261 764.697 363.429 765.46 363.767 766.076C364.104 766.692 364.537 767.154 365.065 767.462C365.607 767.77 366.187 767.924 366.803 767.924ZM374.85 769.244V758.332H376.522L376.676 760.422C377.013 759.703 377.527 759.131 378.216 758.706C378.905 758.28 379.756 758.068 380.768 758.068V760.004H380.262C379.617 760.004 379.023 760.121 378.48 760.356C377.937 760.576 377.505 760.957 377.182 761.5C376.859 762.042 376.698 762.79 376.698 763.744V769.244H374.85ZM389.787 755.912C389.42 755.912 389.112 755.794 388.863 755.56C388.628 755.31 388.511 755.002 388.511 754.636C388.511 754.284 388.628 753.99 388.863 753.756C389.112 753.521 389.42 753.404 389.787 753.404C390.139 753.404 390.439 753.521 390.689 753.756C390.938 753.99 391.063 754.284 391.063 754.636C391.063 755.002 390.938 755.31 390.689 755.56C390.439 755.794 390.139 755.912 389.787 755.912ZM388.863 769.244V758.332H390.711V769.244H388.863ZM393.928 769.244V758.332H395.6L395.71 760.29C396.062 759.6 396.568 759.058 397.228 758.662C397.888 758.266 398.636 758.068 399.472 758.068C400.763 758.068 401.79 758.464 402.552 759.256C403.33 760.033 403.718 761.236 403.718 762.864V769.244H401.87V763.062C401.87 760.788 400.932 759.652 399.054 759.652C398.116 759.652 397.331 759.996 396.7 760.686C396.084 761.36 395.776 762.328 395.776 763.59V769.244H393.928ZM410.698 769.508C409.393 769.508 408.307 769.178 407.442 768.518C406.577 767.858 406.071 766.963 405.924 765.834H407.816C407.933 766.406 408.234 766.904 408.718 767.33C409.217 767.74 409.884 767.946 410.72 767.946C411.497 767.946 412.069 767.784 412.436 767.462C412.803 767.124 412.986 766.728 412.986 766.274C412.986 765.614 412.744 765.174 412.26 764.954C411.791 764.734 411.123 764.536 410.258 764.36C409.671 764.242 409.085 764.074 408.498 763.854C407.911 763.634 407.42 763.326 407.024 762.93C406.628 762.519 406.43 761.984 406.43 761.324C406.43 760.37 406.782 759.593 407.486 758.992C408.205 758.376 409.173 758.068 410.39 758.068C411.549 758.068 412.495 758.361 413.228 758.948C413.976 759.52 414.409 760.341 414.526 761.412H412.7C412.627 760.854 412.385 760.422 411.974 760.114C411.578 759.791 411.043 759.63 410.368 759.63C409.708 759.63 409.195 759.769 408.828 760.048C408.476 760.326 408.3 760.693 408.3 761.148C408.3 761.588 408.527 761.932 408.982 762.182C409.451 762.431 410.082 762.644 410.874 762.82C411.549 762.966 412.187 763.15 412.788 763.37C413.404 763.575 413.903 763.89 414.284 764.316C414.68 764.726 414.878 765.328 414.878 766.12C414.893 767.102 414.519 767.916 413.756 768.562C413.008 769.192 411.989 769.508 410.698 769.508ZM418.64 755.912C418.273 755.912 417.965 755.794 417.716 755.56C417.481 755.31 417.364 755.002 417.364 754.636C417.364 754.284 417.481 753.99 417.716 753.756C417.965 753.521 418.273 753.404 418.64 753.404C418.992 753.404 419.293 753.521 419.542 753.756C419.791 753.99 419.916 754.284 419.916 754.636C419.916 755.002 419.791 755.31 419.542 755.56C419.293 755.794 418.992 755.912 418.64 755.912ZM417.716 769.244V758.332H419.564V769.244H417.716ZM427.094 765.812C426.478 765.812 425.913 765.731 425.4 765.57L424.3 766.604C424.461 766.721 424.659 766.824 424.894 766.912C425.143 766.985 425.495 767.058 425.95 767.132C426.404 767.19 427.042 767.256 427.864 767.33C429.33 767.432 430.379 767.77 431.01 768.342C431.64 768.914 431.956 769.662 431.956 770.586C431.956 771.216 431.78 771.818 431.428 772.39C431.09 772.962 430.562 773.431 429.844 773.798C429.14 774.164 428.23 774.348 427.116 774.348C426.133 774.348 425.26 774.216 424.498 773.952C423.735 773.702 423.141 773.314 422.716 772.786C422.29 772.272 422.078 771.62 422.078 770.828C422.078 770.417 422.188 769.97 422.408 769.486C422.628 769.016 423.038 768.569 423.64 768.144C423.317 768.012 423.038 767.872 422.804 767.726C422.584 767.564 422.378 767.388 422.188 767.198V766.692L424.058 764.844C423.192 764.11 422.76 763.142 422.76 761.94C422.76 761.221 422.928 760.568 423.266 759.982C423.603 759.395 424.094 758.933 424.74 758.596C425.385 758.244 426.17 758.068 427.094 758.068C427.724 758.068 428.296 758.156 428.81 758.332H432.836V759.718L430.79 759.806C431.215 760.422 431.428 761.133 431.428 761.94C431.428 762.658 431.252 763.311 430.9 763.898C430.562 764.484 430.071 764.954 429.426 765.306C428.795 765.643 428.018 765.812 427.094 765.812ZM427.094 764.294C427.871 764.294 428.487 764.096 428.942 763.7C429.411 763.289 429.646 762.702 429.646 761.94C429.646 761.192 429.411 760.62 428.942 760.224C428.487 759.813 427.871 759.608 427.094 759.608C426.302 759.608 425.671 759.813 425.202 760.224C424.747 760.62 424.52 761.192 424.52 761.94C424.52 762.702 424.747 763.289 425.202 763.7C425.671 764.096 426.302 764.294 427.094 764.294ZM423.882 770.652C423.882 771.385 424.19 771.928 424.806 772.28C425.422 772.646 426.192 772.83 427.116 772.83C428.025 772.83 428.751 772.632 429.294 772.236C429.851 771.84 430.13 771.312 430.13 770.652C430.13 770.182 429.939 769.772 429.558 769.42C429.176 769.082 428.472 768.884 427.446 768.826C426.639 768.767 425.942 768.694 425.356 768.606C424.754 768.928 424.358 769.273 424.168 769.64C423.977 770.021 423.882 770.358 423.882 770.652ZM434.92 769.244V753.404H436.768V760.202C437.135 759.527 437.656 759.006 438.33 758.64C439.005 758.258 439.738 758.068 440.53 758.068C441.792 758.068 442.804 758.464 443.566 759.256C444.329 760.033 444.71 761.236 444.71 762.864V769.244H442.884V763.062C442.884 760.788 441.968 759.652 440.134 759.652C439.181 759.652 438.382 759.996 437.736 760.686C437.091 761.36 436.768 762.328 436.768 763.59V769.244H434.92ZM451.822 769.244C450.825 769.244 450.04 769.002 449.468 768.518C448.896 768.034 448.61 767.161 448.61 765.9V759.894H446.718V758.332H448.61L448.852 755.714H450.458V758.332H453.67V759.894H450.458V765.9C450.458 766.589 450.598 767.058 450.876 767.308C451.155 767.542 451.646 767.66 452.35 767.66H453.494V769.244H451.822ZM456.612 769.244V759.894H454.962V758.332H456.612V756.44C456.612 755.384 456.876 754.614 457.404 754.13C457.932 753.646 458.702 753.404 459.714 753.404H460.814V754.988H460C459.443 754.988 459.047 755.105 458.812 755.34C458.577 755.56 458.46 755.941 458.46 756.484V758.332H461.144V759.894H458.46V769.244H456.612ZM467.326 769.508C466.036 769.508 465.009 769.119 464.246 768.342C463.484 767.55 463.102 766.34 463.102 764.712V758.332H464.95V764.514C464.95 766.787 465.882 767.924 467.744 767.924C468.698 767.924 469.482 767.586 470.098 766.912C470.729 766.222 471.044 765.247 471.044 763.986V758.332H472.892V769.244H471.22L471.088 767.286C470.751 767.975 470.245 768.518 469.57 768.914C468.91 769.31 468.162 769.508 467.326 769.508ZM475.934 769.244V753.404H477.782V769.244H475.934ZM259.172 794.812C258.556 794.812 257.991 794.731 257.478 794.57L256.378 795.604C256.539 795.721 256.737 795.824 256.972 795.912C257.221 795.985 257.573 796.058 258.028 796.132C258.483 796.19 259.121 796.256 259.942 796.33C261.409 796.432 262.457 796.77 263.088 797.342C263.719 797.914 264.034 798.662 264.034 799.586C264.034 800.216 263.858 800.818 263.506 801.39C263.169 801.962 262.641 802.431 261.922 802.798C261.218 803.164 260.309 803.348 259.194 803.348C258.211 803.348 257.339 803.216 256.576 802.952C255.813 802.702 255.219 802.314 254.794 801.786C254.369 801.272 254.156 800.62 254.156 799.828C254.156 799.417 254.266 798.97 254.486 798.486C254.706 798.016 255.117 797.569 255.718 797.144C255.395 797.012 255.117 796.872 254.882 796.726C254.662 796.564 254.457 796.388 254.266 796.198V795.692L256.136 793.844C255.271 793.11 254.838 792.142 254.838 790.94C254.838 790.221 255.007 789.568 255.344 788.982C255.681 788.395 256.173 787.933 256.818 787.596C257.463 787.244 258.248 787.068 259.172 787.068C259.803 787.068 260.375 787.156 260.888 787.332H264.914V788.718L262.868 788.806C263.293 789.422 263.506 790.133 263.506 790.94C263.506 791.658 263.33 792.311 262.978 792.898C262.641 793.484 262.149 793.954 261.504 794.306C260.873 794.643 260.096 794.812 259.172 794.812ZM259.172 793.294C259.949 793.294 260.565 793.096 261.02 792.7C261.489 792.289 261.724 791.702 261.724 790.94C261.724 790.192 261.489 789.62 261.02 789.224C260.565 788.813 259.949 788.608 259.172 788.608C258.38 788.608 257.749 788.813 257.28 789.224C256.825 789.62 256.598 790.192 256.598 790.94C256.598 791.702 256.825 792.289 257.28 792.7C257.749 793.096 258.38 793.294 259.172 793.294ZM255.96 799.652C255.96 800.385 256.268 800.928 256.884 801.28C257.5 801.646 258.27 801.83 259.194 801.83C260.103 801.83 260.829 801.632 261.372 801.236C261.929 800.84 262.208 800.312 262.208 799.652C262.208 799.182 262.017 798.772 261.636 798.42C261.255 798.082 260.551 797.884 259.524 797.826C258.717 797.767 258.021 797.694 257.434 797.606C256.833 797.928 256.437 798.273 256.246 798.64C256.055 799.021 255.96 799.358 255.96 799.652ZM270.981 798.508C269.69 798.508 268.663 798.119 267.901 797.342C267.138 796.55 266.757 795.34 266.757 793.712V787.332H268.605V793.514C268.605 795.787 269.536 796.924 271.399 796.924C272.352 796.924 273.137 796.586 273.753 795.912C274.383 795.222 274.699 794.247 274.699 792.986V787.332H276.547V798.244H274.875L274.743 796.286C274.405 796.975 273.899 797.518 273.225 797.914C272.565 798.31 271.817 798.508 270.981 798.508ZM280.71 784.912C280.344 784.912 280.036 784.794 279.786 784.56C279.552 784.31 279.434 784.002 279.434 783.636C279.434 783.284 279.552 782.99 279.786 782.756C280.036 782.521 280.344 782.404 280.71 782.404C281.062 782.404 281.363 782.521 281.612 782.756C281.862 782.99 281.986 783.284 281.986 783.636C281.986 784.002 281.862 784.31 281.612 784.56C281.363 784.794 281.062 784.912 280.71 784.912ZM279.786 798.244V787.332H281.634V798.244H279.786ZM289.802 798.508C288.717 798.508 287.763 798.258 286.942 797.76C286.135 797.261 285.505 796.579 285.05 795.714C284.61 794.848 284.39 793.866 284.39 792.766C284.39 791.666 284.617 790.69 285.072 789.84C285.527 788.974 286.157 788.3 286.964 787.816C287.771 787.317 288.724 787.068 289.824 787.068C290.719 787.068 291.511 787.251 292.2 787.618C292.889 787.984 293.425 788.498 293.806 789.158V782.404H295.654V798.244H293.982L293.806 796.44C293.454 796.968 292.948 797.444 292.288 797.87C291.628 798.295 290.799 798.508 289.802 798.508ZM290 796.902C290.733 796.902 291.379 796.733 291.936 796.396C292.508 796.044 292.948 795.56 293.256 794.944C293.579 794.328 293.74 793.609 293.74 792.788C293.74 791.966 293.579 791.248 293.256 790.632C292.948 790.016 292.508 789.539 291.936 789.202C291.379 788.85 290.733 788.674 290 788.674C289.281 788.674 288.636 788.85 288.064 789.202C287.507 789.539 287.067 790.016 286.744 790.632C286.436 791.248 286.282 791.966 286.282 792.788C286.282 793.609 286.436 794.328 286.744 794.944C287.067 795.56 287.507 796.044 288.064 796.396C288.636 796.733 289.281 796.902 290 796.902ZM302.297 798.508C301.387 798.508 300.632 798.354 300.031 798.046C299.429 797.738 298.982 797.327 298.689 796.814C298.395 796.3 298.249 795.743 298.249 795.142C298.249 794.027 298.674 793.169 299.525 792.568C300.375 791.966 301.534 791.666 303.001 791.666H305.949V791.534C305.949 790.58 305.699 789.862 305.201 789.378C304.702 788.879 304.035 788.63 303.199 788.63C302.48 788.63 301.857 788.813 301.329 789.18C300.815 789.532 300.493 790.052 300.361 790.742H298.469C298.542 789.95 298.806 789.282 299.261 788.74C299.73 788.197 300.309 787.786 300.999 787.508C301.688 787.214 302.421 787.068 303.199 787.068C304.724 787.068 305.868 787.478 306.631 788.3C307.408 789.106 307.797 790.184 307.797 791.534V798.244H306.147L306.037 796.286C305.729 796.902 305.274 797.43 304.673 797.87C304.086 798.295 303.294 798.508 302.297 798.508ZM302.583 796.946C303.287 796.946 303.888 796.762 304.387 796.396C304.9 796.029 305.289 795.552 305.553 794.966C305.817 794.379 305.949 793.763 305.949 793.118V793.096H303.155C302.069 793.096 301.299 793.286 300.845 793.668C300.405 794.034 300.185 794.496 300.185 795.054C300.185 795.626 300.39 796.088 300.801 796.44C301.226 796.777 301.82 796.946 302.583 796.946ZM310.569 798.244V787.332H312.241L312.351 789.29C312.703 788.6 313.209 788.058 313.869 787.662C314.529 787.266 315.277 787.068 316.113 787.068C317.404 787.068 318.43 787.464 319.193 788.256C319.97 789.033 320.359 790.236 320.359 791.864V798.244H318.511V792.062C318.511 789.788 317.572 788.652 315.695 788.652C314.756 788.652 313.972 788.996 313.341 789.686C312.725 790.36 312.417 791.328 312.417 792.59V798.244H310.569ZM328.175 798.508C327.133 798.508 326.195 798.273 325.359 797.804C324.537 797.32 323.885 796.652 323.401 795.802C322.931 794.936 322.697 793.932 322.697 792.788C322.697 791.644 322.931 790.646 323.401 789.796C323.885 788.93 324.537 788.263 325.359 787.794C326.195 787.31 327.133 787.068 328.175 787.068C329.465 787.068 330.551 787.405 331.431 788.08C332.325 788.754 332.89 789.656 333.125 790.786H331.233C331.086 790.111 330.727 789.59 330.155 789.224C329.583 788.842 328.915 788.652 328.153 788.652C327.537 788.652 326.957 788.806 326.415 789.114C325.872 789.422 325.432 789.884 325.095 790.5C324.757 791.116 324.589 791.878 324.589 792.788C324.589 793.697 324.757 794.46 325.095 795.076C325.432 795.692 325.872 796.161 326.415 796.484C326.957 796.792 327.537 796.946 328.153 796.946C328.915 796.946 329.583 796.762 330.155 796.396C330.727 796.014 331.086 795.479 331.233 794.79H333.125C332.905 795.89 332.347 796.784 331.453 797.474C330.558 798.163 329.465 798.508 328.175 798.508ZM340.612 798.508C339.57 798.508 338.646 798.273 337.84 797.804C337.033 797.32 336.395 796.652 335.926 795.802C335.471 794.951 335.244 793.946 335.244 792.788C335.244 791.644 335.471 790.646 335.926 789.796C336.38 788.93 337.011 788.263 337.818 787.794C338.639 787.31 339.585 787.068 340.656 787.068C341.712 787.068 342.621 787.31 343.384 787.794C344.161 788.263 344.755 788.886 345.166 789.664C345.576 790.441 345.782 791.277 345.782 792.172C345.782 792.333 345.774 792.494 345.76 792.656C345.76 792.817 345.76 793 345.76 793.206H337.07C337.114 794.042 337.304 794.738 337.642 795.296C337.994 795.838 338.426 796.249 338.94 796.528C339.468 796.806 340.025 796.946 340.612 796.946C341.374 796.946 342.012 796.77 342.526 796.418C343.039 796.066 343.413 795.589 343.648 794.988H345.474C345.18 796 344.616 796.843 343.78 797.518C342.958 798.178 341.902 798.508 340.612 798.508ZM340.612 788.63C339.732 788.63 338.947 788.901 338.258 789.444C337.583 789.972 337.194 790.749 337.092 791.776H343.956C343.912 790.793 343.574 790.023 342.944 789.466C342.313 788.908 341.536 788.63 340.612 788.63Z" fill="#78827F"/>
<defs>
<clipPath id="clip0_3161_5075">
<rect x="103.956" y="215.123" width="377.008" height="283.571" rx="13.0377" fill="white"/>
</clipPath>
</defs>
</svg>
