<svg width="108" height="115" viewBox="0 0 108 115" fill="none" xmlns="http://www.w3.org/2000/svg">
<path d="M17.3569 67.3879V0L52.6901 28.5943L59.7931 23.1304L67.8068 17.1202L83.1057 5.64602C90.2087 3.0962 92.03 10.5635 89.6624 12.9312L52.6901 40.4328L27.0098 19.8521V67.3879C23.7315 74.6731 17.3569 70.4841 17.3569 67.3879Z" fill="#38B89A"/>
<path d="M90.2087 18.7593L52.6901 48.4465L37.5733 35.5153C29.1954 33.3297 29.1954 41.5255 30.6524 42.6183L52.6901 60.6491L80.738 38.0651V67.3879C83.8342 74.8552 90.2087 70.1199 90.2087 67.3879V18.7593Z" fill="#38B89A"/>
<path d="M1.71881 106.071V88.3777H5.56085L11.1975 99.6005L16.7584 88.3777H20.6004V106.071H17.365V93.8627L12.4361 103.544H9.88315L4.95421 93.8627V106.071H1.71881ZM25.5246 111.632L28.4314 105.237H27.6731L22.7947 93.5341H26.3082L29.8216 102.356L33.4867 93.5341H36.9244L28.9622 111.632H25.5246ZM45.1383 106.071V88.3777H48.9803L54.617 99.6005L60.1778 88.3777H64.0199V106.071H60.7845V93.8627L55.8555 103.544H53.3026L48.3737 93.8627V106.071H45.1383ZM72.0784 106.375C70.5112 106.375 69.298 105.886 68.4386 104.909C67.596 103.931 67.1747 102.499 67.1747 100.612V93.5341H70.3848V100.308C70.3848 101.387 70.6039 102.212 71.042 102.785C71.4802 103.358 72.1711 103.645 73.1147 103.645C74.0078 103.645 74.7408 103.325 75.3138 102.684C75.9036 102.044 76.1985 101.151 76.1985 100.005V93.5341H79.4339V106.071H76.5776L76.3248 103.948C75.9373 104.69 75.3728 105.279 74.6313 105.717C73.9067 106.156 73.0557 106.375 72.0784 106.375ZM83.3365 106.071V96.2387H81.6177V93.5341H83.3365V92.0681C83.3365 90.5515 83.7157 89.473 84.474 88.8327C85.2491 88.1923 86.2939 87.8721 87.6083 87.8721H88.9985V90.6273H88.1138C87.5577 90.6273 87.1617 90.7368 86.9258 90.9559C86.6899 91.1749 86.5719 91.5457 86.5719 92.0681V93.5341H89.2765V96.2387H86.5719V106.071H83.3365ZM97.4251 106.071C96.1107 106.071 95.0575 105.751 94.2655 105.111C93.4735 104.47 93.0775 103.333 93.0775 101.698V96.2387H90.929V93.5341H93.0775L93.4566 90.1723H96.3129V93.5341H99.7V96.2387H96.3129V101.724C96.3129 102.33 96.4393 102.752 96.6921 102.988C96.9617 103.207 97.4166 103.316 98.057 103.316H99.6241V106.071H97.4251ZM104.222 91.5878C103.632 91.5878 103.143 91.4109 102.756 91.057C102.385 90.7031 102.2 90.2566 102.2 89.7173C102.2 89.1781 102.385 88.74 102.756 88.4029C103.143 88.0491 103.632 87.8721 104.222 87.8721C104.812 87.8721 105.292 88.0491 105.663 88.4029C106.05 88.74 106.244 89.1781 106.244 89.7173C106.244 90.2566 106.05 90.7031 105.663 91.057C105.292 91.4109 104.812 91.5878 104.222 91.5878ZM102.604 106.071V93.5341H105.84V106.071H102.604Z" fill="#14201B"/>
</svg>
