<svg width="15" height="18" viewBox="0 0 15 18" fill="none" xmlns="http://www.w3.org/2000/svg">
<path fill-rule="evenodd" clip-rule="evenodd" d="M7.60815 0.204102C3.89385 0.204102 0.882812 3.56894 0.882812 7.34977C0.882812 11.101 3.02931 15.1784 6.37831 16.7438C7.15901 17.1087 8.05728 17.1087 8.83798 16.7438C12.187 15.1784 14.3335 11.101 14.3335 7.34977C14.3335 3.56894 11.3224 0.204102 7.60815 0.204102ZM7.60815 8.61077C8.53672 8.61077 9.28948 7.85801 9.28948 6.92943C9.28948 6.00086 8.53672 5.2481 7.60815 5.2481C6.67957 5.2481 5.92681 6.00086 5.92681 6.92943C5.92681 7.85801 6.67957 8.61077 7.60815 8.61077Z" fill="#7B849A"/>
</svg>
