<svg width="237" height="249" viewBox="0 0 237 249" fill="none" xmlns="http://www.w3.org/2000/svg">
<path d="M108.356 209.708C166.266 209.708 213.211 162.763 213.211 104.853C213.211 46.9425 166.266 -0.00292969 108.356 -0.00292969C50.4454 -0.00292969 3.5 46.9425 3.5 104.853C3.5 162.763 50.4454 209.708 108.356 209.708Z" fill="#E6F3F1"/>
<path d="M229.073 15.2217H176.575C174.129 15.2217 172.146 17.3087 172.146 19.8833V45.8518C172.146 48.4263 174.129 50.5134 176.575 50.5134H229.073C231.52 50.5134 233.503 48.4263 233.503 45.8518V19.8833C233.503 17.3087 231.52 15.2217 229.073 15.2217Z" fill="white"/>
<path d="M185.254 38.4436C188.149 38.4436 190.496 36.0963 190.496 33.2008C190.496 30.3053 188.149 27.958 185.254 27.958C182.358 27.958 180.011 30.3053 180.011 33.2008C180.011 36.0963 182.358 38.4436 185.254 38.4436Z" fill="#38B89A"/>
<rect x="197.486" y="27.958" width="27.9615" height="10.4856" rx="5.24278" fill="#38B89A"/>
<path d="M67.642 15.3302C64.5047 15.3302 61.5412 16.7709 59.6032 19.238L38.2684 46.399C36.8539 48.1998 36.085 50.4235 36.085 52.7134V168.664C36.085 174.309 40.6616 178.886 46.3072 178.886H156.196C161.842 178.886 166.418 174.309 166.418 168.664V25.5524C166.418 19.9069 161.842 15.3302 156.196 15.3302H67.642Z" fill="white"/>
<path d="M62.7777 49.6895V15.3305L36.085 49.6895H62.7777Z" fill="#38B89A"/>
<path d="M112.003 97.1143C116.652 92.4015 121.294 87.68 125.938 82.9561C128.671 80.1754 128.919 75.162 125.938 72.4246C122.986 69.7157 118.324 69.4571 115.406 72.4246C110.696 77.057 105.987 81.6857 101.285 86.3243C96.6328 81.6696 91.9608 77.0323 87.2344 72.4493C84.4871 69.6155 79.3055 69.4831 76.5829 72.4493C73.7874 75.4947 73.6514 80.0777 76.5829 83.1021C81.1548 87.8161 85.7785 92.4733 90.4208 97.1143C85.781 101.753 81.1585 106.41 76.5904 111.122C73.7565 113.869 73.6241 119.051 76.5904 121.773C79.6345 124.569 84.2187 124.705 87.2418 121.773C91.9658 117.191 96.6341 112.558 101.285 107.906C105.984 112.54 110.692 117.168 115.4 121.798C118.181 124.532 123.194 124.778 125.931 121.798C128.64 118.845 128.899 114.184 125.931 111.266C121.289 106.546 116.651 101.826 112.003 97.1143Z" fill="#38B89A"/>
<path fill-rule="evenodd" clip-rule="evenodd" d="M135.414 182.054C146.669 182.054 157.128 178.649 165.819 172.814L201.382 206.763L214.28 191.799L179.962 159.04C186.3 150.12 190.026 139.216 190.026 127.441C190.026 97.2799 165.576 72.8291 135.414 72.8291C105.253 72.8291 80.8018 97.2799 80.8018 127.441C80.8018 157.603 105.253 182.054 135.414 182.054ZM181.997 127.442C181.997 152.977 161.297 173.677 135.762 173.677C110.226 173.677 89.5261 152.977 89.5261 127.442C89.5261 101.907 110.226 81.2064 135.762 81.2064C161.297 81.2064 181.997 101.907 181.997 127.442Z" fill="#18342D"/>
<g filter="url(#filter0_b_3778_3074)">
<path d="M135.758 174.573C162.059 174.573 183.38 153.448 183.38 127.388C183.38 101.329 162.059 80.2031 135.758 80.2031C109.457 80.2031 88.1357 101.329 88.1357 127.388C88.1357 153.448 109.457 174.573 135.758 174.573Z" fill="white" fill-opacity="0.3"/>
</g>
<path d="M201.382 206.765L214.279 191.801L216.222 193.655C218.107 195.454 219.235 197.968 219.359 200.643C219.483 203.318 218.592 205.935 216.882 207.918V207.918C215.173 209.902 212.784 211.089 210.243 211.22C207.701 211.35 205.214 210.413 203.329 208.613L201.387 206.759L201.382 206.765Z" fill="#18342D"/>
<path d="M16.7257 230.413V248.711H14.5814L4.61028 234.344H4.43159V248.711H2.2158V230.413H4.36011L14.3669 244.815H14.5456V230.413H16.7257ZM26.4488 248.997C25.2099 248.997 24.1228 248.702 23.1877 248.112C22.2585 247.523 21.5318 246.698 21.0076 245.637C20.4894 244.577 20.2303 243.338 20.2303 241.921C20.2303 240.491 20.4894 239.243 21.0076 238.177C21.5318 237.111 22.2585 236.283 23.1877 235.693C24.1228 235.103 25.2099 234.809 26.4488 234.809C27.6878 234.809 28.7718 235.103 29.701 235.693C30.6362 236.283 31.3629 237.111 31.8811 238.177C32.4053 239.243 32.6673 240.491 32.6673 241.921C32.6673 243.338 32.4053 244.577 31.8811 245.637C31.3629 246.698 30.6362 247.523 29.701 248.112C28.7718 248.702 27.6878 248.997 26.4488 248.997ZM26.4488 247.103C27.3899 247.103 28.1643 246.861 28.7718 246.379C29.3794 245.897 29.8291 245.262 30.121 244.476C30.4128 243.69 30.5588 242.838 30.5588 241.921C30.5588 241.003 30.4128 240.149 30.121 239.356C29.8291 238.564 29.3794 237.924 28.7718 237.435C28.1643 236.947 27.3899 236.703 26.4488 236.703C25.5077 236.703 24.7334 236.947 24.1258 237.435C23.5183 237.924 23.0685 238.564 22.7767 239.356C22.4848 240.149 22.3389 241.003 22.3389 241.921C22.3389 242.838 22.4848 243.69 22.7767 244.476C23.0685 245.262 23.5183 245.897 24.1258 246.379C24.7334 246.861 25.5077 247.103 26.4488 247.103ZM43.9987 248.711H41.6757L48.3946 230.413H50.6819L57.4007 248.711H55.0777L49.6097 233.308H49.4667L43.9987 248.711ZM44.8565 241.563H54.22V243.529H44.8565V241.563ZM62.0735 240.455V248.711H59.965V234.987H62.0021V237.132H62.1808C62.5024 236.435 62.9908 235.875 63.646 235.452C64.3013 235.023 65.1471 234.809 66.1835 234.809C67.1127 234.809 67.9257 234.999 68.6227 235.38C69.3196 235.756 69.8616 236.328 70.2488 237.096C70.6359 237.858 70.8295 238.823 70.8295 239.991V248.711H68.7209V240.134C68.7209 239.056 68.441 238.216 67.8811 237.614C67.3212 237.007 66.5528 236.703 65.5759 236.703C64.9029 236.703 64.3013 236.849 63.7711 237.141C63.247 237.432 62.833 237.858 62.5292 238.418C62.2254 238.978 62.0735 239.657 62.0735 240.455ZM84.4035 238.061L82.5093 238.597C82.3902 238.281 82.2145 237.974 81.9822 237.677C81.7559 237.373 81.4461 237.123 81.053 236.926C80.6599 236.73 80.1565 236.631 79.543 236.631C78.7032 236.631 78.0033 236.825 77.4434 237.212C76.8894 237.593 76.6125 238.079 76.6125 238.668C76.6125 239.193 76.8031 239.607 77.1843 239.91C77.5655 240.214 78.1611 240.467 78.9712 240.67L81.0083 241.17C82.2353 241.468 83.1497 241.924 83.7513 242.537C84.3529 243.145 84.6537 243.928 84.6537 244.887C84.6537 245.673 84.4273 246.376 83.9746 246.995C83.5279 247.615 82.9025 248.103 82.0983 248.461C81.2942 248.818 80.3591 248.997 79.2929 248.997C77.8931 248.997 76.7346 248.693 75.8173 248.086C74.9 247.478 74.3192 246.59 74.075 245.423L76.0764 244.923C76.267 245.661 76.6274 246.215 77.1575 246.584C77.6936 246.954 78.3934 247.138 79.2571 247.138C80.2399 247.138 81.0202 246.93 81.598 246.513C82.1817 246.09 82.4736 245.584 82.4736 244.994C82.4736 244.518 82.3068 244.119 81.9733 243.797C81.6397 243.469 81.1274 243.225 80.4365 243.064L78.1492 242.528C76.8924 242.23 75.9692 241.769 75.3795 241.143C74.7958 240.512 74.5039 239.723 74.5039 238.776C74.5039 238.001 74.7213 237.316 75.1561 236.721C75.5969 236.125 76.1955 235.657 76.952 235.318C77.7144 234.978 78.5781 234.809 79.543 234.809C80.9011 234.809 81.9673 235.106 82.7416 235.702C83.5219 236.298 84.0759 237.084 84.4035 238.061ZM90.937 248.711L86.7555 234.987H88.9713L91.9376 245.494H92.0806L95.0112 234.987H97.2627L100.158 245.459H100.3L103.267 234.987H105.483L101.301 248.711H99.2283L96.2263 238.168H96.0118L93.0098 248.711H90.937ZM113.557 248.997C112.235 248.997 111.094 248.705 110.135 248.121C109.182 247.532 108.447 246.71 107.928 245.655C107.416 244.595 107.16 243.362 107.16 241.956C107.16 240.551 107.416 239.312 107.928 238.24C108.447 237.161 109.167 236.322 110.091 235.72C111.02 235.112 112.104 234.809 113.343 234.809C114.058 234.809 114.763 234.928 115.46 235.166C116.157 235.404 116.792 235.791 117.363 236.328C117.935 236.858 118.391 237.56 118.73 238.436C119.07 239.312 119.24 240.39 119.24 241.67V242.564H108.661V240.741H117.095C117.095 239.967 116.941 239.276 116.631 238.668C116.327 238.061 115.892 237.581 115.326 237.23C114.766 236.878 114.105 236.703 113.343 236.703C112.503 236.703 111.776 236.911 111.163 237.328C110.555 237.739 110.088 238.275 109.76 238.936C109.432 239.598 109.269 240.306 109.269 241.063V242.278C109.269 243.314 109.447 244.193 109.805 244.914C110.168 245.628 110.671 246.173 111.315 246.549C111.958 246.918 112.706 247.103 113.557 247.103C114.111 247.103 114.612 247.025 115.058 246.87C115.511 246.71 115.901 246.471 116.229 246.156C116.556 245.834 116.809 245.435 116.988 244.958L119.025 245.53C118.811 246.221 118.45 246.829 117.944 247.353C117.438 247.871 116.812 248.276 116.068 248.568C115.323 248.854 114.486 248.997 113.557 248.997ZM122.447 248.711V234.987H124.484V237.06H124.627C124.877 236.381 125.33 235.83 125.985 235.407C126.641 234.984 127.379 234.773 128.201 234.773C128.356 234.773 128.55 234.776 128.782 234.782C129.014 234.788 129.19 234.797 129.309 234.809V236.953C129.238 236.935 129.074 236.908 128.818 236.873C128.568 236.831 128.302 236.81 128.022 236.81C127.355 236.81 126.76 236.95 126.236 237.23C125.717 237.504 125.306 237.885 125.003 238.374C124.705 238.856 124.556 239.407 124.556 240.026V248.711H122.447ZM139.921 248.711H137.598L144.317 230.413H146.604L153.323 248.711H151L145.532 233.308H145.389L139.921 248.711ZM140.779 241.563H150.142V243.529H140.779V241.563ZM161.07 248.997C159.926 248.997 158.916 248.708 158.041 248.13C157.165 247.546 156.48 246.724 155.986 245.664C155.491 244.598 155.244 243.338 155.244 241.885C155.244 240.443 155.491 239.193 155.986 238.132C156.48 237.072 157.168 236.253 158.05 235.675C158.931 235.097 159.95 234.809 161.105 234.809C161.999 234.809 162.705 234.958 163.223 235.255C163.747 235.547 164.146 235.881 164.42 236.256C164.7 236.625 164.917 236.929 165.072 237.167H165.251V230.413H167.36V248.711H165.322V246.602H165.072C164.917 246.853 164.697 247.168 164.411 247.549C164.125 247.925 163.717 248.261 163.187 248.559C162.657 248.851 161.951 248.997 161.07 248.997ZM161.355 247.103C162.201 247.103 162.916 246.882 163.5 246.442C164.084 245.995 164.527 245.378 164.831 244.592C165.135 243.8 165.287 242.886 165.287 241.849C165.287 240.825 165.138 239.928 164.84 239.16C164.542 238.385 164.101 237.784 163.518 237.355C162.934 236.92 162.213 236.703 161.355 236.703C160.462 236.703 159.717 236.932 159.122 237.391C158.532 237.843 158.088 238.46 157.791 239.24C157.499 240.015 157.353 240.884 157.353 241.849C157.353 242.826 157.502 243.713 157.799 244.512C158.103 245.304 158.55 245.935 159.14 246.406C159.735 246.87 160.474 247.103 161.355 247.103ZM176.696 248.997C175.553 248.997 174.543 248.708 173.667 248.13C172.792 247.546 172.107 246.724 171.612 245.664C171.118 244.598 170.871 243.338 170.871 241.885C170.871 240.443 171.118 239.193 171.612 238.132C172.107 237.072 172.795 236.253 173.676 235.675C174.558 235.097 175.576 234.809 176.732 234.809C177.625 234.809 178.331 234.958 178.85 235.255C179.374 235.547 179.773 235.881 180.047 236.256C180.327 236.625 180.544 236.929 180.699 237.167H180.878V230.413H182.986V248.711H180.949V246.602H180.699C180.544 246.853 180.324 247.168 180.038 247.549C179.752 247.925 179.344 248.261 178.814 248.559C178.284 248.851 177.578 248.997 176.696 248.997ZM176.982 247.103C177.828 247.103 178.543 246.882 179.127 246.442C179.71 245.995 180.154 245.378 180.458 244.592C180.762 243.8 180.913 242.886 180.913 241.849C180.913 240.825 180.765 239.928 180.467 239.16C180.169 238.385 179.728 237.784 179.144 237.355C178.561 236.92 177.84 236.703 176.982 236.703C176.089 236.703 175.344 236.932 174.749 237.391C174.159 237.843 173.715 238.46 173.417 239.24C173.125 240.015 172.979 240.884 172.979 241.849C172.979 242.826 173.128 243.713 173.426 244.512C173.73 245.304 174.177 245.935 174.766 246.406C175.362 246.87 176.101 247.103 176.982 247.103ZM192.895 248.997C191.572 248.997 190.432 248.705 189.473 248.121C188.52 247.532 187.784 246.71 187.266 245.655C186.754 244.595 186.498 243.362 186.498 241.956C186.498 240.551 186.754 239.312 187.266 238.24C187.784 237.161 188.505 236.322 189.428 235.72C190.357 235.112 191.441 234.809 192.68 234.809C193.395 234.809 194.101 234.928 194.798 235.166C195.495 235.404 196.129 235.791 196.701 236.328C197.273 236.858 197.728 237.56 198.068 238.436C198.408 239.312 198.577 240.39 198.577 241.67V242.564H187.999V240.741H196.433C196.433 239.967 196.278 239.276 195.968 238.668C195.665 238.061 195.23 237.581 194.664 237.23C194.104 236.878 193.443 236.703 192.68 236.703C191.841 236.703 191.114 236.911 190.5 237.328C189.893 237.739 189.425 238.275 189.098 238.936C188.77 239.598 188.606 240.306 188.606 241.063V242.278C188.606 243.314 188.785 244.193 189.142 244.914C189.506 245.628 190.009 246.173 190.652 246.549C191.296 246.918 192.043 247.103 192.895 247.103C193.449 247.103 193.949 247.025 194.396 246.87C194.849 246.71 195.239 246.471 195.566 246.156C195.894 245.834 196.147 245.435 196.326 244.958L198.363 245.53C198.148 246.221 197.788 246.829 197.282 247.353C196.775 247.871 196.15 248.276 195.405 248.568C194.661 248.854 193.824 248.997 192.895 248.997ZM206.967 248.997C205.823 248.997 204.814 248.708 203.938 248.13C203.062 247.546 202.377 246.724 201.883 245.664C201.389 244.598 201.142 243.338 201.142 241.885C201.142 240.443 201.389 239.193 201.883 238.132C202.377 237.072 203.065 236.253 203.947 235.675C204.829 235.097 205.847 234.809 207.003 234.809C207.896 234.809 208.602 234.958 209.12 235.255C209.644 235.547 210.043 235.881 210.317 236.256C210.597 236.625 210.815 236.929 210.97 237.167H211.148V230.413H213.257V248.711H211.22V246.602H210.97C210.815 246.853 210.594 247.168 210.308 247.549C210.023 247.925 209.615 248.261 209.084 248.559C208.554 248.851 207.848 248.997 206.967 248.997ZM207.253 247.103C208.099 247.103 208.813 246.882 209.397 246.442C209.981 245.995 210.425 245.378 210.728 244.592C211.032 243.8 211.184 242.886 211.184 241.849C211.184 240.825 211.035 239.928 210.737 239.16C210.44 238.385 209.999 237.784 209.415 237.355C208.831 236.92 208.111 236.703 207.253 236.703C206.359 236.703 205.615 236.932 205.019 237.391C204.429 237.843 203.986 238.46 203.688 239.24C203.396 240.015 203.25 240.884 203.25 241.849C203.25 242.826 203.399 243.713 203.697 244.512C204.001 245.304 204.447 245.935 205.037 246.406C205.633 246.87 206.371 247.103 207.253 247.103ZM227.275 230.413L227.097 243.565H225.024L224.845 230.413H227.275ZM226.06 248.854C225.62 248.854 225.241 248.696 224.926 248.38C224.61 248.065 224.452 247.686 224.452 247.246C224.452 246.805 224.61 246.427 224.926 246.111C225.241 245.795 225.62 245.637 226.06 245.637C226.501 245.637 226.879 245.795 227.195 246.111C227.511 246.427 227.669 246.805 227.669 247.246C227.669 247.538 227.594 247.806 227.445 248.05C227.302 248.294 227.109 248.491 226.864 248.639C226.626 248.782 226.358 248.854 226.06 248.854ZM234.278 230.413L234.099 243.565H232.026L231.848 230.413H234.278ZM233.063 248.854C232.622 248.854 232.244 248.696 231.928 248.38C231.612 248.065 231.455 247.686 231.455 247.246C231.455 246.805 231.612 246.427 231.928 246.111C232.244 245.795 232.622 245.637 233.063 245.637C233.504 245.637 233.882 245.795 234.198 246.111C234.513 246.427 234.671 246.805 234.671 247.246C234.671 247.538 234.597 247.806 234.448 248.05C234.305 248.294 234.111 248.491 233.867 248.639C233.629 248.782 233.361 248.854 233.063 248.854Z" fill="#7B849A"/>
<defs>
<filter id="filter0_b_3778_3074" x="81.1454" y="73.2128" width="109.225" height="108.351" filterUnits="userSpaceOnUse" color-interpolation-filters="sRGB">
<feFlood flood-opacity="0" result="BackgroundImageFix"/>
<feGaussianBlur in="BackgroundImageFix" stdDeviation="3.49519"/>
<feComposite in2="SourceAlpha" operator="in" result="effect1_backgroundBlur_3778_3074"/>
<feBlend mode="normal" in="SourceGraphic" in2="effect1_backgroundBlur_3778_3074" result="shape"/>
</filter>
</defs>
</svg>
