<svg width="332" height="301" viewBox="0 0 332 301" fill="none" xmlns="http://www.w3.org/2000/svg">
<path d="M274.935 26.6816C276 84.1951 275.394 158.314 276 190.219L97.7764 188.231C104.41 154.761 103.069 91.8353 101.323 27.3996L274.935 26.6816Z" fill="#38B89A" fill-opacity="0.54"/>
<path d="M95.6807 183.408C103.068 130.754 101.175 63.2259 100.605 26.6816H274.934C274.934 26.6816 276.624 125.047 273.556 143.384C269.513 167.483 240.241 154.467 240.241 154.467C240.241 154.467 237.852 185.617 220.156 185.617C202.461 185.617 95.6807 183.408 95.6807 183.408Z" fill="#E2F5EE"/>
<path d="M275.172 61.4032H101.413L100.898 26.7185L274.786 26.6816L275.172 61.4032Z" fill="#38B89A"/>
<path d="M126.848 48.1863C129.497 48.1863 131.644 46.035 131.644 43.3812C131.644 40.7275 129.497 38.5762 126.848 38.5762C124.199 38.5762 122.052 40.7275 122.052 43.3812C122.052 46.035 124.199 48.1863 126.848 48.1863Z" fill="#E2F5EE" stroke="#0B5243" stroke-width="1.57142" stroke-linejoin="round"/>
<path d="M150.531 48.1863C153.18 48.1863 155.327 46.035 155.327 43.3812C155.327 40.7275 153.18 38.5762 150.531 38.5762C147.882 38.5762 145.735 40.7275 145.735 43.3812C145.735 46.035 147.882 48.1863 150.531 48.1863Z" fill="#E2F5EE" stroke="#0B5243" stroke-width="1.57142" stroke-linejoin="round"/>
<path d="M223.923 48.1863C226.572 48.1863 228.719 46.035 228.719 43.3812C228.719 40.7275 226.572 38.5762 223.923 38.5762C221.274 38.5762 219.127 40.7275 219.127 43.3812C219.127 46.035 221.274 48.1863 223.923 48.1863Z" fill="#E2F5EE" stroke="#0B5243" stroke-width="1.57142" stroke-linejoin="round"/>
<path d="M247.611 48.1863C250.26 48.1863 252.407 46.035 252.407 43.3812C252.407 40.7275 250.26 38.5762 247.611 38.5762C244.963 38.5762 242.815 40.7275 242.815 43.3812C242.815 46.035 244.963 48.1863 247.611 48.1863Z" fill="#E2F5EE" stroke="#0B5243" stroke-width="1.57142" stroke-linejoin="round"/>
<path d="M272.731 146.791C269.258 166.49 244.102 183.759 222.584 185.637C232.893 182.893 239.545 170.135 240.224 154.486C257.001 159.991 269.184 159.255 272.731 146.809V146.791Z" fill="#CBEDE1"/>
<path d="M197.519 153.29H195.167C193.77 153.29 192.649 152.112 192.723 150.713C193.641 134.641 193.605 111.02 194.946 82.5214C194.946 81.5272 194.395 81.0117 193.311 81.0117C189.691 81.3615 186.034 81.5272 182.34 81.5272C178.959 81.5272 175.468 81.3983 171.848 81.1406C170.69 81.0669 169.606 81.7849 169.312 82.908C168.743 85.1356 168.449 87.9708 168.449 91.4687C168.449 92.5181 169.165 93.2913 170.599 93.8252C172.032 94.3407 173.759 94.6168 175.762 94.6168C177.453 94.6168 178.573 94.985 179.088 95.703C179.603 96.421 179.878 97.4336 179.878 98.7407C180.411 117.74 179.952 137.881 177.342 151.339C177.122 152.48 176.111 153.29 174.953 153.29H171.334C169.331 153.29 167.677 154.929 167.677 156.954L167.181 164.391C167.181 166.398 168.816 168.055 170.837 168.055H197.28C199.283 168.055 200.936 166.417 200.936 164.391L201.175 156.954C201.175 154.947 199.54 153.29 197.519 153.29Z" fill="#3A3A3A"/>
<path d="M126.846 39.5325C124.145 31.2663 125.009 1 126.846 1C128.684 1 128.684 26.6822 128.684 26.6822" stroke="#0B5243" stroke-width="1.57142" stroke-linecap="round" stroke-linejoin="round"/>
<path d="M150.476 39.5325C147.775 31.2663 148.639 1 150.476 1C152.314 1 152.314 26.6822 152.314 26.6822" stroke="#0B5243" stroke-width="1.57142" stroke-linecap="round" stroke-linejoin="round"/>
<path d="M223.868 39.5325C221.166 31.2663 222.03 1 223.868 1C225.705 1 225.705 26.6822 225.705 26.6822" stroke="#0B5243" stroke-width="1.57142" stroke-linecap="round" stroke-linejoin="round"/>
<path d="M247.612 39.5325C244.911 31.2663 245.774 1 247.612 1C249.449 1 249.449 26.6822 249.449 26.6822" stroke="#0B5243" stroke-width="1.57142" stroke-linecap="round" stroke-linejoin="round"/>
<path d="M103.997 212.618C127.085 212.618 145.802 193.847 145.802 170.692C145.802 147.537 127.085 128.766 103.997 128.766C80.9083 128.766 62.1914 147.537 62.1914 170.692C62.1914 193.847 80.9083 212.618 103.997 212.618Z" fill="#38B89A"/>
<path d="M97.8054 212.618C120.894 212.618 139.611 193.847 139.611 170.692C139.611 147.537 120.894 128.766 97.8054 128.766C74.7169 128.766 56 147.537 56 170.692C56 193.847 74.7169 212.618 97.8054 212.618Z" fill="#CBEDE1"/>
<path d="M88.4745 138.082V162.268H66.8384V177.206H88.4745V201.748H103.449V177.206H125.676V162.268H103.449V138.082H88.4745Z" fill="#38B89A"/>
<path d="M37.1225 241.163V258.617H35.0771L25.5657 244.913H25.3952V258.617H23.2816V241.163H25.3271L34.8725 254.901H35.043V241.163H37.1225ZM46.3974 258.89C45.2156 258.89 44.1786 258.609 43.2866 258.046C42.4002 257.484 41.707 256.697 41.207 255.685C40.7127 254.674 40.4656 253.492 40.4656 252.14C40.4656 250.776 40.7127 249.586 41.207 248.569C41.707 247.552 42.4002 246.762 43.2866 246.2C44.1786 245.637 45.2156 245.356 46.3974 245.356C47.5792 245.356 48.6133 245.637 49.4996 246.2C50.3917 246.762 51.0849 247.552 51.5792 248.569C52.0792 249.586 52.3292 250.776 52.3292 252.14C52.3292 253.492 52.0792 254.674 51.5792 255.685C51.0849 256.697 50.3917 257.484 49.4996 258.046C48.6133 258.609 47.5792 258.89 46.3974 258.89ZM46.3974 257.083C47.2951 257.083 48.0337 256.853 48.6133 256.393C49.1928 255.933 49.6218 255.327 49.9002 254.577C50.1786 253.827 50.3178 253.015 50.3178 252.14C50.3178 251.265 50.1786 250.45 49.9002 249.694C49.6218 248.938 49.1928 248.327 48.6133 247.862C48.0337 247.396 47.2951 247.163 46.3974 247.163C45.4996 247.163 44.761 247.396 44.1815 247.862C43.6019 248.327 43.1729 248.938 42.8945 249.694C42.6161 250.45 42.4769 251.265 42.4769 252.14C42.4769 253.015 42.6161 253.827 42.8945 254.577C43.1729 255.327 43.6019 255.933 44.1815 256.393C44.761 256.853 45.4996 257.083 46.3974 257.083ZM63.1381 258.617H60.9222L67.3313 241.163H69.5131L75.9222 258.617H73.7063L68.4904 243.924H68.354L63.1381 258.617ZM63.9563 251.799H72.8881V253.674H63.9563V251.799ZM78.3683 263.526V245.526H80.3114V247.606H80.5501C80.6978 247.379 80.9023 247.089 81.1637 246.737C81.4308 246.379 81.8114 246.06 82.3058 245.782C82.8058 245.498 83.4819 245.356 84.3342 245.356C85.4364 245.356 86.408 245.631 87.2489 246.183C88.0898 246.734 88.7461 247.515 89.2177 248.526C89.6893 249.538 89.9251 250.731 89.9251 252.106C89.9251 253.492 89.6893 254.694 89.2177 255.711C88.7461 256.722 88.0927 257.506 87.2575 258.063C86.4222 258.614 85.4592 258.89 84.3683 258.89C83.5273 258.89 82.854 258.751 82.3484 258.472C81.8427 258.188 81.4535 257.867 81.1808 257.509C80.908 257.146 80.6978 256.844 80.5501 256.606H80.3796V263.526H78.3683ZM80.3455 252.072C80.3455 253.06 80.4904 253.933 80.7802 254.688C81.07 255.438 81.4933 256.026 82.0501 256.452C82.6069 256.873 83.2887 257.083 84.0955 257.083C84.9364 257.083 85.6381 256.862 86.2006 256.418C86.7688 255.969 87.195 255.367 87.479 254.612C87.7688 253.85 87.9137 253.004 87.9137 252.072C87.9137 251.151 87.7717 250.322 87.4876 249.583C87.2092 248.839 86.7859 248.251 86.2177 247.819C85.6552 247.381 84.9478 247.163 84.0955 247.163C83.2773 247.163 82.5898 247.37 82.033 247.785C81.4762 248.194 81.0558 248.768 80.7717 249.506C80.4876 250.239 80.3455 251.094 80.3455 252.072ZM92.9933 263.526V245.526H94.9364V247.606H95.1751C95.3228 247.379 95.5273 247.089 95.7887 246.737C96.0558 246.379 96.4364 246.06 96.9308 245.782C97.4308 245.498 98.1069 245.356 98.9592 245.356C100.061 245.356 101.033 245.631 101.874 246.183C102.715 246.734 103.371 247.515 103.843 248.526C104.314 249.538 104.55 250.731 104.55 252.106C104.55 253.492 104.314 254.694 103.843 255.711C103.371 256.722 102.718 257.506 101.882 258.063C101.047 258.614 100.084 258.89 98.9933 258.89C98.1523 258.89 97.479 258.751 96.9734 258.472C96.4677 258.188 96.0785 257.867 95.8058 257.509C95.533 257.146 95.3228 256.844 95.1751 256.606H95.0046V263.526H92.9933ZM94.9705 252.072C94.9705 253.06 95.1154 253.933 95.4052 254.688C95.695 255.438 96.1183 256.026 96.6751 256.452C97.2319 256.873 97.9137 257.083 98.7205 257.083C99.5614 257.083 100.263 256.862 100.826 256.418C101.394 255.969 101.82 255.367 102.104 254.612C102.394 253.85 102.539 253.004 102.539 252.072C102.539 251.151 102.397 250.322 102.113 249.583C101.834 248.839 101.411 248.251 100.843 247.819C100.28 247.381 99.5728 247.163 98.7205 247.163C97.9023 247.163 97.2148 247.37 96.658 247.785C96.1012 248.194 95.6808 248.768 95.3967 249.506C95.1126 250.239 94.9705 251.094 94.9705 252.072ZM112.936 258.89C111.755 258.89 110.718 258.609 109.826 258.046C108.939 257.484 108.246 256.697 107.746 255.685C107.252 254.674 107.005 253.492 107.005 252.14C107.005 250.776 107.252 249.586 107.746 248.569C108.246 247.552 108.939 246.762 109.826 246.2C110.718 245.637 111.755 245.356 112.936 245.356C114.118 245.356 115.152 245.637 116.039 246.2C116.931 246.762 117.624 247.552 118.118 248.569C118.618 249.586 118.868 250.776 118.868 252.14C118.868 253.492 118.618 254.674 118.118 255.685C117.624 256.697 116.931 257.484 116.039 258.046C115.152 258.609 114.118 258.89 112.936 258.89ZM112.936 257.083C113.834 257.083 114.573 256.853 115.152 256.393C115.732 255.933 116.161 255.327 116.439 254.577C116.718 253.827 116.857 253.015 116.857 252.14C116.857 251.265 116.718 250.45 116.439 249.694C116.161 248.938 115.732 248.327 115.152 247.862C114.573 247.396 113.834 247.163 112.936 247.163C112.039 247.163 111.3 247.396 110.721 247.862C110.141 248.327 109.712 248.938 109.434 249.694C109.155 250.45 109.016 251.265 109.016 252.14C109.016 253.015 109.155 253.827 109.434 254.577C109.712 255.327 110.141 255.933 110.721 256.393C111.3 256.853 112.039 257.083 112.936 257.083ZM121.939 258.617V245.526H123.95V258.617H121.939ZM122.961 243.344C122.569 243.344 122.231 243.211 121.947 242.944C121.669 242.677 121.529 242.356 121.529 241.981C121.529 241.606 121.669 241.285 121.947 241.018C122.231 240.751 122.569 240.617 122.961 240.617C123.353 240.617 123.689 240.751 123.967 241.018C124.251 241.285 124.393 241.606 124.393 241.981C124.393 242.356 124.251 242.677 123.967 242.944C123.689 243.211 123.353 243.344 122.961 243.344ZM129.645 250.742V258.617H127.634V245.526H129.577V247.572H129.748C130.054 246.907 130.52 246.373 131.145 245.969C131.77 245.56 132.577 245.356 133.566 245.356C134.452 245.356 135.228 245.538 135.892 245.901C136.557 246.259 137.074 246.805 137.444 247.538C137.813 248.265 137.998 249.185 137.998 250.299V258.617H135.986V250.435C135.986 249.407 135.719 248.606 135.185 248.032C134.651 247.452 133.918 247.163 132.986 247.163C132.344 247.163 131.77 247.302 131.265 247.58C130.765 247.859 130.37 248.265 130.08 248.799C129.79 249.333 129.645 249.981 129.645 250.742ZM147.366 245.526V247.231H140.582V245.526H147.366ZM142.559 242.39H144.571V254.867C144.571 255.435 144.653 255.862 144.818 256.146C144.988 256.424 145.204 256.612 145.466 256.708C145.733 256.799 146.014 256.844 146.309 256.844C146.531 256.844 146.713 256.833 146.855 256.81C146.997 256.782 147.11 256.759 147.196 256.742L147.605 258.549C147.468 258.6 147.278 258.651 147.034 258.702C146.789 258.759 146.48 258.788 146.105 258.788C145.537 258.788 144.98 258.665 144.434 258.421C143.895 258.177 143.446 257.805 143.088 257.305C142.735 256.805 142.559 256.174 142.559 255.413V242.39ZM150.392 258.617V245.526H152.335V247.572H152.505C152.778 246.873 153.218 246.33 153.826 245.944C154.434 245.552 155.164 245.356 156.017 245.356C156.88 245.356 157.599 245.552 158.173 245.944C158.752 246.33 159.204 246.873 159.528 247.572H159.664C160 246.896 160.502 246.359 161.173 245.961C161.843 245.558 162.647 245.356 163.585 245.356C164.755 245.356 165.713 245.722 166.457 246.455C167.201 247.183 167.574 248.316 167.574 249.856V258.617H165.562V249.856C165.562 248.89 165.298 248.2 164.77 247.785C164.241 247.37 163.619 247.163 162.903 247.163C161.983 247.163 161.27 247.441 160.764 247.998C160.258 248.549 160.005 249.248 160.005 250.094V258.617H157.96V249.651C157.96 248.907 157.718 248.308 157.235 247.853C156.752 247.393 156.13 247.163 155.369 247.163C154.846 247.163 154.358 247.302 153.903 247.58C153.454 247.859 153.091 248.245 152.812 248.739C152.539 249.228 152.403 249.793 152.403 250.435V258.617H150.392ZM176.74 258.89C175.478 258.89 174.39 258.612 173.475 258.055C172.566 257.492 171.865 256.708 171.37 255.702C170.882 254.691 170.637 253.515 170.637 252.174C170.637 250.833 170.882 249.651 171.37 248.629C171.865 247.6 172.552 246.799 173.433 246.225C174.319 245.646 175.353 245.356 176.535 245.356C177.217 245.356 177.89 245.469 178.555 245.697C179.22 245.924 179.825 246.293 180.37 246.805C180.916 247.31 181.35 247.981 181.674 248.816C181.998 249.651 182.16 250.68 182.16 251.901V252.754H172.069V251.015H180.115C180.115 250.276 179.967 249.617 179.672 249.038C179.382 248.458 178.967 248.001 178.427 247.665C177.893 247.33 177.262 247.163 176.535 247.163C175.734 247.163 175.041 247.362 174.456 247.759C173.876 248.151 173.43 248.663 173.118 249.293C172.805 249.924 172.649 250.6 172.649 251.322V252.481C172.649 253.469 172.819 254.308 173.16 254.995C173.507 255.677 173.987 256.197 174.6 256.555C175.214 256.907 175.927 257.083 176.74 257.083C177.268 257.083 177.745 257.009 178.172 256.862C178.603 256.708 178.975 256.481 179.288 256.18C179.6 255.873 179.842 255.492 180.012 255.038L181.956 255.583C181.751 256.242 181.407 256.822 180.924 257.322C180.441 257.816 179.845 258.202 179.135 258.481C178.424 258.754 177.626 258.89 176.74 258.89ZM187.231 250.742V258.617H185.22V245.526H187.163V247.572H187.333C187.64 246.907 188.106 246.373 188.731 245.969C189.356 245.56 190.163 245.356 191.152 245.356C192.038 245.356 192.814 245.538 193.478 245.901C194.143 246.259 194.66 246.805 195.029 247.538C195.399 248.265 195.583 249.185 195.583 250.299V258.617H193.572V250.435C193.572 249.407 193.305 248.606 192.771 248.032C192.237 247.452 191.504 247.163 190.572 247.163C189.93 247.163 189.356 247.302 188.85 247.58C188.35 247.859 187.956 248.265 187.666 248.799C187.376 249.333 187.231 249.981 187.231 250.742ZM204.952 245.526V247.231H198.168V245.526H204.952ZM200.145 242.39H202.157V254.867C202.157 255.435 202.239 255.862 202.404 256.146C202.574 256.424 202.79 256.612 203.051 256.708C203.319 256.799 203.6 256.844 203.895 256.844C204.117 256.844 204.299 256.833 204.441 256.81C204.583 256.782 204.696 256.759 204.782 256.742L205.191 258.549C205.054 258.6 204.864 258.651 204.62 258.702C204.375 258.759 204.066 258.788 203.691 258.788C203.123 258.788 202.566 258.665 202.02 258.421C201.48 258.177 201.032 257.805 200.674 257.305C200.321 256.805 200.145 256.174 200.145 255.413V242.39ZM217.016 248.458L215.209 248.969C215.096 248.668 214.928 248.376 214.706 248.092C214.49 247.802 214.195 247.563 213.82 247.376C213.445 247.188 212.965 247.094 212.38 247.094C211.578 247.094 210.911 247.279 210.377 247.648C209.848 248.012 209.584 248.475 209.584 249.038C209.584 249.538 209.766 249.933 210.13 250.222C210.493 250.512 211.061 250.754 211.834 250.947L213.777 251.424C214.948 251.708 215.82 252.143 216.394 252.728C216.968 253.308 217.255 254.055 217.255 254.969C217.255 255.719 217.039 256.39 216.607 256.981C216.181 257.572 215.584 258.038 214.817 258.379C214.05 258.719 213.158 258.89 212.141 258.89C210.806 258.89 209.701 258.6 208.826 258.021C207.951 257.441 207.397 256.594 207.164 255.481L209.073 255.004C209.255 255.708 209.598 256.237 210.104 256.589C210.615 256.941 211.283 257.117 212.107 257.117C213.044 257.117 213.789 256.918 214.34 256.521C214.897 256.117 215.175 255.634 215.175 255.072C215.175 254.617 215.016 254.237 214.698 253.93C214.38 253.617 213.891 253.384 213.232 253.231L211.05 252.719C209.851 252.435 208.971 251.995 208.408 251.398C207.851 250.796 207.573 250.043 207.573 249.14C207.573 248.401 207.78 247.748 208.195 247.18C208.615 246.612 209.186 246.165 209.908 245.842C210.635 245.518 211.459 245.356 212.38 245.356C213.675 245.356 214.692 245.64 215.431 246.208C216.175 246.776 216.703 247.526 217.016 248.458ZM227.305 258.617V241.163H233.407C234.623 241.163 235.626 241.373 236.416 241.793C237.206 242.208 237.794 242.768 238.18 243.472C238.566 244.171 238.76 244.947 238.76 245.799C238.76 246.549 238.626 247.168 238.359 247.657C238.098 248.146 237.751 248.532 237.319 248.816C236.893 249.1 236.43 249.31 235.93 249.447V249.617C236.464 249.651 237.001 249.839 237.541 250.18C238.081 250.521 238.532 251.009 238.896 251.646C239.26 252.282 239.441 253.06 239.441 253.981C239.441 254.856 239.243 255.643 238.845 256.342C238.447 257.04 237.819 257.594 236.961 258.004C236.103 258.413 234.987 258.617 233.612 258.617H227.305ZM229.419 256.742H233.612C234.993 256.742 235.973 256.475 236.552 255.941C237.137 255.401 237.43 254.748 237.43 253.981C237.43 253.39 237.279 252.844 236.978 252.344C236.677 251.839 236.248 251.435 235.691 251.134C235.135 250.827 234.475 250.674 233.714 250.674H229.419V256.742ZM229.419 248.833H233.339C233.975 248.833 234.549 248.708 235.061 248.458C235.578 248.208 235.987 247.856 236.288 247.401C236.595 246.947 236.748 246.413 236.748 245.799C236.748 245.032 236.481 244.381 235.947 243.847C235.413 243.308 234.566 243.038 233.407 243.038H229.419V248.833ZM247.96 258.89C246.778 258.89 245.741 258.609 244.849 258.046C243.963 257.484 243.27 256.697 242.77 255.685C242.275 254.674 242.028 253.492 242.028 252.14C242.028 250.776 242.275 249.586 242.77 248.569C243.27 247.552 243.963 246.762 244.849 246.2C245.741 245.637 246.778 245.356 247.96 245.356C249.142 245.356 250.176 245.637 251.062 246.2C251.954 246.762 252.647 247.552 253.142 248.569C253.642 249.586 253.892 250.776 253.892 252.14C253.892 253.492 253.642 254.674 253.142 255.685C252.647 256.697 251.954 257.484 251.062 258.046C250.176 258.609 249.142 258.89 247.96 258.89ZM247.96 257.083C248.858 257.083 249.596 256.853 250.176 256.393C250.755 255.933 251.184 255.327 251.463 254.577C251.741 253.827 251.88 253.015 251.88 252.14C251.88 251.265 251.741 250.45 251.463 249.694C251.184 248.938 250.755 248.327 250.176 247.862C249.596 247.396 248.858 247.163 247.96 247.163C247.062 247.163 246.324 247.396 245.744 247.862C245.164 248.327 244.735 248.938 244.457 249.694C244.179 250.45 244.039 251.265 244.039 252.14C244.039 253.015 244.179 253.827 244.457 254.577C244.735 255.327 245.164 255.933 245.744 256.393C246.324 256.853 247.062 257.083 247.96 257.083ZM262.28 258.89C261.098 258.89 260.061 258.609 259.169 258.046C258.283 257.484 257.59 256.697 257.09 255.685C256.596 254.674 256.348 253.492 256.348 252.14C256.348 250.776 256.596 249.586 257.09 248.569C257.59 247.552 258.283 246.762 259.169 246.2C260.061 245.637 261.098 245.356 262.28 245.356C263.462 245.356 264.496 245.637 265.382 246.2C266.275 246.762 266.968 247.552 267.462 248.569C267.962 249.586 268.212 250.776 268.212 252.14C268.212 253.492 267.962 254.674 267.462 255.685C266.968 256.697 266.275 257.484 265.382 258.046C264.496 258.609 263.462 258.89 262.28 258.89ZM262.28 257.083C263.178 257.083 263.917 256.853 264.496 256.393C265.076 255.933 265.505 255.327 265.783 254.577C266.061 253.827 266.201 253.015 266.201 252.14C266.201 251.265 266.061 250.45 265.783 249.694C265.505 248.938 265.076 248.327 264.496 247.862C263.917 247.396 263.178 247.163 262.28 247.163C261.382 247.163 260.644 247.396 260.064 247.862C259.485 248.327 259.056 248.938 258.777 249.694C258.499 250.45 258.36 251.265 258.36 252.14C258.36 253.015 258.499 253.827 258.777 254.577C259.056 255.327 259.485 255.933 260.064 256.393C260.644 256.853 261.382 257.083 262.28 257.083ZM273.157 253.844L273.123 251.356H273.532L279.26 245.526H281.748L275.646 251.697H275.475L273.157 253.844ZM271.282 258.617V241.163H273.294V258.617H271.282ZM279.6 258.617L274.487 252.14L275.919 250.742L282.157 258.617H279.6ZM289.287 258.89C288.025 258.89 286.937 258.612 286.022 258.055C285.113 257.492 284.412 256.708 283.917 255.702C283.429 254.691 283.184 253.515 283.184 252.174C283.184 250.833 283.429 249.651 283.917 248.629C284.412 247.6 285.099 246.799 285.98 246.225C286.866 245.646 287.9 245.356 289.082 245.356C289.764 245.356 290.437 245.469 291.102 245.697C291.767 245.924 292.372 246.293 292.917 246.805C293.463 247.31 293.897 247.981 294.221 248.816C294.545 249.651 294.707 250.68 294.707 251.901V252.754H284.616V251.015H292.662C292.662 250.276 292.514 249.617 292.218 249.038C291.929 248.458 291.514 248.001 290.974 247.665C290.44 247.33 289.809 247.163 289.082 247.163C288.281 247.163 287.588 247.362 287.002 247.759C286.423 248.151 285.977 248.663 285.664 249.293C285.352 249.924 285.196 250.6 285.196 251.322V252.481C285.196 253.469 285.366 254.308 285.707 254.995C286.054 255.677 286.534 256.197 287.147 256.555C287.761 256.907 288.474 257.083 289.287 257.083C289.815 257.083 290.292 257.009 290.718 256.862C291.15 256.708 291.522 256.481 291.835 256.18C292.147 255.873 292.389 255.492 292.559 255.038L294.502 255.583C294.298 256.242 293.954 256.822 293.471 257.322C292.988 257.816 292.392 258.202 291.681 258.481C290.971 258.754 290.173 258.89 289.287 258.89ZM302.71 258.89C301.619 258.89 300.656 258.614 299.821 258.063C298.985 257.506 298.332 256.722 297.86 255.711C297.389 254.694 297.153 253.492 297.153 252.106C297.153 250.731 297.389 249.538 297.86 248.526C298.332 247.515 298.988 246.734 299.829 246.183C300.67 245.631 301.642 245.356 302.744 245.356C303.596 245.356 304.27 245.498 304.764 245.782C305.264 246.06 305.645 246.379 305.906 246.737C306.173 247.089 306.38 247.379 306.528 247.606H306.699V241.163H308.71V258.617H306.767V256.606H306.528C306.38 256.844 306.17 257.146 305.897 257.509C305.625 257.867 305.235 258.188 304.73 258.472C304.224 258.751 303.551 258.89 302.71 258.89ZM302.983 257.083C303.789 257.083 304.471 256.873 305.028 256.452C305.585 256.026 306.008 255.438 306.298 254.688C306.588 253.933 306.733 253.06 306.733 252.072C306.733 251.094 306.591 250.239 306.306 249.506C306.022 248.768 305.602 248.194 305.045 247.785C304.488 247.37 303.801 247.163 302.983 247.163C302.13 247.163 301.42 247.381 300.852 247.819C300.289 248.251 299.866 248.839 299.582 249.583C299.304 250.322 299.164 251.151 299.164 252.072C299.164 253.004 299.306 253.85 299.591 254.612C299.88 255.367 300.306 255.969 300.869 256.418C301.437 256.862 302.142 257.083 302.983 257.083ZM47.0004 291.617V274.163H57.4663V276.038H49.114V281.935H56.6822V283.81H49.114V291.617H47.0004ZM60.6729 291.617V278.526H62.6161V280.504H62.7525C62.9911 279.856 63.4229 279.33 64.0479 278.927C64.6729 278.523 65.3775 278.322 66.1616 278.322C66.3093 278.322 66.494 278.325 66.7156 278.33C66.9371 278.336 67.1048 278.344 67.2184 278.356V280.401C67.1502 280.384 66.994 280.359 66.7496 280.325C66.511 280.285 66.2582 280.265 65.9911 280.265C65.3548 280.265 64.7866 280.398 64.2866 280.665C63.7923 280.927 63.4002 281.29 63.1104 281.756C62.8263 282.217 62.6843 282.742 62.6843 283.333V291.617H60.6729ZM74.5224 291.89C73.3406 291.89 72.3036 291.609 71.4116 291.046C70.5252 290.484 69.832 289.697 69.332 288.685C68.8377 287.674 68.5906 286.492 68.5906 285.14C68.5906 283.776 68.8377 282.586 69.332 281.569C69.832 280.552 70.5252 279.762 71.4116 279.2C72.3036 278.637 73.3406 278.356 74.5224 278.356C75.7042 278.356 76.7383 278.637 77.6246 279.2C78.5167 279.762 79.2099 280.552 79.7042 281.569C80.2042 282.586 80.4542 283.776 80.4542 285.14C80.4542 286.492 80.2042 287.674 79.7042 288.685C79.2099 289.697 78.5167 290.484 77.6246 291.046C76.7383 291.609 75.7042 291.89 74.5224 291.89ZM74.5224 290.083C75.4201 290.083 76.1587 289.853 76.7383 289.393C77.3178 288.933 77.7468 288.327 78.0252 287.577C78.3036 286.827 78.4428 286.015 78.4428 285.14C78.4428 284.265 78.3036 283.45 78.0252 282.694C77.7468 281.938 77.3178 281.327 76.7383 280.862C76.1587 280.396 75.4201 280.163 74.5224 280.163C73.6246 280.163 72.886 280.396 72.3065 280.862C71.7269 281.327 71.2979 281.938 71.0195 282.694C70.7411 283.45 70.6019 284.265 70.6019 285.14C70.6019 286.015 70.7411 286.827 71.0195 287.577C71.2979 288.327 71.7269 288.933 72.3065 289.393C72.886 289.853 73.6246 290.083 74.5224 290.083ZM83.5245 291.617V278.526H85.4677V280.572H85.6381C85.9109 279.873 86.3512 279.33 86.9592 278.944C87.5671 278.552 88.2972 278.356 89.1495 278.356C90.0131 278.356 90.7319 278.552 91.3058 278.944C91.8853 279.33 92.337 279.873 92.6609 280.572H92.7972C93.1325 279.896 93.6353 279.359 94.3058 278.961C94.9762 278.558 95.7802 278.356 96.7177 278.356C97.8881 278.356 98.8455 278.722 99.5898 279.455C100.334 280.183 100.706 281.316 100.706 282.856V291.617H98.695V282.856C98.695 281.89 98.4308 281.2 97.9023 280.785C97.3739 280.37 96.7518 280.163 96.0359 280.163C95.1154 280.163 94.4023 280.441 93.8967 280.998C93.391 281.549 93.1381 282.248 93.1381 283.094V291.617H91.0927V282.651C91.0927 281.907 90.8512 281.308 90.3683 280.853C89.8853 280.393 89.2631 280.163 88.5018 280.163C87.979 280.163 87.4904 280.302 87.0359 280.58C86.587 280.859 86.2234 281.245 85.945 281.739C85.6722 282.228 85.5359 282.793 85.5359 283.435V291.617H83.5245ZM111.407 291.617V274.163H113.52V289.742H121.634V291.617H111.407ZM124.634 291.617V278.526H126.645V291.617H124.634ZM125.657 276.344C125.265 276.344 124.926 276.211 124.642 275.944C124.364 275.677 124.225 275.356 124.225 274.981C124.225 274.606 124.364 274.285 124.642 274.018C124.926 273.751 125.265 273.617 125.657 273.617C126.049 273.617 126.384 273.751 126.662 274.018C126.946 274.285 127.088 274.606 127.088 274.981C127.088 275.356 126.946 275.677 126.662 275.944C126.384 276.211 126.049 276.344 125.657 276.344ZM136.159 278.526V280.231H129.102V278.526H136.159ZM131.216 291.617V276.719C131.216 275.969 131.392 275.344 131.744 274.844C132.096 274.344 132.554 273.969 133.116 273.719C133.679 273.469 134.272 273.344 134.897 273.344C135.392 273.344 135.795 273.384 136.108 273.464C136.42 273.543 136.653 273.617 136.806 273.685L136.227 275.424C136.125 275.39 135.983 275.347 135.801 275.296C135.625 275.245 135.392 275.219 135.102 275.219C134.437 275.219 133.957 275.387 133.662 275.722C133.372 276.058 133.227 276.549 133.227 277.197V291.617H131.216ZM143.927 291.89C142.666 291.89 141.578 291.612 140.663 291.055C139.754 290.492 139.052 289.708 138.558 288.702C138.069 287.691 137.825 286.515 137.825 285.174C137.825 283.833 138.069 282.651 138.558 281.629C139.052 280.6 139.74 279.799 140.62 279.225C141.507 278.646 142.541 278.356 143.723 278.356C144.404 278.356 145.078 278.469 145.743 278.697C146.407 278.924 147.012 279.293 147.558 279.805C148.103 280.31 148.538 280.981 148.862 281.816C149.186 282.651 149.348 283.68 149.348 284.901V285.754H139.257V284.015H147.302C147.302 283.276 147.154 282.617 146.859 282.038C146.569 281.458 146.154 281.001 145.615 280.665C145.081 280.33 144.45 280.163 143.723 280.163C142.922 280.163 142.228 280.362 141.643 280.759C141.064 281.151 140.618 281.663 140.305 282.293C139.993 282.924 139.836 283.6 139.836 284.322V285.481C139.836 286.469 140.007 287.308 140.348 287.995C140.694 288.677 141.174 289.197 141.788 289.555C142.402 289.907 143.115 290.083 143.927 290.083C144.456 290.083 144.933 290.009 145.359 289.862C145.791 289.708 146.163 289.481 146.475 289.18C146.788 288.873 147.029 288.492 147.2 288.038L149.143 288.583C148.939 289.242 148.595 289.822 148.112 290.322C147.629 290.816 147.032 291.202 146.322 291.481C145.612 291.754 144.814 291.89 143.927 291.89ZM173.475 279.617H171.362C171.237 279.009 171.018 278.475 170.706 278.015C170.399 277.555 170.024 277.168 169.581 276.856C169.143 276.538 168.657 276.299 168.123 276.14C167.589 275.981 167.032 275.901 166.453 275.901C165.396 275.901 164.439 276.168 163.581 276.702C162.728 277.237 162.049 278.023 161.544 279.063C161.044 280.103 160.794 281.379 160.794 282.89C160.794 284.401 161.044 285.677 161.544 286.717C162.049 287.756 162.728 288.543 163.581 289.077C164.439 289.612 165.396 289.879 166.453 289.879C167.032 289.879 167.589 289.799 168.123 289.64C168.657 289.481 169.143 289.245 169.581 288.933C170.024 288.614 170.399 288.225 170.706 287.765C171.018 287.299 171.237 286.765 171.362 286.163H173.475C173.316 287.055 173.027 287.853 172.606 288.558C172.186 289.262 171.663 289.862 171.038 290.356C170.413 290.844 169.711 291.217 168.933 291.472C168.16 291.728 167.333 291.856 166.453 291.856C164.964 291.856 163.64 291.492 162.481 290.765C161.322 290.038 160.41 289.004 159.745 287.663C159.081 286.322 158.748 284.731 158.748 282.89C158.748 281.049 159.081 279.458 159.745 278.117C160.41 276.776 161.322 275.742 162.481 275.015C163.64 274.288 164.964 273.924 166.453 273.924C167.333 273.924 168.16 274.052 168.933 274.308C169.711 274.563 170.413 274.938 171.038 275.433C171.663 275.921 172.186 276.518 172.606 277.222C173.027 277.921 173.316 278.719 173.475 279.617ZM181.936 291.89C180.755 291.89 179.718 291.609 178.826 291.046C177.939 290.484 177.246 289.697 176.746 288.685C176.252 287.674 176.005 286.492 176.005 285.14C176.005 283.776 176.252 282.586 176.746 281.569C177.246 280.552 177.939 279.762 178.826 279.2C179.718 278.637 180.755 278.356 181.936 278.356C183.118 278.356 184.152 278.637 185.039 279.2C185.931 279.762 186.624 280.552 187.118 281.569C187.618 282.586 187.868 283.776 187.868 285.14C187.868 286.492 187.618 287.674 187.118 288.685C186.624 289.697 185.931 290.484 185.039 291.046C184.152 291.609 183.118 291.89 181.936 291.89ZM181.936 290.083C182.834 290.083 183.573 289.853 184.152 289.393C184.732 288.933 185.161 288.327 185.439 287.577C185.718 286.827 185.857 286.015 185.857 285.14C185.857 284.265 185.718 283.45 185.439 282.694C185.161 281.938 184.732 281.327 184.152 280.862C183.573 280.396 182.834 280.163 181.936 280.163C181.039 280.163 180.3 280.396 179.721 280.862C179.141 281.327 178.712 281.938 178.434 282.694C178.155 283.45 178.016 284.265 178.016 285.14C178.016 286.015 178.155 286.827 178.434 287.577C178.712 288.327 179.141 288.933 179.721 289.393C180.3 289.853 181.039 290.083 181.936 290.083ZM194.791 291.924C193.961 291.924 193.208 291.768 192.532 291.455C191.856 291.137 191.319 290.68 190.922 290.083C190.524 289.481 190.325 288.754 190.325 287.901C190.325 287.151 190.473 286.543 190.768 286.077C191.064 285.606 191.458 285.237 191.953 284.969C192.447 284.702 192.993 284.504 193.589 284.373C194.191 284.237 194.797 284.129 195.404 284.049C196.2 283.947 196.845 283.87 197.339 283.819C197.839 283.762 198.203 283.668 198.43 283.538C198.663 283.407 198.779 283.18 198.779 282.856V282.788C198.779 281.947 198.549 281.293 198.089 280.827C197.635 280.362 196.944 280.129 196.018 280.129C195.058 280.129 194.305 280.339 193.76 280.759C193.214 281.18 192.831 281.629 192.609 282.106L190.7 281.424C191.041 280.629 191.495 280.009 192.064 279.566C192.637 279.117 193.262 278.805 193.939 278.629C194.62 278.447 195.291 278.356 195.95 278.356C196.37 278.356 196.853 278.407 197.399 278.509C197.95 278.606 198.481 278.808 198.993 279.114C199.51 279.421 199.939 279.884 200.279 280.504C200.62 281.123 200.791 281.952 200.791 282.992V291.617H198.779V289.844H198.677C198.541 290.129 198.314 290.433 197.995 290.756C197.677 291.08 197.254 291.356 196.725 291.583C196.197 291.81 195.552 291.924 194.791 291.924ZM195.098 290.117C195.893 290.117 196.564 289.961 197.109 289.648C197.66 289.336 198.075 288.933 198.353 288.438C198.637 287.944 198.779 287.424 198.779 286.879V285.038C198.694 285.14 198.507 285.234 198.217 285.319C197.933 285.398 197.603 285.469 197.228 285.532C196.859 285.589 196.498 285.64 196.146 285.685C195.799 285.725 195.518 285.759 195.302 285.788C194.779 285.856 194.291 285.967 193.836 286.12C193.387 286.268 193.024 286.492 192.745 286.793C192.473 287.089 192.336 287.492 192.336 288.004C192.336 288.702 192.595 289.231 193.112 289.589C193.635 289.941 194.297 290.117 195.098 290.117ZM209.78 291.89C208.553 291.89 207.496 291.6 206.61 291.021C205.723 290.441 205.042 289.643 204.564 288.626C204.087 287.609 203.848 286.447 203.848 285.14C203.848 283.81 204.093 282.637 204.581 281.62C205.076 280.597 205.763 279.799 206.644 279.225C207.53 278.646 208.564 278.356 209.746 278.356C210.667 278.356 211.496 278.526 212.235 278.867C212.973 279.208 213.578 279.685 214.05 280.299C214.522 280.913 214.814 281.629 214.928 282.447H212.917C212.763 281.85 212.422 281.322 211.894 280.862C211.371 280.396 210.667 280.163 209.78 280.163C208.996 280.163 208.309 280.367 207.718 280.776C207.132 281.18 206.675 281.751 206.346 282.489C206.022 283.222 205.86 284.083 205.86 285.072C205.86 286.083 206.019 286.964 206.337 287.714C206.661 288.464 207.115 289.046 207.701 289.461C208.292 289.876 208.985 290.083 209.78 290.083C210.303 290.083 210.777 289.992 211.203 289.81C211.63 289.629 211.99 289.367 212.286 289.026C212.581 288.685 212.792 288.276 212.917 287.799H214.928C214.814 288.572 214.533 289.268 214.084 289.887C213.641 290.501 213.053 290.989 212.32 291.353C211.593 291.711 210.746 291.89 209.78 291.89ZM219.88 283.742V291.617H217.868V274.163H219.88V280.572H220.05C220.357 279.896 220.817 279.359 221.431 278.961C222.05 278.558 222.874 278.356 223.902 278.356C224.794 278.356 225.576 278.535 226.246 278.893C226.917 279.245 227.436 279.788 227.806 280.521C228.181 281.248 228.368 282.174 228.368 283.299V291.617H226.357V283.435C226.357 282.396 226.087 281.592 225.547 281.023C225.013 280.45 224.272 280.163 223.323 280.163C222.664 280.163 222.073 280.302 221.55 280.58C221.033 280.859 220.624 281.265 220.323 281.799C220.027 282.333 219.88 282.981 219.88 283.742ZM237.571 274.163H239.991L244.832 282.31H245.037L249.877 274.163H252.298L245.991 284.424V291.617H243.877V284.424L237.571 274.163ZM258.396 291.89C257.135 291.89 256.047 291.612 255.132 291.055C254.223 290.492 253.521 289.708 253.027 288.702C252.538 287.691 252.294 286.515 252.294 285.174C252.294 283.833 252.538 282.651 253.027 281.629C253.521 280.6 254.208 279.799 255.089 279.225C255.975 278.646 257.01 278.356 258.191 278.356C258.873 278.356 259.547 278.469 260.211 278.697C260.876 278.924 261.481 279.293 262.027 279.805C262.572 280.31 263.007 280.981 263.331 281.816C263.654 282.651 263.816 283.68 263.816 284.901V285.754H253.725V284.015H261.771C261.771 283.276 261.623 282.617 261.328 282.038C261.038 281.458 260.623 281.001 260.083 280.665C259.549 280.33 258.919 280.163 258.191 280.163C257.39 280.163 256.697 280.362 256.112 280.759C255.532 281.151 255.086 281.663 254.774 282.293C254.461 282.924 254.305 283.6 254.305 284.322V285.481C254.305 286.469 254.475 287.308 254.816 287.995C255.163 288.677 255.643 289.197 256.257 289.555C256.87 289.907 257.583 290.083 258.396 290.083C258.924 290.083 259.402 290.009 259.828 289.862C260.26 289.708 260.632 289.481 260.944 289.18C261.257 288.873 261.498 288.492 261.669 288.038L263.612 288.583C263.407 289.242 263.064 289.822 262.581 290.322C262.098 290.816 261.501 291.202 260.791 291.481C260.081 291.754 259.282 291.89 258.396 291.89ZM272.569 278.526V280.231H265.785V278.526H272.569ZM267.762 275.39H269.774V287.867C269.774 288.435 269.856 288.862 270.021 289.146C270.191 289.424 270.407 289.612 270.669 289.708C270.936 289.799 271.217 289.844 271.512 289.844C271.734 289.844 271.916 289.833 272.058 289.81C272.2 289.782 272.314 289.759 272.399 289.742L272.808 291.549C272.672 291.6 272.481 291.651 272.237 291.702C271.993 291.759 271.683 291.788 271.308 291.788C270.74 291.788 270.183 291.665 269.637 291.421C269.098 291.177 268.649 290.805 268.291 290.305C267.939 289.805 267.762 289.174 267.762 288.413V275.39ZM278.254 274.163L278.083 286.708H276.106L275.936 274.163H278.254ZM277.095 291.754C276.674 291.754 276.314 291.603 276.012 291.302C275.711 291.001 275.561 290.64 275.561 290.219C275.561 289.799 275.711 289.438 276.012 289.137C276.314 288.836 276.674 288.685 277.095 288.685C277.515 288.685 277.876 288.836 278.177 289.137C278.478 289.438 278.629 289.799 278.629 290.219C278.629 290.498 278.558 290.754 278.416 290.987C278.279 291.219 278.095 291.407 277.862 291.549C277.635 291.685 277.379 291.754 277.095 291.754ZM284.934 274.163L284.763 286.708H282.786L282.615 274.163H284.934ZM283.775 291.754C283.354 291.754 282.993 291.603 282.692 291.302C282.391 291.001 282.24 290.64 282.24 290.219C282.24 289.799 282.391 289.438 282.692 289.137C282.993 288.836 283.354 288.685 283.775 288.685C284.195 288.685 284.556 288.836 284.857 289.137C285.158 289.438 285.309 289.799 285.309 290.219C285.309 290.498 285.238 290.754 285.096 290.987C284.959 291.219 284.775 291.407 284.542 291.549C284.314 291.685 284.059 291.754 283.775 291.754Z" fill="#7B849A"/>
</svg>
