<svg width="220" height="256" viewBox="0 0 220 256" fill="none" xmlns="http://www.w3.org/2000/svg">
<path d="M218.934 26.6826C220 84.196 219.394 158.315 220 190.22L41.7761 188.232C48.4097 154.762 47.0683 91.8363 45.3226 27.4006L218.934 26.6826Z" fill="#38B89A" fill-opacity="0.54"/>
<path d="M39.6807 183.408C47.0676 130.755 45.1749 63.2268 44.6053 26.6826H218.934C218.934 26.6826 220.624 125.048 217.556 143.385C213.513 167.484 184.241 154.468 184.241 154.468C184.241 154.468 181.852 185.618 164.156 185.618C146.461 185.618 39.6807 183.408 39.6807 183.408Z" fill="#E2F5EE"/>
<path d="M219.171 61.4042H45.4127L44.8982 26.7194L218.786 26.6826L219.171 61.4042Z" fill="#38B89A"/>
<path d="M70.8475 48.1853C73.4963 48.1853 75.6435 46.034 75.6435 43.3803C75.6435 40.7265 73.4963 38.5752 70.8475 38.5752C68.1988 38.5752 66.0515 40.7265 66.0515 43.3803C66.0515 46.034 68.1988 48.1853 70.8475 48.1853Z" fill="#E2F5EE" stroke="#0B5243" stroke-width="1.57142" stroke-linejoin="round"/>
<path d="M94.5311 48.1853C97.1799 48.1853 99.3271 46.034 99.3271 43.3803C99.3271 40.7265 97.1799 38.5752 94.5311 38.5752C91.8823 38.5752 89.7351 40.7265 89.7351 43.3803C89.7351 46.034 91.8823 48.1853 94.5311 48.1853Z" fill="#E2F5EE" stroke="#0B5243" stroke-width="1.57142" stroke-linejoin="round"/>
<path d="M167.923 48.1853C170.571 48.1853 172.719 46.034 172.719 43.3803C172.719 40.7265 170.571 38.5752 167.923 38.5752C165.274 38.5752 163.127 40.7265 163.127 43.3803C163.127 46.034 165.274 48.1853 167.923 48.1853Z" fill="#E2F5EE" stroke="#0B5243" stroke-width="1.57142" stroke-linejoin="round"/>
<path d="M191.611 48.1853C194.26 48.1853 196.407 46.034 196.407 43.3803C196.407 40.7265 194.26 38.5752 191.611 38.5752C188.962 38.5752 186.815 40.7265 186.815 43.3803C186.815 46.034 188.962 48.1853 191.611 48.1853Z" fill="#E2F5EE" stroke="#0B5243" stroke-width="1.57142" stroke-linejoin="round"/>
<path d="M216.73 146.79C213.258 166.489 188.101 183.758 166.584 185.636C176.892 182.892 183.544 170.134 184.224 154.485C201.001 159.99 213.184 159.254 216.73 146.808V146.79Z" fill="#CBEDE1"/>
<path d="M141.518 153.289H139.166C137.77 153.289 136.649 152.111 136.722 150.712C137.641 134.64 137.604 111.019 138.946 82.5204C138.946 81.5262 138.395 81.0107 137.31 81.0107C133.69 81.3605 130.034 81.5262 126.34 81.5262C122.959 81.5262 119.468 81.3974 115.848 81.1396C114.69 81.066 113.606 81.784 113.312 82.907C112.742 85.1346 112.448 87.9698 112.448 91.4677C112.448 92.5171 113.165 93.2903 114.598 93.8242C116.032 94.3397 117.759 94.6159 119.762 94.6159C121.452 94.6159 122.573 94.9841 123.088 95.7021C123.602 96.4201 123.878 97.4326 123.878 98.7397C124.411 117.739 123.951 137.88 121.342 151.338C121.122 152.479 120.111 153.289 118.953 153.289H115.333C113.33 153.289 111.677 154.928 111.677 156.953L111.18 164.39C111.18 166.397 112.816 168.054 114.837 168.054H141.279C143.282 168.054 144.936 166.416 144.936 164.39L145.175 156.953C145.175 154.946 143.54 153.289 141.518 153.289Z" fill="#3A3A3A"/>
<path d="M70.8458 39.5325C68.1446 31.2663 69.0083 1 70.8458 1C72.6834 1 72.6834 26.6822 72.6834 26.6822" stroke="#0B5243" stroke-width="1.57142" stroke-linecap="round" stroke-linejoin="round"/>
<path d="M94.4764 39.5325C91.7752 31.2663 92.6389 1 94.4764 1C96.314 1 96.314 26.6822 96.314 26.6822" stroke="#0B5243" stroke-width="1.57142" stroke-linecap="round" stroke-linejoin="round"/>
<path d="M167.868 39.5325C165.166 31.2663 166.03 1 167.868 1C169.705 1 169.705 26.6822 169.705 26.6822" stroke="#0B5243" stroke-width="1.57142" stroke-linecap="round" stroke-linejoin="round"/>
<path d="M191.611 39.5325C188.91 31.2663 189.774 1 191.611 1C193.449 1 193.449 26.6822 193.449 26.6822" stroke="#0B5243" stroke-width="1.57142" stroke-linecap="round" stroke-linejoin="round"/>
<path d="M47.9966 212.618C71.0851 212.618 89.802 193.847 89.802 170.692C89.802 147.537 71.0851 128.766 47.9966 128.766C24.9081 128.766 6.19116 147.537 6.19116 170.692C6.19116 193.847 24.9081 212.618 47.9966 212.618Z" fill="#38B89A"/>
<path d="M41.8054 212.618C64.8939 212.618 83.6108 193.847 83.6108 170.692C83.6108 147.537 64.8939 128.766 41.8054 128.766C18.7169 128.766 0 147.537 0 170.692C0 193.847 18.7169 212.618 41.8054 212.618Z" fill="#CBEDE1"/>
<path d="M32.4748 138.083V162.269H10.8386V177.207H32.4748V201.749H47.4489V177.207H69.6759V162.269H47.4489V138.083H32.4748Z" fill="#38B89A"/>
<path d="M26.9545 233.164V250.618H24.9091L15.3977 236.914H15.2273V250.618H13.1136V233.164H15.1591L24.7045 246.902H24.875V233.164H26.9545ZM36.2294 250.891C35.0476 250.891 34.0107 250.61 33.1186 250.047C32.2322 249.485 31.5391 248.698 31.0391 247.686C30.5447 246.675 30.2976 245.493 30.2976 244.141C30.2976 242.777 30.5447 241.587 31.0391 240.57C31.5391 239.553 32.2322 238.763 33.1186 238.201C34.0107 237.638 35.0476 237.357 36.2294 237.357C37.4112 237.357 38.4453 237.638 39.3317 238.201C40.2237 238.763 40.9169 239.553 41.4112 240.57C41.9112 241.587 42.1612 242.777 42.1612 244.141C42.1612 245.493 41.9112 246.675 41.4112 247.686C40.9169 248.698 40.2237 249.485 39.3317 250.047C38.4453 250.61 37.4112 250.891 36.2294 250.891ZM36.2294 249.084C37.1271 249.084 37.8658 248.854 38.4453 248.394C39.0249 247.934 39.4538 247.328 39.7322 246.578C40.0107 245.828 40.1499 245.016 40.1499 244.141C40.1499 243.266 40.0107 242.451 39.7322 241.695C39.4538 240.939 39.0249 240.328 38.4453 239.862C37.8658 239.397 37.1271 239.164 36.2294 239.164C35.3317 239.164 34.593 239.397 34.0135 239.862C33.4339 240.328 33.005 240.939 32.7266 241.695C32.4482 242.451 32.3089 243.266 32.3089 244.141C32.3089 245.016 32.4482 245.828 32.7266 246.578C33.005 247.328 33.4339 247.934 34.0135 248.394C34.593 248.854 35.3317 249.084 36.2294 249.084ZM52.9702 250.618H50.7543L57.1634 233.164H59.3452L65.7543 250.618H63.5384L58.3224 235.925H58.1861L52.9702 250.618ZM53.7884 243.8H62.7202V245.675H53.7884V243.8ZM68.2003 255.527V237.527H70.1435V239.607H70.3821C70.5298 239.38 70.7344 239.09 70.9957 238.737C71.2628 238.38 71.6435 238.061 72.1378 237.783C72.6378 237.499 73.3139 237.357 74.1662 237.357C75.2685 237.357 76.2401 237.632 77.081 238.184C77.9219 238.735 78.5781 239.516 79.0497 240.527C79.5213 241.539 79.7571 242.732 79.7571 244.107C79.7571 245.493 79.5213 246.695 79.0497 247.712C78.5781 248.723 77.9247 249.507 77.0895 250.064C76.2543 250.615 75.2912 250.891 74.2003 250.891C73.3594 250.891 72.6861 250.752 72.1804 250.473C71.6747 250.189 71.2855 249.868 71.0128 249.51C70.7401 249.147 70.5298 248.845 70.3821 248.607H70.2116V255.527H68.2003ZM70.1776 244.073C70.1776 245.061 70.3224 245.934 70.6122 246.689C70.902 247.439 71.3253 248.027 71.8821 248.453C72.4389 248.874 73.1207 249.084 73.9276 249.084C74.7685 249.084 75.4702 248.862 76.0327 248.419C76.6009 247.97 77.027 247.368 77.3111 246.612C77.6009 245.851 77.7457 245.005 77.7457 244.073C77.7457 243.152 77.6037 242.323 77.3196 241.584C77.0412 240.84 76.6179 240.252 76.0497 239.82C75.4872 239.382 74.7798 239.164 73.9276 239.164C73.1094 239.164 72.4219 239.371 71.8651 239.786C71.3082 240.195 70.8878 240.769 70.6037 241.507C70.3196 242.24 70.1776 243.095 70.1776 244.073ZM82.8253 255.527V237.527H84.7685V239.607H85.0071C85.1548 239.38 85.3594 239.09 85.6207 238.737C85.8878 238.38 86.2685 238.061 86.7628 237.783C87.2628 237.499 87.9389 237.357 88.7912 237.357C89.8935 237.357 90.8651 237.632 91.706 238.184C92.5469 238.735 93.2031 239.516 93.6747 240.527C94.1463 241.539 94.3821 242.732 94.3821 244.107C94.3821 245.493 94.1463 246.695 93.6747 247.712C93.2031 248.723 92.5497 249.507 91.7145 250.064C90.8793 250.615 89.9162 250.891 88.8253 250.891C87.9844 250.891 87.3111 250.752 86.8054 250.473C86.2997 250.189 85.9105 249.868 85.6378 249.51C85.3651 249.147 85.1548 248.845 85.0071 248.607H84.8366V255.527H82.8253ZM84.8026 244.073C84.8026 245.061 84.9474 245.934 85.2372 246.689C85.527 247.439 85.9503 248.027 86.5071 248.453C87.0639 248.874 87.7457 249.084 88.5526 249.084C89.3935 249.084 90.0952 248.862 90.6577 248.419C91.2259 247.97 91.652 247.368 91.9361 246.612C92.2259 245.851 92.3707 245.005 92.3707 244.073C92.3707 243.152 92.2287 242.323 91.9446 241.584C91.6662 240.84 91.2429 240.252 90.6747 239.82C90.1122 239.382 89.4048 239.164 88.5526 239.164C87.7344 239.164 87.0469 239.371 86.4901 239.786C85.9332 240.195 85.5128 240.769 85.2287 241.507C84.9446 242.24 84.8026 243.095 84.8026 244.073ZM102.768 250.891C101.587 250.891 100.55 250.61 99.6577 250.047C98.7713 249.485 98.0781 248.698 97.5781 247.686C97.0838 246.675 96.8366 245.493 96.8366 244.141C96.8366 242.777 97.0838 241.587 97.5781 240.57C98.0781 239.553 98.7713 238.763 99.6577 238.201C100.55 237.638 101.587 237.357 102.768 237.357C103.95 237.357 104.984 237.638 105.871 238.201C106.763 238.763 107.456 239.553 107.95 240.57C108.45 241.587 108.7 242.777 108.7 244.141C108.7 245.493 108.45 246.675 107.95 247.686C107.456 248.698 106.763 249.485 105.871 250.047C104.984 250.61 103.95 250.891 102.768 250.891ZM102.768 249.084C103.666 249.084 104.405 248.854 104.984 248.394C105.564 247.934 105.993 247.328 106.271 246.578C106.55 245.828 106.689 245.016 106.689 244.141C106.689 243.266 106.55 242.451 106.271 241.695C105.993 240.939 105.564 240.328 104.984 239.862C104.405 239.397 103.666 239.164 102.768 239.164C101.871 239.164 101.132 239.397 100.553 239.862C99.973 240.328 99.544 240.939 99.2656 241.695C98.9872 242.451 98.848 243.266 98.848 244.141C98.848 245.016 98.9872 245.828 99.2656 246.578C99.544 247.328 99.973 247.934 100.553 248.394C101.132 248.854 101.871 249.084 102.768 249.084ZM111.771 250.618V237.527H113.782V250.618H111.771ZM112.793 235.345C112.401 235.345 112.063 235.212 111.779 234.945C111.501 234.678 111.362 234.357 111.362 233.982C111.362 233.607 111.501 233.286 111.779 233.019C112.063 232.752 112.401 232.618 112.793 232.618C113.185 232.618 113.521 232.752 113.799 233.019C114.083 233.286 114.225 233.607 114.225 233.982C114.225 234.357 114.083 234.678 113.799 234.945C113.521 235.212 113.185 235.345 112.793 235.345ZM119.477 242.743V250.618H117.466V237.527H119.409V239.573H119.58C119.886 238.908 120.352 238.374 120.977 237.97C121.602 237.561 122.409 237.357 123.398 237.357C124.284 237.357 125.06 237.539 125.724 237.902C126.389 238.26 126.906 238.806 127.276 239.539C127.645 240.266 127.83 241.186 127.83 242.3V250.618H125.818V242.436C125.818 241.408 125.551 240.607 125.017 240.033C124.483 239.453 123.75 239.164 122.818 239.164C122.176 239.164 121.602 239.303 121.097 239.581C120.597 239.86 120.202 240.266 119.912 240.8C119.622 241.334 119.477 241.982 119.477 242.743ZM137.198 237.527V239.232H130.414V237.527H137.198ZM132.391 234.391H134.403V246.868C134.403 247.436 134.485 247.862 134.65 248.147C134.82 248.425 135.036 248.612 135.298 248.709C135.565 248.8 135.846 248.845 136.141 248.845C136.363 248.845 136.545 248.834 136.687 248.811C136.829 248.783 136.942 248.76 137.028 248.743L137.437 250.55C137.3 250.601 137.11 250.652 136.866 250.703C136.621 250.76 136.312 250.789 135.937 250.789C135.369 250.789 134.812 250.666 134.266 250.422C133.727 250.178 133.278 249.806 132.92 249.306C132.567 248.806 132.391 248.175 132.391 247.414V234.391ZM140.224 250.618V237.527H142.167V239.573H142.337C142.61 238.874 143.05 238.331 143.658 237.945C144.266 237.553 144.996 237.357 145.849 237.357C146.712 237.357 147.431 237.553 148.005 237.945C148.585 238.331 149.036 238.874 149.36 239.573H149.496C149.832 238.897 150.335 238.36 151.005 237.962C151.675 237.559 152.479 237.357 153.417 237.357C154.587 237.357 155.545 237.723 156.289 238.456C157.033 239.184 157.406 240.317 157.406 241.857V250.618H155.394V241.857C155.394 240.891 155.13 240.201 154.602 239.786C154.073 239.371 153.451 239.164 152.735 239.164C151.815 239.164 151.102 239.442 150.596 239.999C150.09 240.55 149.837 241.249 149.837 242.095V250.618H147.792V241.652C147.792 240.908 147.55 240.309 147.067 239.854C146.585 239.394 145.962 239.164 145.201 239.164C144.678 239.164 144.19 239.303 143.735 239.581C143.286 239.86 142.923 240.246 142.644 240.74C142.371 241.229 142.235 241.794 142.235 242.436V250.618H140.224ZM166.572 250.891C165.31 250.891 164.222 250.612 163.308 250.056C162.398 249.493 161.697 248.709 161.202 247.703C160.714 246.692 160.469 245.516 160.469 244.175C160.469 242.834 160.714 241.652 161.202 240.63C161.697 239.601 162.384 238.8 163.265 238.226C164.151 237.647 165.185 237.357 166.367 237.357C167.049 237.357 167.722 237.47 168.387 237.698C169.052 237.925 169.657 238.294 170.202 238.806C170.748 239.311 171.183 239.982 171.506 240.817C171.83 241.652 171.992 242.681 171.992 243.902V244.755H161.901V243.016H169.947C169.947 242.277 169.799 241.618 169.504 241.039C169.214 240.459 168.799 240.002 168.259 239.666C167.725 239.331 167.094 239.164 166.367 239.164C165.566 239.164 164.873 239.362 164.288 239.76C163.708 240.152 163.262 240.664 162.95 241.294C162.637 241.925 162.481 242.601 162.481 243.323V244.482C162.481 245.47 162.651 246.309 162.992 246.996C163.339 247.678 163.819 248.198 164.433 248.556C165.046 248.908 165.759 249.084 166.572 249.084C167.1 249.084 167.577 249.01 168.004 248.862C168.435 248.709 168.808 248.482 169.12 248.181C169.433 247.874 169.674 247.493 169.844 247.039L171.788 247.584C171.583 248.243 171.239 248.823 170.756 249.323C170.273 249.817 169.677 250.203 168.967 250.482C168.256 250.755 167.458 250.891 166.572 250.891ZM177.063 242.743V250.618H175.052V237.527H176.995V239.573H177.165C177.472 238.908 177.938 238.374 178.563 237.97C179.188 237.561 179.995 237.357 180.984 237.357C181.87 237.357 182.646 237.539 183.31 237.902C183.975 238.26 184.492 238.806 184.862 239.539C185.231 240.266 185.415 241.186 185.415 242.3V250.618H183.404V242.436C183.404 241.408 183.137 240.607 182.603 240.033C182.069 239.453 181.336 239.164 180.404 239.164C179.762 239.164 179.188 239.303 178.683 239.581C178.183 239.86 177.788 240.266 177.498 240.8C177.208 241.334 177.063 241.982 177.063 242.743ZM194.784 237.527V239.232H188V237.527H194.784ZM189.977 234.391H191.989V246.868C191.989 247.436 192.071 247.862 192.236 248.147C192.406 248.425 192.622 248.612 192.884 248.709C193.151 248.8 193.432 248.845 193.727 248.845C193.949 248.845 194.131 248.834 194.273 248.811C194.415 248.783 194.528 248.76 194.614 248.743L195.023 250.55C194.886 250.601 194.696 250.652 194.452 250.703C194.207 250.76 193.898 250.789 193.523 250.789C192.955 250.789 192.398 250.666 191.852 250.422C191.313 250.178 190.864 249.806 190.506 249.306C190.153 248.806 189.977 248.175 189.977 247.414V234.391ZM206.848 240.459L205.041 240.97C204.928 240.669 204.76 240.377 204.538 240.093C204.322 239.803 204.027 239.564 203.652 239.377C203.277 239.189 202.797 239.095 202.212 239.095C201.411 239.095 200.743 239.28 200.209 239.649C199.68 240.013 199.416 240.476 199.416 241.039C199.416 241.539 199.598 241.934 199.962 242.223C200.325 242.513 200.893 242.755 201.666 242.948L203.609 243.425C204.78 243.709 205.652 244.144 206.226 244.729C206.8 245.309 207.087 246.056 207.087 246.97C207.087 247.72 206.871 248.391 206.439 248.982C206.013 249.573 205.416 250.039 204.649 250.38C203.882 250.72 202.99 250.891 201.973 250.891C200.638 250.891 199.533 250.601 198.658 250.022C197.783 249.442 197.229 248.595 196.996 247.482L198.905 247.005C199.087 247.709 199.43 248.237 199.936 248.59C200.447 248.942 201.115 249.118 201.939 249.118C202.876 249.118 203.621 248.919 204.172 248.522C204.729 248.118 205.007 247.635 205.007 247.073C205.007 246.618 204.848 246.237 204.53 245.931C204.212 245.618 203.723 245.385 203.064 245.232L200.882 244.72C199.683 244.436 198.803 243.996 198.24 243.399C197.683 242.797 197.405 242.044 197.405 241.141C197.405 240.402 197.612 239.749 198.027 239.181C198.447 238.612 199.018 238.166 199.74 237.843C200.467 237.519 201.291 237.357 202.212 237.357C203.507 237.357 204.524 237.641 205.263 238.209C206.007 238.777 206.536 239.527 206.848 240.459Z" fill="#7B849A"/>
</svg>
