<svg width="332" height="301" viewBox="0 0 332 301" fill="none" xmlns="http://www.w3.org/2000/svg">
<path d="M274.934 26.6816C276 84.1951 275.394 158.314 276 190.219L97.7761 188.231C104.41 154.761 103.068 91.8353 101.323 27.3996L274.934 26.6816Z" fill="#38B89A" fill-opacity="0.54"/>
<path d="M95.6807 183.408C103.068 130.754 101.175 63.2259 100.605 26.6816H274.934C274.934 26.6816 276.624 125.047 273.556 143.384C269.513 167.483 240.241 154.467 240.241 154.467C240.241 154.467 237.852 185.617 220.156 185.617C202.461 185.617 95.6807 183.408 95.6807 183.408Z" fill="#E2F5EE"/>
<path d="M275.171 61.4032H101.413L100.898 26.7185L274.786 26.6816L275.171 61.4032Z" fill="#38B89A"/>
<path d="M126.848 48.1863C129.496 48.1863 131.644 46.035 131.644 43.3812C131.644 40.7275 129.496 38.5762 126.848 38.5762C124.199 38.5762 122.052 40.7275 122.052 43.3812C122.052 46.035 124.199 48.1863 126.848 48.1863Z" fill="#E2F5EE" stroke="#0B5243" stroke-width="1.57142" stroke-linejoin="round"/>
<path d="M150.531 48.1863C153.18 48.1863 155.327 46.035 155.327 43.3812C155.327 40.7275 153.18 38.5762 150.531 38.5762C147.882 38.5762 145.735 40.7275 145.735 43.3812C145.735 46.035 147.882 48.1863 150.531 48.1863Z" fill="#E2F5EE" stroke="#0B5243" stroke-width="1.57142" stroke-linejoin="round"/>
<path d="M223.923 48.1863C226.571 48.1863 228.719 46.035 228.719 43.3812C228.719 40.7275 226.571 38.5762 223.923 38.5762C221.274 38.5762 219.127 40.7275 219.127 43.3812C219.127 46.035 221.274 48.1863 223.923 48.1863Z" fill="#E2F5EE" stroke="#0B5243" stroke-width="1.57142" stroke-linejoin="round"/>
<path d="M247.611 48.1863C250.26 48.1863 252.407 46.035 252.407 43.3812C252.407 40.7275 250.26 38.5762 247.611 38.5762C244.962 38.5762 242.815 40.7275 242.815 43.3812C242.815 46.035 244.962 48.1863 247.611 48.1863Z" fill="#E2F5EE" stroke="#0B5243" stroke-width="1.57142" stroke-linejoin="round"/>
<path d="M272.73 146.791C269.258 166.49 244.101 183.759 222.584 185.637C232.892 182.893 239.544 170.135 240.224 154.486C257.001 159.991 269.184 159.255 272.73 146.809V146.791Z" fill="#CBEDE1"/>
<path d="M197.518 153.29H195.166C193.77 153.29 192.649 152.112 192.722 150.713C193.641 134.641 193.604 111.02 194.946 82.5214C194.946 81.5272 194.395 81.0117 193.31 81.0117C189.69 81.3615 186.034 81.5272 182.34 81.5272C178.959 81.5272 175.468 81.3983 171.848 81.1406C170.69 81.0669 169.606 81.7849 169.312 82.908C168.742 85.1356 168.448 87.9708 168.448 91.4687C168.448 92.5181 169.165 93.2913 170.598 93.8252C172.032 94.3407 173.759 94.6168 175.762 94.6168C177.452 94.6168 178.573 94.985 179.088 95.703C179.602 96.421 179.878 97.4336 179.878 98.7407C180.411 117.74 179.951 137.881 177.342 151.339C177.122 152.48 176.111 153.29 174.953 153.29H171.333C169.33 153.29 167.677 154.929 167.677 156.954L167.18 164.391C167.18 166.398 168.816 168.055 170.837 168.055H197.279C199.282 168.055 200.936 166.417 200.936 164.391L201.175 156.954C201.175 154.947 199.54 153.29 197.518 153.29Z" fill="#3A3A3A"/>
<path d="M126.846 39.5325C124.145 31.2663 125.008 1 126.846 1C128.683 1 128.683 26.6822 128.683 26.6822" stroke="#0B5243" stroke-width="1.57142" stroke-linecap="round" stroke-linejoin="round"/>
<path d="M150.476 39.5325C147.775 31.2663 148.639 1 150.476 1C152.314 1 152.314 26.6822 152.314 26.6822" stroke="#0B5243" stroke-width="1.57142" stroke-linecap="round" stroke-linejoin="round"/>
<path d="M223.868 39.5325C221.166 31.2663 222.03 1 223.868 1C225.705 1 225.705 26.6822 225.705 26.6822" stroke="#0B5243" stroke-width="1.57142" stroke-linecap="round" stroke-linejoin="round"/>
<path d="M247.611 39.5325C244.91 31.2663 245.774 1 247.611 1C249.449 1 249.449 26.6822 249.449 26.6822" stroke="#0B5243" stroke-width="1.57142" stroke-linecap="round" stroke-linejoin="round"/>
<path d="M103.997 212.618C127.085 212.618 145.802 193.847 145.802 170.692C145.802 147.537 127.085 128.766 103.997 128.766C80.9081 128.766 62.1912 147.537 62.1912 170.692C62.1912 193.847 80.9081 212.618 103.997 212.618Z" fill="#38B89A"/>
<path d="M97.8054 212.618C120.894 212.618 139.611 193.847 139.611 170.692C139.611 147.537 120.894 128.766 97.8054 128.766C74.7169 128.766 56 147.537 56 170.692C56 193.847 74.7169 212.618 97.8054 212.618Z" fill="#CBEDE1"/>
<path d="M88.4748 138.082V162.268H66.8386V177.206H88.4748V201.748H103.449V177.206H125.676V162.268H103.449V138.082H88.4748Z" fill="#38B89A"/>
<path d="M37.1225 241.163V258.617H35.0771L25.5657 244.913H25.3952V258.617H23.2816V241.163H25.3271L34.8725 254.901H35.043V241.163H37.1225ZM46.3974 258.89C45.2156 258.89 44.1786 258.609 43.2866 258.046C42.4002 257.484 41.707 256.697 41.207 255.685C40.7127 254.674 40.4656 253.492 40.4656 252.14C40.4656 250.776 40.7127 249.586 41.207 248.569C41.707 247.552 42.4002 246.762 43.2866 246.2C44.1786 245.637 45.2156 245.356 46.3974 245.356C47.5792 245.356 48.6133 245.637 49.4996 246.2C50.3917 246.762 51.0849 247.552 51.5792 248.569C52.0792 249.586 52.3292 250.776 52.3292 252.14C52.3292 253.492 52.0792 254.674 51.5792 255.685C51.0849 256.697 50.3917 257.484 49.4996 258.046C48.6133 258.609 47.5792 258.89 46.3974 258.89ZM46.3974 257.083C47.2951 257.083 48.0337 256.853 48.6133 256.393C49.1928 255.933 49.6218 255.327 49.9002 254.577C50.1786 253.827 50.3178 253.015 50.3178 252.14C50.3178 251.265 50.1786 250.45 49.9002 249.694C49.6218 248.938 49.1928 248.327 48.6133 247.862C48.0337 247.396 47.2951 247.163 46.3974 247.163C45.4996 247.163 44.761 247.396 44.1815 247.862C43.6019 248.327 43.1729 248.938 42.8945 249.694C42.6161 250.45 42.4769 251.265 42.4769 252.14C42.4769 253.015 42.6161 253.827 42.8945 254.577C43.1729 255.327 43.6019 255.933 44.1815 256.393C44.761 256.853 45.4996 257.083 46.3974 257.083ZM63.1381 258.617H60.9222L67.3313 241.163H69.5131L75.9222 258.617H73.7063L68.4904 243.924H68.354L63.1381 258.617ZM63.9563 251.799H72.8881V253.674H63.9563V251.799ZM78.3683 263.526V245.526H80.3114V247.606H80.5501C80.6978 247.379 80.9023 247.089 81.1637 246.737C81.4308 246.379 81.8114 246.06 82.3058 245.782C82.8058 245.498 83.4819 245.356 84.3342 245.356C85.4364 245.356 86.408 245.631 87.2489 246.183C88.0898 246.734 88.7461 247.515 89.2177 248.526C89.6893 249.538 89.9251 250.731 89.9251 252.106C89.9251 253.492 89.6893 254.694 89.2177 255.711C88.7461 256.722 88.0927 257.506 87.2575 258.063C86.4222 258.614 85.4592 258.89 84.3683 258.89C83.5273 258.89 82.854 258.751 82.3484 258.472C81.8427 258.188 81.4535 257.867 81.1808 257.509C80.908 257.146 80.6978 256.844 80.5501 256.606H80.3796V263.526H78.3683ZM80.3455 252.072C80.3455 253.06 80.4904 253.933 80.7802 254.688C81.07 255.438 81.4933 256.026 82.0501 256.452C82.6069 256.873 83.2887 257.083 84.0955 257.083C84.9364 257.083 85.6381 256.862 86.2006 256.418C86.7688 255.969 87.195 255.367 87.479 254.612C87.7688 253.85 87.9137 253.004 87.9137 252.072C87.9137 251.151 87.7717 250.322 87.4876 249.583C87.2092 248.839 86.7859 248.251 86.2177 247.819C85.6552 247.381 84.9478 247.163 84.0955 247.163C83.2773 247.163 82.5898 247.37 82.033 247.785C81.4762 248.194 81.0558 248.768 80.7717 249.506C80.4876 250.239 80.3455 251.094 80.3455 252.072ZM92.9933 263.526V245.526H94.9364V247.606H95.1751C95.3228 247.379 95.5273 247.089 95.7887 246.737C96.0558 246.379 96.4364 246.06 96.9308 245.782C97.4308 245.498 98.1069 245.356 98.9592 245.356C100.061 245.356 101.033 245.631 101.874 246.183C102.715 246.734 103.371 247.515 103.843 248.526C104.314 249.538 104.55 250.731 104.55 252.106C104.55 253.492 104.314 254.694 103.843 255.711C103.371 256.722 102.718 257.506 101.882 258.063C101.047 258.614 100.084 258.89 98.9933 258.89C98.1523 258.89 97.479 258.751 96.9734 258.472C96.4677 258.188 96.0785 257.867 95.8058 257.509C95.533 257.146 95.3228 256.844 95.1751 256.606H95.0046V263.526H92.9933ZM94.9705 252.072C94.9705 253.06 95.1154 253.933 95.4052 254.688C95.695 255.438 96.1183 256.026 96.6751 256.452C97.2319 256.873 97.9137 257.083 98.7205 257.083C99.5614 257.083 100.263 256.862 100.826 256.418C101.394 255.969 101.82 255.367 102.104 254.612C102.394 253.85 102.539 253.004 102.539 252.072C102.539 251.151 102.397 250.322 102.113 249.583C101.834 248.839 101.411 248.251 100.843 247.819C100.28 247.381 99.5728 247.163 98.7205 247.163C97.9023 247.163 97.2148 247.37 96.658 247.785C96.1012 248.194 95.6808 248.768 95.3967 249.506C95.1126 250.239 94.9705 251.094 94.9705 252.072ZM112.936 258.89C111.755 258.89 110.718 258.609 109.826 258.046C108.939 257.484 108.246 256.697 107.746 255.685C107.252 254.674 107.005 253.492 107.005 252.14C107.005 250.776 107.252 249.586 107.746 248.569C108.246 247.552 108.939 246.762 109.826 246.2C110.718 245.637 111.755 245.356 112.936 245.356C114.118 245.356 115.152 245.637 116.039 246.2C116.931 246.762 117.624 247.552 118.118 248.569C118.618 249.586 118.868 250.776 118.868 252.14C118.868 253.492 118.618 254.674 118.118 255.685C117.624 256.697 116.931 257.484 116.039 258.046C115.152 258.609 114.118 258.89 112.936 258.89ZM112.936 257.083C113.834 257.083 114.573 256.853 115.152 256.393C115.732 255.933 116.161 255.327 116.439 254.577C116.718 253.827 116.857 253.015 116.857 252.14C116.857 251.265 116.718 250.45 116.439 249.694C116.161 248.938 115.732 248.327 115.152 247.862C114.573 247.396 113.834 247.163 112.936 247.163C112.039 247.163 111.3 247.396 110.721 247.862C110.141 248.327 109.712 248.938 109.434 249.694C109.155 250.45 109.016 251.265 109.016 252.14C109.016 253.015 109.155 253.827 109.434 254.577C109.712 255.327 110.141 255.933 110.721 256.393C111.3 256.853 112.039 257.083 112.936 257.083ZM121.939 258.617V245.526H123.95V258.617H121.939ZM122.961 243.344C122.569 243.344 122.231 243.211 121.947 242.944C121.669 242.677 121.529 242.356 121.529 241.981C121.529 241.606 121.669 241.285 121.947 241.018C122.231 240.751 122.569 240.617 122.961 240.617C123.353 240.617 123.689 240.751 123.967 241.018C124.251 241.285 124.393 241.606 124.393 241.981C124.393 242.356 124.251 242.677 123.967 242.944C123.689 243.211 123.353 243.344 122.961 243.344ZM129.645 250.742V258.617H127.634V245.526H129.577V247.572H129.748C130.054 246.907 130.52 246.373 131.145 245.969C131.77 245.56 132.577 245.356 133.566 245.356C134.452 245.356 135.228 245.538 135.892 245.901C136.557 246.259 137.074 246.805 137.444 247.538C137.813 248.265 137.998 249.185 137.998 250.299V258.617H135.986V250.435C135.986 249.407 135.719 248.606 135.185 248.032C134.651 247.452 133.918 247.163 132.986 247.163C132.344 247.163 131.77 247.302 131.265 247.58C130.765 247.859 130.37 248.265 130.08 248.799C129.79 249.333 129.645 249.981 129.645 250.742ZM147.366 245.526V247.231H140.582V245.526H147.366ZM142.559 242.39H144.571V254.867C144.571 255.435 144.653 255.862 144.818 256.146C144.988 256.424 145.204 256.612 145.466 256.708C145.733 256.799 146.014 256.844 146.309 256.844C146.531 256.844 146.713 256.833 146.855 256.81C146.997 256.782 147.11 256.759 147.196 256.742L147.605 258.549C147.468 258.6 147.278 258.651 147.034 258.702C146.789 258.759 146.48 258.788 146.105 258.788C145.537 258.788 144.98 258.665 144.434 258.421C143.895 258.177 143.446 257.805 143.088 257.305C142.735 256.805 142.559 256.174 142.559 255.413V242.39ZM150.392 258.617V245.526H152.335V247.572H152.505C152.778 246.873 153.218 246.33 153.826 245.944C154.434 245.552 155.164 245.356 156.017 245.356C156.88 245.356 157.599 245.552 158.173 245.944C158.752 246.33 159.204 246.873 159.528 247.572H159.664C160 246.896 160.502 246.359 161.173 245.961C161.843 245.558 162.647 245.356 163.585 245.356C164.755 245.356 165.713 245.722 166.457 246.455C167.201 247.183 167.574 248.316 167.574 249.856V258.617H165.562V249.856C165.562 248.89 165.298 248.2 164.77 247.785C164.241 247.37 163.619 247.163 162.903 247.163C161.983 247.163 161.27 247.441 160.764 247.998C160.258 248.549 160.005 249.248 160.005 250.094V258.617H157.96V249.651C157.96 248.907 157.718 248.308 157.235 247.853C156.752 247.393 156.13 247.163 155.369 247.163C154.846 247.163 154.358 247.302 153.903 247.58C153.454 247.859 153.091 248.245 152.812 248.739C152.539 249.228 152.403 249.793 152.403 250.435V258.617H150.392ZM176.74 258.89C175.478 258.89 174.39 258.612 173.475 258.055C172.566 257.492 171.865 256.708 171.37 255.702C170.882 254.691 170.637 253.515 170.637 252.174C170.637 250.833 170.882 249.651 171.37 248.629C171.865 247.6 172.552 246.799 173.433 246.225C174.319 245.646 175.353 245.356 176.535 245.356C177.217 245.356 177.89 245.469 178.555 245.697C179.22 245.924 179.825 246.293 180.37 246.805C180.916 247.31 181.35 247.981 181.674 248.816C181.998 249.651 182.16 250.68 182.16 251.901V252.754H172.069V251.015H180.115C180.115 250.276 179.967 249.617 179.672 249.038C179.382 248.458 178.967 248.001 178.427 247.665C177.893 247.33 177.262 247.163 176.535 247.163C175.734 247.163 175.041 247.362 174.456 247.759C173.876 248.151 173.43 248.663 173.118 249.293C172.805 249.924 172.649 250.6 172.649 251.322V252.481C172.649 253.469 172.819 254.308 173.16 254.995C173.507 255.677 173.987 256.197 174.6 256.555C175.214 256.907 175.927 257.083 176.74 257.083C177.268 257.083 177.745 257.009 178.172 256.862C178.603 256.708 178.975 256.481 179.288 256.18C179.6 255.873 179.842 255.492 180.012 255.038L181.956 255.583C181.751 256.242 181.407 256.822 180.924 257.322C180.441 257.816 179.845 258.202 179.135 258.481C178.424 258.754 177.626 258.89 176.74 258.89ZM187.231 250.742V258.617H185.22V245.526H187.163V247.572H187.333C187.64 246.907 188.106 246.373 188.731 245.969C189.356 245.56 190.163 245.356 191.152 245.356C192.038 245.356 192.814 245.538 193.478 245.901C194.143 246.259 194.66 246.805 195.029 247.538C195.399 248.265 195.583 249.185 195.583 250.299V258.617H193.572V250.435C193.572 249.407 193.305 248.606 192.771 248.032C192.237 247.452 191.504 247.163 190.572 247.163C189.93 247.163 189.356 247.302 188.85 247.58C188.35 247.859 187.956 248.265 187.666 248.799C187.376 249.333 187.231 249.981 187.231 250.742ZM204.952 245.526V247.231H198.168V245.526H204.952ZM200.145 242.39H202.157V254.867C202.157 255.435 202.239 255.862 202.404 256.146C202.574 256.424 202.79 256.612 203.051 256.708C203.319 256.799 203.6 256.844 203.895 256.844C204.117 256.844 204.299 256.833 204.441 256.81C204.583 256.782 204.696 256.759 204.782 256.742L205.191 258.549C205.054 258.6 204.864 258.651 204.62 258.702C204.375 258.759 204.066 258.788 203.691 258.788C203.123 258.788 202.566 258.665 202.02 258.421C201.48 258.177 201.032 257.805 200.674 257.305C200.321 256.805 200.145 256.174 200.145 255.413V242.39ZM217.016 248.458L215.209 248.969C215.096 248.668 214.928 248.376 214.706 248.092C214.49 247.802 214.195 247.563 213.82 247.376C213.445 247.188 212.965 247.094 212.38 247.094C211.578 247.094 210.911 247.279 210.377 247.648C209.848 248.012 209.584 248.475 209.584 249.038C209.584 249.538 209.766 249.933 210.13 250.222C210.493 250.512 211.061 250.754 211.834 250.947L213.777 251.424C214.948 251.708 215.82 252.143 216.394 252.728C216.968 253.308 217.255 254.055 217.255 254.969C217.255 255.719 217.039 256.39 216.607 256.981C216.181 257.572 215.584 258.038 214.817 258.379C214.05 258.719 213.158 258.89 212.141 258.89C210.806 258.89 209.701 258.6 208.826 258.021C207.951 257.441 207.397 256.594 207.164 255.481L209.073 255.004C209.255 255.708 209.598 256.237 210.104 256.589C210.615 256.941 211.283 257.117 212.107 257.117C213.044 257.117 213.789 256.918 214.34 256.521C214.897 256.117 215.175 255.634 215.175 255.072C215.175 254.617 215.016 254.237 214.698 253.93C214.38 253.617 213.891 253.384 213.232 253.231L211.05 252.719C209.851 252.435 208.971 251.995 208.408 251.398C207.851 250.796 207.573 250.043 207.573 249.14C207.573 248.401 207.78 247.748 208.195 247.18C208.615 246.612 209.186 246.165 209.908 245.842C210.635 245.518 211.459 245.356 212.38 245.356C213.675 245.356 214.692 245.64 215.431 246.208C216.175 246.776 216.703 247.526 217.016 248.458ZM227.305 258.617V241.163H233.407C234.623 241.163 235.626 241.373 236.416 241.793C237.206 242.208 237.794 242.768 238.18 243.472C238.566 244.171 238.76 244.947 238.76 245.799C238.76 246.549 238.626 247.168 238.359 247.657C238.098 248.146 237.751 248.532 237.319 248.816C236.893 249.1 236.43 249.31 235.93 249.447V249.617C236.464 249.651 237.001 249.839 237.541 250.18C238.081 250.521 238.532 251.009 238.896 251.646C239.26 252.282 239.441 253.06 239.441 253.981C239.441 254.856 239.243 255.643 238.845 256.342C238.447 257.04 237.819 257.594 236.961 258.004C236.103 258.413 234.987 258.617 233.612 258.617H227.305ZM229.419 256.742H233.612C234.993 256.742 235.973 256.475 236.552 255.941C237.137 255.401 237.43 254.748 237.43 253.981C237.43 253.39 237.279 252.844 236.978 252.344C236.677 251.839 236.248 251.435 235.691 251.134C235.135 250.827 234.475 250.674 233.714 250.674H229.419V256.742ZM229.419 248.833H233.339C233.975 248.833 234.549 248.708 235.061 248.458C235.578 248.208 235.987 247.856 236.288 247.401C236.595 246.947 236.748 246.413 236.748 245.799C236.748 245.032 236.481 244.381 235.947 243.847C235.413 243.308 234.566 243.038 233.407 243.038H229.419V248.833ZM247.96 258.89C246.778 258.89 245.741 258.609 244.849 258.046C243.963 257.484 243.27 256.697 242.77 255.685C242.275 254.674 242.028 253.492 242.028 252.14C242.028 250.776 242.275 249.586 242.77 248.569C243.27 247.552 243.963 246.762 244.849 246.2C245.741 245.637 246.778 245.356 247.96 245.356C249.142 245.356 250.176 245.637 251.062 246.2C251.954 246.762 252.647 247.552 253.142 248.569C253.642 249.586 253.892 250.776 253.892 252.14C253.892 253.492 253.642 254.674 253.142 255.685C252.647 256.697 251.954 257.484 251.062 258.046C250.176 258.609 249.142 258.89 247.96 258.89ZM247.96 257.083C248.858 257.083 249.596 256.853 250.176 256.393C250.755 255.933 251.184 255.327 251.463 254.577C251.741 253.827 251.88 253.015 251.88 252.14C251.88 251.265 251.741 250.45 251.463 249.694C251.184 248.938 250.755 248.327 250.176 247.862C249.596 247.396 248.858 247.163 247.96 247.163C247.062 247.163 246.324 247.396 245.744 247.862C245.164 248.327 244.735 248.938 244.457 249.694C244.179 250.45 244.039 251.265 244.039 252.14C244.039 253.015 244.179 253.827 244.457 254.577C244.735 255.327 245.164 255.933 245.744 256.393C246.324 256.853 247.062 257.083 247.96 257.083ZM262.28 258.89C261.098 258.89 260.061 258.609 259.169 258.046C258.283 257.484 257.59 256.697 257.09 255.685C256.596 254.674 256.348 253.492 256.348 252.14C256.348 250.776 256.596 249.586 257.09 248.569C257.59 247.552 258.283 246.762 259.169 246.2C260.061 245.637 261.098 245.356 262.28 245.356C263.462 245.356 264.496 245.637 265.382 246.2C266.275 246.762 266.968 247.552 267.462 248.569C267.962 249.586 268.212 250.776 268.212 252.14C268.212 253.492 267.962 254.674 267.462 255.685C266.968 256.697 266.275 257.484 265.382 258.046C264.496 258.609 263.462 258.89 262.28 258.89ZM262.28 257.083C263.178 257.083 263.917 256.853 264.496 256.393C265.076 255.933 265.505 255.327 265.783 254.577C266.061 253.827 266.201 253.015 266.201 252.14C266.201 251.265 266.061 250.45 265.783 249.694C265.505 248.938 265.076 248.327 264.496 247.862C263.917 247.396 263.178 247.163 262.28 247.163C261.382 247.163 260.644 247.396 260.064 247.862C259.485 248.327 259.056 248.938 258.777 249.694C258.499 250.45 258.36 251.265 258.36 252.14C258.36 253.015 258.499 253.827 258.777 254.577C259.056 255.327 259.485 255.933 260.064 256.393C260.644 256.853 261.382 257.083 262.28 257.083ZM273.157 253.844L273.123 251.356H273.532L279.26 245.526H281.748L275.646 251.697H275.475L273.157 253.844ZM271.282 258.617V241.163H273.294V258.617H271.282ZM279.6 258.617L274.487 252.14L275.919 250.742L282.157 258.617H279.6ZM289.287 258.89C288.025 258.89 286.937 258.612 286.022 258.055C285.113 257.492 284.412 256.708 283.917 255.702C283.429 254.691 283.184 253.515 283.184 252.174C283.184 250.833 283.429 249.651 283.917 248.629C284.412 247.6 285.099 246.799 285.98 246.225C286.866 245.646 287.9 245.356 289.082 245.356C289.764 245.356 290.437 245.469 291.102 245.697C291.767 245.924 292.372 246.293 292.917 246.805C293.463 247.31 293.897 247.981 294.221 248.816C294.545 249.651 294.707 250.68 294.707 251.901V252.754H284.616V251.015H292.662C292.662 250.276 292.514 249.617 292.218 249.038C291.929 248.458 291.514 248.001 290.974 247.665C290.44 247.33 289.809 247.163 289.082 247.163C288.281 247.163 287.588 247.362 287.002 247.759C286.423 248.151 285.977 248.663 285.664 249.293C285.352 249.924 285.196 250.6 285.196 251.322V252.481C285.196 253.469 285.366 254.308 285.707 254.995C286.054 255.677 286.534 256.197 287.147 256.555C287.761 256.907 288.474 257.083 289.287 257.083C289.815 257.083 290.292 257.009 290.718 256.862C291.15 256.708 291.522 256.481 291.835 256.18C292.147 255.873 292.389 255.492 292.559 255.038L294.502 255.583C294.298 256.242 293.954 256.822 293.471 257.322C292.988 257.816 292.392 258.202 291.681 258.481C290.971 258.754 290.173 258.89 289.287 258.89ZM302.71 258.89C301.619 258.89 300.656 258.614 299.821 258.063C298.985 257.506 298.332 256.722 297.86 255.711C297.389 254.694 297.153 253.492 297.153 252.106C297.153 250.731 297.389 249.538 297.86 248.526C298.332 247.515 298.988 246.734 299.829 246.183C300.67 245.631 301.642 245.356 302.744 245.356C303.596 245.356 304.27 245.498 304.764 245.782C305.264 246.06 305.645 246.379 305.906 246.737C306.173 247.089 306.38 247.379 306.528 247.606H306.699V241.163H308.71V258.617H306.767V256.606H306.528C306.38 256.844 306.17 257.146 305.897 257.509C305.625 257.867 305.235 258.188 304.73 258.472C304.224 258.751 303.551 258.89 302.71 258.89ZM302.983 257.083C303.789 257.083 304.471 256.873 305.028 256.452C305.585 256.026 306.008 255.438 306.298 254.688C306.588 253.933 306.733 253.06 306.733 252.072C306.733 251.094 306.591 250.239 306.306 249.506C306.022 248.768 305.602 248.194 305.045 247.785C304.488 247.37 303.801 247.163 302.983 247.163C302.13 247.163 301.42 247.381 300.852 247.819C300.289 248.251 299.866 248.839 299.582 249.583C299.304 250.322 299.164 251.151 299.164 252.072C299.164 253.004 299.306 253.85 299.591 254.612C299.88 255.367 300.306 255.969 300.869 256.418C301.437 256.862 302.142 257.083 302.983 257.083ZM58.5082 291.617V274.163H68.9741V276.038H60.6218V281.935H68.19V283.81H60.6218V291.617H58.5082ZM72.1808 291.617V278.526H74.1239V280.504H74.2603C74.4989 279.856 74.9308 279.33 75.5558 278.927C76.1808 278.523 76.8853 278.322 77.6694 278.322C77.8171 278.322 78.0018 278.325 78.2234 278.33C78.445 278.336 78.6126 278.344 78.7262 278.356V280.401C78.658 280.384 78.5018 280.359 78.2575 280.325C78.0188 280.285 77.766 280.265 77.4989 280.265C76.8626 280.265 76.2944 280.398 75.7944 280.665C75.3001 280.927 74.908 281.29 74.6183 281.756C74.3342 282.217 74.1921 282.742 74.1921 283.333V291.617H72.1808ZM86.0302 291.89C84.8484 291.89 83.8114 291.609 82.9194 291.046C82.033 290.484 81.3398 289.697 80.8398 288.685C80.3455 287.674 80.0984 286.492 80.0984 285.14C80.0984 283.776 80.3455 282.586 80.8398 281.569C81.3398 280.552 82.033 279.762 82.9194 279.2C83.8114 278.637 84.8484 278.356 86.0302 278.356C87.212 278.356 88.2461 278.637 89.1325 279.2C90.0245 279.762 90.7177 280.552 91.212 281.569C91.712 282.586 91.962 283.776 91.962 285.14C91.962 286.492 91.712 287.674 91.212 288.685C90.7177 289.697 90.0245 290.484 89.1325 291.046C88.2461 291.609 87.212 291.89 86.0302 291.89ZM86.0302 290.083C86.9279 290.083 87.6665 289.853 88.2461 289.393C88.8256 288.933 89.2546 288.327 89.533 287.577C89.8114 286.827 89.9506 286.015 89.9506 285.14C89.9506 284.265 89.8114 283.45 89.533 282.694C89.2546 281.938 88.8256 281.327 88.2461 280.862C87.6665 280.396 86.9279 280.163 86.0302 280.163C85.1325 280.163 84.3938 280.396 83.8143 280.862C83.2347 281.327 82.8058 281.938 82.5273 282.694C82.2489 283.45 82.1097 284.265 82.1097 285.14C82.1097 286.015 82.2489 286.827 82.5273 287.577C82.8058 288.327 83.2347 288.933 83.8143 289.393C84.3938 289.853 85.1325 290.083 86.0302 290.083ZM95.0323 291.617V278.526H96.9755V280.572H97.146C97.4187 279.873 97.859 279.33 98.467 278.944C99.0749 278.552 99.805 278.356 100.657 278.356C101.521 278.356 102.24 278.552 102.814 278.944C103.393 279.33 103.845 279.873 104.169 280.572H104.305C104.64 279.896 105.143 279.359 105.814 278.961C106.484 278.558 107.288 278.356 108.225 278.356C109.396 278.356 110.353 278.722 111.098 279.455C111.842 280.183 112.214 281.316 112.214 282.856V291.617H110.203V282.856C110.203 281.89 109.939 281.2 109.41 280.785C108.882 280.37 108.26 280.163 107.544 280.163C106.623 280.163 105.91 280.441 105.404 280.998C104.899 281.549 104.646 282.248 104.646 283.094V291.617H102.6V282.651C102.6 281.907 102.359 281.308 101.876 280.853C101.393 280.393 100.771 280.163 100.01 280.163C99.4869 280.163 98.9982 280.302 98.5437 280.58C98.0948 280.859 97.7312 281.245 97.4528 281.739C97.18 282.228 97.0437 282.793 97.0437 283.435V291.617H95.0323ZM132.46 278.526C132.358 277.663 131.943 276.992 131.216 276.515C130.488 276.038 129.596 275.799 128.539 275.799C127.767 275.799 127.091 275.924 126.511 276.174C125.937 276.424 125.488 276.768 125.164 277.205C124.846 277.643 124.687 278.14 124.687 278.697C124.687 279.163 124.798 279.563 125.02 279.898C125.247 280.228 125.537 280.504 125.889 280.725C126.241 280.941 126.61 281.12 126.997 281.262C127.383 281.398 127.738 281.509 128.062 281.594L129.835 282.072C130.289 282.191 130.795 282.356 131.352 282.566C131.914 282.776 132.451 283.063 132.963 283.427C133.48 283.785 133.906 284.245 134.241 284.808C134.576 285.37 134.744 286.06 134.744 286.879C134.744 287.822 134.497 288.674 134.002 289.435C133.514 290.197 132.798 290.802 131.855 291.251C130.917 291.7 129.778 291.924 128.437 291.924C127.187 291.924 126.105 291.722 125.19 291.319C124.281 290.915 123.565 290.353 123.042 289.631C122.525 288.91 122.233 288.072 122.164 287.117H124.346C124.403 287.776 124.625 288.322 125.011 288.754C125.403 289.18 125.897 289.498 126.494 289.708C127.096 289.913 127.744 290.015 128.437 290.015C129.244 290.015 129.968 289.884 130.61 289.623C131.252 289.356 131.761 288.987 132.136 288.515C132.511 288.038 132.699 287.481 132.699 286.844C132.699 286.265 132.537 285.793 132.213 285.43C131.889 285.066 131.463 284.771 130.934 284.543C130.406 284.316 129.835 284.117 129.221 283.947L127.074 283.333C125.71 282.941 124.63 282.381 123.835 281.654C123.039 280.927 122.642 279.975 122.642 278.799C122.642 277.822 122.906 276.969 123.434 276.242C123.968 275.509 124.684 274.941 125.582 274.538C126.485 274.129 127.494 273.924 128.608 273.924C129.733 273.924 130.733 274.126 131.608 274.529C132.483 274.927 133.176 275.472 133.687 276.165C134.204 276.859 134.477 277.646 134.505 278.526H132.46ZM143.265 291.89C142.037 291.89 140.98 291.6 140.094 291.021C139.208 290.441 138.526 289.643 138.049 288.626C137.571 287.609 137.333 286.447 137.333 285.14C137.333 283.81 137.577 282.637 138.066 281.62C138.56 280.597 139.248 279.799 140.128 279.225C141.015 278.646 142.049 278.356 143.23 278.356C144.151 278.356 144.98 278.526 145.719 278.867C146.458 279.208 147.063 279.685 147.534 280.299C148.006 280.913 148.299 281.629 148.412 282.447H146.401C146.248 281.85 145.907 281.322 145.378 280.862C144.855 280.396 144.151 280.163 143.265 280.163C142.48 280.163 141.793 280.367 141.202 280.776C140.617 281.18 140.159 281.751 139.83 282.489C139.506 283.222 139.344 284.083 139.344 285.072C139.344 286.083 139.503 286.964 139.821 287.714C140.145 288.464 140.6 289.046 141.185 289.461C141.776 289.876 142.469 290.083 143.265 290.083C143.787 290.083 144.262 289.992 144.688 289.81C145.114 289.629 145.475 289.367 145.77 289.026C146.066 288.685 146.276 288.276 146.401 287.799H148.412C148.299 288.572 148.017 289.268 147.569 289.887C147.125 290.501 146.537 290.989 145.804 291.353C145.077 291.711 144.23 291.89 143.265 291.89ZM153.364 283.742V291.617H151.353V274.163H153.364V280.572H153.534C153.841 279.896 154.301 279.359 154.915 278.961C155.534 278.558 156.358 278.356 157.387 278.356C158.279 278.356 159.06 278.535 159.73 278.893C160.401 279.245 160.921 279.788 161.29 280.521C161.665 281.248 161.853 282.174 161.853 283.299V291.617H159.841V283.435C159.841 282.396 159.571 281.592 159.032 281.023C158.498 280.45 157.756 280.163 156.807 280.163C156.148 280.163 155.557 280.302 155.034 280.58C154.517 280.859 154.108 281.265 153.807 281.799C153.512 282.333 153.364 282.981 153.364 283.742ZM170.85 291.89C169.669 291.89 168.632 291.609 167.74 291.046C166.853 290.484 166.16 289.697 165.66 288.685C165.166 287.674 164.919 286.492 164.919 285.14C164.919 283.776 165.166 282.586 165.66 281.569C166.16 280.552 166.853 279.762 167.74 279.2C168.632 278.637 169.669 278.356 170.85 278.356C172.032 278.356 173.066 278.637 173.953 279.2C174.845 279.762 175.538 280.552 176.032 281.569C176.532 282.586 176.782 283.776 176.782 285.14C176.782 286.492 176.532 287.674 176.032 288.685C175.538 289.697 174.845 290.484 173.953 291.046C173.066 291.609 172.032 291.89 170.85 291.89ZM170.85 290.083C171.748 290.083 172.487 289.853 173.066 289.393C173.646 288.933 174.075 288.327 174.353 287.577C174.632 286.827 174.771 286.015 174.771 285.14C174.771 284.265 174.632 283.45 174.353 282.694C174.075 281.938 173.646 281.327 173.066 280.862C172.487 280.396 171.748 280.163 170.85 280.163C169.953 280.163 169.214 280.396 168.635 280.862C168.055 281.327 167.626 281.938 167.348 282.694C167.069 283.45 166.93 284.265 166.93 285.14C166.93 286.015 167.069 286.827 167.348 287.577C167.626 288.327 168.055 288.933 168.635 289.393C169.214 289.853 169.953 290.083 170.85 290.083ZM181.864 274.163V291.617H179.853V274.163H181.864ZM189.4 291.924C188.571 291.924 187.818 291.768 187.142 291.455C186.466 291.137 185.929 290.68 185.531 290.083C185.133 289.481 184.934 288.754 184.934 287.901C184.934 287.151 185.082 286.543 185.377 286.077C185.673 285.606 186.068 285.237 186.562 284.969C187.056 284.702 187.602 284.504 188.199 284.373C188.801 284.237 189.406 284.129 190.014 284.049C190.809 283.947 191.454 283.87 191.949 283.819C192.449 283.762 192.812 283.668 193.039 283.538C193.272 283.407 193.389 283.18 193.389 282.856V282.788C193.389 281.947 193.159 281.293 192.699 280.827C192.244 280.362 191.554 280.129 190.627 280.129C189.667 280.129 188.914 280.339 188.369 280.759C187.824 281.18 187.44 281.629 187.218 282.106L185.309 281.424C185.65 280.629 186.105 280.009 186.673 279.566C187.247 279.117 187.872 278.805 188.548 278.629C189.23 278.447 189.9 278.356 190.559 278.356C190.98 278.356 191.463 278.407 192.008 278.509C192.559 278.606 193.091 278.808 193.602 279.114C194.119 279.421 194.548 279.884 194.889 280.504C195.23 281.123 195.4 281.952 195.4 282.992V291.617H193.389V289.844H193.287C193.15 290.129 192.923 290.433 192.605 290.756C192.287 291.08 191.863 291.356 191.335 291.583C190.806 291.81 190.162 291.924 189.4 291.924ZM189.707 290.117C190.502 290.117 191.173 289.961 191.718 289.648C192.27 289.336 192.684 288.933 192.963 288.438C193.247 287.944 193.389 287.424 193.389 286.879V285.038C193.304 285.14 193.116 285.234 192.826 285.319C192.542 285.398 192.213 285.469 191.838 285.532C191.468 285.589 191.108 285.64 190.755 285.685C190.409 285.725 190.127 285.759 189.912 285.788C189.389 285.856 188.9 285.967 188.446 286.12C187.997 286.268 187.633 286.492 187.355 286.793C187.082 287.089 186.946 287.492 186.946 288.004C186.946 288.702 187.204 289.231 187.721 289.589C188.244 289.941 188.906 290.117 189.707 290.117ZM199.071 291.617V278.526H201.015V280.504H201.151C201.39 279.856 201.821 279.33 202.446 278.927C203.071 278.523 203.776 278.322 204.56 278.322C204.708 278.322 204.892 278.325 205.114 278.33C205.336 278.336 205.503 278.344 205.617 278.356V280.401C205.549 280.384 205.392 280.359 205.148 280.325C204.909 280.285 204.657 280.265 204.39 280.265C203.753 280.265 203.185 280.398 202.685 280.665C202.191 280.927 201.799 281.29 201.509 281.756C201.225 282.217 201.083 282.742 201.083 283.333V291.617H199.071ZM217.274 281.458L215.467 281.969C215.353 281.668 215.186 281.376 214.964 281.092C214.748 280.802 214.453 280.563 214.078 280.376C213.703 280.188 213.223 280.094 212.637 280.094C211.836 280.094 211.169 280.279 210.635 280.648C210.106 281.012 209.842 281.475 209.842 282.038C209.842 282.538 210.024 282.933 210.387 283.222C210.751 283.512 211.319 283.754 212.092 283.947L214.035 284.424C215.206 284.708 216.078 285.143 216.652 285.728C217.225 286.308 217.512 287.055 217.512 287.969C217.512 288.719 217.297 289.39 216.865 289.981C216.439 290.572 215.842 291.038 215.075 291.379C214.308 291.719 213.416 291.89 212.399 291.89C211.064 291.89 209.958 291.6 209.083 291.021C208.208 290.441 207.654 289.594 207.422 288.481L209.331 288.004C209.512 288.708 209.856 289.237 210.362 289.589C210.873 289.941 211.541 290.117 212.365 290.117C213.302 290.117 214.047 289.918 214.598 289.521C215.154 289.117 215.433 288.634 215.433 288.072C215.433 287.617 215.274 287.237 214.956 286.93C214.637 286.617 214.149 286.384 213.49 286.231L211.308 285.719C210.109 285.435 209.228 284.995 208.666 284.398C208.109 283.796 207.831 283.043 207.831 282.14C207.831 281.401 208.038 280.748 208.453 280.18C208.873 279.612 209.444 279.165 210.166 278.842C210.893 278.518 211.717 278.356 212.637 278.356C213.933 278.356 214.95 278.64 215.689 279.208C216.433 279.776 216.961 280.526 217.274 281.458ZM226.063 274.163H228.483L233.324 282.31H233.529L238.37 274.163H240.79L234.483 284.424V291.617H232.37V284.424L226.063 274.163ZM246.888 291.89C245.627 291.89 244.539 291.612 243.624 291.055C242.715 290.492 242.013 289.708 241.519 288.702C241.03 287.691 240.786 286.515 240.786 285.174C240.786 283.833 241.03 282.651 241.519 281.629C242.013 280.6 242.701 279.799 243.581 279.225C244.468 278.646 245.502 278.356 246.684 278.356C247.365 278.356 248.039 278.469 248.703 278.697C249.368 278.924 249.973 279.293 250.519 279.805C251.064 280.31 251.499 280.981 251.823 281.816C252.147 282.651 252.309 283.68 252.309 284.901V285.754H242.218V284.015H250.263C250.263 283.276 250.115 282.617 249.82 282.038C249.53 281.458 249.115 281.001 248.576 280.665C248.042 280.33 247.411 280.163 246.684 280.163C245.882 280.163 245.189 280.362 244.604 280.759C244.025 281.151 243.578 281.663 243.266 282.293C242.953 282.924 242.797 283.6 242.797 284.322V285.481C242.797 286.469 242.968 287.308 243.309 287.995C243.655 288.677 244.135 289.197 244.749 289.555C245.363 289.907 246.076 290.083 246.888 290.083C247.417 290.083 247.894 290.009 248.32 289.862C248.752 289.708 249.124 289.481 249.436 289.18C249.749 288.873 249.99 288.492 250.161 288.038L252.104 288.583C251.9 289.242 251.556 289.822 251.073 290.322C250.59 290.816 249.993 291.202 249.283 291.481C248.573 291.754 247.775 291.89 246.888 291.89ZM261.061 278.526V280.231H254.277V278.526H261.061ZM256.255 275.39H258.266V287.867C258.266 288.435 258.348 288.862 258.513 289.146C258.684 289.424 258.9 289.612 259.161 289.708C259.428 289.799 259.709 289.844 260.005 289.844C260.226 289.844 260.408 289.833 260.55 289.81C260.692 289.782 260.806 289.759 260.891 289.742L261.3 291.549C261.164 291.6 260.973 291.651 260.729 291.702C260.485 291.759 260.175 291.788 259.8 291.788C259.232 291.788 258.675 291.665 258.13 291.421C257.59 291.177 257.141 290.805 256.783 290.305C256.431 289.805 256.255 289.174 256.255 288.413V275.39ZM266.746 274.163L266.576 286.708H264.598L264.428 274.163H266.746ZM265.587 291.754C265.167 291.754 264.806 291.603 264.505 291.302C264.203 291.001 264.053 290.64 264.053 290.219C264.053 289.799 264.203 289.438 264.505 289.137C264.806 288.836 265.167 288.685 265.587 288.685C266.007 288.685 266.368 288.836 266.669 289.137C266.971 289.438 267.121 289.799 267.121 290.219C267.121 290.498 267.05 290.754 266.908 290.987C266.772 291.219 266.587 291.407 266.354 291.549C266.127 291.685 265.871 291.754 265.587 291.754ZM273.426 274.163L273.255 286.708H271.278L271.108 274.163H273.426ZM272.267 291.754C271.846 291.754 271.485 291.603 271.184 291.302C270.883 291.001 270.733 290.64 270.733 290.219C270.733 289.799 270.883 289.438 271.184 289.137C271.485 288.836 271.846 288.685 272.267 288.685C272.687 288.685 273.048 288.836 273.349 289.137C273.65 289.438 273.801 289.799 273.801 290.219C273.801 290.498 273.73 290.754 273.588 290.987C273.451 291.219 273.267 291.407 273.034 291.549C272.806 291.685 272.551 291.754 272.267 291.754Z" fill="#7B849A"/>
</svg>
