<svg width="211" height="216" viewBox="0 0 211 216" fill="none" xmlns="http://www.w3.org/2000/svg">
<path fill-rule="evenodd" clip-rule="evenodd" d="M170.247 19.4771C172.167 14.5996 172.737 9.73093 173.572 4.63434C173.735 3.63899 173.059 2.70273 172.064 2.53872C171.068 2.37463 170.128 3.05138 169.964 4.04665C169.173 8.87943 168.668 13.5116 166.845 18.1449C166.476 19.082 166.939 20.1429 167.879 20.5077C168.816 20.8786 169.879 20.4143 170.247 19.4771Z" fill="#3A3A3A"/>
<path fill-rule="evenodd" clip-rule="evenodd" d="M179.508 30.6694C188.981 24.1079 198.261 15.2778 205.159 6.03053C205.761 5.22267 205.593 4.07874 204.783 3.48001C203.973 2.88129 202.828 3.04642 202.226 3.85427C195.556 12.7951 186.581 21.3352 177.422 27.6753C176.594 28.2506 176.389 29.3874 176.965 30.2122C177.541 31.0369 178.68 31.2447 179.508 30.6694Z" fill="#3A3A3A"/>
<path fill-rule="evenodd" clip-rule="evenodd" d="M180.52 39.3594C188.07 41.6643 196.318 40.5638 203.749 38.4408C204.719 38.1602 205.28 37.1508 205.001 36.1882C204.723 35.2195 203.709 34.6608 202.74 34.9354C195.972 36.8715 188.464 37.9731 181.587 35.875C180.622 35.5802 179.6 36.1234 179.306 37.0828C179.012 38.0421 179.556 39.0648 180.52 39.3594Z" fill="#3A3A3A"/>
<path d="M69.6839 22.6823C69.2111 20.7238 66.4254 20.7238 65.9526 22.6823L65.3402 25.2191C65.1713 25.919 64.6248 26.4654 63.9249 26.6344L61.3881 27.2468C59.4296 27.7196 59.4296 30.5053 61.3881 30.9781L63.9249 31.5905C64.6248 31.7594 65.1713 32.3059 65.3402 33.0058L65.9526 35.5426C66.4254 37.5011 69.2111 37.5011 69.6839 35.5426L70.2963 33.0058C70.4652 32.3059 71.0117 31.7594 71.7116 31.5905L74.2484 30.9781C76.2069 30.5053 76.2069 27.7196 74.2484 27.2468L71.7116 26.6344C71.0117 26.4654 70.4652 25.919 70.2963 25.2191L69.6839 22.6823Z" fill="#3A3A3A"/>
<circle cx="151.402" cy="157.455" r="5.48083" fill="#38B89A"/>
<path d="M46.475 86.0588C47.8603 75.6835 51.8425 65.8292 58.0501 57.4153C64.2578 49.0013 72.4886 42.3018 81.9748 37.9417C91.461 33.5816 101.893 31.7031 112.299 32.4812C122.704 33.2594 132.744 36.6689 141.481 42.3918L165.285 34.2734C166.003 34.036 166.774 34.0099 167.506 34.1981C168.239 34.3863 168.902 34.781 169.418 35.3355C169.934 35.89 170.281 36.5811 170.417 37.3271C170.554 38.0731 170.475 38.8428 170.19 39.5451L160.643 62.389C165.72 70.8742 168.698 80.4561 169.326 90.3327C169.954 100.209 168.215 110.093 164.253 119.157C160.292 128.22 154.225 136.2 146.558 142.429C138.892 148.657 129.85 152.952 120.189 154.955C110.529 156.958 100.53 156.61 91.0311 153.941C81.5319 151.271 72.8083 146.358 65.5905 139.612C58.3726 132.866 52.8706 124.483 49.5448 115.166C46.2191 105.849 45.1664 95.8679 46.475 86.0588Z" fill="#3A3A3A"/>
<path d="M5.78943 113.754C7.17472 124.129 11.1569 133.984 17.3646 142.398C23.5723 150.812 31.8031 157.511 41.2893 161.871C50.7755 166.231 61.2079 168.11 71.6134 167.332C82.019 166.554 92.0585 163.144 100.795 157.421L124.6 165.54C125.318 165.777 126.088 165.803 126.821 165.615C127.553 165.427 128.217 165.032 128.733 164.478C129.248 163.923 129.595 163.232 129.732 162.486C129.869 161.74 129.79 160.97 129.504 160.268L119.958 137.424C125.035 128.939 128.012 119.357 128.64 109.48C129.268 99.6038 127.529 89.72 123.568 80.6563C119.607 71.5926 113.539 63.6126 105.873 57.3843C98.2065 51.1561 89.1646 46.8607 79.5039 44.8578C69.8432 42.8549 59.8448 43.2028 50.3456 45.8722C40.8464 48.5417 32.1227 53.4551 24.9049 60.2011C17.6871 66.9472 12.185 75.3297 8.85927 84.6469C5.53353 93.9641 4.48088 103.945 5.78943 113.754Z" fill="#38B89A"/>
<path fill-rule="evenodd" clip-rule="evenodd" d="M55.8233 123.691C55.8233 115.828 61.5869 110.076 67.961 110.076C74.335 110.076 80.0986 115.828 80.0986 123.691H88.3199C88.3199 111.975 79.5342 101.855 67.961 101.855C56.3877 101.855 47.6021 111.975 47.6021 123.691H55.8233Z" fill="white"/>
<path d="M45.8031 101.534C49.882 101.534 53.1886 98.2272 53.1886 94.1483C53.1886 90.0693 49.882 86.7627 45.8031 86.7627C41.7241 86.7627 38.4175 90.0693 38.4175 94.1483C38.4175 98.2272 41.7241 101.534 45.8031 101.534Z" fill="white"/>
<path d="M90.1175 101.534C94.1965 101.534 97.5031 98.2272 97.5031 94.1483C97.5031 90.0693 94.1965 86.7627 90.1175 86.7627C86.0386 86.7627 82.7319 90.0693 82.7319 94.1483C82.7319 98.2272 86.0386 101.534 90.1175 101.534Z" fill="white"/>
<path d="M15.9545 193.049V210.503H13.9091L4.39773 196.799H4.22727V210.503H2.11364V193.049H4.15909L13.7045 206.788H13.875V193.049H15.9545ZM25.2294 210.776C24.0476 210.776 23.0107 210.495 22.1186 209.932C21.2322 209.37 20.5391 208.583 20.0391 207.572C19.5447 206.56 19.2976 205.378 19.2976 204.026C19.2976 202.663 19.5447 201.472 20.0391 200.455C20.5391 199.438 21.2322 198.648 22.1186 198.086C23.0107 197.523 24.0476 197.242 25.2294 197.242C26.4112 197.242 27.4453 197.523 28.3317 198.086C29.2237 198.648 29.9169 199.438 30.4112 200.455C30.9112 201.472 31.1612 202.663 31.1612 204.026C31.1612 205.378 30.9112 206.56 30.4112 207.572C29.9169 208.583 29.2237 209.37 28.3317 209.932C27.4453 210.495 26.4112 210.776 25.2294 210.776ZM25.2294 208.969C26.1271 208.969 26.8658 208.739 27.4453 208.279C28.0249 207.819 28.4538 207.214 28.7322 206.464C29.0107 205.714 29.1499 204.901 29.1499 204.026C29.1499 203.151 29.0107 202.336 28.7322 201.58C28.4538 200.824 28.0249 200.214 27.4453 199.748C26.8658 199.282 26.1271 199.049 25.2294 199.049C24.3317 199.049 23.593 199.282 23.0135 199.748C22.4339 200.214 22.005 200.824 21.7266 201.58C21.4482 202.336 21.3089 203.151 21.3089 204.026C21.3089 204.901 21.4482 205.714 21.7266 206.464C22.005 207.214 22.4339 207.819 23.0135 208.279C23.593 208.739 24.3317 208.969 25.2294 208.969ZM55.2997 198.503H53.1861C53.0611 197.895 52.8423 197.361 52.5298 196.901C52.223 196.441 51.848 196.055 51.4048 195.742C50.9673 195.424 50.4815 195.185 49.9474 195.026C49.4134 194.867 48.8565 194.788 48.277 194.788C47.2202 194.788 46.2628 195.055 45.4048 195.589C44.5526 196.123 43.8736 196.91 43.3679 197.949C42.8679 198.989 42.6179 200.265 42.6179 201.776C42.6179 203.288 42.8679 204.563 43.3679 205.603C43.8736 206.643 44.5526 207.43 45.4048 207.964C46.2628 208.498 47.2202 208.765 48.277 208.765C48.8565 208.765 49.4134 208.685 49.9474 208.526C50.4815 208.367 50.9673 208.131 51.4048 207.819C51.848 207.501 52.223 207.111 52.5298 206.651C52.8423 206.185 53.0611 205.651 53.1861 205.049H55.2997C55.1406 205.941 54.8509 206.739 54.4304 207.444C54.0099 208.148 53.4872 208.748 52.8622 209.242C52.2372 209.731 51.5355 210.103 50.7571 210.359C49.9844 210.614 49.1577 210.742 48.277 210.742C46.7884 210.742 45.4645 210.378 44.3054 209.651C43.1463 208.924 42.2344 207.89 41.5696 206.549C40.9048 205.208 40.5724 203.617 40.5724 201.776C40.5724 199.935 40.9048 198.344 41.5696 197.003C42.2344 195.663 43.1463 194.628 44.3054 193.901C45.4645 193.174 46.7884 192.81 48.277 192.81C49.1577 192.81 49.9844 192.938 50.7571 193.194C51.5355 193.449 52.2372 193.824 52.8622 194.319C53.4872 194.807 54.0099 195.404 54.4304 196.109C54.8509 196.807 55.1406 197.606 55.2997 198.503ZM63.7607 210.776C62.5788 210.776 61.5419 210.495 60.6499 209.932C59.7635 209.37 59.0703 208.583 58.5703 207.572C58.076 206.56 57.8288 205.378 57.8288 204.026C57.8288 202.663 58.076 201.472 58.5703 200.455C59.0703 199.438 59.7635 198.648 60.6499 198.086C61.5419 197.523 62.5788 197.242 63.7607 197.242C64.9425 197.242 65.9766 197.523 66.8629 198.086C67.755 198.648 68.4482 199.438 68.9425 200.455C69.4425 201.472 69.6925 202.663 69.6925 204.026C69.6925 205.378 69.4425 206.56 68.9425 207.572C68.4482 208.583 67.755 209.37 66.8629 209.932C65.9766 210.495 64.9425 210.776 63.7607 210.776ZM63.7607 208.969C64.6584 208.969 65.397 208.739 65.9766 208.279C66.5561 207.819 66.9851 207.214 67.2635 206.464C67.5419 205.714 67.6811 204.901 67.6811 204.026C67.6811 203.151 67.5419 202.336 67.2635 201.58C66.9851 200.824 66.5561 200.214 65.9766 199.748C65.397 199.282 64.6584 199.049 63.7607 199.049C62.8629 199.049 62.1243 199.282 61.5447 199.748C60.9652 200.214 60.5362 200.824 60.2578 201.58C59.9794 202.336 59.8402 203.151 59.8402 204.026C59.8402 204.901 59.9794 205.714 60.2578 206.464C60.5362 207.214 60.9652 207.819 61.5447 208.279C62.1243 208.739 62.8629 208.969 63.7607 208.969ZM72.7628 210.503V197.413H74.706V199.458H74.8764C75.1491 198.759 75.5895 198.216 76.1974 197.83C76.8054 197.438 77.5355 197.242 78.3878 197.242C79.2514 197.242 79.9702 197.438 80.544 197.83C81.1236 198.216 81.5753 198.759 81.8991 199.458H82.0355C82.3707 198.782 82.8736 198.245 83.544 197.847C84.2145 197.444 85.0185 197.242 85.956 197.242C87.1264 197.242 88.0838 197.609 88.8281 198.341C89.5724 199.069 89.9446 200.202 89.9446 201.742V210.503H87.9332V201.742C87.9332 200.776 87.669 200.086 87.1406 199.671C86.6122 199.256 85.9901 199.049 85.2741 199.049C84.3537 199.049 83.6406 199.327 83.1349 199.884C82.6293 200.435 82.3764 201.134 82.3764 201.981V210.503H80.331V201.538C80.331 200.793 80.0895 200.194 79.6065 199.739C79.1236 199.279 78.5014 199.049 77.7401 199.049C77.2173 199.049 76.7287 199.188 76.2741 199.466C75.8253 199.745 75.4616 200.131 75.1832 200.626C74.9105 201.114 74.7741 201.68 74.7741 202.322V210.503H72.7628ZM93.6222 210.503V197.413H95.5653V199.458H95.7358C96.0085 198.759 96.4489 198.216 97.0568 197.83C97.6648 197.438 98.3949 197.242 99.2472 197.242C100.111 197.242 100.83 197.438 101.403 197.83C101.983 198.216 102.435 198.759 102.759 199.458H102.895C103.23 198.782 103.733 198.245 104.403 197.847C105.074 197.444 105.878 197.242 106.815 197.242C107.986 197.242 108.943 197.609 109.688 198.341C110.432 199.069 110.804 200.202 110.804 201.742V210.503H108.793V201.742C108.793 200.776 108.528 200.086 108 199.671C107.472 199.256 106.849 199.049 106.134 199.049C105.213 199.049 104.5 199.327 103.994 199.884C103.489 200.435 103.236 201.134 103.236 201.981V210.503H101.19V201.538C101.19 200.793 100.949 200.194 100.466 199.739C99.983 199.279 99.3608 199.049 98.5994 199.049C98.0767 199.049 97.5881 199.188 97.1335 199.466C96.6847 199.745 96.321 200.131 96.0426 200.626C95.7699 201.114 95.6335 201.68 95.6335 202.322V210.503H93.6222ZM119.97 210.776C118.709 210.776 117.621 210.498 116.706 209.941C115.797 209.378 115.095 208.594 114.601 207.589C114.112 206.577 113.868 205.401 113.868 204.06C113.868 202.719 114.112 201.538 114.601 200.515C115.095 199.486 115.783 198.685 116.663 198.111C117.55 197.532 118.584 197.242 119.766 197.242C120.447 197.242 121.121 197.356 121.786 197.583C122.45 197.81 123.055 198.18 123.601 198.691C124.146 199.197 124.581 199.867 124.905 200.702C125.229 201.538 125.391 202.566 125.391 203.788V204.64H115.3V202.901H123.345C123.345 202.163 123.197 201.503 122.902 200.924C122.612 200.344 122.197 199.887 121.658 199.552C121.124 199.216 120.493 199.049 119.766 199.049C118.964 199.049 118.271 199.248 117.686 199.645C117.107 200.038 116.661 200.549 116.348 201.18C116.036 201.81 115.879 202.486 115.879 203.208V204.367C115.879 205.356 116.05 206.194 116.391 206.881C116.737 207.563 117.217 208.083 117.831 208.441C118.445 208.793 119.158 208.969 119.97 208.969C120.499 208.969 120.976 208.895 121.402 208.748C121.834 208.594 122.206 208.367 122.518 208.066C122.831 207.759 123.072 207.378 123.243 206.924L125.186 207.469C124.982 208.128 124.638 208.708 124.155 209.208C123.672 209.702 123.075 210.089 122.365 210.367C121.655 210.64 120.857 210.776 119.97 210.776ZM130.462 202.628V210.503H128.45V197.413H130.393V199.458H130.564C130.871 198.793 131.337 198.259 131.962 197.856C132.587 197.447 133.393 197.242 134.382 197.242C135.268 197.242 136.044 197.424 136.709 197.788C137.374 198.145 137.891 198.691 138.26 199.424C138.629 200.151 138.814 201.072 138.814 202.185V210.503H136.803V202.322C136.803 201.293 136.536 200.492 136.001 199.918C135.467 199.339 134.734 199.049 133.803 199.049C133.161 199.049 132.587 199.188 132.081 199.466C131.581 199.745 131.186 200.151 130.896 200.685C130.607 201.219 130.462 201.867 130.462 202.628ZM148.183 197.413V199.117H141.398V197.413H148.183ZM143.376 194.276H145.387V206.753C145.387 207.322 145.469 207.748 145.634 208.032C145.805 208.31 146.021 208.498 146.282 208.594C146.549 208.685 146.83 208.731 147.126 208.731C147.347 208.731 147.529 208.719 147.671 208.697C147.813 208.668 147.927 208.645 148.012 208.628L148.421 210.435C148.285 210.486 148.094 210.538 147.85 210.589C147.606 210.645 147.296 210.674 146.921 210.674C146.353 210.674 145.796 210.552 145.251 210.307C144.711 210.063 144.262 209.691 143.904 209.191C143.552 208.691 143.376 208.06 143.376 207.299V194.276ZM160.246 200.344L158.44 200.856C158.326 200.555 158.158 200.262 157.937 199.978C157.721 199.688 157.425 199.449 157.05 199.262C156.675 199.074 156.195 198.981 155.61 198.981C154.809 198.981 154.141 199.165 153.607 199.535C153.079 199.898 152.815 200.361 152.815 200.924C152.815 201.424 152.996 201.819 153.36 202.109C153.724 202.398 154.292 202.64 155.065 202.833L157.008 203.31C158.178 203.594 159.05 204.029 159.624 204.614C160.198 205.194 160.485 205.941 160.485 206.856C160.485 207.606 160.269 208.276 159.837 208.867C159.411 209.458 158.815 209.924 158.048 210.265C157.281 210.606 156.388 210.776 155.371 210.776C154.036 210.776 152.931 210.486 152.056 209.907C151.181 209.327 150.627 208.481 150.394 207.367L152.303 206.89C152.485 207.594 152.829 208.123 153.335 208.475C153.846 208.827 154.513 209.003 155.337 209.003C156.275 209.003 157.019 208.805 157.57 208.407C158.127 208.003 158.406 207.52 158.406 206.958C158.406 206.503 158.246 206.123 157.928 205.816C157.61 205.503 157.121 205.27 156.462 205.117L154.281 204.606C153.082 204.322 152.201 203.881 151.638 203.285C151.082 202.682 150.803 201.93 150.803 201.026C150.803 200.288 151.011 199.634 151.425 199.066C151.846 198.498 152.417 198.052 153.138 197.728C153.866 197.404 154.69 197.242 155.61 197.242C156.906 197.242 157.923 197.526 158.661 198.094C159.406 198.663 159.934 199.413 160.246 200.344ZM171.558 215.413C171.217 215.413 170.913 215.384 170.646 215.327C170.379 215.276 170.195 215.225 170.092 215.174L170.604 213.401C171.092 213.526 171.524 213.572 171.899 213.538C172.274 213.503 172.607 213.336 172.896 213.035C173.192 212.739 173.462 212.259 173.706 211.594L174.081 210.572L169.24 197.413H171.422L175.036 207.844H175.172L178.786 197.413H180.967L175.411 212.413C175.161 213.089 174.851 213.648 174.482 214.091C174.112 214.54 173.683 214.873 173.195 215.089C172.712 215.305 172.166 215.413 171.558 215.413ZM188.642 210.776C187.381 210.776 186.293 210.498 185.378 209.941C184.469 209.378 183.767 208.594 183.273 207.589C182.784 206.577 182.54 205.401 182.54 204.06C182.54 202.719 182.784 201.538 183.273 200.515C183.767 199.486 184.455 198.685 185.335 198.111C186.222 197.532 187.256 197.242 188.438 197.242C189.119 197.242 189.793 197.356 190.457 197.583C191.122 197.81 191.727 198.18 192.273 198.691C192.818 199.197 193.253 199.867 193.577 200.702C193.901 201.538 194.062 202.566 194.062 203.788V204.64H183.972V202.901H192.017C192.017 202.163 191.869 201.503 191.574 200.924C191.284 200.344 190.869 199.887 190.33 199.552C189.795 199.216 189.165 199.049 188.438 199.049C187.636 199.049 186.943 199.248 186.358 199.645C185.778 200.038 185.332 200.549 185.02 201.18C184.707 201.81 184.551 202.486 184.551 203.208V204.367C184.551 205.356 184.722 206.194 185.062 206.881C185.409 207.563 185.889 208.083 186.503 208.441C187.116 208.793 187.83 208.969 188.642 208.969C189.17 208.969 189.648 208.895 190.074 208.748C190.506 208.594 190.878 208.367 191.19 208.066C191.503 207.759 191.744 207.378 191.915 206.924L193.858 207.469C193.653 208.128 193.31 208.708 192.827 209.208C192.344 209.702 191.747 210.089 191.037 210.367C190.327 210.64 189.528 210.776 188.642 210.776ZM202.815 197.413V199.117H196.031V197.413H202.815ZM198.009 194.276H200.02V206.753C200.02 207.322 200.102 207.748 200.267 208.032C200.438 208.31 200.653 208.498 200.915 208.594C201.182 208.685 201.463 208.731 201.759 208.731C201.98 208.731 202.162 208.719 202.304 208.697C202.446 208.668 202.56 208.645 202.645 208.628L203.054 210.435C202.918 210.486 202.727 210.538 202.483 210.589C202.239 210.645 201.929 210.674 201.554 210.674C200.986 210.674 200.429 210.552 199.884 210.307C199.344 210.063 198.895 209.691 198.537 209.191C198.185 208.691 198.009 208.06 198.009 207.299V194.276ZM208.5 193.049L208.33 205.594H206.352L206.182 193.049H208.5ZM207.341 210.64C206.92 210.64 206.56 210.489 206.259 210.188C205.957 209.887 205.807 209.526 205.807 209.106C205.807 208.685 205.957 208.324 206.259 208.023C206.56 207.722 206.92 207.572 207.341 207.572C207.761 207.572 208.122 207.722 208.423 208.023C208.724 208.324 208.875 208.685 208.875 209.106C208.875 209.384 208.804 209.64 208.662 209.873C208.526 210.106 208.341 210.293 208.108 210.435C207.881 210.572 207.625 210.64 207.341 210.64Z" fill="#7B849A"/>
</svg>
