<svg width="346" height="230" viewBox="0 0 346 230" fill="none" xmlns="http://www.w3.org/2000/svg">
<path d="M255.447 0H95.873C88.5288 0 82.5752 5.95367 82.5752 13.2979V172.873C82.5752 180.217 88.5288 186.171 95.873 186.171H255.447C262.791 186.171 268.745 180.217 268.745 172.873V13.2979C268.745 5.95367 262.791 0 255.447 0Z" fill="#E1E3E7"/>
<g filter="url(#filter0_d_6240_4184)">
<path d="M234.172 13.2949H54.6509C50.9788 13.2949 48.002 16.2718 48.002 19.9439V53.1886C48.002 56.8607 50.9788 59.8376 54.6509 59.8376H234.172C237.844 59.8376 240.821 56.8607 240.821 53.1886V19.9439C240.821 16.2718 237.844 13.2949 234.172 13.2949Z" fill="white"/>
</g>
<path d="M139.755 23.9336H105.181C102.978 23.9336 101.192 25.7197 101.192 27.923C101.192 30.1262 102.978 31.9123 105.181 31.9123H139.755C141.959 31.9123 143.745 30.1262 143.745 27.923C143.745 25.7197 141.959 23.9336 139.755 23.9336Z" fill="#38B89A"/>
<path d="M163.691 41.2207H105.181C102.978 41.2207 101.192 43.0068 101.192 45.2101C101.192 47.4133 102.978 49.1994 105.181 49.1994H163.691C165.895 49.1994 167.681 47.4133 167.681 45.2101C167.681 43.0068 165.895 41.2207 163.691 41.2207Z" fill="#38B89A" fill-opacity="0.19"/>
<path d="M83.9053 17.2871H58.6394C54.9673 17.2871 51.9905 20.2639 51.9905 23.9361V49.2021C51.9905 52.8742 54.9673 55.851 58.6394 55.851H83.9053C87.5774 55.851 90.5542 52.8742 90.5542 49.2021V23.9361C90.5542 20.2639 87.5774 17.2871 83.9053 17.2871Z" fill="#38B89A"/>
<path d="M68.2418 40.9318H70.9014L70.9307 39.9079C70.9307 38.5621 71.7791 38.2111 72.9785 37.8307C74.1817 37.4885 75.2408 36.7638 75.9956 35.7662C76.7503 34.7686 77.1598 33.5524 77.162 32.3015C77.1884 31.5377 77.0559 30.7768 76.7729 30.0669C76.49 29.357 76.0627 28.7135 75.5183 28.1773C74.9738 27.6411 74.3239 27.2237 73.6097 26.9516C72.8956 26.6795 72.1328 26.5587 71.3695 26.5967C70.5629 26.5791 69.7611 26.7255 69.0127 27.0271C68.2644 27.3287 67.5851 27.7792 67.0161 28.3512C66.4471 28.9232 66.0002 29.6048 65.7025 30.3547C65.4048 31.1046 65.2626 31.9072 65.2844 32.7137H68.0344C68.024 32.2684 68.1025 31.8255 68.2654 31.4109C68.4284 30.9963 68.6724 30.6184 68.9833 30.2994C69.2942 29.9804 69.6656 29.7266 70.0758 29.5529C70.486 29.3793 70.9267 29.2893 71.3722 29.2882C71.7738 29.2649 72.1759 29.3283 72.5508 29.4742C72.9258 29.6201 73.265 29.8451 73.5453 30.1337C73.8257 30.4224 74.0406 30.768 74.1754 31.1471C74.3103 31.5262 74.362 31.9299 74.3269 32.3307C74.3092 32.9795 74.0836 33.6055 73.6833 34.1164C73.283 34.6273 72.7292 34.9961 72.1035 35.1685L71.1381 35.5515C70.1929 35.7792 69.3677 36.3536 68.8259 37.1609C68.2841 37.9682 68.0652 38.9495 68.2126 39.9105L68.2418 40.9318ZM69.5583 47.2536C69.8188 47.2629 70.0784 47.2198 70.3219 47.127C70.5654 47.0342 70.7878 46.8935 70.976 46.7132C71.1642 46.533 71.3143 46.3168 71.4176 46.0775C71.5208 45.8383 71.575 45.5807 71.5769 45.3201C71.5746 45.0598 71.5202 44.8025 71.4168 44.5635C71.3134 44.3246 71.1632 44.1087 70.9751 43.9287C70.7869 43.7488 70.5646 43.6083 70.3213 43.5156C70.078 43.423 69.8185 43.38 69.5583 43.3893C69.2981 43.38 69.0387 43.423 68.7954 43.5156C68.552 43.6083 68.3297 43.7488 68.1416 43.9287C67.9534 44.1087 67.8032 44.3246 67.6999 44.5635C67.5965 44.8025 67.542 45.0598 67.5397 45.3201C67.5417 45.5807 67.5959 45.8383 67.6991 46.0775C67.8023 46.3168 67.9524 46.533 68.1406 46.7132C68.3288 46.8935 68.5513 47.0342 68.7948 47.127C69.0383 47.2198 69.2979 47.2629 69.5583 47.2536Z" fill="white"/>
<g filter="url(#filter1_d_6240_4184)">
<path d="M111.83 70.4785H291.351C293.114 70.4785 294.805 71.179 296.052 72.4259C297.299 73.6729 298 75.3641 298 77.1275V110.372C298 112.136 297.299 113.827 296.052 115.074C294.805 116.321 293.114 117.021 291.351 117.021H111.83C110.067 117.021 108.375 116.321 107.129 115.074C105.882 113.827 105.181 112.136 105.181 110.372V77.1275C105.181 75.3641 105.882 73.6729 107.129 72.4259C108.375 71.179 110.067 70.4785 111.83 70.4785V70.4785Z" fill="white"/>
</g>
<path d="M196.935 81.1191H162.361C160.157 81.1191 158.371 82.9052 158.371 85.1085C158.371 87.3118 160.157 89.0979 162.361 89.0979H196.935C199.138 89.0979 200.924 87.3118 200.924 85.1085C200.924 82.9052 199.138 81.1191 196.935 81.1191Z" fill="#38B89A"/>
<path d="M220.871 98.4043H162.36C160.157 98.4043 158.371 100.19 158.371 102.394C158.371 104.597 160.157 106.383 162.36 106.383H220.871C223.074 106.383 224.86 104.597 224.86 102.394C224.86 100.19 223.074 98.4043 220.871 98.4043Z" fill="#38B89A" fill-opacity="0.19"/>
<path d="M141.087 74.4688H115.821C112.149 74.4688 109.172 77.4456 109.172 81.1177V106.384C109.172 110.056 112.149 113.033 115.821 113.033H141.087C144.759 113.033 147.736 110.056 147.736 106.384V81.1177C147.736 77.4456 144.759 74.4688 141.087 74.4688Z" fill="#D9F2EC"/>
<path d="M125.423 98.1135H128.083L128.112 97.0895C128.112 95.7438 128.961 95.3927 130.16 95.0124C131.363 94.6701 132.422 93.9454 133.177 92.9478C133.932 91.9503 134.341 90.7341 134.344 89.4831C134.37 88.7194 134.238 87.9584 133.955 87.2485C133.672 86.5386 133.244 85.8952 132.7 85.3589C132.155 84.8227 131.506 84.4053 130.791 84.1333C130.077 83.8612 129.314 83.7403 128.551 83.7783C127.745 83.7607 126.943 83.9072 126.194 84.2088C125.446 84.5104 124.767 84.9608 124.198 85.5328C123.629 86.1048 123.182 86.7865 122.884 87.5364C122.586 88.2863 122.444 89.0888 122.466 89.8953H125.216C125.206 89.45 125.284 89.0071 125.447 88.5925C125.61 88.178 125.854 87.8001 126.165 87.481C126.476 87.162 126.847 86.9082 127.257 86.7346C127.668 86.5609 128.108 86.4709 128.554 86.4698C128.955 86.4465 129.357 86.51 129.732 86.6559C130.107 86.8018 130.447 87.0267 130.727 87.3154C131.007 87.604 131.222 87.9496 131.357 88.3287C131.492 88.7078 131.544 89.1115 131.509 89.5124C131.491 90.1612 131.265 90.7871 130.865 91.298C130.465 91.8089 129.911 92.1777 129.285 92.3501L128.32 92.7331C127.375 92.9609 126.549 93.5353 126.008 94.3425C125.466 95.1498 125.247 96.1312 125.394 97.0922L125.423 98.1135ZM126.74 104.435C127 104.445 127.26 104.401 127.504 104.309C127.747 104.216 127.969 104.075 128.158 103.895C128.346 103.715 128.496 103.498 128.599 103.259C128.702 103.02 128.757 102.762 128.759 102.502C128.756 102.241 128.702 101.984 128.598 101.745C128.495 101.506 128.345 101.29 128.157 101.11C127.969 100.93 127.746 100.79 127.503 100.697C127.26 100.605 127 100.562 126.74 100.571C126.48 100.562 126.22 100.605 125.977 100.697C125.734 100.79 125.511 100.93 125.323 101.11C125.135 101.29 124.985 101.506 124.882 101.745C124.778 101.984 124.724 102.241 124.721 102.502C124.723 102.762 124.778 103.02 124.881 103.259C124.984 103.498 125.134 103.715 125.322 103.895C125.51 104.075 125.733 104.216 125.976 104.309C126.22 104.401 126.48 104.445 126.74 104.435Z" fill="white"/>
<g filter="url(#filter2_d_6240_4184)">
<path d="M54.6492 127.656H234.17C235.933 127.656 237.624 128.357 238.871 129.604C240.118 130.851 240.819 132.542 240.819 134.305V167.55C240.819 169.313 240.118 171.005 238.871 172.251C237.624 173.498 235.933 174.199 234.17 174.199H54.6492C52.8858 174.199 51.1946 173.498 49.9477 172.251C48.7008 171.005 48.0002 169.313 48.0002 167.55V134.305C48.0002 132.542 48.7008 130.851 49.9477 129.604C51.1946 128.357 52.8858 127.656 54.6492 127.656V127.656Z" fill="white"/>
</g>
<path d="M139.755 138.299H105.18C102.977 138.299 101.191 140.085 101.191 142.288C101.191 144.491 102.977 146.278 105.18 146.278H139.755C141.958 146.278 143.744 144.491 143.744 142.288C143.744 140.085 141.958 138.299 139.755 138.299Z" fill="#38B89A"/>
<path d="M163.691 155.584H105.18C102.977 155.584 101.191 157.37 101.191 159.573C101.191 161.777 102.977 163.563 105.18 163.563H163.691C165.894 163.563 167.68 161.777 167.68 159.573C167.68 157.37 165.894 155.584 163.691 155.584Z" fill="#38B89A" fill-opacity="0.19"/>
<path d="M83.905 131.648H58.6392C54.9671 131.648 51.9902 134.625 51.9902 138.297V163.563C51.9902 167.236 54.9671 170.212 58.6392 170.212H83.905C87.5771 170.212 90.554 167.236 90.554 163.563V138.297C90.554 134.625 87.5771 131.648 83.905 131.648Z" fill="#D9F2EC"/>
<path d="M68.2414 155.293H70.9009L70.9302 154.269C70.9302 152.923 71.7786 152.572 72.978 152.192C74.1812 151.85 75.2403 151.125 75.9951 150.128C76.7498 149.13 77.1593 147.914 77.1615 146.663C77.1879 145.899 77.0554 145.138 76.7724 144.428C76.4895 143.718 76.0623 143.075 75.5178 142.539C74.9733 142.002 74.3234 141.585 73.6093 141.313C72.8951 141.041 72.1323 140.92 71.369 140.958C70.5624 140.94 69.7606 141.087 69.0122 141.388C68.2639 141.69 67.5846 142.141 67.0156 142.713C66.4466 143.285 65.9997 143.966 65.702 144.716C65.4044 145.466 65.2621 146.269 65.2839 147.075H68.0339C68.0235 146.63 68.102 146.187 68.265 145.772C68.4279 145.358 68.6719 144.98 68.9828 144.661C69.2937 144.342 69.6651 144.088 70.0753 143.914C70.4855 143.741 70.9262 143.651 71.3717 143.649C71.7734 143.626 72.1754 143.69 72.5503 143.836C72.9253 143.981 73.2645 144.206 73.5448 144.495C73.8252 144.784 74.0401 145.129 74.1749 145.508C74.3098 145.888 74.3615 146.291 74.3264 146.692C74.3087 147.341 74.0831 147.967 73.6828 148.478C73.2825 148.989 72.7288 149.357 72.103 149.53L71.1376 149.913C70.1924 150.141 69.3672 150.715 68.8254 151.522C68.2836 152.33 68.0647 153.311 68.2121 154.272L68.2414 155.293ZM69.5578 161.615C69.8183 161.624 70.0779 161.581 70.3214 161.488C70.5649 161.396 70.7873 161.255 70.9755 161.075C71.1637 160.894 71.3139 160.678 71.4171 160.439C71.5203 160.2 71.5745 159.942 71.5764 159.681C71.5741 159.421 71.5197 159.164 71.4163 158.925C71.3129 158.686 71.1627 158.47 70.9746 158.29C70.7864 158.11 70.5641 157.97 70.3208 157.877C70.0775 157.784 69.818 157.741 69.5578 157.751C69.2976 157.741 69.0382 157.784 68.7949 157.877C68.5516 157.97 68.3293 158.11 68.1411 158.29C67.9529 158.47 67.8027 158.686 67.6994 158.925C67.596 159.164 67.5415 159.421 67.5392 159.681C67.5412 159.942 67.5954 160.2 67.6986 160.439C67.8018 160.678 67.952 160.894 68.1402 161.075C68.3283 161.255 68.5508 161.396 68.7943 161.488C69.0378 161.581 69.2974 161.624 69.5578 161.615Z" fill="white"/>
<path d="M15.9545 206.715V224.17H13.9091L4.39773 210.465H4.22727V224.17H2.11364V206.715H4.15909L13.7045 220.454H13.875V206.715H15.9545ZM25.2294 224.443C24.0476 224.443 23.0107 224.161 22.1186 223.599C21.2322 223.036 20.5391 222.249 20.0391 221.238C19.5447 220.227 19.2976 219.045 19.2976 217.693C19.2976 216.329 19.5447 215.139 20.0391 214.122C20.5391 213.105 21.2322 212.315 22.1186 211.752C23.0107 211.19 24.0476 210.909 25.2294 210.909C26.4112 210.909 27.4453 211.19 28.3317 211.752C29.2237 212.315 29.9169 213.105 30.4112 214.122C30.9112 215.139 31.1612 216.329 31.1612 217.693C31.1612 219.045 30.9112 220.227 30.4112 221.238C29.9169 222.249 29.2237 223.036 28.3317 223.599C27.4453 224.161 26.4112 224.443 25.2294 224.443ZM25.2294 222.636C26.1271 222.636 26.8658 222.406 27.4453 221.945C28.0249 221.485 28.4538 220.88 28.7322 220.13C29.0107 219.38 29.1499 218.568 29.1499 217.693C29.1499 216.818 29.0107 216.002 28.7322 215.247C28.4538 214.491 28.0249 213.88 27.4453 213.414C26.8658 212.948 26.1271 212.715 25.2294 212.715C24.3317 212.715 23.593 212.948 23.0135 213.414C22.4339 213.88 22.005 214.491 21.7266 215.247C21.4482 216.002 21.3089 216.818 21.3089 217.693C21.3089 218.568 21.4482 219.38 21.7266 220.13C22.005 220.88 22.4339 221.485 23.0135 221.945C23.593 222.406 24.3317 222.636 25.2294 222.636ZM41.9702 224.17H39.7543L46.1634 206.715H48.3452L54.7543 224.17H52.5384L47.3224 209.477H47.1861L41.9702 224.17ZM42.7884 217.352H51.7202V219.227H42.7884V217.352ZM62.5185 224.443C61.2912 224.443 60.2344 224.153 59.348 223.573C58.4616 222.994 57.7798 222.195 57.3026 221.178C56.8253 220.161 56.5866 218.999 56.5866 217.693C56.5866 216.363 56.831 215.19 57.3196 214.173C57.8139 213.15 58.5014 212.352 59.3821 211.778C60.2685 211.198 61.3026 210.909 62.4844 210.909C63.4048 210.909 64.2344 211.079 64.973 211.42C65.7116 211.761 66.3168 212.238 66.7884 212.852C67.2599 213.465 67.5526 214.181 67.6662 214.999H65.6548C65.5014 214.403 65.1605 213.874 64.6321 213.414C64.1094 212.948 63.4048 212.715 62.5185 212.715C61.7344 212.715 61.0469 212.92 60.456 213.329C59.8707 213.732 59.4134 214.303 59.0838 215.042C58.7599 215.775 58.598 216.636 58.598 217.624C58.598 218.636 58.7571 219.517 59.0753 220.267C59.3991 221.017 59.8537 221.599 60.4389 222.014C61.0298 222.428 61.723 222.636 62.5185 222.636C63.0412 222.636 63.5156 222.545 63.9418 222.363C64.3679 222.181 64.7287 221.92 65.0241 221.579C65.3196 221.238 65.5298 220.829 65.6548 220.352H67.6662C67.5526 221.124 67.2713 221.82 66.8224 222.44C66.3793 223.053 65.7912 223.542 65.0582 223.906C64.331 224.264 63.4844 224.443 62.5185 224.443ZM75.9247 224.443C74.6974 224.443 73.6406 224.153 72.7543 223.573C71.8679 222.994 71.1861 222.195 70.7088 221.178C70.2315 220.161 69.9929 218.999 69.9929 217.693C69.9929 216.363 70.2372 215.19 70.7259 214.173C71.2202 213.15 71.9077 212.352 72.7884 211.778C73.6747 211.198 74.7088 210.909 75.8906 210.909C76.8111 210.909 77.6406 211.079 78.3793 211.42C79.1179 211.761 79.723 212.238 80.1946 212.852C80.6662 213.465 80.9588 214.181 81.0724 214.999H79.0611C78.9077 214.403 78.5668 213.874 78.0384 213.414C77.5156 212.948 76.8111 212.715 75.9247 212.715C75.1406 212.715 74.4531 212.92 73.8622 213.329C73.277 213.732 72.8196 214.303 72.4901 215.042C72.1662 215.775 72.0043 216.636 72.0043 217.624C72.0043 218.636 72.1634 219.517 72.4815 220.267C72.8054 221.017 73.2599 221.599 73.8452 222.014C74.4361 222.428 75.1293 222.636 75.9247 222.636C76.4474 222.636 76.9219 222.545 77.348 222.363C77.7741 222.181 78.1349 221.92 78.4304 221.579C78.7259 221.238 78.9361 220.829 79.0611 220.352H81.0724C80.9588 221.124 80.6776 221.82 80.2287 222.44C79.7855 223.053 79.1974 223.542 78.4645 223.906C77.7372 224.264 76.8906 224.443 75.9247 224.443ZM89.331 224.443C88.1491 224.443 87.1122 224.161 86.2202 223.599C85.3338 223.036 84.6406 222.249 84.1406 221.238C83.6463 220.227 83.3991 219.045 83.3991 217.693C83.3991 216.329 83.6463 215.139 84.1406 214.122C84.6406 213.105 85.3338 212.315 86.2202 211.752C87.1122 211.19 88.1491 210.909 89.331 210.909C90.5128 210.909 91.5469 211.19 92.4332 211.752C93.3253 212.315 94.0185 213.105 94.5128 214.122C95.0128 215.139 95.2628 216.329 95.2628 217.693C95.2628 219.045 95.0128 220.227 94.5128 221.238C94.0185 222.249 93.3253 223.036 92.4332 223.599C91.5469 224.161 90.5128 224.443 89.331 224.443ZM89.331 222.636C90.2287 222.636 90.9673 222.406 91.5469 221.945C92.1264 221.485 92.5554 220.88 92.8338 220.13C93.1122 219.38 93.2514 218.568 93.2514 217.693C93.2514 216.818 93.1122 216.002 92.8338 215.247C92.5554 214.491 92.1264 213.88 91.5469 213.414C90.9673 212.948 90.2287 212.715 89.331 212.715C88.4332 212.715 87.6946 212.948 87.1151 213.414C86.5355 213.88 86.1065 214.491 85.8281 215.247C85.5497 216.002 85.4105 216.818 85.4105 217.693C85.4105 218.568 85.5497 219.38 85.8281 220.13C86.1065 220.88 86.5355 221.485 87.1151 221.945C87.6946 222.406 88.4332 222.636 89.331 222.636ZM106.583 218.818V211.079H108.594V224.17H106.583V221.954H106.447C106.14 222.619 105.663 223.184 105.015 223.65C104.367 224.11 103.549 224.34 102.56 224.34C101.742 224.34 101.015 224.161 100.379 223.803C99.7422 223.44 99.2422 222.894 98.8786 222.167C98.5149 221.434 98.3331 220.511 98.3331 219.397V211.079H100.344V219.261C100.344 220.215 100.612 220.977 101.146 221.545C101.685 222.113 102.373 222.397 103.208 222.397C103.708 222.397 104.217 222.269 104.734 222.014C105.256 221.758 105.694 221.366 106.046 220.838C106.404 220.309 106.583 219.636 106.583 218.818ZM114.29 216.295V224.17H112.278V211.079H114.222V213.124H114.392C114.699 212.46 115.165 211.926 115.79 211.522C116.415 211.113 117.222 210.909 118.21 210.909C119.097 210.909 119.872 211.09 120.537 211.454C121.202 211.812 121.719 212.357 122.088 213.09C122.457 213.818 122.642 214.738 122.642 215.852V224.17H120.631V215.988C120.631 214.96 120.364 214.159 119.83 213.585C119.295 213.005 118.563 212.715 117.631 212.715C116.989 212.715 116.415 212.855 115.909 213.133C115.409 213.411 115.014 213.818 114.724 214.352C114.435 214.886 114.29 215.534 114.29 216.295ZM132.011 211.079V212.784H125.227V211.079H132.011ZM127.204 207.943H129.215V220.42C129.215 220.988 129.298 221.414 129.462 221.698C129.633 221.977 129.849 222.164 130.11 222.261C130.377 222.352 130.658 222.397 130.954 222.397C131.175 222.397 131.357 222.386 131.499 222.363C131.641 222.335 131.755 222.312 131.84 222.295L132.249 224.102C132.113 224.153 131.923 224.204 131.678 224.255C131.434 224.312 131.124 224.34 130.749 224.34C130.181 224.34 129.624 224.218 129.079 223.974C128.539 223.73 128.09 223.357 127.732 222.857C127.38 222.357 127.204 221.727 127.204 220.965V207.943ZM147.445 224.17H142.059V206.715H147.684C149.377 206.715 150.826 207.065 152.031 207.764C153.235 208.457 154.158 209.454 154.8 210.755C155.442 212.051 155.763 213.602 155.763 215.409C155.763 217.227 155.44 218.792 154.792 220.105C154.144 221.411 153.201 222.417 151.962 223.122C150.724 223.82 149.218 224.17 147.445 224.17ZM144.173 222.295H147.309C148.752 222.295 149.948 222.017 150.897 221.46C151.846 220.903 152.553 220.11 153.019 219.082C153.485 218.053 153.718 216.829 153.718 215.409C153.718 213.999 153.488 212.786 153.028 211.769C152.567 210.747 151.88 209.963 150.965 209.417C150.05 208.866 148.911 208.59 147.548 208.59H144.173V222.295ZM164.525 224.443C163.263 224.443 162.175 224.164 161.261 223.607C160.352 223.045 159.65 222.261 159.156 221.255C158.667 220.244 158.423 219.068 158.423 217.727C158.423 216.386 158.667 215.204 159.156 214.181C159.65 213.153 160.337 212.352 161.218 211.778C162.104 211.198 163.138 210.909 164.32 210.909C165.002 210.909 165.675 211.022 166.34 211.249C167.005 211.477 167.61 211.846 168.156 212.357C168.701 212.863 169.136 213.534 169.46 214.369C169.783 215.204 169.945 216.232 169.945 217.454V218.306H159.854V216.568H167.9C167.9 215.829 167.752 215.17 167.457 214.59C167.167 214.011 166.752 213.553 166.212 213.218C165.678 212.883 165.048 212.715 164.32 212.715C163.519 212.715 162.826 212.914 162.241 213.312C161.661 213.704 161.215 214.215 160.903 214.846C160.59 215.477 160.434 216.153 160.434 216.874V218.034C160.434 219.022 160.604 219.86 160.945 220.548C161.292 221.23 161.772 221.749 162.386 222.107C162.999 222.46 163.712 222.636 164.525 222.636C165.053 222.636 165.531 222.562 165.957 222.414C166.388 222.261 166.761 222.034 167.073 221.732C167.386 221.426 167.627 221.045 167.798 220.59L169.741 221.136C169.536 221.795 169.192 222.374 168.71 222.874C168.227 223.369 167.63 223.755 166.92 224.034C166.21 224.306 165.411 224.443 164.525 224.443ZM175.016 206.715V224.17H173.005V206.715H175.016ZM184.189 224.443C182.928 224.443 181.839 224.164 180.925 223.607C180.016 223.045 179.314 222.261 178.82 221.255C178.331 220.244 178.087 219.068 178.087 217.727C178.087 216.386 178.331 215.204 178.82 214.181C179.314 213.153 180.001 212.352 180.882 211.778C181.768 211.198 182.803 210.909 183.984 210.909C184.666 210.909 185.339 211.022 186.004 211.249C186.669 211.477 187.274 211.846 187.82 212.357C188.365 212.863 188.8 213.534 189.124 214.369C189.447 215.204 189.609 216.232 189.609 217.454V218.306H179.518V216.568H187.564C187.564 215.829 187.416 215.17 187.121 214.59C186.831 214.011 186.416 213.553 185.876 213.218C185.342 212.883 184.712 212.715 183.984 212.715C183.183 212.715 182.49 212.914 181.905 213.312C181.325 213.704 180.879 214.215 180.567 214.846C180.254 215.477 180.098 216.153 180.098 216.874V218.034C180.098 219.022 180.268 219.86 180.609 220.548C180.956 221.23 181.436 221.749 182.05 222.107C182.663 222.46 183.376 222.636 184.189 222.636C184.717 222.636 185.195 222.562 185.621 222.414C186.053 222.261 186.425 222.034 186.737 221.732C187.05 221.426 187.291 221.045 187.462 220.59L189.405 221.136C189.2 221.795 188.857 222.374 188.374 222.874C187.891 223.369 187.294 223.755 186.584 224.034C185.874 224.306 185.075 224.443 184.189 224.443ZM198.362 211.079V212.784H191.578V211.079H198.362ZM193.555 207.943H195.567V220.42C195.567 220.988 195.649 221.414 195.814 221.698C195.984 221.977 196.2 222.164 196.462 222.261C196.729 222.352 197.01 222.397 197.305 222.397C197.527 222.397 197.709 222.386 197.851 222.363C197.993 222.335 198.107 222.312 198.192 222.295L198.601 224.102C198.464 224.153 198.274 224.204 198.03 224.255C197.786 224.312 197.476 224.34 197.101 224.34C196.533 224.34 195.976 224.218 195.43 223.974C194.891 223.73 194.442 223.357 194.084 222.857C193.732 222.357 193.555 221.727 193.555 220.965V207.943ZM201.388 224.17V211.079H203.399V224.17H201.388ZM202.411 208.897C202.018 208.897 201.68 208.764 201.396 208.497C201.118 208.23 200.979 207.909 200.979 207.534C200.979 207.159 201.118 206.838 201.396 206.57C201.68 206.303 202.018 206.17 202.411 206.17C202.803 206.17 203.138 206.303 203.416 206.57C203.7 206.838 203.842 207.159 203.842 207.534C203.842 207.909 203.7 208.23 203.416 208.497C203.138 208.764 202.803 208.897 202.411 208.897ZM212.401 224.443C211.219 224.443 210.183 224.161 209.29 223.599C208.404 223.036 207.711 222.249 207.211 221.238C206.717 220.227 206.469 219.045 206.469 217.693C206.469 216.329 206.717 215.139 207.211 214.122C207.711 213.105 208.404 212.315 209.29 211.752C210.183 211.19 211.219 210.909 212.401 210.909C213.583 210.909 214.617 211.19 215.504 211.752C216.396 212.315 217.089 213.105 217.583 214.122C218.083 215.139 218.333 216.329 218.333 217.693C218.333 219.045 218.083 220.227 217.583 221.238C217.089 222.249 216.396 223.036 215.504 223.599C214.617 224.161 213.583 224.443 212.401 224.443ZM212.401 222.636C213.299 222.636 214.038 222.406 214.617 221.945C215.197 221.485 215.626 220.88 215.904 220.13C216.183 219.38 216.322 218.568 216.322 217.693C216.322 216.818 216.183 216.002 215.904 215.247C215.626 214.491 215.197 213.88 214.617 213.414C214.038 212.948 213.299 212.715 212.401 212.715C211.504 212.715 210.765 212.948 210.185 213.414C209.606 213.88 209.177 214.491 208.898 215.247C208.62 216.002 208.481 216.818 208.481 217.693C208.481 218.568 208.62 219.38 208.898 220.13C209.177 220.88 209.606 221.485 210.185 221.945C210.765 222.406 211.504 222.636 212.401 222.636ZM223.415 216.295V224.17H221.403V211.079H223.347V213.124H223.517C223.824 212.46 224.29 211.926 224.915 211.522C225.54 211.113 226.347 210.909 227.335 210.909C228.222 210.909 228.997 211.09 229.662 211.454C230.327 211.812 230.844 212.357 231.213 213.09C231.582 213.818 231.767 214.738 231.767 215.852V224.17H229.756V215.988C229.756 214.96 229.489 214.159 228.955 213.585C228.42 213.005 227.688 212.715 226.756 212.715C226.114 212.715 225.54 212.855 225.034 213.133C224.534 213.411 224.139 213.818 223.849 214.352C223.56 214.886 223.415 215.534 223.415 216.295ZM242.465 224.17V206.715H248.363C249.727 206.715 250.846 206.948 251.721 207.414C252.596 207.874 253.244 208.508 253.664 209.315C254.085 210.122 254.295 211.039 254.295 212.068C254.295 213.096 254.085 214.008 253.664 214.803C253.244 215.599 252.599 216.224 251.729 216.678C250.86 217.127 249.749 217.352 248.397 217.352H243.624V215.443H248.329C249.261 215.443 250.011 215.306 250.579 215.034C251.153 214.761 251.567 214.374 251.823 213.874C252.085 213.369 252.215 212.767 252.215 212.068C252.215 211.369 252.085 210.758 251.823 210.235C251.562 209.713 251.144 209.309 250.57 209.025C249.996 208.735 249.238 208.59 248.295 208.59H244.579V224.17H242.465ZM250.681 216.329L254.977 224.17H252.522L248.295 216.329H250.681ZM262.892 224.443C261.631 224.443 260.543 224.164 259.628 223.607C258.719 223.045 258.017 222.261 257.523 221.255C257.034 220.244 256.79 219.068 256.79 217.727C256.79 216.386 257.034 215.204 257.523 214.181C258.017 213.153 258.705 212.352 259.585 211.778C260.472 211.198 261.506 210.909 262.688 210.909C263.369 210.909 264.043 211.022 264.707 211.249C265.372 211.477 265.977 211.846 266.523 212.357C267.068 212.863 267.503 213.534 267.827 214.369C268.151 215.204 268.312 216.232 268.312 217.454V218.306H258.222V216.568H266.267C266.267 215.829 266.119 215.17 265.824 214.59C265.534 214.011 265.119 213.553 264.58 213.218C264.045 212.883 263.415 212.715 262.688 212.715C261.886 212.715 261.193 212.914 260.608 213.312C260.028 213.704 259.582 214.215 259.27 214.846C258.957 215.477 258.801 216.153 258.801 216.874V218.034C258.801 219.022 258.972 219.86 259.312 220.548C259.659 221.23 260.139 221.749 260.753 222.107C261.366 222.46 262.08 222.636 262.892 222.636C263.42 222.636 263.898 222.562 264.324 222.414C264.756 222.261 265.128 222.034 265.44 221.732C265.753 221.426 265.994 221.045 266.165 220.59L268.108 221.136C267.903 221.795 267.56 222.374 267.077 222.874C266.594 223.369 265.997 223.755 265.287 224.034C264.577 224.306 263.778 224.443 262.892 224.443ZM280.304 229.079V222.159H280.134C279.986 222.397 279.776 222.698 279.503 223.062C279.23 223.42 278.841 223.741 278.335 224.025C277.83 224.303 277.156 224.443 276.315 224.443C275.224 224.443 274.261 224.167 273.426 223.616C272.591 223.059 271.938 222.275 271.466 221.264C270.994 220.247 270.759 219.045 270.759 217.659C270.759 216.284 270.994 215.09 271.466 214.079C271.938 213.068 272.594 212.286 273.435 211.735C274.276 211.184 275.247 210.909 276.349 210.909C277.202 210.909 277.875 211.051 278.369 211.335C278.869 211.613 279.25 211.931 279.511 212.289C279.778 212.642 279.986 212.931 280.134 213.159H280.372V211.079H282.315V229.079H280.304ZM276.588 222.636C277.395 222.636 278.077 222.426 278.634 222.005C279.19 221.579 279.614 220.991 279.903 220.241C280.193 219.485 280.338 218.613 280.338 217.624C280.338 216.647 280.196 215.792 279.912 215.059C279.628 214.32 279.207 213.747 278.651 213.338C278.094 212.923 277.406 212.715 276.588 212.715C275.736 212.715 275.026 212.934 274.457 213.372C273.895 213.803 273.472 214.392 273.188 215.136C272.909 215.874 272.77 216.704 272.77 217.624C272.77 218.556 272.912 219.403 273.196 220.164C273.486 220.92 273.912 221.522 274.474 221.971C275.043 222.414 275.747 222.636 276.588 222.636ZM294.247 218.818V211.079H296.259V224.17H294.247V221.954H294.111C293.804 222.619 293.327 223.184 292.679 223.65C292.031 224.11 291.213 224.34 290.224 224.34C289.406 224.34 288.679 224.161 288.043 223.803C287.406 223.44 286.906 222.894 286.543 222.167C286.179 221.434 285.997 220.511 285.997 219.397V211.079H288.009V219.261C288.009 220.215 288.276 220.977 288.81 221.545C289.349 222.113 290.037 222.397 290.872 222.397C291.372 222.397 291.881 222.269 292.398 222.014C292.92 221.758 293.358 221.366 293.71 220.838C294.068 220.309 294.247 219.636 294.247 218.818ZM305.431 224.443C304.17 224.443 303.082 224.164 302.167 223.607C301.258 223.045 300.556 222.261 300.062 221.255C299.573 220.244 299.329 219.068 299.329 217.727C299.329 216.386 299.573 215.204 300.062 214.181C300.556 213.153 301.244 212.352 302.124 211.778C303.011 211.198 304.045 210.909 305.227 210.909C305.908 210.909 306.582 211.022 307.246 211.249C307.911 211.477 308.516 211.846 309.062 212.357C309.607 212.863 310.042 213.534 310.366 214.369C310.69 215.204 310.852 216.232 310.852 217.454V218.306H300.761V216.568H308.806C308.806 215.829 308.658 215.17 308.363 214.59C308.073 214.011 307.658 213.553 307.119 213.218C306.585 212.883 305.954 212.715 305.227 212.715C304.425 212.715 303.732 212.914 303.147 213.312C302.567 213.704 302.121 214.215 301.809 214.846C301.496 215.477 301.34 216.153 301.34 216.874V218.034C301.34 219.022 301.511 219.86 301.852 220.548C302.198 221.23 302.678 221.749 303.292 222.107C303.906 222.46 304.619 222.636 305.431 222.636C305.96 222.636 306.437 222.562 306.863 222.414C307.295 222.261 307.667 222.034 307.979 221.732C308.292 221.426 308.533 221.045 308.704 220.59L310.647 221.136C310.442 221.795 310.099 222.374 309.616 222.874C309.133 223.369 308.536 223.755 307.826 224.034C307.116 224.306 306.317 224.443 305.431 224.443ZM323.184 214.011L321.377 214.522C321.263 214.221 321.096 213.928 320.874 213.644C320.658 213.355 320.363 213.116 319.988 212.928C319.613 212.741 319.133 212.647 318.548 212.647C317.746 212.647 317.079 212.832 316.545 213.201C316.016 213.565 315.752 214.028 315.752 214.59C315.752 215.09 315.934 215.485 316.298 215.775C316.661 216.065 317.229 216.306 318.002 216.499L319.945 216.977C321.116 217.261 321.988 217.695 322.562 218.281C323.136 218.86 323.423 219.607 323.423 220.522C323.423 221.272 323.207 221.943 322.775 222.534C322.349 223.124 321.752 223.59 320.985 223.931C320.218 224.272 319.326 224.443 318.309 224.443C316.974 224.443 315.869 224.153 314.994 223.573C314.119 222.994 313.565 222.147 313.332 221.034L315.241 220.556C315.423 221.261 315.766 221.789 316.272 222.142C316.783 222.494 317.451 222.67 318.275 222.67C319.212 222.67 319.957 222.471 320.508 222.073C321.065 221.67 321.343 221.187 321.343 220.624C321.343 220.17 321.184 219.789 320.866 219.482C320.548 219.17 320.059 218.937 319.4 218.784L317.218 218.272C316.019 217.988 315.138 217.548 314.576 216.951C314.019 216.349 313.741 215.596 313.741 214.693C313.741 213.954 313.948 213.301 314.363 212.732C314.783 212.164 315.354 211.718 316.076 211.394C316.803 211.07 317.627 210.909 318.548 210.909C319.843 210.909 320.86 211.193 321.599 211.761C322.343 212.329 322.871 213.079 323.184 214.011ZM332.143 211.079V212.784H325.359V211.079H332.143ZM327.337 207.943H329.348V220.42C329.348 220.988 329.43 221.414 329.595 221.698C329.766 221.977 329.982 222.164 330.243 222.261C330.51 222.352 330.791 222.397 331.087 222.397C331.308 222.397 331.49 222.386 331.632 222.363C331.774 222.335 331.888 222.312 331.973 222.295L332.382 224.102C332.246 224.153 332.055 224.204 331.811 224.255C331.567 224.312 331.257 224.34 330.882 224.34C330.314 224.34 329.757 224.218 329.212 223.974C328.672 223.73 328.223 223.357 327.865 222.857C327.513 222.357 327.337 221.727 327.337 220.965V207.943ZM344.207 214.011L342.401 214.522C342.287 214.221 342.119 213.928 341.898 213.644C341.682 213.355 341.386 213.116 341.011 212.928C340.636 212.741 340.156 212.647 339.571 212.647C338.77 212.647 338.102 212.832 337.568 213.201C337.04 213.565 336.776 214.028 336.776 214.59C336.776 215.09 336.957 215.485 337.321 215.775C337.685 216.065 338.253 216.306 339.026 216.499L340.969 216.977C342.139 217.261 343.011 217.695 343.585 218.281C344.159 218.86 344.446 219.607 344.446 220.522C344.446 221.272 344.23 221.943 343.798 222.534C343.372 223.124 342.776 223.59 342.009 223.931C341.241 224.272 340.349 224.443 339.332 224.443C337.997 224.443 336.892 224.153 336.017 223.573C335.142 222.994 334.588 222.147 334.355 221.034L336.264 220.556C336.446 221.261 336.79 221.789 337.295 222.142C337.807 222.494 338.474 222.67 339.298 222.67C340.236 222.67 340.98 222.471 341.531 222.073C342.088 221.67 342.366 221.187 342.366 220.624C342.366 220.17 342.207 219.789 341.889 219.482C341.571 219.17 341.082 218.937 340.423 218.784L338.241 218.272C337.043 217.988 336.162 217.548 335.599 216.951C335.043 216.349 334.764 215.596 334.764 214.693C334.764 213.954 334.972 213.301 335.386 212.732C335.807 212.164 336.378 211.718 337.099 211.394C337.827 211.07 338.651 210.909 339.571 210.909C340.866 210.909 341.884 211.193 342.622 211.761C343.366 212.329 343.895 213.079 344.207 214.011Z" fill="#7B849A"/>
<defs>
<filter id="filter0_d_6240_4184" x="45.7896" y="11.0825" width="203.881" height="57.6049" filterUnits="userSpaceOnUse" color-interpolation-filters="sRGB">
<feFlood flood-opacity="0" result="BackgroundImageFix"/>
<feColorMatrix in="SourceAlpha" type="matrix" values="0 0 0 0 0 0 0 0 0 0 0 0 0 0 0 0 0 0 127 0" result="hardAlpha"/>
<feOffset dx="3.31858" dy="3.31858"/>
<feGaussianBlur stdDeviation="2.76549"/>
<feColorMatrix type="matrix" values="0 0 0 0 0.230539 0 0 0 0 0.370572 0 0 0 0 0.482993 0 0 0 0.1 0"/>
<feBlend mode="normal" in2="BackgroundImageFix" result="effect1_dropShadow_6240_4184"/>
<feBlend mode="normal" in="SourceGraphic" in2="effect1_dropShadow_6240_4184" result="shape"/>
</filter>
<filter id="filter1_d_6240_4184" x="102.969" y="68.2661" width="203.881" height="57.6049" filterUnits="userSpaceOnUse" color-interpolation-filters="sRGB">
<feFlood flood-opacity="0" result="BackgroundImageFix"/>
<feColorMatrix in="SourceAlpha" type="matrix" values="0 0 0 0 0 0 0 0 0 0 0 0 0 0 0 0 0 0 127 0" result="hardAlpha"/>
<feOffset dx="3.31858" dy="3.31858"/>
<feGaussianBlur stdDeviation="2.76549"/>
<feColorMatrix type="matrix" values="0 0 0 0 0.230539 0 0 0 0 0.370572 0 0 0 0 0.482993 0 0 0 0.1 0"/>
<feBlend mode="normal" in2="BackgroundImageFix" result="effect1_dropShadow_6240_4184"/>
<feBlend mode="normal" in="SourceGraphic" in2="effect1_dropShadow_6240_4184" result="shape"/>
</filter>
<filter id="filter2_d_6240_4184" x="45.7879" y="125.444" width="203.881" height="57.6049" filterUnits="userSpaceOnUse" color-interpolation-filters="sRGB">
<feFlood flood-opacity="0" result="BackgroundImageFix"/>
<feColorMatrix in="SourceAlpha" type="matrix" values="0 0 0 0 0 0 0 0 0 0 0 0 0 0 0 0 0 0 127 0" result="hardAlpha"/>
<feOffset dx="3.31858" dy="3.31858"/>
<feGaussianBlur stdDeviation="2.76549"/>
<feColorMatrix type="matrix" values="0 0 0 0 0.230539 0 0 0 0 0.370572 0 0 0 0 0.482993 0 0 0 0.1 0"/>
<feBlend mode="normal" in2="BackgroundImageFix" result="effect1_dropShadow_6240_4184"/>
<feBlend mode="normal" in="SourceGraphic" in2="effect1_dropShadow_6240_4184" result="shape"/>
</filter>
</defs>
</svg>
