<svg width="261" height="239" viewBox="0 0 261 239" fill="none" xmlns="http://www.w3.org/2000/svg">
<g clip-path="url(#clip0_3346_905)">
<path d="M206.453 34.7905H58.24C56.2405 34.7918 54.3232 35.5866 52.9092 37.0005C51.4953 38.4145 50.7005 40.3318 50.6992 42.3313V178.318C50.7005 180.318 51.4953 182.235 52.9092 183.649C54.3232 185.063 56.2405 185.858 58.24 185.859H206.453C208.453 185.858 210.371 185.063 211.785 183.649C213.199 182.236 213.994 180.318 213.995 178.318V42.3313C213.994 40.3316 213.199 38.4142 211.785 37.0003C210.371 35.5863 208.453 34.7916 206.453 34.7905Z" fill="#D3EFE9"/>
<path d="M196.696 138.604H67.9979C63.8334 138.604 60.457 135.227 60.457 131.063V10.9114C60.457 6.747 63.8334 3.37061 67.9979 3.37061H196.696C200.86 3.37061 204.236 6.747 204.236 10.9114V131.063C204.236 135.227 200.86 138.604 196.696 138.604Z" fill="#38B89A"/>
<path d="M62.8445 133.45V13.2989C62.8445 9.13446 66.2209 5.75806 70.3853 5.75806H199.083C200.554 5.75806 201.921 6.18556 203.081 6.91364C201.748 4.78782 199.39 3.37061 196.696 3.37061H67.9979C63.8334 3.37061 60.457 6.747 60.457 10.9114V131.063C60.457 133.758 61.8742 136.115 64.0001 137.449C63.272 136.289 62.8445 134.921 62.8445 133.451V133.45Z" fill="url(#paint0_linear_3346_905)"/>
<path d="M180.861 28.7571H83.834V34.2865H180.861V28.7571ZM180.861 49.8704H83.834V55.3999H180.861V49.8704ZM180.861 70.9885H83.834V76.5179H180.861V70.9885ZM180.861 92.1018H83.834V97.6321H180.861V92.1018Z" fill="white"/>
<path d="M95.3984 74.2542L119.78 98.6364H95.3984V74.2542Z" fill="url(#paint1_linear_3346_905)"/>
<path d="M213.996 100.648V44.549L204.238 34.7905V100.647H213.996V100.648Z" fill="#D3EFE9"/>
<path d="M225.424 105.723L214.911 180.143C214.386 183.864 211.202 186.629 207.444 186.629H57.2495C53.4923 186.629 50.3082 183.864 49.7826 180.143L35.5755 79.5828C34.9346 75.043 38.4574 70.9868 43.0423 70.9868H89.4257C93.1828 70.9868 96.3669 73.7519 96.8925 77.4717L98.7544 90.6409C99.28 94.3615 102.464 97.1266 106.221 97.1266H217.959C222.542 97.1266 226.066 101.183 225.425 105.723H225.424Z" fill="white"/>
<path d="M225.424 105.723L214.911 180.143C214.386 183.864 211.202 186.629 207.444 186.629H57.2495C53.4923 186.629 50.3082 183.864 49.7826 180.143L35.5755 79.5828C34.9346 75.043 38.4574 70.9868 43.0423 70.9868H89.4257C93.1828 70.9868 96.3669 73.7519 96.8925 77.4717L98.7544 90.6409C99.28 94.3615 102.464 97.1266 106.221 97.1266H217.959C222.542 97.1266 226.066 101.183 225.425 105.723H225.424Z" fill="#38B89A" fill-opacity="0.22"/>
<path d="M188.175 153.434H76.52C75.908 153.434 75.3171 153.21 74.858 152.806C74.3988 152.401 74.103 151.843 74.0259 151.236L72.6289 140.175C72.5845 139.822 72.6159 139.462 72.7209 139.122C72.826 138.781 73.0023 138.466 73.2381 138.199C73.474 137.931 73.764 137.717 74.089 137.57C74.414 137.423 74.7665 137.347 75.1231 137.347H189.572C189.929 137.347 190.281 137.423 190.606 137.57C190.931 137.717 191.221 137.931 191.457 138.199C191.693 138.466 191.869 138.781 191.974 139.122C192.08 139.462 192.111 139.822 192.067 140.175L190.67 151.236C190.592 151.843 190.297 152.401 189.837 152.806C189.378 153.21 188.787 153.434 188.175 153.434Z" fill="#38B89A"/>
</g>
<path d="M15.9545 215.545V233H13.9091L4.39773 219.295H4.22727V233H2.11364V215.545H4.15909L13.7045 229.284H13.875V215.545H15.9545ZM25.2294 233.273C24.0476 233.273 23.0107 232.991 22.1186 232.429C21.2322 231.866 20.5391 231.08 20.0391 230.068C19.5447 229.057 19.2976 227.875 19.2976 226.523C19.2976 225.159 19.5447 223.969 20.0391 222.952C20.5391 221.935 21.2322 221.145 22.1186 220.582C23.0107 220.02 24.0476 219.739 25.2294 219.739C26.4112 219.739 27.4453 220.02 28.3317 220.582C29.2237 221.145 29.9169 221.935 30.4112 222.952C30.9112 223.969 31.1612 225.159 31.1612 226.523C31.1612 227.875 30.9112 229.057 30.4112 230.068C29.9169 231.08 29.2237 231.866 28.3317 232.429C27.4453 232.991 26.4112 233.273 25.2294 233.273ZM25.2294 231.466C26.1271 231.466 26.8658 231.236 27.4453 230.776C28.0249 230.315 28.4538 229.71 28.7322 228.96C29.0107 228.21 29.1499 227.398 29.1499 226.523C29.1499 225.648 29.0107 224.832 28.7322 224.077C28.4538 223.321 28.0249 222.71 27.4453 222.244C26.8658 221.778 26.1271 221.545 25.2294 221.545C24.3317 221.545 23.593 221.778 23.0135 222.244C22.4339 222.71 22.005 223.321 21.7266 224.077C21.4482 224.832 21.3089 225.648 21.3089 226.523C21.3089 227.398 21.4482 228.21 21.7266 228.96C22.005 229.71 22.4339 230.315 23.0135 230.776C23.593 231.236 24.3317 231.466 25.2294 231.466ZM46.6406 233H41.2543V215.545H46.8793C48.5724 215.545 50.0213 215.895 51.2259 216.594C52.4304 217.287 53.3537 218.284 53.9957 219.585C54.6378 220.881 54.9588 222.432 54.9588 224.239C54.9588 226.057 54.6349 227.622 53.9872 228.935C53.3395 230.241 52.3963 231.247 51.1577 231.952C49.919 232.651 48.4134 233 46.6406 233ZM43.3679 231.125H46.5043C47.9474 231.125 49.1435 230.847 50.0923 230.29C51.0412 229.733 51.7486 228.94 52.2145 227.912C52.6804 226.884 52.9134 225.659 52.9134 224.239C52.9134 222.83 52.6832 221.616 52.223 220.599C51.7628 219.577 51.0753 218.793 50.1605 218.247C49.2457 217.696 48.1065 217.42 46.7429 217.42H43.3679V231.125ZM63.7202 233.273C62.4588 233.273 61.3707 232.994 60.456 232.438C59.5469 231.875 58.8452 231.091 58.3509 230.085C57.8622 229.074 57.6179 227.898 57.6179 226.557C57.6179 225.216 57.8622 224.034 58.3509 223.011C58.8452 221.983 59.5327 221.182 60.4134 220.608C61.2997 220.028 62.3338 219.739 63.5156 219.739C64.1974 219.739 64.8707 219.852 65.5355 220.08C66.2003 220.307 66.8054 220.676 67.3509 221.188C67.8963 221.693 68.331 222.364 68.6548 223.199C68.9787 224.034 69.1406 225.062 69.1406 226.284V227.136H59.0497V225.398H67.0952C67.0952 224.659 66.9474 224 66.652 223.42C66.3622 222.841 65.9474 222.384 65.4077 222.048C64.8736 221.713 64.2429 221.545 63.5156 221.545C62.7145 221.545 62.0213 221.744 61.4361 222.142C60.8565 222.534 60.4105 223.045 60.098 223.676C59.7855 224.307 59.6293 224.983 59.6293 225.705V226.864C59.6293 227.852 59.7997 228.69 60.1406 229.378C60.4872 230.06 60.9673 230.58 61.581 230.938C62.1946 231.29 62.9077 231.466 63.7202 231.466C64.2486 231.466 64.7259 231.392 65.152 231.244C65.5838 231.091 65.956 230.864 66.2685 230.562C66.581 230.256 66.8224 229.875 66.9929 229.42L68.9361 229.966C68.7315 230.625 68.3878 231.205 67.9048 231.705C67.4219 232.199 66.8253 232.585 66.1151 232.864C65.4048 233.136 64.6065 233.273 63.7202 233.273ZM77.4844 238.182C76.5128 238.182 75.6776 238.057 74.9787 237.807C74.2798 237.562 73.6974 237.239 73.2315 236.835C72.7713 236.438 72.4048 236.011 72.1321 235.557L73.7344 234.432C73.9162 234.67 74.1463 234.943 74.4247 235.25C74.7031 235.562 75.0838 235.832 75.5668 236.06C76.0554 236.293 76.6946 236.409 77.4844 236.409C78.5412 236.409 79.4134 236.153 80.1009 235.642C80.7884 235.131 81.1321 234.33 81.1321 233.239V230.58H80.9616C80.8139 230.818 80.6037 231.114 80.331 231.466C80.0639 231.812 79.6776 232.122 79.1719 232.395C78.6719 232.662 77.9957 232.795 77.1435 232.795C76.0866 232.795 75.1378 232.545 74.2969 232.045C73.4616 231.545 72.7997 230.818 72.3111 229.864C71.8281 228.909 71.5866 227.75 71.5866 226.386C71.5866 225.045 71.8224 223.878 72.294 222.884C72.7656 221.884 73.4219 221.111 74.2628 220.565C75.1037 220.014 76.0753 219.739 77.1776 219.739C78.0298 219.739 78.706 219.881 79.206 220.165C79.7116 220.443 80.098 220.761 80.3651 221.119C80.6378 221.472 80.848 221.761 80.9957 221.989H81.2003V219.909H83.1435V233.375C83.1435 234.5 82.8878 235.415 82.3764 236.119C81.8707 236.83 81.1889 237.349 80.331 237.679C79.4787 238.014 78.5298 238.182 77.4844 238.182ZM77.4162 230.989C78.223 230.989 78.9048 230.804 79.4616 230.435C80.0185 230.065 80.4418 229.534 80.7315 228.841C81.0213 228.148 81.1662 227.318 81.1662 226.352C81.1662 225.409 81.0241 224.577 80.7401 223.855C80.456 223.134 80.0355 222.568 79.4787 222.159C78.9219 221.75 78.2344 221.545 77.4162 221.545C76.5639 221.545 75.8537 221.761 75.2855 222.193C74.723 222.625 74.2997 223.205 74.0156 223.932C73.7372 224.659 73.598 225.466 73.598 226.352C73.598 227.261 73.7401 228.065 74.0241 228.764C74.3139 229.457 74.7401 230.003 75.3026 230.401C75.8707 230.793 76.5753 230.989 77.4162 230.989ZM86.8253 233V219.909H88.7685V221.886H88.9048C89.1435 221.239 89.5753 220.713 90.2003 220.31C90.8253 219.906 91.5298 219.705 92.3139 219.705C92.4616 219.705 92.6463 219.707 92.8679 219.713C93.0895 219.719 93.2571 219.727 93.3707 219.739V221.784C93.3026 221.767 93.1463 221.741 92.902 221.707C92.6634 221.668 92.4105 221.648 92.1435 221.648C91.5071 221.648 90.9389 221.781 90.4389 222.048C89.9446 222.31 89.5526 222.673 89.2628 223.139C88.9787 223.599 88.8366 224.125 88.8366 224.716V233H86.8253ZM100.845 233.273C99.5838 233.273 98.4957 232.994 97.581 232.438C96.6719 231.875 95.9702 231.091 95.4759 230.085C94.9872 229.074 94.7429 227.898 94.7429 226.557C94.7429 225.216 94.9872 224.034 95.4759 223.011C95.9702 221.983 96.6577 221.182 97.5384 220.608C98.4247 220.028 99.4588 219.739 100.641 219.739C101.322 219.739 101.996 219.852 102.661 220.08C103.325 220.307 103.93 220.676 104.476 221.188C105.021 221.693 105.456 222.364 105.78 223.199C106.104 224.034 106.266 225.062 106.266 226.284V227.136H96.1747V225.398H104.22C104.22 224.659 104.072 224 103.777 223.42C103.487 222.841 103.072 222.384 102.533 222.048C101.999 221.713 101.368 221.545 100.641 221.545C99.8395 221.545 99.1463 221.744 98.5611 222.142C97.9815 222.534 97.5355 223.045 97.223 223.676C96.9105 224.307 96.7543 224.983 96.7543 225.705V226.864C96.7543 227.852 96.9247 228.69 97.2656 229.378C97.6122 230.06 98.0923 230.58 98.706 230.938C99.3196 231.29 100.033 231.466 100.845 231.466C101.374 231.466 101.851 231.392 102.277 231.244C102.709 231.091 103.081 230.864 103.393 230.562C103.706 230.256 103.947 229.875 104.118 229.42L106.061 229.966C105.857 230.625 105.513 231.205 105.03 231.705C104.547 232.199 103.95 232.585 103.24 232.864C102.53 233.136 101.732 233.273 100.845 233.273ZM114.814 233.273C113.553 233.273 112.464 232.994 111.55 232.438C110.641 231.875 109.939 231.091 109.445 230.085C108.956 229.074 108.712 227.898 108.712 226.557C108.712 225.216 108.956 224.034 109.445 223.011C109.939 221.983 110.626 221.182 111.507 220.608C112.393 220.028 113.428 219.739 114.609 219.739C115.291 219.739 115.964 219.852 116.629 220.08C117.294 220.307 117.899 220.676 118.445 221.188C118.99 221.693 119.425 222.364 119.749 223.199C120.072 224.034 120.234 225.062 120.234 226.284V227.136H110.143V225.398H118.189C118.189 224.659 118.041 224 117.746 223.42C117.456 222.841 117.041 222.384 116.501 222.048C115.967 221.713 115.337 221.545 114.609 221.545C113.808 221.545 113.115 221.744 112.53 222.142C111.95 222.534 111.504 223.045 111.192 223.676C110.879 224.307 110.723 224.983 110.723 225.705V226.864C110.723 227.852 110.893 228.69 111.234 229.378C111.581 230.06 112.061 230.58 112.675 230.938C113.288 231.29 114.001 231.466 114.814 231.466C115.342 231.466 115.82 231.392 116.246 231.244C116.678 231.091 117.05 230.864 117.362 230.562C117.675 230.256 117.916 229.875 118.087 229.42L120.03 229.966C119.825 230.625 119.482 231.205 118.999 231.705C118.516 232.199 117.919 232.585 117.209 232.864C116.499 233.136 115.7 233.273 114.814 233.273ZM131.033 233H128.817L135.226 215.545H137.408L143.817 233H141.601L136.385 218.307H136.249L131.033 233ZM131.851 226.182H140.783V228.057H131.851V226.182ZM151.206 233.273C150.115 233.273 149.152 232.997 148.317 232.446C147.482 231.889 146.828 231.105 146.357 230.094C145.885 229.077 145.649 227.875 145.649 226.489C145.649 225.114 145.885 223.92 146.357 222.909C146.828 221.898 147.484 221.116 148.325 220.565C149.166 220.014 150.138 219.739 151.24 219.739C152.092 219.739 152.766 219.881 153.26 220.165C153.76 220.443 154.141 220.761 154.402 221.119C154.669 221.472 154.876 221.761 155.024 221.989H155.195V215.545H157.206V233H155.263V230.989H155.024C154.876 231.227 154.666 231.528 154.393 231.892C154.121 232.25 153.732 232.571 153.226 232.855C152.72 233.134 152.047 233.273 151.206 233.273ZM151.479 231.466C152.286 231.466 152.967 231.256 153.524 230.835C154.081 230.409 154.504 229.821 154.794 229.071C155.084 228.315 155.229 227.443 155.229 226.455C155.229 225.477 155.087 224.622 154.803 223.889C154.518 223.151 154.098 222.577 153.541 222.168C152.984 221.753 152.297 221.545 151.479 221.545C150.626 221.545 149.916 221.764 149.348 222.202C148.786 222.634 148.362 223.222 148.078 223.966C147.8 224.705 147.661 225.534 147.661 226.455C147.661 227.386 147.803 228.233 148.087 228.994C148.376 229.75 148.803 230.352 149.365 230.801C149.933 231.244 150.638 231.466 151.479 231.466ZM166.112 233.273C165.021 233.273 164.058 232.997 163.223 232.446C162.388 231.889 161.734 231.105 161.263 230.094C160.791 229.077 160.555 227.875 160.555 226.489C160.555 225.114 160.791 223.92 161.263 222.909C161.734 221.898 162.391 221.116 163.232 220.565C164.072 220.014 165.044 219.739 166.146 219.739C166.999 219.739 167.672 219.881 168.166 220.165C168.666 220.443 169.047 220.761 169.308 221.119C169.575 221.472 169.783 221.761 169.93 221.989H170.101V215.545H172.112V233H170.169V230.989H169.93C169.783 231.227 169.572 231.528 169.3 231.892C169.027 232.25 168.638 232.571 168.132 232.855C167.626 233.134 166.953 233.273 166.112 233.273ZM166.385 231.466C167.192 231.466 167.874 231.256 168.43 230.835C168.987 230.409 169.411 229.821 169.7 229.071C169.99 228.315 170.135 227.443 170.135 226.455C170.135 225.477 169.993 224.622 169.709 223.889C169.425 223.151 169.004 222.577 168.447 222.168C167.891 221.753 167.203 221.545 166.385 221.545C165.533 221.545 164.822 221.764 164.254 222.202C163.692 222.634 163.268 223.222 162.984 223.966C162.706 224.705 162.567 225.534 162.567 226.455C162.567 227.386 162.709 228.233 162.993 228.994C163.283 229.75 163.709 230.352 164.271 230.801C164.839 231.244 165.544 231.466 166.385 231.466ZM181.564 233.273C180.303 233.273 179.214 232.994 178.3 232.438C177.391 231.875 176.689 231.091 176.195 230.085C175.706 229.074 175.462 227.898 175.462 226.557C175.462 225.216 175.706 224.034 176.195 223.011C176.689 221.983 177.376 221.182 178.257 220.608C179.143 220.028 180.178 219.739 181.359 219.739C182.041 219.739 182.714 219.852 183.379 220.08C184.044 220.307 184.649 220.676 185.195 221.188C185.74 221.693 186.175 222.364 186.499 223.199C186.822 224.034 186.984 225.062 186.984 226.284V227.136H176.893V225.398H184.939C184.939 224.659 184.791 224 184.496 223.42C184.206 222.841 183.791 222.384 183.251 222.048C182.717 221.713 182.087 221.545 181.359 221.545C180.558 221.545 179.865 221.744 179.28 222.142C178.7 222.534 178.254 223.045 177.942 223.676C177.629 224.307 177.473 224.983 177.473 225.705V226.864C177.473 227.852 177.643 228.69 177.984 229.378C178.331 230.06 178.811 230.58 179.425 230.938C180.038 231.29 180.751 231.466 181.564 231.466C182.092 231.466 182.57 231.392 182.996 231.244C183.428 231.091 183.8 230.864 184.112 230.562C184.425 230.256 184.666 229.875 184.837 229.42L186.78 229.966C186.575 230.625 186.232 231.205 185.749 231.705C185.266 232.199 184.669 232.585 183.959 232.864C183.249 233.136 182.45 233.273 181.564 233.273ZM194.987 233.273C193.896 233.273 192.933 232.997 192.098 232.446C191.263 231.889 190.609 231.105 190.138 230.094C189.666 229.077 189.43 227.875 189.43 226.489C189.43 225.114 189.666 223.92 190.138 222.909C190.609 221.898 191.266 221.116 192.107 220.565C192.947 220.014 193.919 219.739 195.021 219.739C195.874 219.739 196.547 219.881 197.041 220.165C197.541 220.443 197.922 220.761 198.183 221.119C198.45 221.472 198.658 221.761 198.805 221.989H198.976V215.545H200.987V233H199.044V230.989H198.805C198.658 231.227 198.447 231.528 198.175 231.892C197.902 232.25 197.513 232.571 197.007 232.855C196.501 233.134 195.828 233.273 194.987 233.273ZM195.26 231.466C196.067 231.466 196.749 231.256 197.305 230.835C197.862 230.409 198.286 229.821 198.575 229.071C198.865 228.315 199.01 227.443 199.01 226.455C199.01 225.477 198.868 224.622 198.584 223.889C198.3 223.151 197.879 222.577 197.322 222.168C196.766 221.753 196.078 221.545 195.26 221.545C194.408 221.545 193.697 221.764 193.129 222.202C192.567 222.634 192.143 223.222 191.859 223.966C191.581 224.705 191.442 225.534 191.442 226.455C191.442 227.386 191.584 228.233 191.868 228.994C192.158 229.75 192.584 230.352 193.146 230.801C193.714 231.244 194.419 231.466 195.26 231.466ZM210.473 215.545H212.893L217.734 223.693H217.939L222.78 215.545H225.2L218.893 225.807V233H216.78V225.807L210.473 215.545ZM231.298 233.273C230.037 233.273 228.949 232.994 228.034 232.438C227.125 231.875 226.423 231.091 225.929 230.085C225.44 229.074 225.196 227.898 225.196 226.557C225.196 225.216 225.44 224.034 225.929 223.011C226.423 221.983 227.111 221.182 227.991 220.608C228.878 220.028 229.912 219.739 231.094 219.739C231.776 219.739 232.449 219.852 233.114 220.08C233.778 220.307 234.384 220.676 234.929 221.188C235.474 221.693 235.909 222.364 236.233 223.199C236.557 224.034 236.719 225.062 236.719 226.284V227.136H226.628V225.398H234.673C234.673 224.659 234.526 224 234.23 223.42C233.94 222.841 233.526 222.384 232.986 222.048C232.452 221.713 231.821 221.545 231.094 221.545C230.293 221.545 229.599 221.744 229.014 222.142C228.435 222.534 227.989 223.045 227.676 223.676C227.364 224.307 227.207 224.983 227.207 225.705V226.864C227.207 227.852 227.378 228.69 227.719 229.378C228.065 230.06 228.545 230.58 229.159 230.938C229.773 231.29 230.486 231.466 231.298 231.466C231.827 231.466 232.304 231.392 232.73 231.244C233.162 231.091 233.534 230.864 233.847 230.562C234.159 230.256 234.401 229.875 234.571 229.42L236.514 229.966C236.31 230.625 235.966 231.205 235.483 231.705C235 232.199 234.403 232.585 233.693 232.864C232.983 233.136 232.185 233.273 231.298 233.273ZM245.472 219.909V221.614H238.688V219.909H245.472ZM240.665 216.773H242.676V229.25C242.676 229.818 242.759 230.244 242.923 230.528C243.094 230.807 243.31 230.994 243.571 231.091C243.838 231.182 244.119 231.227 244.415 231.227C244.636 231.227 244.818 231.216 244.96 231.193C245.102 231.165 245.216 231.142 245.301 231.125L245.71 232.932C245.574 232.983 245.384 233.034 245.139 233.085C244.895 233.142 244.585 233.17 244.21 233.17C243.642 233.17 243.085 233.048 242.54 232.804C242 232.56 241.551 232.188 241.193 231.688C240.841 231.188 240.665 230.557 240.665 229.795V216.773ZM251.156 215.545L250.986 228.091H249.009L248.838 215.545H251.156ZM249.997 233.136C249.577 233.136 249.216 232.986 248.915 232.685C248.614 232.384 248.463 232.023 248.463 231.602C248.463 231.182 248.614 230.821 248.915 230.52C249.216 230.219 249.577 230.068 249.997 230.068C250.418 230.068 250.778 230.219 251.08 230.52C251.381 230.821 251.531 231.182 251.531 231.602C251.531 231.881 251.46 232.136 251.318 232.369C251.182 232.602 250.997 232.79 250.764 232.932C250.537 233.068 250.281 233.136 249.997 233.136ZM257.836 215.545L257.665 228.091H255.688L255.518 215.545H257.836ZM256.677 233.136C256.256 233.136 255.896 232.986 255.594 232.685C255.293 232.384 255.143 232.023 255.143 231.602C255.143 231.182 255.293 230.821 255.594 230.52C255.896 230.219 256.256 230.068 256.677 230.068C257.097 230.068 257.458 230.219 257.759 230.52C258.06 230.821 258.211 231.182 258.211 231.602C258.211 231.881 258.14 232.136 257.998 232.369C257.862 232.602 257.677 232.79 257.444 232.932C257.217 233.068 256.961 233.136 256.677 233.136Z" fill="#7B849A"/>
<defs>
<linearGradient id="paint0_linear_3346_905" x1="136.768" y1="75.4009" x2="41.4025" y2="-19.9659" gradientUnits="userSpaceOnUse">
<stop stop-color="white"/>
</linearGradient>
<linearGradient id="paint1_linear_3346_905" x1="111.507" y1="102.549" x2="82.0361" y2="73.0783" gradientUnits="userSpaceOnUse">
<stop stop-color="#C2CECE" stop-opacity="0"/>
<stop offset="0.179" stop-color="#AFBCBC" stop-opacity="0.179"/>
<stop offset="1" stop-color="#5B6A6A"/>
</linearGradient>
<clipPath id="clip0_3346_905">
<rect width="190" height="190" fill="white" transform="translate(35.5)"/>
</clipPath>
</defs>
</svg>
