<svg width="286" height="279" viewBox="0 0 286 279" fill="none" xmlns="http://www.w3.org/2000/svg">
<path d="M143 230C206.513 230 258 178.513 258 115C258 51.4873 206.513 0 143 0C79.4873 0 28 51.4873 28 115C28 178.513 79.4873 230 143 230Z" fill="#F0F1F3"/>
<path d="M212 230.001H74V81.2677C80.5044 81.2604 86.7403 78.6733 91.3396 74.074C95.9389 69.4747 98.526 63.2388 98.5333 56.7344H187.467C187.46 59.9565 188.092 63.148 189.327 66.1242C190.561 69.1004 192.374 71.8022 194.66 74.0733C196.931 76.3596 199.632 78.1728 202.609 79.4078C205.586 80.6427 208.777 81.2749 212 81.2677V230.001Z" fill="white"/>
<path d="M143 156.397C163.324 156.397 179.8 139.921 179.8 119.597C179.8 99.2728 163.324 82.7969 143 82.7969C122.676 82.7969 106.2 99.2728 106.2 119.597C106.2 139.921 122.676 156.397 143 156.397Z" fill="#38B89A"/>
<path d="M156.011 136.952L143 123.941L129.989 136.952L125.652 132.615L138.663 119.605L125.652 106.594L129.989 102.257L143 115.268L156.011 102.257L160.348 106.594L147.337 119.605L160.348 132.615L156.011 136.952Z" fill="white"/>
<path d="M162.933 165.602H123.067C120.526 165.602 118.467 167.661 118.467 170.202C118.467 172.742 120.526 174.802 123.067 174.802H162.933C165.474 174.802 167.533 172.742 167.533 170.202C167.533 167.661 165.474 165.602 162.933 165.602Z" fill="#38B89A"/>
<path d="M176.733 184H109.267C106.726 184 104.667 186.059 104.667 188.6C104.667 191.141 106.726 193.2 109.267 193.2H176.733C179.274 193.2 181.333 191.141 181.333 188.6C181.333 186.059 179.274 184 176.733 184Z" fill="#38B89A"/>
<path d="M15.9545 260.545V278H13.9091L4.39773 264.295H4.22727V278H2.11364V260.545H4.15909L13.7045 274.284H13.875V260.545H15.9545ZM25.2294 278.273C24.0476 278.273 23.0107 277.991 22.1186 277.429C21.2322 276.866 20.5391 276.08 20.0391 275.068C19.5447 274.057 19.2976 272.875 19.2976 271.523C19.2976 270.159 19.5447 268.969 20.0391 267.952C20.5391 266.935 21.2322 266.145 22.1186 265.582C23.0107 265.02 24.0476 264.739 25.2294 264.739C26.4112 264.739 27.4453 265.02 28.3317 265.582C29.2237 266.145 29.9169 266.935 30.4112 267.952C30.9112 268.969 31.1612 270.159 31.1612 271.523C31.1612 272.875 30.9112 274.057 30.4112 275.068C29.9169 276.08 29.2237 276.866 28.3317 277.429C27.4453 277.991 26.4112 278.273 25.2294 278.273ZM25.2294 276.466C26.1271 276.466 26.8658 276.236 27.4453 275.776C28.0249 275.315 28.4538 274.71 28.7322 273.96C29.0107 273.21 29.1499 272.398 29.1499 271.523C29.1499 270.648 29.0107 269.832 28.7322 269.077C28.4538 268.321 28.0249 267.71 27.4453 267.244C26.8658 266.778 26.1271 266.545 25.2294 266.545C24.3317 266.545 23.593 266.778 23.0135 267.244C22.4339 267.71 22.005 268.321 21.7266 269.077C21.4482 269.832 21.3089 270.648 21.3089 271.523C21.3089 272.398 21.4482 273.21 21.7266 273.96C22.005 274.71 22.4339 275.315 23.0135 275.776C23.593 276.236 24.3317 276.466 25.2294 276.466ZM41.9702 278H39.7543L46.1634 260.545H48.3452L54.7543 278H52.5384L47.3224 263.307H47.1861L41.9702 278ZM42.7884 271.182H51.7202V273.057H42.7884V271.182ZM62.5185 278.273C61.2912 278.273 60.2344 277.983 59.348 277.403C58.4616 276.824 57.7798 276.026 57.3026 275.009C56.8253 273.991 56.5866 272.83 56.5866 271.523C56.5866 270.193 56.831 269.02 57.3196 268.003C57.8139 266.98 58.5014 266.182 59.3821 265.608C60.2685 265.028 61.3026 264.739 62.4844 264.739C63.4048 264.739 64.2344 264.909 64.973 265.25C65.7116 265.591 66.3168 266.068 66.7884 266.682C67.2599 267.295 67.5526 268.011 67.6662 268.83H65.6548C65.5014 268.233 65.1605 267.705 64.6321 267.244C64.1094 266.778 63.4048 266.545 62.5185 266.545C61.7344 266.545 61.0469 266.75 60.456 267.159C59.8707 267.562 59.4134 268.134 59.0838 268.872C58.7599 269.605 58.598 270.466 58.598 271.455C58.598 272.466 58.7571 273.347 59.0753 274.097C59.3991 274.847 59.8537 275.429 60.4389 275.844C61.0298 276.259 61.723 276.466 62.5185 276.466C63.0412 276.466 63.5156 276.375 63.9418 276.193C64.3679 276.011 64.7287 275.75 65.0241 275.409C65.3196 275.068 65.5298 274.659 65.6548 274.182H67.6662C67.5526 274.955 67.2713 275.651 66.8224 276.27C66.3793 276.884 65.7912 277.372 65.0582 277.736C64.331 278.094 63.4844 278.273 62.5185 278.273ZM75.9247 278.273C74.6974 278.273 73.6406 277.983 72.7543 277.403C71.8679 276.824 71.1861 276.026 70.7088 275.009C70.2315 273.991 69.9929 272.83 69.9929 271.523C69.9929 270.193 70.2372 269.02 70.7259 268.003C71.2202 266.98 71.9077 266.182 72.7884 265.608C73.6747 265.028 74.7088 264.739 75.8906 264.739C76.8111 264.739 77.6406 264.909 78.3793 265.25C79.1179 265.591 79.723 266.068 80.1946 266.682C80.6662 267.295 80.9588 268.011 81.0724 268.83H79.0611C78.9077 268.233 78.5668 267.705 78.0384 267.244C77.5156 266.778 76.8111 266.545 75.9247 266.545C75.1406 266.545 74.4531 266.75 73.8622 267.159C73.277 267.562 72.8196 268.134 72.4901 268.872C72.1662 269.605 72.0043 270.466 72.0043 271.455C72.0043 272.466 72.1634 273.347 72.4815 274.097C72.8054 274.847 73.2599 275.429 73.8452 275.844C74.4361 276.259 75.1293 276.466 75.9247 276.466C76.4474 276.466 76.9219 276.375 77.348 276.193C77.7741 276.011 78.1349 275.75 78.4304 275.409C78.7259 275.068 78.9361 274.659 79.0611 274.182H81.0724C80.9588 274.955 80.6776 275.651 80.2287 276.27C79.7855 276.884 79.1974 277.372 78.4645 277.736C77.7372 278.094 76.8906 278.273 75.9247 278.273ZM89.331 278.273C88.1491 278.273 87.1122 277.991 86.2202 277.429C85.3338 276.866 84.6406 276.08 84.1406 275.068C83.6463 274.057 83.3991 272.875 83.3991 271.523C83.3991 270.159 83.6463 268.969 84.1406 267.952C84.6406 266.935 85.3338 266.145 86.2202 265.582C87.1122 265.02 88.1491 264.739 89.331 264.739C90.5128 264.739 91.5469 265.02 92.4332 265.582C93.3253 266.145 94.0185 266.935 94.5128 267.952C95.0128 268.969 95.2628 270.159 95.2628 271.523C95.2628 272.875 95.0128 274.057 94.5128 275.068C94.0185 276.08 93.3253 276.866 92.4332 277.429C91.5469 277.991 90.5128 278.273 89.331 278.273ZM89.331 276.466C90.2287 276.466 90.9673 276.236 91.5469 275.776C92.1264 275.315 92.5554 274.71 92.8338 273.96C93.1122 273.21 93.2514 272.398 93.2514 271.523C93.2514 270.648 93.1122 269.832 92.8338 269.077C92.5554 268.321 92.1264 267.71 91.5469 267.244C90.9673 266.778 90.2287 266.545 89.331 266.545C88.4332 266.545 87.6946 266.778 87.1151 267.244C86.5355 267.71 86.1065 268.321 85.8281 269.077C85.5497 269.832 85.4105 270.648 85.4105 271.523C85.4105 272.398 85.5497 273.21 85.8281 273.96C86.1065 274.71 86.5355 275.315 87.1151 275.776C87.6946 276.236 88.4332 276.466 89.331 276.466ZM106.583 272.648V264.909H108.594V278H106.583V275.784H106.447C106.14 276.449 105.663 277.014 105.015 277.48C104.367 277.94 103.549 278.17 102.56 278.17C101.742 278.17 101.015 277.991 100.379 277.634C99.7422 277.27 99.2422 276.724 98.8786 275.997C98.5149 275.264 98.3331 274.341 98.3331 273.227V264.909H100.344V273.091C100.344 274.045 100.612 274.807 101.146 275.375C101.685 275.943 102.373 276.227 103.208 276.227C103.708 276.227 104.217 276.099 104.734 275.844C105.256 275.588 105.694 275.196 106.046 274.668C106.404 274.139 106.583 273.466 106.583 272.648ZM114.29 270.125V278H112.278V264.909H114.222V266.955H114.392C114.699 266.29 115.165 265.756 115.79 265.352C116.415 264.943 117.222 264.739 118.21 264.739C119.097 264.739 119.872 264.92 120.537 265.284C121.202 265.642 121.719 266.188 122.088 266.92C122.457 267.648 122.642 268.568 122.642 269.682V278H120.631V269.818C120.631 268.79 120.364 267.989 119.83 267.415C119.295 266.835 118.563 266.545 117.631 266.545C116.989 266.545 116.415 266.685 115.909 266.963C115.409 267.241 115.014 267.648 114.724 268.182C114.435 268.716 114.29 269.364 114.29 270.125ZM132.011 264.909V266.614H125.227V264.909H132.011ZM127.204 261.773H129.215V274.25C129.215 274.818 129.298 275.244 129.462 275.528C129.633 275.807 129.849 275.994 130.11 276.091C130.377 276.182 130.658 276.227 130.954 276.227C131.175 276.227 131.357 276.216 131.499 276.193C131.641 276.165 131.755 276.142 131.84 276.125L132.249 277.932C132.113 277.983 131.923 278.034 131.678 278.085C131.434 278.142 131.124 278.17 130.749 278.17C130.181 278.17 129.624 278.048 129.079 277.804C128.539 277.56 128.09 277.188 127.732 276.688C127.38 276.188 127.204 275.557 127.204 274.795V261.773ZM147.445 278H142.059V260.545H147.684C149.377 260.545 150.826 260.895 152.031 261.594C153.235 262.287 154.158 263.284 154.8 264.585C155.442 265.881 155.763 267.432 155.763 269.239C155.763 271.057 155.44 272.622 154.792 273.935C154.144 275.241 153.201 276.247 151.962 276.952C150.724 277.651 149.218 278 147.445 278ZM144.173 276.125H147.309C148.752 276.125 149.948 275.847 150.897 275.29C151.846 274.733 152.553 273.94 153.019 272.912C153.485 271.884 153.718 270.659 153.718 269.239C153.718 267.83 153.488 266.616 153.028 265.599C152.567 264.577 151.88 263.793 150.965 263.247C150.05 262.696 148.911 262.42 147.548 262.42H144.173V276.125ZM164.525 278.273C163.263 278.273 162.175 277.994 161.261 277.438C160.352 276.875 159.65 276.091 159.156 275.085C158.667 274.074 158.423 272.898 158.423 271.557C158.423 270.216 158.667 269.034 159.156 268.011C159.65 266.983 160.337 266.182 161.218 265.608C162.104 265.028 163.138 264.739 164.32 264.739C165.002 264.739 165.675 264.852 166.34 265.08C167.005 265.307 167.61 265.676 168.156 266.188C168.701 266.693 169.136 267.364 169.46 268.199C169.783 269.034 169.945 270.062 169.945 271.284V272.136H159.854V270.398H167.9C167.9 269.659 167.752 269 167.457 268.42C167.167 267.841 166.752 267.384 166.212 267.048C165.678 266.713 165.048 266.545 164.32 266.545C163.519 266.545 162.826 266.744 162.241 267.142C161.661 267.534 161.215 268.045 160.903 268.676C160.59 269.307 160.434 269.983 160.434 270.705V271.864C160.434 272.852 160.604 273.69 160.945 274.378C161.292 275.06 161.772 275.58 162.386 275.938C162.999 276.29 163.712 276.466 164.525 276.466C165.053 276.466 165.531 276.392 165.957 276.244C166.388 276.091 166.761 275.864 167.073 275.562C167.386 275.256 167.627 274.875 167.798 274.42L169.741 274.966C169.536 275.625 169.192 276.205 168.71 276.705C168.227 277.199 167.63 277.585 166.92 277.864C166.21 278.136 165.411 278.273 164.525 278.273ZM175.016 260.545V278H173.005V260.545H175.016ZM184.189 278.273C182.928 278.273 181.839 277.994 180.925 277.438C180.016 276.875 179.314 276.091 178.82 275.085C178.331 274.074 178.087 272.898 178.087 271.557C178.087 270.216 178.331 269.034 178.82 268.011C179.314 266.983 180.001 266.182 180.882 265.608C181.768 265.028 182.803 264.739 183.984 264.739C184.666 264.739 185.339 264.852 186.004 265.08C186.669 265.307 187.274 265.676 187.82 266.188C188.365 266.693 188.8 267.364 189.124 268.199C189.447 269.034 189.609 270.062 189.609 271.284V272.136H179.518V270.398H187.564C187.564 269.659 187.416 269 187.121 268.42C186.831 267.841 186.416 267.384 185.876 267.048C185.342 266.713 184.712 266.545 183.984 266.545C183.183 266.545 182.49 266.744 181.905 267.142C181.325 267.534 180.879 268.045 180.567 268.676C180.254 269.307 180.098 269.983 180.098 270.705V271.864C180.098 272.852 180.268 273.69 180.609 274.378C180.956 275.06 181.436 275.58 182.05 275.938C182.663 276.29 183.376 276.466 184.189 276.466C184.717 276.466 185.195 276.392 185.621 276.244C186.053 276.091 186.425 275.864 186.737 275.562C187.05 275.256 187.291 274.875 187.462 274.42L189.405 274.966C189.2 275.625 188.857 276.205 188.374 276.705C187.891 277.199 187.294 277.585 186.584 277.864C185.874 278.136 185.075 278.273 184.189 278.273ZM198.362 264.909V266.614H191.578V264.909H198.362ZM193.555 261.773H195.567V274.25C195.567 274.818 195.649 275.244 195.814 275.528C195.984 275.807 196.2 275.994 196.462 276.091C196.729 276.182 197.01 276.227 197.305 276.227C197.527 276.227 197.709 276.216 197.851 276.193C197.993 276.165 198.107 276.142 198.192 276.125L198.601 277.932C198.464 277.983 198.274 278.034 198.03 278.085C197.786 278.142 197.476 278.17 197.101 278.17C196.533 278.17 195.976 278.048 195.43 277.804C194.891 277.56 194.442 277.188 194.084 276.688C193.732 276.188 193.555 275.557 193.555 274.795V261.773ZM206.736 278.273C205.474 278.273 204.386 277.994 203.472 277.438C202.562 276.875 201.861 276.091 201.366 275.085C200.878 274.074 200.634 272.898 200.634 271.557C200.634 270.216 200.878 269.034 201.366 268.011C201.861 266.983 202.548 266.182 203.429 265.608C204.315 265.028 205.349 264.739 206.531 264.739C207.213 264.739 207.886 264.852 208.551 265.08C209.216 265.307 209.821 265.676 210.366 266.188C210.912 266.693 211.347 267.364 211.67 268.199C211.994 269.034 212.156 270.062 212.156 271.284V272.136H202.065V270.398H210.111C210.111 269.659 209.963 269 209.668 268.42C209.378 267.841 208.963 267.384 208.423 267.048C207.889 266.713 207.259 266.545 206.531 266.545C205.73 266.545 205.037 266.744 204.452 267.142C203.872 267.534 203.426 268.045 203.114 268.676C202.801 269.307 202.645 269.983 202.645 270.705V271.864C202.645 272.852 202.815 273.69 203.156 274.378C203.503 275.06 203.983 275.58 204.597 275.938C205.21 276.29 205.923 276.466 206.736 276.466C207.264 276.466 207.741 276.392 208.168 276.244C208.599 276.091 208.972 275.864 209.284 275.562C209.597 275.256 209.838 274.875 210.009 274.42L211.952 274.966C211.747 275.625 211.403 276.205 210.92 276.705C210.438 277.199 209.841 277.585 209.131 277.864C208.42 278.136 207.622 278.273 206.736 278.273ZM220.159 278.273C219.068 278.273 218.105 277.997 217.27 277.446C216.435 276.889 215.781 276.105 215.31 275.094C214.838 274.077 214.602 272.875 214.602 271.489C214.602 270.114 214.838 268.92 215.31 267.909C215.781 266.898 216.438 266.116 217.278 265.565C218.119 265.014 219.091 264.739 220.193 264.739C221.045 264.739 221.719 264.881 222.213 265.165C222.713 265.443 223.094 265.761 223.355 266.119C223.622 266.472 223.83 266.761 223.977 266.989H224.148V260.545H226.159V278H224.216V275.989H223.977C223.83 276.227 223.619 276.528 223.347 276.892C223.074 277.25 222.685 277.571 222.179 277.855C221.673 278.134 221 278.273 220.159 278.273ZM220.432 276.466C221.239 276.466 221.92 276.256 222.477 275.835C223.034 275.409 223.457 274.821 223.747 274.071C224.037 273.315 224.182 272.443 224.182 271.455C224.182 270.477 224.04 269.622 223.756 268.889C223.472 268.151 223.051 267.577 222.494 267.168C221.938 266.753 221.25 266.545 220.432 266.545C219.58 266.545 218.869 266.764 218.301 267.202C217.739 267.634 217.315 268.222 217.031 268.966C216.753 269.705 216.614 270.534 216.614 271.455C216.614 272.386 216.756 273.233 217.04 273.994C217.33 274.75 217.756 275.352 218.318 275.801C218.886 276.244 219.591 276.466 220.432 276.466ZM235.645 260.545H238.065L242.906 268.693H243.111L247.952 260.545H250.372L244.065 270.807V278H241.952V270.807L235.645 260.545ZM256.47 278.273C255.209 278.273 254.121 277.994 253.206 277.438C252.297 276.875 251.595 276.091 251.101 275.085C250.612 274.074 250.368 272.898 250.368 271.557C250.368 270.216 250.612 269.034 251.101 268.011C251.595 266.983 252.283 266.182 253.163 265.608C254.05 265.028 255.084 264.739 256.266 264.739C256.947 264.739 257.621 264.852 258.286 265.08C258.95 265.307 259.555 265.676 260.101 266.188C260.646 266.693 261.081 267.364 261.405 268.199C261.729 269.034 261.891 270.062 261.891 271.284V272.136H251.8V270.398H259.845C259.845 269.659 259.697 269 259.402 268.42C259.112 267.841 258.697 267.384 258.158 267.048C257.624 266.713 256.993 266.545 256.266 266.545C255.464 266.545 254.771 266.744 254.186 267.142C253.607 267.534 253.161 268.045 252.848 268.676C252.536 269.307 252.379 269.983 252.379 270.705V271.864C252.379 272.852 252.55 273.69 252.891 274.378C253.237 275.06 253.717 275.58 254.331 275.938C254.945 276.29 255.658 276.466 256.47 276.466C256.999 276.466 257.476 276.392 257.902 276.244C258.334 276.091 258.706 275.864 259.018 275.562C259.331 275.256 259.572 274.875 259.743 274.42L261.686 274.966C261.482 275.625 261.138 276.205 260.655 276.705C260.172 277.199 259.575 277.585 258.865 277.864C258.155 278.136 257.357 278.273 256.47 278.273ZM270.643 264.909V266.614H263.859V264.909H270.643ZM265.837 261.773H267.848V274.25C267.848 274.818 267.93 275.244 268.095 275.528C268.266 275.807 268.482 275.994 268.743 276.091C269.01 276.182 269.291 276.227 269.587 276.227C269.808 276.227 269.99 276.216 270.132 276.193C270.274 276.165 270.388 276.142 270.473 276.125L270.882 277.932C270.746 277.983 270.555 278.034 270.311 278.085C270.067 278.142 269.757 278.17 269.382 278.17C268.814 278.17 268.257 278.048 267.712 277.804C267.172 277.56 266.723 277.188 266.365 276.688C266.013 276.188 265.837 275.557 265.837 274.795V261.773ZM276.328 260.545L276.158 273.091H274.18L274.01 260.545H276.328ZM275.169 278.136C274.749 278.136 274.388 277.986 274.087 277.685C273.786 277.384 273.635 277.023 273.635 276.602C273.635 276.182 273.786 275.821 274.087 275.52C274.388 275.219 274.749 275.068 275.169 275.068C275.589 275.068 275.95 275.219 276.251 275.52C276.553 275.821 276.703 276.182 276.703 276.602C276.703 276.881 276.632 277.136 276.49 277.369C276.354 277.602 276.169 277.79 275.936 277.932C275.709 278.068 275.453 278.136 275.169 278.136ZM283.008 260.545L282.837 273.091H280.86L280.69 260.545H283.008ZM281.849 278.136C281.428 278.136 281.067 277.986 280.766 277.685C280.465 277.384 280.315 277.023 280.315 276.602C280.315 276.182 280.465 275.821 280.766 275.52C281.067 275.219 281.428 275.068 281.849 275.068C282.269 275.068 282.63 275.219 282.931 275.52C283.232 275.821 283.383 276.182 283.383 276.602C283.383 276.881 283.312 277.136 283.17 277.369C283.033 277.602 282.849 277.79 282.616 277.932C282.388 278.068 282.133 278.136 281.849 278.136Z" fill="#7B849A"/>
</svg>
