<svg width="309" height="254" viewBox="0 0 309 254" fill="none" xmlns="http://www.w3.org/2000/svg">
<path d="M205.502 21.0069C206.316 8.61885 217.017 -0.764065 229.405 0.0492172C241.793 0.862499 251.176 11.5642 250.363 23.9522C249.55 36.3402 238.847 45.7231 226.46 44.9099C214.072 44.0966 204.688 33.3949 205.502 21.0069Z" fill="#38B89A" fill-opacity="0.18"/>
<path d="M238.138 23.1688C238.138 23.1872 237.857 23.2051 237.344 23.2213C236.782 23.2325 236.049 23.247 235.159 23.2654C233.305 23.2906 230.723 23.3084 227.807 23.3129L227.663 23.3135V23.1688C227.662 22.7018 227.662 22.2103 227.662 21.7109C227.662 18.4545 227.678 15.5069 227.704 13.3737C227.723 12.3448 227.739 11.4941 227.75 10.8473C227.767 10.2507 227.787 9.92114 227.807 9.92114C227.827 9.92114 227.846 10.2507 227.863 10.8473C227.876 11.4941 227.891 12.3448 227.91 13.3737C227.936 15.5069 227.952 18.4545 227.952 21.7109C227.952 22.2103 227.952 22.7018 227.952 23.1688L227.807 23.0247C230.723 23.0286 233.305 23.0465 235.159 23.0722C236.049 23.09 236.782 23.1051 237.344 23.1163C237.857 23.1325 238.138 23.1504 238.138 23.1688Z" fill="#38B89A"/>
<path d="M227.877 3.69028C227.957 3.69028 228.022 4.5354 228.022 5.57826C228.022 6.62167 227.957 7.4668 227.877 7.4668C227.797 7.4668 227.731 6.62167 227.731 5.57826C227.731 4.5354 227.797 3.69028 227.877 3.69028Z" fill="#38B89A"/>
<path d="M238.117 6.72522C238.174 6.7822 237.631 7.4173 236.904 8.14457C236.177 8.87127 235.542 9.4142 235.485 9.35722C235.428 9.30081 235.972 8.66514 236.699 7.93844C237.425 7.21174 238.06 6.66825 238.117 6.72522Z" fill="#38B89A"/>
<path d="M244.106 13.2652C244.143 13.339 243.43 13.7674 242.557 14.2992C241.683 14.8292 240.974 15.2644 240.926 15.1985C240.879 15.1348 241.52 14.5879 242.406 14.0506C243.29 13.5121 244.072 13.1949 244.106 13.2652Z" fill="#38B89A"/>
<path d="M247.617 22.9704C247.617 23.0509 246.464 23.1162 245.042 23.1162C243.619 23.1162 242.467 23.0509 242.467 22.9704C242.467 22.8906 243.619 22.8252 245.042 22.8252C246.464 22.8252 247.617 22.8906 247.617 22.9704Z" fill="#38B89A"/>
<path d="M211.914 22.6302C211.914 22.71 210.824 22.7754 209.481 22.7754C208.138 22.7754 207.05 22.71 207.05 22.6302C207.05 22.5497 208.138 22.4844 209.481 22.4844C210.824 22.4844 211.914 22.5497 211.914 22.6302Z" fill="#38B89A"/>
<path d="M214.435 29.8579C214.488 29.9188 213.665 30.665 212.598 31.5252C211.53 32.3849 210.626 33.03 210.578 32.9652C210.53 32.901 211.352 32.1547 212.415 31.2985C213.478 30.4422 214.382 29.7976 214.435 29.8579Z" fill="#38B89A"/>
<path d="M220.668 35.4475C220.735 35.4966 220.125 36.435 219.417 37.6153C218.707 38.7944 218.165 39.7736 218.09 39.7373C218.02 39.7043 218.45 38.6581 219.168 37.4656C219.883 36.2719 220.605 35.4011 220.668 35.4475Z" fill="#38B89A"/>
<path d="M227.877 42.6562C227.797 42.6562 227.731 41.5034 227.731 40.0812C227.731 38.6591 227.797 37.5068 227.877 37.5068C227.957 37.5068 228.022 38.6591 228.022 40.0812C228.022 41.5034 227.957 42.6562 227.877 42.6562Z" fill="#38B89A"/>
<path d="M238.974 39.2265C238.933 39.2913 237.925 38.7121 236.851 37.772C235.773 36.8358 235.062 35.917 235.12 35.8678C235.183 35.812 235.98 36.6314 237.042 37.553C238.099 38.478 239.02 39.1567 238.974 39.2265Z" fill="#38B89A"/>
<path d="M244.182 33.6158C244.126 33.6727 243.362 33.0013 242.478 32.1166C241.592 31.2312 240.921 30.4682 240.978 30.4118C241.035 30.3543 241.798 31.0257 242.684 31.911C243.568 32.7958 244.239 33.5588 244.182 33.6158Z" fill="#38B89A"/>
<path d="M214.2 15.7052C214.143 15.7616 213.469 15.1801 212.695 14.406C211.921 13.6318 211.339 12.9587 211.396 12.9012C211.453 12.8448 212.126 13.4262 212.901 14.2004C213.675 14.9746 214.257 15.6482 214.2 15.7052Z" fill="#38B89A"/>
<path d="M220.628 8.93656C220.571 8.99298 219.909 8.42603 219.149 7.66916C218.389 6.9123 217.819 6.25317 217.875 6.19564C217.932 6.13922 218.595 6.70617 219.354 7.46304C220.115 8.2199 220.685 8.87958 220.628 8.93656Z" fill="#38B89A"/>
<path d="M231.444 179.352C231.432 179.358 231.374 179.252 231.271 179.045C231.155 178.799 231.012 178.498 230.84 178.134C230.469 177.341 229.963 176.179 229.357 174.735C228.141 171.849 226.587 167.81 224.933 163.329C223.278 158.847 221.764 154.798 220.611 151.891C220.046 150.478 219.581 149.315 219.235 148.451C219.087 148.076 218.966 147.767 218.866 147.513C218.785 147.297 218.748 147.181 218.759 147.175C218.771 147.171 218.829 147.276 218.932 147.483C219.048 147.73 219.191 148.03 219.363 148.394C219.734 149.187 220.24 150.349 220.847 151.792C222.062 154.678 223.616 158.718 225.27 163.201C226.925 167.682 228.439 171.73 229.592 174.638C230.158 176.05 230.623 177.214 230.968 178.077C231.116 178.452 231.238 178.761 231.337 179.016C231.418 179.231 231.455 179.347 231.444 179.352Z" fill="#E3E3E2"/>
<path d="M33.8901 58.3821C33.8901 58.3821 23.4295 171.332 45.2308 207.641L239.134 209.935C239.134 209.935 207.014 112.024 209.797 55.425L33.8901 58.3821Z" fill="#38B89A" fill-opacity="0.65"/>
<path d="M33.8896 58.3819C33.8896 58.3819 21.5994 174.846 59.8905 199.735H246.767C246.767 199.735 213.6 142.883 210.985 58.3819H33.8896Z" fill="#38B89A"/>
<path d="M214.75 60.2979H32.9429V31.1443H214.75V60.2979Z" fill="white"/>
<path d="M49.9979 31.596L49.8315 31.5496L49.9979 31.5971V31.596L49.8315 31.5496L49.9979 31.5971C50.0057 31.5608 50.4654 30.008 51.6569 28.5272C52.2517 27.7849 53.0237 27.0615 54.0085 26.5242C54.9949 25.9874 56.1947 25.6282 57.7034 25.6265C59.0144 25.6271 60.131 25.888 61.0816 26.3281C62.5054 26.9895 63.5701 28.0619 64.2923 29.345C65.0134 30.6258 65.3787 32.1155 65.3776 33.5449C65.3782 35.5138 64.7788 37.4772 63.5388 38.9597C62.2949 40.4399 60.4242 41.4939 57.6576 41.6514C57.1957 41.6771 56.8415 42.072 56.8667 42.534C56.8918 42.9959 57.2873 43.35 57.7492 43.3249C60.909 43.1596 63.2941 41.8771 64.8252 40.0338C66.3596 38.1928 67.0528 35.8462 67.0533 33.5449C67.0517 31.2659 66.2937 28.8947 64.7319 27.0537C63.951 26.1354 62.9663 25.3545 61.7866 24.8082C60.608 24.2608 59.2378 23.9503 57.7034 23.9508C55.8953 23.9497 54.3754 24.4016 53.1483 25.0847C51.3038 26.1108 50.1236 27.6251 49.3991 28.8668C48.6741 30.1119 48.3976 31.0994 48.3836 31.1469C48.2596 31.5927 48.5205 32.0546 48.9662 32.1786C49.412 32.3026 49.8739 32.0417 49.9979 31.596Z" fill="#38B89A"/>
<path d="M46.4907 31.0437H55.4608V35.0498H46.4907V31.0437Z" fill="#38B89A"/>
<path d="M84.5375 31.596L84.371 31.5496L84.5375 31.5971V31.596L84.371 31.5496L84.5375 31.5971C84.5453 31.5608 85.005 30.008 86.1964 28.5272C86.7913 27.7849 87.5632 27.0615 88.548 26.5242C89.5344 25.9874 90.7343 25.6282 92.2424 25.6265C93.5534 25.6271 94.6705 25.888 95.6212 26.3281C97.045 26.9895 98.1096 28.0619 98.8319 29.345C99.553 30.6258 99.9183 32.1155 99.9172 33.5449C99.9177 35.5138 99.3184 37.4772 98.0783 38.9597C96.8338 40.4399 94.9637 41.4939 92.1971 41.6514C91.7352 41.6771 91.3811 42.072 91.4062 42.534C91.4314 42.9959 91.8263 43.35 92.2882 43.3249C95.448 43.1596 97.8337 41.8771 99.3642 40.0338C100.899 38.1928 101.592 35.8462 101.593 33.5449C101.591 31.2659 100.833 28.8947 99.2715 27.0537C98.4906 26.1354 97.5053 25.3545 96.3261 24.8082C95.147 24.2608 93.7773 23.9503 92.2424 23.9508C90.4349 23.9497 88.9144 24.4016 87.6872 25.0847C85.8428 26.1108 84.6631 27.6251 83.9387 28.8668C83.2137 30.1119 82.9372 31.0994 82.9232 31.1469C82.7992 31.5927 83.06 32.0546 83.5058 32.1786C83.9515 32.3026 84.4135 32.0417 84.5375 31.596Z" fill="#38B89A"/>
<path d="M81.0303 31.0437H90.0009V35.0498H81.0303V31.0437Z" fill="#38B89A"/>
<path d="M119.077 31.596L118.911 31.5496L119.077 31.5971L119.077 31.596L118.911 31.5496L119.077 31.5971C119.085 31.5608 119.544 30.008 120.736 28.5272C121.331 27.7849 122.103 27.0615 123.087 26.5242C124.074 25.9874 125.274 25.6282 126.782 25.6265C128.093 25.6271 129.21 25.888 130.16 26.3281C131.584 26.9895 132.649 28.0619 133.372 29.345C134.092 30.6258 134.458 32.1155 134.457 33.5449C134.458 35.5138 133.858 37.4772 132.618 38.9597C131.374 40.4399 129.503 41.4939 126.736 41.6514C126.274 41.6771 125.92 42.072 125.945 42.534C125.971 42.9959 126.366 43.35 126.828 43.3249C129.988 43.1596 132.374 41.8771 133.904 40.0338C135.438 38.1928 136.132 35.8462 136.133 33.5449C136.13 31.2659 135.372 28.8947 133.811 27.0537C133.03 26.1354 132.045 25.3545 130.865 24.8082C129.687 24.2608 128.317 23.9503 126.782 23.9508C124.974 23.9497 123.454 24.4016 122.227 25.0847C120.383 26.1108 119.202 27.6251 118.478 28.8668C117.753 30.1119 117.476 31.0994 117.463 31.1469C117.339 31.5927 117.599 32.0546 118.046 32.1786C118.491 32.3026 118.953 32.0417 119.077 31.596Z" fill="#38B89A"/>
<path d="M115.569 31.0437H124.539V35.0498H115.569V31.0437Z" fill="#38B89A"/>
<path d="M153.617 31.596L153.45 31.5496L153.617 31.5971V31.596L153.45 31.5496L153.617 31.5971C153.625 31.5608 154.084 30.008 155.276 28.5272C155.871 27.7849 156.642 27.0615 157.627 26.5242C158.614 25.9874 159.814 25.6282 161.322 25.6265C162.633 25.6271 163.75 25.888 164.701 26.3281C166.124 26.9895 167.189 28.0619 167.911 29.345C168.632 30.6258 168.998 32.1155 168.997 33.5449C168.998 35.5138 168.398 37.4772 167.158 38.9597C165.914 40.4399 164.043 41.4939 161.276 41.6514C160.815 41.6771 160.46 42.072 160.486 42.534C160.511 42.9959 160.906 43.35 161.368 43.3249C164.528 43.1596 166.914 41.8771 168.444 40.0338C169.978 38.1928 170.672 35.8462 170.673 33.5449C170.671 31.2659 169.913 28.8947 168.351 27.0537C167.57 26.1354 166.585 25.3545 165.405 24.8082C164.226 24.2608 162.857 23.9503 161.322 23.9508C159.514 23.9497 157.994 24.4016 156.767 25.0847C154.922 26.1108 153.742 27.6251 153.017 28.8668C152.293 30.1119 152.017 31.0994 152.003 31.1469C151.879 31.5927 152.139 32.0546 152.585 32.1786C153.031 32.3026 153.493 32.0417 153.617 31.596Z" fill="#38B89A"/>
<path d="M150.109 31.0437H159.08V35.0498H150.109V31.0437Z" fill="#38B89A"/>
<path d="M188.153 31.596L187.986 31.5496L188.153 31.5971V31.596L187.986 31.5496L188.153 31.5971C188.161 31.5608 188.621 30.008 189.812 28.5272C190.407 27.7849 191.178 27.0615 192.164 26.5242C193.15 25.9874 194.35 25.6282 195.858 25.6265C197.169 25.6271 198.286 25.888 199.237 26.3281C200.661 26.9895 201.725 28.0619 202.448 29.345C203.168 30.6258 203.533 32.1155 203.533 33.5449C203.533 35.5144 202.934 37.4772 201.694 38.9597C200.45 40.4399 198.579 41.4939 195.813 41.6514C195.35 41.6771 194.996 42.072 195.022 42.534C195.047 42.9959 195.442 43.35 195.904 43.3249C199.064 43.1596 201.449 41.8771 202.98 40.0338C204.515 38.1928 205.208 35.8462 205.209 33.5449C205.206 31.2659 204.448 28.8947 202.887 27.0537C202.106 26.1354 201.121 25.3545 199.942 24.8082C198.763 24.2608 197.393 23.9503 195.858 23.9508C194.051 23.9497 192.53 24.4016 191.303 25.0847C189.459 26.1108 188.279 27.6251 187.554 28.8668C186.829 30.1119 186.553 31.0994 186.539 31.1469C186.415 31.5927 186.676 32.0546 187.122 32.1786C187.567 32.3026 188.029 32.0417 188.153 31.596Z" fill="#38B89A"/>
<path d="M184.645 31.0437H193.616V35.0498H184.645V31.0437Z" fill="#38B89A"/>
<path d="M32.9582 61.3785C32.9582 61.3785 30.9462 191.176 73.0217 191.176L245.835 191.234C245.835 191.234 221.136 166.036 213.818 61.3785H32.9582Z" fill="white"/>
<path d="M221.185 175.153C221.145 175.042 220.959 174.519 220.552 173.376C220.147 172.202 219.509 170.495 218.757 168.209C217.208 163.656 215.051 156.922 212.573 148.226C207.6 130.846 201.599 105.516 196.93 74.2919L197.046 74.3919C156.195 74.3997 105.417 74.4097 50.5158 74.4198C50.0478 74.4198 49.5791 74.4198 49.12 74.4198L49.2641 74.2539C51.9022 93.046 54.6118 111.361 58.9961 128.516C61.184 137.088 63.7948 145.356 66.944 153.17C70.0859 160.984 73.7725 168.334 77.9378 175.085L77.8255 175.022C162.74 175.1 220.025 175.153 221.185 175.153C220.026 175.154 162.741 175.207 77.8255 175.284L77.7529 175.285L77.7143 175.223C73.5368 168.461 69.8396 161.098 66.6887 153.272C63.5317 145.447 60.9148 137.167 58.7218 128.586C54.3281 111.412 51.6145 93.0878 48.9759 74.2941L48.9524 74.1288H49.12C49.5791 74.1288 50.0478 74.1288 50.5158 74.1288C105.417 74.1394 156.195 74.1489 197.046 74.1561H197.148L197.163 74.2572C201.804 105.474 207.77 130.803 212.703 148.189C215.16 156.888 217.296 163.628 218.823 168.187C220.355 172.706 221.108 174.926 221.185 175.153Z" fill="#1D2A30"/>
<path d="M205.656 124.64C205.656 124.721 172.656 124.786 131.958 124.786C91.2451 124.786 58.252 124.721 58.252 124.64C58.252 124.56 91.2451 124.495 131.958 124.495C172.656 124.495 205.656 124.56 205.656 124.64Z" fill="#1D2A30"/>
<path d="M213.602 151.599C213.602 151.679 180.594 151.744 139.886 151.744C99.1631 151.744 66.1621 151.679 66.1621 151.599C66.1621 151.518 99.1631 151.453 139.886 151.453C180.594 151.453 213.602 151.518 213.602 151.599Z" fill="#1D2A30"/>
<path d="M200.669 98.6565C200.669 98.7364 167.67 98.8018 126.973 98.8018C86.2625 98.8018 53.2705 98.7364 53.2705 98.6565C53.2705 98.5761 86.2625 98.5107 126.973 98.5107C167.67 98.5107 200.669 98.5761 200.669 98.6565Z" fill="#1D2A30"/>
<path d="M101.838 175.154C101.838 175.154 101.803 175.071 101.747 174.902C101.688 174.722 101.608 174.473 101.505 174.154C101.294 173.481 100.991 172.51 100.602 171.268C99.8191 168.761 98.7255 165.122 97.4033 160.615C94.7697 151.602 91.2842 139.1 87.9188 125.17C86.2381 118.202 84.7377 111.541 83.4552 105.464C82.1962 99.3834 81.107 93.8976 80.2876 89.2738C79.858 86.9652 79.5045 84.8705 79.1945 83.0311C78.8772 81.1929 78.6186 79.6076 78.4225 78.3095C78.2248 77.0215 78.0712 76.0171 77.9639 75.3206C77.9165 74.9883 77.8796 74.7296 77.8522 74.542C77.8288 74.3666 77.8237 74.275 77.8237 74.275C77.8237 74.275 77.8483 74.3632 77.8818 74.5375C77.9159 74.724 77.9623 74.981 78.022 75.3111C78.1416 76.006 78.3136 77.0075 78.5337 78.2905C78.7476 79.5859 79.0219 81.1683 79.3548 83.0032C79.6799 84.8398 80.0474 86.9311 80.4898 89.2363C81.3349 93.854 82.4448 99.3331 83.7178 105.409C85.0142 111.479 86.5218 118.136 88.2014 125.101C91.5657 139.026 95.0188 151.532 97.6011 160.559C98.8975 165.07 99.961 168.719 100.711 171.235C101.077 172.485 101.363 173.46 101.561 174.137C101.652 174.459 101.723 174.711 101.775 174.893C101.822 175.064 101.838 175.154 101.838 175.154Z" fill="#1D2A30"/>
<path d="M130.445 175.154C130.445 175.154 130.409 175.07 130.354 174.901C130.297 174.721 130.219 174.472 130.118 174.152C129.913 173.478 129.616 172.504 129.236 171.259C128.471 168.747 127.398 165.101 126.09 160.592C123.497 151.566 119.993 139.072 116.582 125.153C113.146 111.236 110.488 98.5282 108.834 89.2827C108.412 86.973 108.046 84.8806 107.752 83.0384C107.446 81.1985 107.184 79.6138 106.999 78.3134C106.812 77.0243 106.665 76.0188 106.563 75.3212C106.517 74.9888 106.482 74.7296 106.456 74.542C106.434 74.3666 106.43 74.275 106.43 74.275C106.43 74.275 106.454 74.3638 106.486 74.538C106.518 74.7246 106.563 74.9821 106.621 75.3122C106.735 76.0077 106.9 77.0103 107.112 78.2956C107.313 79.5926 107.591 81.1744 107.912 83.0116C108.222 84.8504 108.602 86.9389 109.036 89.2458C110.741 98.4779 113.43 111.171 116.865 125.083C120.275 138.997 123.745 151.497 126.288 160.535C127.575 165.04 128.619 168.689 129.344 171.227C129.702 172.479 129.981 173.457 130.174 174.134C130.263 174.458 130.333 174.711 130.383 174.893C130.428 175.064 130.445 175.154 130.445 175.154Z" fill="#1D2A30"/>
<path d="M160.319 175.154C160.319 175.154 160.283 175.071 160.226 174.902C160.167 174.722 160.086 174.474 159.981 174.155C159.768 173.483 159.461 172.513 159.067 171.27C158.272 168.767 157.16 165.131 155.804 160.633C153.119 151.63 149.497 139.162 146.032 125.249C142.54 111.338 139.936 98.6069 138.414 89.3341C138.028 87.0165 137.686 84.9191 137.432 83.0702C137.163 81.223 136.926 79.6333 136.776 78.328C136.619 77.0343 136.497 76.025 136.412 75.3245C136.375 74.991 136.346 74.7313 136.324 74.5425C136.307 74.3666 136.305 74.275 136.305 74.275C136.305 74.275 136.326 74.3643 136.354 74.5392C136.382 74.7268 136.421 74.9849 136.47 75.3172C136.568 76.0155 136.708 77.0226 136.889 78.3129C137.055 79.6155 137.309 81.2024 137.592 83.0457C137.862 84.8917 138.218 86.9858 138.617 89.2994C140.19 98.5589 142.824 111.273 146.314 125.178C149.777 139.084 153.366 151.559 156.001 160.574C157.338 165.067 158.422 168.707 159.175 171.238C159.547 172.486 159.836 173.461 160.038 174.137C160.13 174.46 160.202 174.711 160.254 174.894C160.302 175.064 160.319 175.154 160.319 175.154Z" fill="#1D2A30"/>
<path d="M190.191 175.154C190.191 175.154 190.154 175.071 190.095 174.903C190.035 174.724 189.951 174.476 189.843 174.157C189.624 173.486 189.307 172.52 188.901 171.281C188.082 168.782 186.937 165.155 185.535 160.668C182.762 151.686 179.022 139.243 175.476 125.34C173.692 118.389 172.148 111.728 170.895 105.638C170.24 102.598 169.72 99.69 169.2 96.9748C168.967 95.6124 168.742 94.2964 168.526 93.0313C168.308 91.7661 168.104 90.5518 167.943 89.3871C166.53 80.0875 166.177 74.275 166.177 74.275C166.177 74.275 166.196 74.3649 166.218 74.5408C166.24 74.7291 166.272 74.9888 166.311 75.3223C166.388 76.0238 166.498 77.0349 166.64 78.3307C166.763 79.6389 166.996 81.2303 167.232 83.0814C167.454 84.9348 167.792 87.0333 168.146 89.3559C168.314 90.5182 168.524 91.7309 168.747 92.9938C168.969 94.2568 169.199 95.5711 169.437 96.9312C169.968 99.6425 170.496 102.547 171.158 105.584C172.424 111.666 173.975 118.321 175.758 125.268C179.302 139.163 183.01 151.612 185.732 160.607C187.113 165.09 188.231 168.721 189.009 171.246C189.393 172.493 189.692 173.465 189.899 174.139C189.995 174.462 190.07 174.712 190.124 174.894C190.173 175.064 190.191 175.154 190.191 175.154Z" fill="#1D2A30"/>
<path d="M82.2985 84.267C82.2985 84.267 83.557 96.5054 88.4149 104.146H117.019C117.019 104.146 110.064 91.7681 109.224 83.1672L108.596 78.3428H81.8411L82.2985 84.267Z" fill="#38B89A"/>
<path d="M106.052 86.4104C106.052 86.4909 101.977 86.5557 96.9525 86.5557C91.9264 86.5557 87.8528 86.4909 87.8528 86.4104C87.8528 86.33 91.9264 86.2652 96.9525 86.2652C101.977 86.2652 106.052 86.33 106.052 86.4104Z" fill="#3A3A3A"/>
<path d="M106.961 89.5052C106.961 89.5856 102.887 89.6504 97.8624 89.6504C92.8358 89.6504 88.7627 89.5856 88.7627 89.5052C88.7627 89.4247 92.8358 89.3594 97.8624 89.3594C102.887 89.3594 106.961 89.4247 106.961 89.5052Z" fill="#3A3A3A"/>
<path d="M107.872 92.5979C107.872 92.6778 103.797 92.7432 98.7725 92.7432C93.7465 92.7432 89.6729 92.6778 89.6729 92.5979C89.6729 92.5175 93.7465 92.4521 98.7725 92.4521C103.797 92.4521 107.872 92.5175 107.872 92.5979Z" fill="#3A3A3A"/>
<path d="M108.782 95.6917C108.782 95.7721 104.707 95.8369 99.6824 95.8369C94.6564 95.8369 90.5828 95.7721 90.5828 95.6917C90.5828 95.6118 94.6564 95.5465 99.6824 95.5465C104.707 95.5465 108.782 95.6118 108.782 95.6917Z" fill="#3A3A3A"/>
<path d="M180.499 114.432C180.499 114.432 181.757 126.671 186.615 134.31H215.22C215.22 134.31 208.264 121.933 207.425 113.332L206.795 108.507H180.041L180.499 114.432Z" fill="#38B89A"/>
<path d="M204.254 115.964C204.254 116.044 200.18 116.108 195.155 116.108C190.129 116.108 186.056 116.044 186.056 115.964C186.056 115.883 190.129 115.818 195.155 115.818C200.18 115.818 204.254 115.883 204.254 115.964Z" fill="#3A3A3A"/>
<path d="M205.164 119.058C205.164 119.138 201.09 119.203 196.065 119.203C191.039 119.203 186.966 119.138 186.966 119.058C186.966 118.977 191.039 118.913 196.065 118.913C201.09 118.913 205.164 118.977 205.164 119.058Z" fill="#3A3A3A"/>
<path d="M206.075 122.153C206.075 122.233 202.001 122.299 196.976 122.299C191.95 122.299 187.876 122.233 187.876 122.153C187.876 122.073 191.95 122.007 196.976 122.007C202.001 122.007 206.075 122.073 206.075 122.153Z" fill="#3A3A3A"/>
<path d="M206.981 125.247C206.981 125.327 202.908 125.393 197.883 125.393C192.856 125.393 188.783 125.327 188.783 125.247C188.783 125.166 192.856 125.102 197.883 125.102C202.908 125.102 206.981 125.166 206.981 125.247Z" fill="#3A3A3A"/>
<path d="M162.041 76.5631C162.337 76.8038 158.632 81.7321 153.037 86.8408C147.456 91.9691 142.223 95.2267 142.009 94.9105C141.765 94.5676 146.554 90.8246 152.055 85.7684C157.572 80.7328 161.72 76.2894 162.041 76.5631Z" fill="#38B89A"/>
<path d="M167.466 95.3725C167.228 95.7059 160.978 91.6367 153.284 86.618C145.592 81.5886 139.355 77.5032 139.565 77.1507C139.765 76.8122 146.359 80.3519 154.079 85.3997C161.803 90.4375 167.696 95.053 167.466 95.3725Z" fill="#38B89A"/>
<path d="M113.489 93.098C113.245 92.7779 117.359 89.2366 122.677 85.1881C127.997 81.1384 132.505 78.116 132.748 78.436C132.992 78.755 128.878 82.2958 123.558 86.3454C118.24 90.3939 113.732 93.417 113.489 93.098Z" fill="#38B89A"/>
<path d="M136.081 94.8288C135.826 95.1595 130.35 91.3014 123.401 86.8692C116.46 82.4185 110.662 79.0653 110.855 78.6956C111.029 78.3509 117.18 81.1522 124.185 85.6437C131.197 90.1173 136.321 94.5266 136.081 94.8288Z" fill="#38B89A"/>
<path d="M137.657 127.426C137.654 127.379 137.942 127.316 138.503 127.277C139.062 127.255 139.9 127.279 140.949 127.519C141.991 127.766 143.26 128.211 144.546 129.064C145.839 129.892 147.153 131.137 148.159 132.828C149.158 134.514 149.789 136.643 149.806 138.951C149.816 140.104 149.676 141.3 149.359 142.493C149.034 143.681 148.523 144.865 147.831 145.969C146.442 148.177 144.328 150.064 141.758 151.256C139.201 152.476 136.14 152.878 133.19 152.352C130.235 151.837 127.506 150.452 125.48 148.449C123.43 146.454 122.203 143.845 121.757 141.295C121.293 138.734 121.598 136.196 122.425 134.042C122.833 132.96 123.391 131.977 124.049 131.127C124.7 130.274 125.432 129.54 126.212 128.953C127.747 127.737 129.414 127.065 130.892 126.677C132.382 126.298 133.72 126.253 134.787 126.351C135.056 126.363 135.306 126.403 135.54 126.445C135.774 126.489 135.994 126.515 136.194 126.566C136.591 126.679 136.929 126.757 137.19 126.862C137.711 127.074 137.971 127.207 137.953 127.254C137.912 127.395 136.814 126.929 134.761 126.917C133.742 126.908 132.486 127.033 131.11 127.461C129.745 127.896 128.224 128.588 126.856 129.754C126.159 130.318 125.515 131.008 124.951 131.795C124.38 132.577 123.899 133.477 123.555 134.465C122.854 136.429 122.618 138.739 123.075 141.053C123.519 143.361 124.637 145.664 126.476 147.429C128.296 149.207 130.768 150.456 133.443 150.92C136.118 151.392 138.842 151.046 141.163 149.962C143.492 148.902 145.425 147.212 146.702 145.247C147.339 144.262 147.813 143.216 148.127 142.148C148.434 141.078 148.584 139.996 148.6 138.948C148.635 136.849 148.117 134.898 147.263 133.333C146.407 131.77 145.249 130.566 144.084 129.734C142.928 128.876 141.767 128.381 140.8 128.065C138.842 127.46 137.655 127.562 137.657 127.426Z" fill="#38B89A"/>
<path d="M58.1978 121.398C57.8929 121.149 61.4119 116.354 66.3563 110.955C71.2165 105.633 75.6722 101.529 76.0319 101.897C76.3196 102.188 72.3398 106.56 67.4299 111.936C62.5145 117.304 58.514 121.658 58.1978 121.398Z" fill="#38B89A"/>
<path d="M80.8514 119.116C80.6403 119.458 74.9256 116.308 68.0881 112.082C61.2489 107.855 55.8772 104.152 56.0883 103.811C56.2994 103.469 61.9516 106.618 68.7913 110.846C75.6288 115.071 81.0626 118.775 80.8514 119.116Z" fill="#38B89A"/>
<path d="M135.188 131.857L137.373 134.991C137.554 135.251 137.851 135.404 138.168 135.403L141.989 135.38C142.786 135.375 143.243 136.287 142.762 136.923L140.456 139.97C140.265 140.222 140.21 140.553 140.31 140.853L141.512 144.479C141.763 145.237 141.037 145.953 140.283 145.692L136.674 144.44C136.374 144.337 136.043 144.387 135.788 144.574L132.711 146.838C132.068 147.311 131.162 146.842 131.179 146.044L131.253 142.225C131.26 141.908 131.109 141.608 130.852 141.424L127.748 139.197C127.1 138.731 127.266 137.725 128.029 137.494L131.685 136.384C131.988 136.293 132.226 136.057 132.322 135.755L133.481 132.116C133.723 131.355 134.732 131.202 135.188 131.857Z" fill="#F03658"/>
<path d="M194.666 76.6945C194.934 76.9939 190.066 81.7882 183.796 87.4007C177.523 93.016 172.223 97.3237 171.955 97.0244C171.687 96.725 176.553 91.9324 182.825 86.3171C189.096 80.7045 194.397 76.3957 194.666 76.6945Z" fill="#38B89A"/>
<path d="M198.315 93.9508C198.135 94.31 191.316 91.2546 183.085 87.1284C174.852 83.0005 168.327 79.3642 168.507 79.0051C168.687 78.6465 175.504 81.7002 183.737 85.8286C191.968 89.9548 198.495 93.5916 198.315 93.9508Z" fill="#38B89A"/>
<path d="M187.876 83.1262H221.186L229.179 89.3074L222.13 95.0908L190.194 95.0545L187.876 83.1262Z" fill="#38B89A"/>
<path d="M132.144 147.027C131.645 147.027 131.178 146.631 131.178 146.064C131.178 146.058 131.178 146.051 131.179 146.044L131.253 142.225C131.253 142.217 131.253 142.21 131.253 142.203C131.252 141.894 131.103 141.604 130.852 141.424L127.748 139.197C127.475 139.001 127.346 138.708 127.346 138.418C127.346 138.02 127.588 137.628 128.029 137.494L131.685 136.384C131.988 136.293 132.226 136.058 132.323 135.755L133.482 132.116C133.62 131.681 134.009 131.444 134.402 131.444C134.696 131.444 134.993 131.577 135.189 131.857L137.373 134.991C137.553 135.25 137.848 135.403 138.163 135.403C138.165 135.403 138.167 135.403 138.169 135.403L141.989 135.38C141.99 135.38 141.992 135.38 141.995 135.38C142.566 135.38 142.96 135.85 142.958 136.349C142.958 136.545 142.897 136.745 142.762 136.923L140.456 139.97C140.327 140.14 140.261 140.345 140.261 140.552C140.261 140.653 140.277 140.755 140.31 140.853L141.512 144.479C141.547 144.584 141.562 144.686 141.563 144.786C141.564 145.31 141.126 145.747 140.603 145.747C140.499 145.747 140.392 145.73 140.283 145.692L136.674 144.441C136.571 144.405 136.464 144.388 136.358 144.388C136.155 144.388 135.955 144.451 135.788 144.574L132.711 146.839C132.534 146.969 132.336 147.027 132.144 147.027Z" fill="#F52E2E"/>
<path d="M284.488 208.247L284.487 208.237L284.476 205.962C284.479 205.962 284.482 205.962 284.484 205.962L284.488 208.247Z" fill="white"/>
<path d="M276.593 208.726C279.599 208.674 282.718 208.542 283.941 208.473L284.212 208.455C282.235 208.616 279.305 208.708 276.593 208.726ZM269.943 208.502C269.8 208.473 269.711 208.442 269.685 208.407C269.65 208.361 269.648 208.312 269.674 208.26C269.65 208.354 269.73 208.436 269.943 208.502ZM284.486 208.432V208.422V208.246L284.5 208.431C284.495 208.431 284.491 208.432 284.486 208.432ZM271.176 207.477C271.615 207.322 271.979 207.217 271.979 207.217C271.981 207.217 271.983 207.217 271.984 207.217C271.703 207.303 271.429 207.39 271.176 207.477Z" fill="white"/>
<path d="M284.489 208.424L284.489 208.238L284.489 208.248V208.424Z" fill="white"/>
<path d="M293.743 208.534L293.747 206.243C293.749 206.243 293.752 206.243 293.754 206.243L293.743 208.525L293.743 208.534Z" fill="white"/>
<path d="M300.812 208.989C300.595 208.989 300.377 208.989 300.158 208.989C297.887 208.952 295.611 208.866 293.987 208.733L294.289 208.753C295.399 208.815 298.077 208.93 300.812 208.989Z" fill="white"/>
<path d="M301.641 209.007C301.151 209.004 300.655 208.998 300.158 208.99C300.376 208.99 300.595 208.991 300.811 208.991C301.088 208.997 301.365 209.002 301.641 209.007Z" fill="#A5ADAD"/>
<path d="M308.285 208.784C308.498 208.718 308.578 208.635 308.553 208.541C308.579 208.593 308.577 208.643 308.543 208.689C308.517 208.723 308.428 208.755 308.285 208.784ZM293.741 208.714C293.737 208.714 293.732 208.713 293.728 208.713L293.741 208.535V208.704V208.714ZM307.109 207.779C306.839 207.685 306.545 207.591 306.243 207.499C306.245 207.499 306.246 207.499 306.249 207.499C306.249 207.499 306.645 207.614 307.109 207.779Z" fill="white"/>
<path d="M293.743 208.702V208.532L293.743 208.523L293.743 208.702Z" fill="white"/>
<path d="M292.423 95.6143C292.423 95.6143 292.423 95.6143 292.423 95.6137L302.994 93.4302C302.965 93.4531 302.833 93.4967 302.616 93.557L302.606 93.5107L292.423 95.6143Z" fill="#969796"/>
<path d="M294.85 114.539L294.848 114.528L295.516 114.39L294.85 114.539Z" fill="#B2B1B0"/>
<path d="M292.823 114.991C292.815 114.978 292.807 114.966 292.8 114.953L294.484 114.605L294.556 114.605L292.823 114.991ZM294.698 114.574L294.695 114.561L294.848 114.529L294.85 114.54L294.698 114.574Z" fill="#161C1E"/>
<path d="M303.993 100.227L303.837 99.4697C303.85 99.4591 303.863 99.4479 303.877 99.4373C303.916 99.7004 303.954 99.9635 303.993 100.227Z" fill="#B2B1B0"/>
<path d="M9.71191 209.32L9.71208 209.168H9.7132L9.71253 209.311L9.71191 209.32ZM9.71231 208.985L9.71538 207.033C9.718 207.032 9.72085 207.032 9.72365 207.032L9.71409 208.985C9.71057 208.985 9.71605 208.985 9.71231 208.985Z" fill="white"/>
<path d="M9.71303 209.168H9.71191L9.71214 208.985C9.71588 208.985 9.71041 208.985 9.71393 208.985L9.71303 209.168Z" fill="#A5ADAD"/>
<path d="M17.6277 209.798C14.8946 209.78 11.9372 209.687 9.9534 209.525L10.2563 209.545C11.4812 209.613 14.614 209.746 17.6277 209.798ZM24.2533 209.574C24.4664 209.508 24.5467 209.426 24.5234 209.332C24.548 209.384 24.5465 209.433 24.5118 209.479C24.4854 209.514 24.3966 209.545 24.2533 209.574ZM9.71037 209.505C9.70596 209.504 9.70138 209.504 9.69702 209.504L9.71059 209.321L9.71015 209.495L9.71037 209.505ZM23.0622 208.563C22.7964 208.471 22.5086 208.379 22.2116 208.289C22.2138 208.289 22.2158 208.289 22.2178 208.289C22.2178 208.289 22.6044 208.401 23.0622 208.563Z" fill="white"/>
<path d="M9.71191 209.492L9.71236 209.319L9.71297 209.31L9.71214 209.492" fill="white"/>
<path d="M0.00145932 102.806C0.000501274 102.799 0 102.795 0 102.795L0.00474915 102.796C0.00358283 102.799 0.00262564 102.802 0.00145932 102.806Z" fill="#B2B1B0"/>
<path d="M92.9545 235.48V252.935H90.9091L81.3977 239.23H81.2273V252.935H79.1136V235.48H81.1591L90.7045 249.219H90.875V235.48H92.9545ZM102.229 253.207C101.048 253.207 100.011 252.926 99.1186 252.364C98.2322 251.801 97.5391 251.014 97.0391 250.003C96.5447 248.991 96.2976 247.81 96.2976 246.457C96.2976 245.094 96.5447 243.903 97.0391 242.886C97.5391 241.869 98.2322 241.079 99.1186 240.517C100.011 239.954 101.048 239.673 102.229 239.673C103.411 239.673 104.445 239.954 105.332 240.517C106.224 241.079 106.917 241.869 107.411 242.886C107.911 243.903 108.161 245.094 108.161 246.457C108.161 247.81 107.911 248.991 107.411 250.003C106.917 251.014 106.224 251.801 105.332 252.364C104.445 252.926 103.411 253.207 102.229 253.207ZM102.229 251.4C103.127 251.4 103.866 251.17 104.445 250.71C105.025 250.25 105.454 249.645 105.732 248.895C106.011 248.145 106.15 247.332 106.15 246.457C106.15 245.582 106.011 244.767 105.732 244.011C105.454 243.256 105.025 242.645 104.445 242.179C103.866 241.713 103.127 241.48 102.229 241.48C101.332 241.48 100.593 241.713 100.013 242.179C99.4339 242.645 99.005 243.256 98.7266 244.011C98.4482 244.767 98.3089 245.582 98.3089 246.457C98.3089 247.332 98.4482 248.145 98.7266 248.895C99.005 249.645 99.4339 250.25 100.013 250.71C100.593 251.17 101.332 251.4 102.229 251.4ZM118.254 252.935V235.48H128.788V237.355H120.368V243.253H128.243V245.128H120.368V251.06H128.925V252.935H118.254ZM143.03 239.844L138.189 252.935H136.143L131.303 239.844H133.484L137.098 250.275H137.234L140.848 239.844H143.03ZM150.705 253.207C149.443 253.207 148.355 252.929 147.44 252.372C146.531 251.81 145.83 251.025 145.335 250.02C144.847 249.008 144.602 247.832 144.602 246.491C144.602 245.15 144.847 243.969 145.335 242.946C145.83 241.918 146.517 241.116 147.398 240.543C148.284 239.963 149.318 239.673 150.5 239.673C151.182 239.673 151.855 239.787 152.52 240.014C153.185 240.241 153.79 240.611 154.335 241.122C154.881 241.628 155.315 242.298 155.639 243.133C155.963 243.969 156.125 244.997 156.125 246.219V247.071H146.034V245.332H154.08C154.08 244.594 153.932 243.935 153.636 243.355C153.347 242.775 152.932 242.318 152.392 241.983C151.858 241.648 151.227 241.48 150.5 241.48C149.699 241.48 149.006 241.679 148.42 242.077C147.841 242.469 147.395 242.98 147.082 243.611C146.77 244.241 146.614 244.918 146.614 245.639V246.798C146.614 247.787 146.784 248.625 147.125 249.312C147.472 249.994 147.952 250.514 148.565 250.872C149.179 251.224 149.892 251.4 150.705 251.4C151.233 251.4 151.71 251.327 152.136 251.179C152.568 251.025 152.94 250.798 153.253 250.497C153.565 250.19 153.807 249.81 153.977 249.355L155.92 249.9C155.716 250.56 155.372 251.139 154.889 251.639C154.406 252.133 153.81 252.52 153.099 252.798C152.389 253.071 151.591 253.207 150.705 253.207ZM161.196 245.06V252.935H159.185V239.844H161.128V241.889H161.298C161.605 241.224 162.071 240.69 162.696 240.287C163.321 239.878 164.128 239.673 165.116 239.673C166.003 239.673 166.778 239.855 167.443 240.219C168.108 240.577 168.625 241.122 168.994 241.855C169.364 242.582 169.548 243.503 169.548 244.616V252.935H167.537V244.753C167.537 243.724 167.27 242.923 166.736 242.349C166.202 241.77 165.469 241.48 164.537 241.48C163.895 241.48 163.321 241.619 162.815 241.898C162.315 242.176 161.92 242.582 161.631 243.116C161.341 243.65 161.196 244.298 161.196 245.06ZM178.917 239.844V241.548H172.133V239.844H178.917ZM174.11 236.707H176.121V249.185C176.121 249.753 176.204 250.179 176.369 250.463C176.539 250.741 176.755 250.929 177.016 251.025C177.283 251.116 177.565 251.162 177.86 251.162C178.082 251.162 178.263 251.15 178.406 251.128C178.548 251.099 178.661 251.077 178.746 251.06L179.156 252.866C179.019 252.918 178.829 252.969 178.585 253.02C178.34 253.077 178.031 253.105 177.656 253.105C177.087 253.105 176.531 252.983 175.985 252.739C175.445 252.494 174.996 252.122 174.638 251.622C174.286 251.122 174.11 250.491 174.11 249.73V236.707ZM190.981 242.775L189.174 243.287C189.06 242.986 188.893 242.693 188.671 242.409C188.455 242.119 188.16 241.881 187.785 241.693C187.41 241.506 186.93 241.412 186.344 241.412C185.543 241.412 184.876 241.597 184.342 241.966C183.813 242.329 183.549 242.793 183.549 243.355C183.549 243.855 183.731 244.25 184.094 244.54C184.458 244.829 185.026 245.071 185.799 245.264L187.742 245.741C188.913 246.025 189.785 246.46 190.359 247.045C190.933 247.625 191.219 248.372 191.219 249.287C191.219 250.037 191.004 250.707 190.572 251.298C190.146 251.889 189.549 252.355 188.782 252.696C188.015 253.037 187.123 253.207 186.106 253.207C184.771 253.207 183.665 252.918 182.79 252.338C181.915 251.758 181.362 250.912 181.129 249.798L183.038 249.321C183.219 250.025 183.563 250.554 184.069 250.906C184.58 251.258 185.248 251.435 186.072 251.435C187.009 251.435 187.754 251.236 188.305 250.838C188.862 250.435 189.14 249.952 189.14 249.389C189.14 248.935 188.981 248.554 188.663 248.247C188.344 247.935 187.856 247.702 187.197 247.548L185.015 247.037C183.816 246.753 182.935 246.312 182.373 245.716C181.816 245.114 181.538 244.361 181.538 243.457C181.538 242.719 181.745 242.065 182.16 241.497C182.58 240.929 183.151 240.483 183.873 240.159C184.6 239.835 185.424 239.673 186.344 239.673C187.64 239.673 188.657 239.957 189.396 240.525C190.14 241.094 190.668 241.844 190.981 242.775Z" fill="#7B849A"/>
</svg>
