<svg width="253" height="243" viewBox="0 0 253 243" fill="none" xmlns="http://www.w3.org/2000/svg">
<g clip-path="url(#clip0_3293_9878)">
<path d="M172.878 118.559L171.591 120.9C169.587 124.545 165.351 125.776 161.706 123.773C158.326 121.914 156.836 117.536 158.839 113.891L160.126 111.549C162.057 108.037 166.623 106.821 170.003 108.679C173.648 110.682 174.809 115.046 172.878 118.559ZM188.543 90.0611L183.892 98.5218C181.891 102.161 177.655 103.392 174.01 101.389C170.63 99.531 169.139 95.1522 171.14 91.5127L178.58 77.9765C178.65 77.8491 178.782 77.9221 178.855 77.7893C178.792 77.5895 178.792 77.5895 178.865 77.4572C180.726 74.0719 185.365 72.7237 188.745 74.5819C196.946 79.0896 207.16 76.2329 211.595 68.1641C216.1 59.9684 212.968 49.941 204.767 45.4328C199.432 42.5002 193.174 42.7922 188.341 45.7238C184.806 47.8505 180.33 46.7429 178.206 43.2023C176.212 39.7396 177.25 35.3917 180.787 33.2728C189.905 27.7785 201.758 27.1739 211.776 32.681C226.875 40.9805 232.511 60.0071 224.215 75.1007C217.133 87.9848 202.215 93.8515 188.543 90.0611Z" fill="#38B89A" fill-opacity="0.28"/>
<path d="M162.293 6.78115L162.563 4.99738C162.984 2.22009 165.382 0.452995 168.159 0.873833C170.734 1.26429 172.699 3.69227 172.278 6.46907L172.008 8.25332C171.602 10.9292 168.992 12.7634 166.417 12.373C163.64 11.9526 161.887 9.45703 162.293 6.78115ZM159.003 28.4924L159.98 22.0462C160.4 19.2733 162.798 17.5062 165.576 17.9271C168.15 18.317 170.115 20.7455 169.695 23.5184L168.133 33.831C168.118 33.928 168.017 33.9123 168.002 34.0132C168.088 34.1254 168.088 34.1254 168.073 34.2263C167.682 36.8057 165.056 38.7403 162.481 38.3504C156.233 37.4039 150.425 41.594 149.493 47.7414C148.547 53.9853 152.868 59.6114 159.117 60.5579C163.181 61.1737 167.08 59.5306 169.46 56.547C171.206 54.3753 174.3 54.0348 176.471 55.7843C178.542 57.5141 178.897 60.5119 177.148 62.6787C172.649 68.2853 165.277 71.4295 157.644 70.2733C146.141 68.5302 138.137 57.7841 139.879 46.2844C141.366 36.4686 149.455 29.2748 159.003 28.4924Z" fill="#38B89A" fill-opacity="0.28"/>
<path d="M37.3053 22.964L36.5381 21.3307C35.3443 18.7885 36.3555 15.9862 38.8977 14.7928C41.2552 13.6851 44.2382 14.6116 45.4322 17.1537L46.1993 18.7871C47.3498 21.2366 46.1993 24.2128 43.8417 25.32C41.2996 26.5139 38.4558 25.414 37.3053 22.964ZM46.6396 42.8401L43.8682 36.9391C42.6761 34.4004 43.6873 31.5982 46.2295 30.4043C48.587 29.2971 51.57 30.2235 52.7623 32.7622L57.1961 42.2032C57.2379 42.2914 57.1454 42.335 57.1889 42.4276C57.3228 42.4727 57.3228 42.4727 57.3663 42.5653C58.4751 44.9261 57.3678 47.9944 55.0103 49.1016C49.2904 51.7878 46.7915 58.5 49.4344 64.1276C52.1189 69.8439 58.8383 72.1185 64.5582 69.4323C68.2794 67.6848 70.607 64.1516 70.9268 60.348C71.1706 57.5726 73.5535 55.5694 76.3307 55.8168C79.014 56.1039 80.9751 58.3981 80.7262 61.1715C80.1025 68.3335 75.7228 75.0447 68.7352 78.3261C58.2043 83.2718 45.5765 78.7886 40.6325 68.261C36.4122 59.2746 39.1371 48.7989 46.6396 42.8401Z" fill="#38B89A" fill-opacity="0.28"/>
<path d="M169.554 197.83C168.758 196.794 167.933 195.734 167.154 194.739C167.155 194.74 167.156 194.74 167.157 194.741C167.935 195.734 168.759 196.793 169.554 197.828C169.554 197.828 169.554 197.829 169.554 197.83Z" fill="#38B89A" fill-opacity="0.19"/>
<path d="M169.945 206.349C169.04 205.902 168.018 205.394 166.907 204.84L166.848 204.465C167.972 205.054 169.009 205.599 169.924 206.084C169.931 206.174 169.938 206.262 169.945 206.349Z" fill="#38B89A" fill-opacity="0.19"/>
<path d="M166.499 193.9C166.498 193.899 166.497 193.898 166.495 193.897C166.195 193.514 165.906 193.148 165.633 192.802C165.634 192.802 165.635 192.803 165.636 192.803C165.91 193.149 166.199 193.517 166.499 193.9Z" fill="#38B89A" fill-opacity="0.19"/>
<path d="M164.834 191.789C164.833 191.789 164.832 191.788 164.83 191.787C164.825 191.781 164.82 191.774 164.815 191.768L164.814 191.764C164.821 191.772 164.828 191.781 164.834 191.789Z" fill="#38B89A" fill-opacity="0.19"/>
<path d="M164.832 191.787C164.827 191.785 164.822 191.782 164.817 191.779L164.814 191.765C164.82 191.772 164.826 191.78 164.832 191.787Z" fill="#142228"/>
<path d="M167.765 72.7283C167.762 72.6705 167.675 72.6818 167.669 72.7337C167.365 74.9598 167.192 77.2698 166.117 79.2902C165.13 81.1435 163.409 82.3384 161.534 83.1751C160.45 83.6587 159.322 84.0398 158.194 84.4068C158.113 84.4332 158.132 84.5601 158.22 84.5415C160.348 84.0996 162.511 83.6038 164.361 82.4084C166.341 81.1288 167.359 79.0819 167.685 76.7897C167.876 75.4424 167.856 74.0814 167.765 72.7283Z" fill="#273E47"/>
<path d="M204.721 45.9901V45.9896C204.876 45.8853 205.033 45.7795 205.19 45.6727C205.033 45.7799 204.877 45.8858 204.721 45.9901Z" fill="#38B89A" fill-opacity="0.19"/>
<path d="M205.188 45.6726C205.505 45.4556 205.822 45.2337 206.139 45.0073L206.138 45.0083C205.822 45.2341 205.505 45.4561 205.188 45.6726ZM201.215 33.6654H201.215C201.605 33.2456 201.992 32.8282 202.367 32.4284L202.351 32.4152L202.368 32.4284C201.993 32.8287 201.605 33.2456 201.215 33.6654Z" fill="#38B89A" fill-opacity="0.22"/>
<path d="M210.637 25.0221C210.695 24.9633 210.731 24.9222 210.744 24.9016C211.647 23.4407 212.094 20.3773 213.162 19.5733C212.094 20.3783 211.648 23.4412 210.744 24.9006C210.732 24.9217 210.695 24.9628 210.637 25.0221ZM214.788 21.4761V21.4757C214.876 21.2278 215.075 20.731 215.376 20.3087C215.075 20.7315 214.876 21.2287 214.788 21.4761ZM217.048 19.7742C216.943 19.6968 216.819 19.6395 216.674 19.6086C216.614 19.5959 216.555 19.589 216.498 19.5875C216.556 19.589 216.615 19.5959 216.675 19.6086C216.821 19.6395 216.944 19.6963 217.048 19.7742Z" fill="#38B89A" fill-opacity="0.19"/>
<path d="M204.484 28.4666C204.57 28.3015 204.649 28.1466 204.72 28.006C204.786 27.8743 204.858 27.7175 204.936 27.5421C204.858 27.718 204.786 27.8747 204.72 28.007C204.649 28.1471 204.57 28.3019 204.484 28.4666ZM205.554 26.0988C206.319 24.3126 207.322 22.1379 208.27 21.9532C208.322 21.9429 208.372 21.938 208.42 21.938C208.55 21.938 208.667 21.9733 208.771 22.0399C208.667 21.9738 208.55 21.938 208.421 21.938C208.373 21.938 208.322 21.9429 208.27 21.9532C207.323 22.1389 206.319 24.3126 205.554 26.0988Z" fill="#38B89A" fill-opacity="0.19"/>
<path d="M191.045 44.6246C190.988 44.5992 190.919 44.5688 190.838 44.5325C190.866 44.4448 190.894 44.3571 190.922 44.2704L191.126 44.414C191.099 44.4835 191.072 44.5541 191.045 44.6246Z" fill="#142228"/>
<path d="M174.511 38.3667L171.713 43.4519C171.576 43.2853 171.453 43.1188 171.346 42.9571L173.928 38.2687C174.114 38.2932 174.31 38.3226 174.511 38.3667Z" fill="#273E47"/>
<path d="M174.592 46.8445C175.332 47.0478 175.917 47.4128 176.465 47.9463C175.702 47.8738 175.04 47.4598 174.592 46.8445Z" fill="#17282F"/>
<path d="M136.861 183.948V188.995C136.861 196.853 130.968 202.745 123.111 202.745C115.825 202.745 109.362 196.853 109.362 188.995V183.948C109.362 176.376 115.825 170.21 123.111 170.21C130.968 170.21 136.861 176.376 136.861 183.948ZM136.861 122.52V140.758C136.861 148.603 130.968 154.496 123.111 154.496C115.825 154.496 109.362 148.603 109.362 140.758V111.58C109.362 111.306 109.658 111.306 109.658 111.021C109.362 110.746 109.362 110.746 109.362 110.461C109.362 103.163 115.825 96.7114 123.111 96.7114C140.789 96.7114 155.087 82.6877 155.087 65.295C155.087 47.6284 140.789 33.8791 123.111 33.8791C111.623 33.8791 101.527 40.0574 96.1831 49.3073C92.2545 56.045 83.8496 58.2834 77.1119 54.3549C70.6708 50.4375 68.4098 42.2953 72.3382 35.5693C82.4333 18.1766 101.527 6.39134 123.111 6.39134C155.658 6.39134 182.312 32.7597 182.312 65.295C182.312 93.0684 162.944 116.354 136.861 122.52Z" fill="#38B89A"/>
<path d="M177.5 64.9888C171.78 41.7627 153.048 16.5887 128.324 12.4255C129.658 12.2575 130.988 12.1761 132.304 12.1761C154.223 12.1761 173.314 34.6884 176.927 55.0916C177.365 57.4721 177.575 60.0936 177.607 62.5177C177.577 63.3466 177.555 64.1696 177.5 64.9888Z" fill="#40CDAC"/>
<path d="M172.486 183.518L171.228 185.807C169.269 189.37 165.128 190.573 161.565 188.615C158.261 186.799 156.804 182.518 158.762 178.955L160.021 176.666C161.908 173.233 166.371 172.044 169.675 173.86C173.238 175.819 174.374 180.084 172.486 183.518ZM187.799 155.66L183.252 163.931C181.296 167.489 177.155 168.692 173.592 166.734C170.288 164.918 168.831 160.637 170.786 157.079L178.06 143.847C178.128 143.723 178.258 143.794 178.329 143.665C178.267 143.469 178.267 143.469 178.339 143.34C180.158 140.03 184.692 138.713 187.996 140.529C196.013 144.936 205.998 142.143 210.333 134.255C214.738 126.243 211.676 116.441 203.659 112.035C198.444 109.168 192.325 109.454 187.601 112.319C184.145 114.398 179.77 113.315 177.694 109.854C175.744 106.469 176.759 102.219 180.217 100.148C189.131 94.7771 200.717 94.1863 210.511 99.5694C225.271 107.682 230.78 126.282 222.67 141.036C215.746 153.631 201.164 159.366 187.799 155.66Z" fill="#3A3A3A"/>
<path d="M165.105 189.55C164.243 189.55 163.364 189.388 162.504 189.054C162.188 188.931 161.874 188.785 161.565 188.615C161.443 188.548 161.324 188.478 161.207 188.404C159.136 187.099 157.879 184.788 157.879 182.365C157.879 181.222 158.158 180.055 158.762 178.955L160.021 176.666C161.314 174.313 163.817 173.015 166.327 173.015C167.481 173.015 168.635 173.288 169.675 173.86C172.09 175.188 173.39 177.575 173.389 180.044C173.389 181.219 173.094 182.411 172.486 183.518L171.228 185.807C171.184 185.886 171.14 185.965 171.094 186.042C171.059 186.1 171.024 186.157 170.989 186.213C170.448 187.072 169.774 187.776 169.012 188.312C167.86 189.122 166.505 189.55 165.105 189.55Z" fill="#38B89A"/>
<path d="M177.132 167.67C175.954 167.67 174.743 167.367 173.591 166.734C173.288 166.567 173.001 166.38 172.729 166.174C172.564 166.048 172.404 165.915 172.251 165.776C171.237 164.855 170.511 163.656 170.155 162.347C169.991 161.745 169.905 161.12 169.904 160.486C169.904 159.344 170.183 158.177 170.786 157.079L178.059 143.847C178.127 143.723 178.257 143.795 178.328 143.665C178.298 143.571 178.283 143.522 178.283 143.482C178.283 143.439 178.301 143.407 178.338 143.34C179.599 141.046 182.164 139.709 184.72 139.709C185.851 139.709 186.982 139.972 187.996 140.529C190.57 141.944 193.347 142.617 196.075 142.617C201.842 142.617 207.39 139.61 210.333 134.256C211.705 131.76 212.352 129.09 212.351 126.464C212.348 120.66 209.177 115.069 203.658 112.035C201.234 110.703 198.614 110.051 196.031 110.023C195.973 110.023 195.915 110.022 195.858 110.022C193.319 110.022 190.821 110.623 188.582 111.771C188.358 111.886 188.136 112.006 187.918 112.132C187.811 112.193 187.706 112.255 187.6 112.319C186.414 113.033 185.118 113.374 183.846 113.374C181.411 113.375 179.057 112.127 177.693 109.854C177.032 108.707 176.713 107.461 176.712 106.234C176.712 103.839 177.93 101.517 180.216 100.148C184.914 97.3174 190.357 95.8139 195.885 95.8139C200.847 95.8139 205.878 97.0234 210.51 99.5695C220.643 105.139 226.416 115.651 226.415 126.468C226.415 131.408 225.211 136.411 222.669 141.036C217.143 151.089 206.737 156.772 195.965 156.772C195.765 156.772 195.564 156.77 195.363 156.766C192.837 156.716 190.296 156.353 187.798 155.661L183.251 163.931C181.928 166.34 179.602 167.669 177.132 167.67Z" fill="#38B89A"/>
<path d="M30.4889 89.0336L29.7108 86.6991C28.4998 83.0655 30.3165 79.4323 33.9501 78.2213C37.3195 77.0979 41.2118 78.8288 42.423 82.4619L43.2009 84.7963C44.3679 88.2977 42.3346 92.1445 38.9651 93.2673C35.3318 94.4784 31.6559 92.5349 30.4889 89.0336ZM39.9576 117.441L37.1463 109.007C35.9368 105.379 37.7537 101.745 41.3873 100.535C44.7568 99.4113 48.649 101.142 49.8583 104.77L54.3559 118.264C54.398 118.39 54.266 118.434 54.31 118.567C54.4843 118.65 54.4843 118.65 54.5283 118.781C55.6532 122.156 53.6637 126.134 50.2943 127.258C42.1189 129.983 37.6632 138.674 40.3439 146.717C43.0671 154.887 51.804 159.04 59.9793 156.315C65.2977 154.543 69.0139 150.129 70.0544 145.03C70.8276 141.31 74.3744 138.977 78.0962 139.755C81.6838 140.572 83.9742 143.993 83.1942 147.709C81.2062 157.309 74.2034 165.698 64.2165 169.027C49.1648 174.044 32.779 165.956 27.764 150.91C23.483 138.066 28.8456 124.314 39.9576 117.441Z" fill="#3A3A3A"/>
<path d="M55.0876 170.514C43.0406 170.514 31.7717 162.934 27.764 150.91C26.767 147.919 26.293 144.878 26.293 141.886C26.293 132.033 31.4337 122.713 39.9576 117.441L37.1464 109.007C36.8947 108.253 36.7741 107.498 36.7736 106.764C36.7715 103.972 38.5095 101.493 41.3873 100.535C42.0736 100.306 42.7822 100.195 43.4848 100.195C46.2315 100.195 48.8952 101.881 49.8583 104.77L54.3559 118.264C54.3618 118.282 54.3643 118.298 54.3643 118.313C54.3643 118.389 54.3006 118.435 54.301 118.514C54.301 118.53 54.3037 118.548 54.31 118.567C54.4843 118.649 54.4843 118.649 54.5284 118.781C54.7425 119.424 54.8437 120.088 54.8441 120.751C54.8454 123.568 53.0222 126.348 50.2943 127.258C43.7318 129.445 39.5659 135.477 39.5643 141.932C39.5641 143.518 39.8152 145.13 40.3439 146.717C42.5034 153.195 48.4449 157.148 54.8885 157.148C56.5708 157.148 58.2868 156.88 59.9793 156.315C65.2977 154.543 69.0139 150.129 70.0545 145.03C70.7273 141.792 73.501 139.606 76.6623 139.606C77.1336 139.606 77.6132 139.654 78.0963 139.755C81.2111 140.465 83.3476 143.136 83.3466 146.26C83.3466 146.734 83.2971 147.219 83.1942 147.709C81.2062 157.309 74.2034 165.698 64.2165 169.027C61.193 170.035 58.1154 170.514 55.0876 170.514ZM36.776 93.6284C33.947 93.6284 31.42 91.8265 30.4889 89.0335L29.7108 86.6991C29.4577 85.9398 29.3369 85.1804 29.3373 84.4431C29.3384 81.6526 31.0759 79.179 33.9501 78.2213C34.6364 77.9925 35.3446 77.8818 36.0471 77.8818C38.7941 77.8818 41.4585 79.5685 42.423 82.4619L43.2009 84.7963C43.4265 85.4734 43.5326 86.1632 43.5324 86.8441C43.5316 89.6837 41.6832 92.3615 38.9651 93.2673C38.2303 93.5123 37.4933 93.6284 36.776 93.6284Z" fill="#38B89A"/>
<path d="M91.6724 97.478C88.3112 95.4356 83.4415 92.3751 80.7582 90.2176C83.4415 92.3732 88.3077 95.4302 91.6715 97.4731L91.6724 97.478ZM78.076 82.7024C78.0721 82.2286 78.0745 81.7382 78.0843 81.2346C78.0882 80.9975 78.0941 80.7555 78.1025 80.513C78.0794 81.2714 78.0701 82.0052 78.076 82.7024ZM78.127 79.8163C78.1299 79.7424 78.1328 79.6684 78.1358 79.5949C78.1328 79.6689 78.1299 79.7424 78.127 79.8163ZM78.1593 79.08C78.1789 78.6293 78.2044 78.1737 78.2352 77.7161C78.3567 75.8084 78.537 73.8414 78.7501 71.9695C78.7682 71.8048 78.7849 71.6447 78.8055 71.4859C78.5194 73.9531 78.2803 76.6045 78.1593 79.08ZM78.8123 71.4262C78.8466 71.0984 78.8878 70.7785 78.9284 70.4586C78.9657 70.1259 79.0103 69.8021 79.0529 69.4822C79.0945 69.1491 79.1401 68.8203 79.1856 68.4994C79.0568 69.4259 78.9304 70.4106 78.8123 71.4262ZM79.2528 68.0242C79.2542 68.0105 79.2562 67.9968 79.2577 67.9836C79.2978 67.7063 79.338 67.4354 79.3782 67.1698C79.3365 67.4471 79.2944 67.7332 79.2528 68.0242ZM79.4286 66.8416C79.4316 66.8195 79.435 66.7975 79.4379 66.7754C79.4384 66.7745 79.4389 66.7735 79.4394 66.773C79.4355 66.7955 79.4321 66.8186 79.4286 66.8416Z" fill="#E1E1DE"/>
<path d="M79.4375 66.7754C79.4566 66.649 79.4772 66.5241 79.4968 66.4016C79.4777 66.5236 79.4581 66.6475 79.439 66.773C79.4385 66.7734 79.438 66.7744 79.4375 66.7754Z" fill="#38B89A" fill-opacity="0.22"/>
<path d="M79.498 66.4017C79.5005 66.387 79.5025 66.3723 79.5049 66.3581C79.5446 66.1048 79.5843 65.8609 79.6259 65.6233C79.5833 65.8736 79.5412 66.1338 79.498 66.4017ZM79.67 65.3631C79.7935 64.6415 79.915 64.0036 80.0286 63.4726C79.9154 64.0041 79.794 64.6425 79.67 65.3631ZM81.2421 59.9002C81.3406 59.7145 81.4396 59.5445 81.54 59.3902C81.634 59.2461 81.7291 59.1153 81.8271 58.9963C81.6287 59.2417 81.4332 59.5411 81.2421 59.9002ZM82.245 58.5603C82.2616 58.5456 82.2788 58.5309 82.2954 58.5171C82.4845 58.3604 82.68 58.2501 82.8662 58.1835C82.9735 58.1448 83.0798 58.1193 83.1856 58.1066C82.8769 58.1453 82.56 58.2898 82.245 58.5603Z" fill="#142228"/>
<path d="M123.618 89.9712C122.205 89.9712 120.783 89.8497 119.363 89.6028C118.539 89.4592 117.728 89.2755 116.934 89.0536C116.715 88.0111 114.907 87.0459 112.846 87.0459C112.581 87.0459 112.311 87.0621 112.04 87.0959C109.308 85.6429 106.908 83.6989 104.935 81.4007C104.419 80.7981 103.929 80.1671 103.466 79.5097C102.991 78.8331 102.551 78.1384 102.15 77.4286C100.115 73.8214 98.9741 69.6875 98.9727 65.3778C98.9727 64.9227 98.9849 64.4665 99.0104 64.008C99.0648 63.0517 99.175 62.0934 99.3416 61.1362C100.303 55.6041 103.054 50.8236 106.895 47.2845C107.689 46.555 108.536 45.8721 109.432 45.2406C110.31 44.6238 111.217 44.0687 112.15 43.5764C115.156 41.993 118.502 41.021 121.996 40.7952C122.511 40.7623 123.027 40.7457 123.545 40.7457C124.96 40.7457 126.384 40.8681 127.806 41.1165C132.322 41.9004 136.438 43.887 139.801 46.8485C139.503 49.2451 139.626 51.604 140.114 53.8478C138.834 52.0067 137.251 50.3498 135.435 48.9629C133.277 47.3139 130.749 46.116 128.098 45.4821C126.77 45.1896 125.419 45.0059 124.071 44.9706C123.949 44.9692 123.827 44.9682 123.705 44.9682C122.48 44.9682 121.261 45.0525 120.07 45.2759C117.458 45.7481 114.93 46.6559 112.783 48.1193C115.242 47.2923 117.754 46.7906 120.27 46.579C120.947 46.5285 121.624 46.5021 122.3 46.5021C124.14 46.5021 125.972 46.6971 127.754 47.1258C128.98 47.3854 130.169 47.8087 131.33 48.2966C132.508 48.7547 133.606 49.397 134.708 50.0427C136.663 51.2684 138.483 52.7474 140.234 54.371C141.405 59.1638 144.243 63.4005 148.179 66.3312C148.134 67.4109 148.018 68.4946 147.83 69.5773C146.707 76.0426 143.119 81.6883 137.736 85.4782C133.536 88.4319 128.639 89.9712 123.618 89.9712ZM103.081 70.15C103.791 72.7078 104.995 75.1578 106.621 77.3325C108.246 79.5082 110.351 81.3512 112.727 82.6848C113.926 83.3295 115.174 83.8753 116.461 84.2775C117.753 84.6625 119.067 84.956 120.393 85.0765C121.124 85.1485 121.857 85.1867 122.588 85.1863C124.5 85.1863 126.396 84.9266 128.181 84.3328C127.685 84.3564 127.191 84.3681 126.698 84.3681C124.615 84.3681 122.561 84.1599 120.557 83.7685C118.084 83.2619 115.692 82.4281 113.508 81.1984C112.399 80.6135 111.37 79.8815 110.388 79.0947C109.379 78.3329 108.498 77.4148 107.615 76.4923C105.901 74.593 104.431 72.4393 103.081 70.15Z" fill="#6AE59E" fill-opacity="0.22"/>
<path d="M98.4979 60.993C96.0895 74.827 105.385 88.0409 119.219 90.4492C133.053 92.8576 146.267 83.5621 148.675 69.7281C151.083 55.8945 141.788 42.6807 127.954 40.2723C114.12 37.8639 100.906 47.1595 98.4979 60.993ZM95.2493 60.4277C97.9693 44.8025 112.894 34.3038 128.519 37.0237C144.145 39.7437 154.644 54.6688 151.923 70.2939C149.203 85.9186 134.278 96.4178 118.653 93.6978C103.029 90.9779 92.5293 76.0528 95.2493 60.4277Z" fill="white"/>
<path d="M122.587 85.1862C121.856 85.1866 121.123 85.1484 120.393 85.0764C119.067 84.9559 117.752 84.6624 116.461 84.2774C115.173 83.8752 113.925 83.3294 112.726 82.6847C110.35 81.3511 108.245 79.5081 106.62 77.3324C104.995 75.1577 103.79 72.7077 103.08 70.1499C104.431 72.4392 105.901 74.5929 107.615 76.4922C108.497 77.4147 109.379 78.3328 110.387 79.0946C111.37 79.8814 112.399 80.6133 113.507 81.1983C115.691 82.428 118.083 83.2618 120.556 83.7684C122.561 84.1598 124.615 84.368 126.698 84.368C127.19 84.368 127.684 84.3563 128.18 84.3327C126.396 84.9265 124.5 85.1862 122.587 85.1862Z" fill="#F9F9F8"/>
<path d="M46.2383 24.5213C46.2383 31.9895 52.2957 38.0472 59.7641 38.0472C62.7824 38.0472 65.569 37.0571 67.8222 35.3797L74.4484 37.0713L71.6896 30.9014C72.7144 28.9991 73.29 26.8234 73.29 24.5213C73.29 17.0527 67.2326 10.9955 59.7641 10.9955C52.2957 10.9955 46.2383 17.0527 46.2383 24.5213Z" fill="white"/>
<path d="M46.2385 24.5213C46.2735 13.0089 59.7002 6.7092 68.5898 14.0402C73.4981 18.0129 75.0061 25.482 71.8974 31.0136L71.9053 30.8053L74.6445 36.9836L74.8263 37.3927L74.3952 37.28L67.7791 35.5491C59.3052 41.9699 46.3106 35.9342 46.2385 24.5213ZM46.2385 24.5213C46.4499 35.7975 58.8299 41.7509 67.8654 35.2106L74.5015 36.8631L74.2521 37.159L71.4747 30.9979L71.4274 30.893C75.6023 23.3774 71.3633 13.6233 63.0186 11.5451C54.6572 9.26701 46.1919 15.8729 46.2385 24.5213Z" fill="#17282F"/>
<path d="M60.6476 31.3541V31.7681C60.6476 32.4123 60.1645 32.8954 59.5206 32.8954C58.9233 32.8954 58.3934 32.4123 58.3934 31.7681V31.3541C58.3934 30.7339 58.9233 30.2283 59.5206 30.2283C60.1645 30.2283 60.6476 30.7339 60.6476 31.3541ZM60.6476 26.3189V27.8136C60.6476 28.4568 60.1645 28.9399 59.5206 28.9399C58.9233 28.9399 58.3934 28.4568 58.3934 27.8136V25.4218L58.4177 25.3758L58.3934 25.3302C58.3934 24.732 58.9233 24.2029 59.5206 24.2029C60.9696 24.2029 62.1418 23.0536 62.1418 21.6275C62.1418 20.1793 60.9696 19.0525 59.5206 19.0525C58.5786 19.0525 57.7511 19.5586 57.3129 20.317C56.991 20.8691 56.3019 21.0528 55.7496 20.731C55.2216 20.4096 55.0361 19.7423 55.3583 19.1907C56.1859 17.765 57.7511 16.7989 59.5206 16.7989C62.1887 16.7989 64.3735 18.9604 64.3735 21.6275C64.3735 23.9041 62.7859 25.8133 60.6476 26.3189Z" fill="#38B89A"/>
</g>
<path d="M15.2287 224.517V240.63H13.3404L4.55983 227.979H4.40247V240.63H2.45124V224.517H4.33953L13.1516 237.2H13.3089V224.517H15.2287ZM23.7909 240.882C22.6999 240.882 21.7427 240.623 20.9191 240.103C20.1009 239.584 19.461 238.857 18.9994 237.924C18.543 236.99 18.3149 235.899 18.3149 234.651C18.3149 233.392 18.543 232.293 18.9994 231.354C19.461 230.415 20.1009 229.686 20.9191 229.167C21.7427 228.648 22.6999 228.388 23.7909 228.388C24.8819 228.388 25.8366 228.648 26.6548 229.167C27.4783 229.686 28.1183 230.415 28.5746 231.354C29.0362 232.293 29.267 233.392 29.267 234.651C29.267 235.899 29.0362 236.99 28.5746 237.924C28.1183 238.857 27.4783 239.584 26.6548 240.103C25.8366 240.623 24.8819 240.882 23.7909 240.882ZM23.7909 239.214C24.6197 239.214 25.3016 239.002 25.8366 238.577C26.3716 238.152 26.7676 237.593 27.0246 236.901C27.2816 236.209 27.4102 235.459 27.4102 234.651C27.4102 233.843 27.2816 233.09 27.0246 232.393C26.7676 231.695 26.3716 231.131 25.8366 230.701C25.3016 230.271 24.6197 230.056 23.7909 230.056C22.9622 230.056 22.2803 230.271 21.7453 230.701C21.2103 231.131 20.8142 231.695 20.5572 232.393C20.3002 233.09 20.1717 233.843 20.1717 234.651C20.1717 235.459 20.3002 236.209 20.5572 236.901C20.8142 237.593 21.2103 238.152 21.7453 238.577C22.2803 239.002 22.9622 239.214 23.7909 239.214ZM44.4382 235.595H46.5783L48.3722 237.955L48.8443 238.585L51.5193 242.141H49.3793L47.6169 239.781L47.1763 239.183L44.4382 235.595ZM52.1802 232.574C52.1802 234.273 51.8734 235.742 51.2597 236.98C50.646 238.218 49.8041 239.172 48.7341 239.844C47.6641 240.515 46.4419 240.851 45.0677 240.851C43.6934 240.851 42.4713 240.515 41.4012 239.844C40.3312 239.172 39.4893 238.218 38.8756 236.98C38.2619 235.742 37.9551 234.273 37.9551 232.574C37.9551 230.874 38.2619 229.406 38.8756 228.168C39.4893 226.93 40.3312 225.975 41.4012 225.304C42.4713 224.632 43.6934 224.297 45.0677 224.297C46.4419 224.297 47.6641 224.632 48.7341 225.304C49.8041 225.975 50.646 226.93 51.2597 228.168C51.8734 229.406 52.1802 230.874 52.1802 232.574ZM50.292 232.574C50.292 231.178 50.0585 230.001 49.5917 229.041C49.1301 228.081 48.5033 227.355 47.7113 226.862C46.9245 226.369 46.0433 226.122 45.0677 226.122C44.0921 226.122 43.2082 226.369 42.4162 226.862C41.6294 227.355 41.0026 228.081 40.5358 229.041C40.0742 230.001 39.8434 231.178 39.8434 232.574C39.8434 233.969 40.0742 235.146 40.5358 236.106C41.0026 237.066 41.6294 237.793 42.4162 238.286C43.2082 238.779 44.0921 239.025 45.0677 239.025C46.0433 239.025 46.9245 238.779 47.7113 238.286C48.5033 237.793 49.1301 237.066 49.5917 236.106C50.0585 235.146 50.292 233.969 50.292 232.574ZM62.8255 235.689V228.545H64.6823V240.63H62.8255V238.585H62.6996C62.4164 239.198 61.9758 239.72 61.3778 240.15C60.7799 240.575 60.0245 240.788 59.1119 240.788C58.3565 240.788 57.6851 240.623 57.0977 240.292C56.5102 239.956 56.0486 239.453 55.7129 238.781C55.3772 238.105 55.2094 237.252 55.2094 236.224V228.545H57.0662V236.098C57.0662 236.98 57.3127 237.683 57.8058 238.207C58.3041 238.732 58.9388 238.994 59.7098 238.994C60.1714 238.994 60.6409 238.876 61.1182 238.64C61.6007 238.404 62.0046 238.042 62.3298 237.554C62.6603 237.066 62.8255 236.445 62.8255 235.689ZM73.1501 240.882C71.9857 240.882 70.9812 240.625 70.1367 240.111C69.2975 239.592 68.6497 238.868 68.1934 237.94C67.7423 237.006 67.5167 235.92 67.5167 234.682C67.5167 233.444 67.7423 232.353 68.1934 231.409C68.6497 230.46 69.2844 229.72 70.0974 229.19C70.9157 228.655 71.8703 228.388 72.9613 228.388C73.5907 228.388 74.2123 228.493 74.826 228.703C75.4397 228.912 75.9983 229.253 76.5019 229.725C77.0054 230.192 77.4067 230.811 77.7057 231.582C78.0046 232.353 78.1541 233.303 78.1541 234.43V235.217H68.8385V233.612H76.2658C76.2658 232.93 76.1295 232.322 75.8567 231.787C75.5892 231.252 75.2063 230.83 74.708 230.52C74.2149 230.211 73.6327 230.056 72.9613 230.056C72.2217 230.056 71.5818 230.24 71.0416 230.607C70.5065 230.969 70.0948 231.441 69.8063 232.023C69.5178 232.605 69.3736 233.229 69.3736 233.895V234.965C69.3736 235.878 69.5309 236.652 69.8456 237.287C70.1656 237.916 70.6088 238.396 71.1753 238.726C71.7418 239.052 72.4001 239.214 73.1501 239.214C73.638 239.214 74.0786 239.146 74.472 239.01C74.8706 238.868 75.2142 238.658 75.5026 238.38C75.7911 238.097 76.0141 237.745 76.1714 237.326L77.9653 237.829C77.7765 238.438 77.4591 238.973 77.0133 239.434C76.5674 239.891 76.0167 240.247 75.361 240.504C74.7054 240.756 73.9684 240.882 73.1501 240.882ZM89.539 231.252L87.871 231.724C87.7661 231.446 87.6113 231.176 87.4068 230.914C87.2074 230.646 86.9347 230.426 86.5885 230.253C86.2423 230.08 85.7991 229.993 85.2588 229.993C84.5193 229.993 83.9029 230.163 83.4099 230.504C82.9221 230.84 82.6782 231.268 82.6782 231.787C82.6782 232.248 82.846 232.613 83.1817 232.88C83.5174 233.148 84.0419 233.371 84.7553 233.549L86.5492 233.99C87.6297 234.252 88.4348 234.653 88.9646 235.194C89.4944 235.729 89.7593 236.418 89.7593 237.263C89.7593 237.955 89.5599 238.574 89.1613 239.12C88.7679 239.665 88.2172 240.095 87.5091 240.41C86.8009 240.725 85.9774 240.882 85.0385 240.882C83.8059 240.882 82.7857 240.615 81.9779 240.08C81.1702 239.545 80.6587 238.763 80.4437 237.735L82.2061 237.294C82.3739 237.945 82.6913 238.433 83.1581 238.758C83.6302 239.083 84.2465 239.246 85.0071 239.246C85.8725 239.246 86.5597 239.062 87.0684 238.695C87.5825 238.322 87.8395 237.877 87.8395 237.357C87.8395 236.938 87.6926 236.586 87.3989 236.303C87.1052 236.015 86.6541 235.799 86.0456 235.658L84.0314 235.186C82.9247 234.924 82.1117 234.517 81.5924 233.966C81.0784 233.41 80.8213 232.715 80.8213 231.881C80.8213 231.199 81.0128 230.596 81.3957 230.072C81.7838 229.547 82.311 229.135 82.9771 228.836C83.6485 228.537 84.4091 228.388 85.2588 228.388C86.4548 228.388 87.3937 228.65 88.0755 229.175C88.7627 229.699 89.2505 230.392 89.539 231.252ZM97.8101 228.545V230.119H91.5472V228.545H97.8101ZM93.3726 225.65H95.2294V237.168C95.2294 237.693 95.3055 238.086 95.4576 238.349C95.6149 238.606 95.8143 238.779 96.0555 238.868C96.3021 238.952 96.5617 238.994 96.8345 238.994C97.039 238.994 97.2069 238.983 97.338 238.962C97.4691 238.936 97.574 238.915 97.6527 238.899L98.0304 240.567C97.9045 240.615 97.7288 240.662 97.5032 240.709C97.2777 240.762 96.9918 240.788 96.6456 240.788C96.1211 240.788 95.6071 240.675 95.1035 240.449C94.6052 240.224 94.1909 239.88 93.8604 239.419C93.5352 238.957 93.3726 238.375 93.3726 237.672V225.65ZM100.603 240.63V228.545H102.46V240.63H100.603ZM101.547 226.531C101.185 226.531 100.873 226.408 100.611 226.161C100.354 225.915 100.226 225.618 100.226 225.272C100.226 224.926 100.354 224.63 100.611 224.383C100.873 224.137 101.185 224.013 101.547 224.013C101.909 224.013 102.219 224.137 102.476 224.383C102.738 224.63 102.869 224.926 102.869 225.272C102.869 225.618 102.738 225.915 102.476 226.161C102.219 226.408 101.909 226.531 101.547 226.531ZM110.77 240.882C109.679 240.882 108.722 240.623 107.899 240.103C107.08 239.584 106.441 238.857 105.979 237.924C105.523 236.99 105.294 235.899 105.294 234.651C105.294 233.392 105.523 232.293 105.979 231.354C106.441 230.415 107.08 229.686 107.899 229.167C108.722 228.648 109.679 228.388 110.77 228.388C111.861 228.388 112.816 228.648 113.634 229.167C114.458 229.686 115.098 230.415 115.554 231.354C116.016 232.293 116.247 233.392 116.247 234.651C116.247 235.899 116.016 236.99 115.554 237.924C115.098 238.857 114.458 239.584 113.634 240.103C112.816 240.623 111.861 240.882 110.77 240.882ZM110.77 239.214C111.599 239.214 112.281 239.002 112.816 238.577C113.351 238.152 113.747 237.593 114.004 236.901C114.261 236.209 114.39 235.459 114.39 234.651C114.39 233.843 114.261 233.09 114.004 232.393C113.747 231.695 113.351 231.131 112.816 230.701C112.281 230.271 111.599 230.056 110.77 230.056C109.942 230.056 109.26 230.271 108.725 230.701C108.19 231.131 107.794 231.695 107.537 232.393C107.28 233.09 107.151 233.843 107.151 234.651C107.151 235.459 107.28 236.209 107.537 236.901C107.794 237.593 108.19 238.152 108.725 238.577C109.26 239.002 109.942 239.214 110.77 239.214ZM120.938 233.36V240.63H119.081V228.545H120.875V230.434H121.032C121.315 229.82 121.746 229.327 122.322 228.954C122.899 228.577 123.644 228.388 124.557 228.388C125.375 228.388 126.091 228.556 126.705 228.891C127.319 229.222 127.796 229.725 128.137 230.402C128.478 231.074 128.648 231.923 128.648 232.951V240.63H126.791V233.077C126.791 232.128 126.545 231.388 126.052 230.858C125.559 230.323 124.882 230.056 124.022 230.056C123.429 230.056 122.899 230.184 122.433 230.441C121.971 230.698 121.607 231.074 121.339 231.567C121.072 232.06 120.938 232.658 120.938 233.36ZM139.185 240.63H137.14L143.056 224.517H145.071L150.987 240.63H148.942L144.126 227.066H144.001L139.185 240.63ZM139.941 234.336H148.186V236.067H139.941V234.336ZM157.809 240.882C156.802 240.882 155.913 240.628 155.141 240.119C154.37 239.605 153.767 238.881 153.332 237.947C152.896 237.009 152.679 235.899 152.679 234.619C152.679 233.35 152.896 232.248 153.332 231.315C153.767 230.381 154.373 229.66 155.149 229.151C155.926 228.642 156.823 228.388 157.84 228.388C158.627 228.388 159.248 228.519 159.705 228.781C160.166 229.038 160.518 229.332 160.759 229.663C161.006 229.988 161.197 230.255 161.333 230.465H161.491V224.517H163.348V240.63H161.554V238.774H161.333C161.197 238.994 161.003 239.272 160.751 239.608C160.499 239.938 160.14 240.234 159.673 240.497C159.207 240.754 158.585 240.882 157.809 240.882ZM158.06 239.214C158.805 239.214 159.435 239.02 159.949 238.632C160.463 238.239 160.854 237.696 161.121 237.003C161.389 236.306 161.522 235.501 161.522 234.588C161.522 233.686 161.391 232.896 161.129 232.22C160.867 231.538 160.479 231.008 159.964 230.63C159.45 230.247 158.816 230.056 158.06 230.056C157.274 230.056 156.618 230.258 156.093 230.662C155.574 231.06 155.183 231.603 154.921 232.29C154.664 232.972 154.536 233.738 154.536 234.588C154.536 235.448 154.667 236.23 154.929 236.932C155.197 237.63 155.59 238.186 156.109 238.6C156.634 239.01 157.284 239.214 158.06 239.214ZM171.57 240.882C170.563 240.882 169.673 240.628 168.902 240.119C168.131 239.605 167.528 238.881 167.093 237.947C166.657 237.009 166.44 235.899 166.44 234.619C166.44 233.35 166.657 232.248 167.093 231.315C167.528 230.381 168.134 229.66 168.91 229.151C169.687 228.642 170.583 228.388 171.601 228.388C172.388 228.388 173.009 228.519 173.466 228.781C173.927 229.038 174.279 229.332 174.52 229.663C174.767 229.988 174.958 230.255 175.094 230.465H175.252V224.517H177.109V240.63H175.315V238.774H175.094C174.958 238.994 174.764 239.272 174.512 239.608C174.26 239.938 173.901 240.234 173.434 240.497C172.967 240.754 172.346 240.882 171.57 240.882ZM171.821 239.214C172.566 239.214 173.196 239.02 173.71 238.632C174.224 238.239 174.614 237.696 174.882 237.003C175.149 236.306 175.283 235.501 175.283 234.588C175.283 233.686 175.152 232.896 174.89 232.22C174.628 231.538 174.239 231.008 173.725 230.63C173.211 230.247 172.577 230.056 171.821 230.056C171.035 230.056 170.379 230.258 169.854 230.662C169.335 231.06 168.944 231.603 168.682 232.29C168.425 232.972 168.297 233.738 168.297 234.588C168.297 235.448 168.428 236.23 168.69 236.932C168.957 237.63 169.351 238.186 169.87 238.6C170.395 239.01 171.045 239.214 171.821 239.214ZM185.834 240.882C184.67 240.882 183.665 240.625 182.821 240.111C181.981 239.592 181.334 238.868 180.877 237.94C180.426 237.006 180.201 235.92 180.201 234.682C180.201 233.444 180.426 232.353 180.877 231.409C181.334 230.46 181.968 229.72 182.781 229.19C183.6 228.655 184.554 228.388 185.645 228.388C186.275 228.388 186.896 228.493 187.51 228.703C188.124 228.912 188.682 229.253 189.186 229.725C189.689 230.192 190.091 230.811 190.39 231.582C190.689 232.353 190.838 233.303 190.838 234.43V235.217H181.522V233.612H188.95C188.95 232.93 188.813 232.322 188.541 231.787C188.273 231.252 187.89 230.83 187.392 230.52C186.899 230.211 186.317 230.056 185.645 230.056C184.906 230.056 184.266 230.24 183.725 230.607C183.19 230.969 182.779 231.441 182.49 232.023C182.202 232.605 182.058 233.229 182.058 233.895V234.965C182.058 235.878 182.215 236.652 182.53 237.287C182.85 237.916 183.293 238.396 183.859 238.726C184.426 239.052 185.084 239.214 185.834 239.214C186.322 239.214 186.763 239.146 187.156 239.01C187.555 238.868 187.898 238.658 188.187 238.38C188.475 238.097 188.698 237.745 188.855 237.326L190.649 237.829C190.46 238.438 190.143 238.973 189.697 239.434C189.251 239.891 188.701 240.247 188.045 240.504C187.389 240.756 186.652 240.882 185.834 240.882ZM198.226 240.882C197.219 240.882 196.33 240.628 195.559 240.119C194.788 239.605 194.185 238.881 193.749 237.947C193.314 237.009 193.096 235.899 193.096 234.619C193.096 233.35 193.314 232.248 193.749 231.315C194.185 230.381 194.79 229.66 195.567 229.151C196.343 228.642 197.24 228.388 198.257 228.388C199.044 228.388 199.666 228.519 200.122 228.781C200.584 229.038 200.935 229.332 201.176 229.663C201.423 229.988 201.614 230.255 201.751 230.465H201.908V224.517H203.765V240.63H201.971V238.774H201.751C201.614 238.994 201.42 239.272 201.169 239.608C200.917 239.938 200.558 240.234 200.091 240.497C199.624 240.754 199.002 240.882 198.226 240.882ZM198.478 239.214C199.223 239.214 199.852 239.02 200.366 238.632C200.88 238.239 201.271 237.696 201.538 237.003C201.806 236.306 201.94 235.501 201.94 234.588C201.94 233.686 201.809 232.896 201.546 232.22C201.284 231.538 200.896 231.008 200.382 230.63C199.868 230.247 199.233 230.056 198.478 230.056C197.691 230.056 197.035 230.258 196.511 230.662C195.992 231.06 195.601 231.603 195.339 232.29C195.081 232.972 194.953 233.738 194.953 234.588C194.953 235.448 195.084 236.23 195.346 236.932C195.614 237.63 196.007 238.186 196.527 238.6C197.051 239.01 197.701 239.214 198.478 239.214ZM212.522 224.517H214.756L219.225 232.039H219.414L223.883 224.517H226.118L220.295 233.99V240.63H218.344V233.99L212.522 224.517ZM231.747 240.882C230.583 240.882 229.578 240.625 228.734 240.111C227.895 239.592 227.247 238.868 226.79 237.94C226.339 237.006 226.114 235.92 226.114 234.682C226.114 233.444 226.339 232.353 226.79 231.409C227.247 230.46 227.881 229.72 228.694 229.19C229.513 228.655 230.467 228.388 231.558 228.388C232.188 228.388 232.809 228.493 233.423 228.703C234.037 228.912 234.595 229.253 235.099 229.725C235.602 230.192 236.004 230.811 236.303 231.582C236.602 232.353 236.751 233.303 236.751 234.43V235.217H227.436V233.612H234.863C234.863 232.93 234.726 232.322 234.454 231.787C234.186 231.252 233.803 230.83 233.305 230.52C232.812 230.211 232.23 230.056 231.558 230.056C230.819 230.056 230.179 230.24 229.639 230.607C229.104 230.969 228.692 231.441 228.403 232.023C228.115 232.605 227.971 233.229 227.971 233.895V234.965C227.971 235.878 228.128 236.652 228.443 237.287C228.763 237.916 229.206 238.396 229.772 238.726C230.339 239.052 230.997 239.214 231.747 239.214C232.235 239.214 232.676 239.146 233.069 239.01C233.468 238.868 233.811 238.658 234.1 238.38C234.388 238.097 234.611 237.745 234.768 237.326L236.562 237.829C236.373 238.438 236.056 238.973 235.61 239.434C235.164 239.891 234.614 240.247 233.958 240.504C233.302 240.756 232.565 240.882 231.747 240.882ZM244.831 228.545V230.119H238.569V228.545H244.831ZM240.394 225.65H242.251V237.168C242.251 237.693 242.327 238.086 242.479 238.349C242.636 238.606 242.836 238.779 243.077 238.868C243.323 238.952 243.583 238.994 243.856 238.994C244.06 238.994 244.228 238.983 244.359 238.962C244.491 238.936 244.595 238.915 244.674 238.899L245.052 240.567C244.926 240.615 244.75 240.662 244.525 240.709C244.299 240.762 244.013 240.788 243.667 240.788C243.142 240.788 242.628 240.675 242.125 240.449C241.627 240.224 241.212 239.88 240.882 239.419C240.557 238.957 240.394 238.375 240.394 237.672V225.65ZM250.079 224.517L249.922 236.098H248.097L247.939 224.517H250.079ZM249.009 240.756C248.621 240.756 248.288 240.617 248.01 240.339C247.732 240.061 247.593 239.728 247.593 239.34C247.593 238.952 247.732 238.619 248.01 238.341C248.288 238.063 248.621 237.924 249.009 237.924C249.397 237.924 249.731 238.063 250.009 238.341C250.287 238.619 250.426 238.952 250.426 239.34C250.426 239.597 250.36 239.833 250.229 240.048C250.103 240.263 249.932 240.436 249.717 240.567C249.508 240.693 249.272 240.756 249.009 240.756Z" fill="#7B849A"/>
<defs>
<clipPath id="clip0_3293_9878">
<rect width="203.097" height="205.353" fill="white" transform="translate(24.9512 0.813965)"/>
</clipPath>
</defs>
</svg>
