<svg width="341" height="348" viewBox="0 0 341 348" fill="none" xmlns="http://www.w3.org/2000/svg">
<path d="M164.518 298C236.275 298 294.446 240.469 294.446 169.5C294.446 98.5314 236.275 41 164.518 41C92.7599 41 34.5889 98.5314 34.5889 169.5C34.5889 240.469 92.7599 298 164.518 298Z" fill="#F0F1F3"/>
<rect x="104.553" y="107.672" width="223.665" height="79.7419" rx="27.1718" fill="#38B89A"/>
<rect x="196.88" y="135.121" width="75.422" height="10.458" rx="5.22898" fill="white"/>
<rect x="124.059" y="150.809" width="148.623" height="10.458" rx="5.22898" fill="white"/>
<ellipse cx="299.61" cy="148.194" rx="13.0038" ry="13.0724" fill="white"/>
<rect x="11.001" y="174.34" width="223.665" height="79.7419" rx="27.1718" fill="white"/>
<rect x="66.917" y="201.789" width="75.422" height="10.458" rx="5.22898" fill="#38B89A"/>
<rect x="66.917" y="217.477" width="148.623" height="10.458" rx="5.22898" fill="#38B89A"/>
<ellipse cx="43.5101" cy="214.862" rx="13.0038" ry="13.0724" fill="#38B89A"/>
<path d="M66.2536 328.545V346H64.2082L54.6968 332.295H54.5263V346H52.4127V328.545H54.4582L64.0036 342.284H64.1741V328.545H66.2536ZM75.5285 346.273C74.3467 346.273 73.3097 345.991 72.4177 345.429C71.5313 344.866 70.8381 344.08 70.3381 343.068C69.8438 342.057 69.5967 340.875 69.5967 339.523C69.5967 338.159 69.8438 336.969 70.3381 335.952C70.8381 334.935 71.5313 334.145 72.4177 333.582C73.3097 333.02 74.3467 332.739 75.5285 332.739C76.7103 332.739 77.7444 333.02 78.6307 333.582C79.5228 334.145 80.216 334.935 80.7103 335.952C81.2103 336.969 81.4603 338.159 81.4603 339.523C81.4603 340.875 81.2103 342.057 80.7103 343.068C80.216 344.08 79.5228 344.866 78.6307 345.429C77.7444 345.991 76.7103 346.273 75.5285 346.273ZM75.5285 344.466C76.4262 344.466 77.1648 344.236 77.7444 343.776C78.3239 343.315 78.7529 342.71 79.0313 341.96C79.3097 341.21 79.4489 340.398 79.4489 339.523C79.4489 338.648 79.3097 337.832 79.0313 337.077C78.7529 336.321 78.3239 335.71 77.7444 335.244C77.1648 334.778 76.4262 334.545 75.5285 334.545C74.6307 334.545 73.8921 334.778 73.3126 335.244C72.733 335.71 72.304 336.321 72.0256 337.077C71.7472 337.832 71.608 338.648 71.608 339.523C71.608 340.398 71.7472 341.21 72.0256 341.96C72.304 342.71 72.733 343.315 73.3126 343.776C73.8921 344.236 74.6307 344.466 75.5285 344.466ZM91.5533 346V328.545H102.019V330.42H93.667V336.318H101.235V338.193H93.667V346H91.5533ZM104.175 346H101.96L108.369 328.545H110.55L116.96 346H114.744L109.528 331.307H109.391L104.175 346ZM104.994 339.182H113.925V341.057H104.994V339.182ZM125.199 340.545H127.517L129.46 343.102L129.972 343.784L132.869 347.636H130.551L128.642 345.08L128.165 344.432L125.199 340.545ZM133.585 337.273C133.585 339.114 133.253 340.705 132.588 342.045C131.923 343.386 131.011 344.42 129.852 345.148C128.693 345.875 127.369 346.239 125.881 346.239C124.392 346.239 123.068 345.875 121.909 345.148C120.75 344.42 119.838 343.386 119.173 342.045C118.509 340.705 118.176 339.114 118.176 337.273C118.176 335.432 118.509 333.841 119.173 332.5C119.838 331.159 120.75 330.125 121.909 329.398C123.068 328.67 124.392 328.307 125.881 328.307C127.369 328.307 128.693 328.67 129.852 329.398C131.011 330.125 131.923 331.159 132.588 332.5C133.253 333.841 133.585 335.432 133.585 337.273ZM131.54 337.273C131.54 335.761 131.287 334.486 130.781 333.446C130.281 332.406 129.602 331.619 128.744 331.085C127.892 330.551 126.938 330.284 125.881 330.284C124.824 330.284 123.867 330.551 123.009 331.085C122.156 331.619 121.477 332.406 120.972 333.446C120.472 334.486 120.222 335.761 120.222 337.273C120.222 338.784 120.472 340.06 120.972 341.099C121.477 342.139 122.156 342.926 123.009 343.46C123.867 343.994 124.824 344.261 125.881 344.261C126.938 344.261 127.892 343.994 128.744 343.46C129.602 342.926 130.281 342.139 130.781 341.099C131.287 340.06 131.54 338.784 131.54 337.273ZM138.639 328.545V330.08C138.639 330.545 138.554 331.043 138.384 331.571C138.219 332.094 137.974 332.602 137.651 333.097C137.332 333.585 136.946 334.011 136.492 334.375L135.401 333.489C135.759 332.977 136.068 332.446 136.33 331.895C136.597 331.338 136.73 330.744 136.73 330.114V328.545H138.639ZM148.717 335.841L146.911 336.352C146.797 336.051 146.629 335.759 146.408 335.474C146.192 335.185 145.896 334.946 145.521 334.759C145.146 334.571 144.666 334.477 144.081 334.477C143.28 334.477 142.612 334.662 142.078 335.031C141.55 335.395 141.286 335.858 141.286 336.42C141.286 336.92 141.467 337.315 141.831 337.605C142.195 337.895 142.763 338.136 143.536 338.33L145.479 338.807C146.649 339.091 147.521 339.526 148.095 340.111C148.669 340.69 148.956 341.437 148.956 342.352C148.956 343.102 148.74 343.773 148.308 344.364C147.882 344.955 147.286 345.42 146.519 345.761C145.751 346.102 144.859 346.273 143.842 346.273C142.507 346.273 141.402 345.983 140.527 345.403C139.652 344.824 139.098 343.977 138.865 342.864L140.774 342.386C140.956 343.091 141.3 343.619 141.805 343.972C142.317 344.324 142.984 344.5 143.808 344.5C144.746 344.5 145.49 344.301 146.041 343.903C146.598 343.5 146.876 343.017 146.876 342.455C146.876 342 146.717 341.619 146.399 341.312C146.081 341 145.592 340.767 144.933 340.614L142.751 340.102C141.553 339.818 140.672 339.378 140.109 338.781C139.553 338.179 139.274 337.426 139.274 336.523C139.274 335.784 139.482 335.131 139.896 334.562C140.317 333.994 140.888 333.548 141.609 333.224C142.337 332.901 143.161 332.739 144.081 332.739C145.376 332.739 146.394 333.023 147.132 333.591C147.876 334.159 148.405 334.909 148.717 335.841ZM159.722 346H157.506L163.916 328.545H166.097L172.506 346H170.291L165.075 331.307H164.938L159.722 346ZM160.541 339.182H169.472V341.057H160.541V339.182ZM179.896 346.273C178.805 346.273 177.842 345.997 177.006 345.446C176.171 344.889 175.518 344.105 175.046 343.094C174.575 342.077 174.339 340.875 174.339 339.489C174.339 338.114 174.575 336.92 175.046 335.909C175.518 334.898 176.174 334.116 177.015 333.565C177.856 333.014 178.827 332.739 179.93 332.739C180.782 332.739 181.455 332.881 181.95 333.165C182.45 333.443 182.83 333.761 183.092 334.119C183.359 334.472 183.566 334.761 183.714 334.989H183.884V328.545H185.896V346H183.952V343.989H183.714C183.566 344.227 183.356 344.528 183.083 344.892C182.81 345.25 182.421 345.571 181.916 345.855C181.41 346.134 180.737 346.273 179.896 346.273ZM180.168 344.466C180.975 344.466 181.657 344.256 182.214 343.835C182.771 343.409 183.194 342.821 183.484 342.071C183.774 341.315 183.918 340.443 183.918 339.455C183.918 338.477 183.776 337.622 183.492 336.889C183.208 336.151 182.788 335.577 182.231 335.168C181.674 334.753 180.987 334.545 180.168 334.545C179.316 334.545 178.606 334.764 178.038 335.202C177.475 335.634 177.052 336.222 176.768 336.966C176.489 337.705 176.35 338.534 176.35 339.455C176.35 340.386 176.492 341.233 176.776 341.994C177.066 342.75 177.492 343.352 178.055 343.801C178.623 344.244 179.327 344.466 180.168 344.466ZM194.802 346.273C193.711 346.273 192.748 345.997 191.913 345.446C191.077 344.889 190.424 344.105 189.952 343.094C189.481 342.077 189.245 340.875 189.245 339.489C189.245 338.114 189.481 336.92 189.952 335.909C190.424 334.898 191.08 334.116 191.921 333.565C192.762 333.014 193.734 332.739 194.836 332.739C195.688 332.739 196.362 332.881 196.856 333.165C197.356 333.443 197.737 333.761 197.998 334.119C198.265 334.472 198.472 334.761 198.62 334.989H198.791V328.545H200.802V346H198.859V343.989H198.62C198.472 344.227 198.262 344.528 197.989 344.892C197.717 345.25 197.327 345.571 196.822 345.855C196.316 346.134 195.643 346.273 194.802 346.273ZM195.075 344.466C195.881 344.466 196.563 344.256 197.12 343.835C197.677 343.409 198.1 342.821 198.39 342.071C198.68 341.315 198.825 340.443 198.825 339.455C198.825 338.477 198.683 337.622 198.399 336.889C198.114 336.151 197.694 335.577 197.137 335.168C196.58 334.753 195.893 334.545 195.075 334.545C194.222 334.545 193.512 334.764 192.944 335.202C192.381 335.634 191.958 336.222 191.674 336.966C191.396 337.705 191.256 338.534 191.256 339.455C191.256 340.386 191.399 341.233 191.683 341.994C191.972 342.75 192.399 343.352 192.961 343.801C193.529 344.244 194.234 344.466 195.075 344.466ZM210.254 346.273C208.992 346.273 207.904 345.994 206.989 345.438C206.08 344.875 205.379 344.091 204.884 343.085C204.396 342.074 204.151 340.898 204.151 339.557C204.151 338.216 204.396 337.034 204.884 336.011C205.379 334.983 206.066 334.182 206.947 333.608C207.833 333.028 208.867 332.739 210.049 332.739C210.731 332.739 211.404 332.852 212.069 333.08C212.734 333.307 213.339 333.676 213.884 334.188C214.43 334.693 214.864 335.364 215.188 336.199C215.512 337.034 215.674 338.062 215.674 339.284V340.136H205.583V338.398H213.629C213.629 337.659 213.481 337 213.185 336.42C212.896 335.841 212.481 335.384 211.941 335.048C211.407 334.713 210.776 334.545 210.049 334.545C209.248 334.545 208.555 334.744 207.97 335.142C207.39 335.534 206.944 336.045 206.631 336.676C206.319 337.307 206.163 337.983 206.163 338.705V339.864C206.163 340.852 206.333 341.69 206.674 342.378C207.021 343.06 207.501 343.58 208.114 343.938C208.728 344.29 209.441 344.466 210.254 344.466C210.782 344.466 211.259 344.392 211.685 344.244C212.117 344.091 212.489 343.864 212.802 343.562C213.114 343.256 213.356 342.875 213.526 342.42L215.47 342.966C215.265 343.625 214.921 344.205 214.438 344.705C213.955 345.199 213.359 345.585 212.649 345.864C211.938 346.136 211.14 346.273 210.254 346.273ZM223.677 346.273C222.586 346.273 221.623 345.997 220.788 345.446C219.952 344.889 219.299 344.105 218.827 343.094C218.356 342.077 218.12 340.875 218.12 339.489C218.12 338.114 218.356 336.92 218.827 335.909C219.299 334.898 219.955 334.116 220.796 333.565C221.637 333.014 222.609 332.739 223.711 332.739C224.563 332.739 225.237 332.881 225.731 333.165C226.231 333.443 226.612 333.761 226.873 334.119C227.14 334.472 227.347 334.761 227.495 334.989H227.666V328.545H229.677V346H227.734V343.989H227.495C227.347 344.227 227.137 344.528 226.864 344.892C226.592 345.25 226.202 345.571 225.697 345.855C225.191 346.134 224.518 346.273 223.677 346.273ZM223.95 344.466C224.756 344.466 225.438 344.256 225.995 343.835C226.552 343.409 226.975 342.821 227.265 342.071C227.555 341.315 227.7 340.443 227.7 339.455C227.7 338.477 227.558 337.622 227.274 336.889C226.989 336.151 226.569 335.577 226.012 335.168C225.455 334.753 224.768 334.545 223.95 334.545C223.097 334.545 222.387 334.764 221.819 335.202C221.256 335.634 220.833 336.222 220.549 336.966C220.271 337.705 220.131 338.534 220.131 339.455C220.131 340.386 220.274 341.233 220.558 341.994C220.847 342.75 221.274 343.352 221.836 343.801C222.404 344.244 223.109 344.466 223.95 344.466ZM239.163 328.545H241.583L246.424 336.693H246.629L251.47 328.545H253.89L247.583 338.807V346H245.47V338.807L239.163 328.545ZM259.988 346.273C258.727 346.273 257.639 345.994 256.724 345.438C255.815 344.875 255.113 344.091 254.619 343.085C254.13 342.074 253.886 340.898 253.886 339.557C253.886 338.216 254.13 337.034 254.619 336.011C255.113 334.983 255.8 334.182 256.681 333.608C257.568 333.028 258.602 332.739 259.783 332.739C260.465 332.739 261.139 332.852 261.803 333.08C262.468 333.307 263.073 333.676 263.619 334.188C264.164 334.693 264.599 335.364 264.923 336.199C265.247 337.034 265.408 338.062 265.408 339.284V340.136H255.318V338.398H263.363C263.363 337.659 263.215 337 262.92 336.42C262.63 335.841 262.215 335.384 261.675 335.048C261.141 334.713 260.511 334.545 259.783 334.545C258.982 334.545 258.289 334.744 257.704 335.142C257.124 335.534 256.678 336.045 256.366 336.676C256.053 337.307 255.897 337.983 255.897 338.705V339.864C255.897 340.852 256.068 341.69 256.408 342.378C256.755 343.06 257.235 343.58 257.849 343.938C258.462 344.29 259.175 344.466 259.988 344.466C260.516 344.466 260.994 344.392 261.42 344.244C261.852 344.091 262.224 343.864 262.536 343.562C262.849 343.256 263.09 342.875 263.261 342.42L265.204 342.966C264.999 343.625 264.656 344.205 264.173 344.705C263.69 345.199 263.093 345.585 262.383 345.864C261.673 346.136 260.874 346.273 259.988 346.273ZM274.161 332.909V334.614H267.377V332.909H274.161ZM269.354 329.773H271.366V342.25C271.366 342.818 271.448 343.244 271.613 343.528C271.783 343.807 271.999 343.994 272.261 344.091C272.528 344.182 272.809 344.227 273.104 344.227C273.326 344.227 273.508 344.216 273.65 344.193C273.792 344.165 273.906 344.142 273.991 344.125L274.4 345.932C274.264 345.983 274.073 346.034 273.829 346.085C273.585 346.142 273.275 346.17 272.9 346.17C272.332 346.17 271.775 346.048 271.229 345.804C270.69 345.56 270.241 345.188 269.883 344.688C269.531 344.188 269.354 343.557 269.354 342.795V329.773ZM279.846 328.545L279.675 341.091H277.698L277.528 328.545H279.846ZM278.687 346.136C278.266 346.136 277.906 345.986 277.604 345.685C277.303 345.384 277.153 345.023 277.153 344.602C277.153 344.182 277.303 343.821 277.604 343.52C277.906 343.219 278.266 343.068 278.687 343.068C279.107 343.068 279.468 343.219 279.769 343.52C280.07 343.821 280.221 344.182 280.221 344.602C280.221 344.881 280.15 345.136 280.008 345.369C279.872 345.602 279.687 345.79 279.454 345.932C279.227 346.068 278.971 346.136 278.687 346.136ZM286.526 328.545L286.355 341.091H284.378L284.207 328.545H286.526ZM285.367 346.136C284.946 346.136 284.585 345.986 284.284 345.685C283.983 345.384 283.832 345.023 283.832 344.602C283.832 344.182 283.983 343.821 284.284 343.52C284.585 343.219 284.946 343.068 285.367 343.068C285.787 343.068 286.148 343.219 286.449 343.52C286.75 343.821 286.901 344.182 286.901 344.602C286.901 344.881 286.83 345.136 286.688 345.369C286.551 345.602 286.367 345.79 286.134 345.932C285.906 346.068 285.651 346.136 285.367 346.136Z" fill="#7B849A"/>
</svg>
