<svg width="332" height="309" viewBox="0 0 332 309" fill="none" xmlns="http://www.w3.org/2000/svg">
<path d="M299.876 242.577C306.389 229.69 287.777 165.254 158.73 165.254C65.5847 165.254 22.8333 217.996 32.2848 244.725" fill="url(#paint0_radial_7189_10180)"/>
<mask id="mask0_7189_10180" style="mask-type:luminance" maskUnits="userSpaceOnUse" x="31" y="165" width="270" height="80">
<path d="M299.876 242.577C306.389 229.69 287.777 165.254 158.73 165.254C65.5847 165.254 22.8333 217.996 32.2848 244.725" fill="white"/>
</mask>
<g mask="url(#mask0_7189_10180)">
<ellipse opacity="0.671968" cx="138.827" cy="201.389" rx="7.09696" ry="3.94201" fill="url(#paint1_linear_7189_10180)"/>
<ellipse opacity="0.729957" cx="211.263" cy="195.372" rx="11.1974" ry="6.14954" fill="url(#paint2_linear_7189_10180)"/>
<ellipse opacity="0.729957" cx="83.8329" cy="178.972" rx="11.1974" ry="6.14954" fill="url(#paint3_linear_7189_10180)"/>
</g>
<g opacity="0.320685">
<ellipse cx="240.42" cy="57.7757" rx="7.57009" ry="7.56866" fill="url(#paint4_linear_7189_10180)"/>
<path d="M235.672 51.7742C232.423 51.3162 230.048 51.6752 229.602 52.9C228.888 54.8639 233.404 58.3104 239.69 60.5979C245.976 62.8853 251.651 63.1476 252.366 61.1836C252.816 59.9478 250.754 58.2188 247.924 56.4672" stroke="url(#paint5_linear_7189_10180)" stroke-width="3.78505"/>
<path d="M248.006 57.7757C248.006 53.5956 244.617 50.207 240.436 50.207C236.255 50.207 233.636 52.8796 233.096 55.893C233.096 55.893 237.447 58.6172 239.457 59.2028C240.098 59.3895 240.733 59.6318 241.38 59.8465C242.103 60.0868 242.84 60.2986 243.586 60.4825C244.096 60.6082 244.795 60.8027 245.448 60.9241C246.31 61.0842 247.081 61.1557 247.142 61.1557C247.248 61.1557 247.365 60.6798 247.606 60.1252C247.847 59.5707 248.006 57.7757 248.006 57.7757Z" fill="url(#paint6_linear_7189_10180)"/>
</g>
<circle opacity="0.418364" cx="74.0962" cy="102.427" r="8.82692" fill="url(#paint7_linear_7189_10180)"/>
<ellipse opacity="0.5" cx="169.635" cy="177.715" rx="26.4808" ry="7.26923" fill="url(#paint8_linear_7189_10180)"/>
<path d="M159.483 28.0254L162.41 29.0909L108.246 177.906C107.952 178.714 107.058 179.131 106.25 178.837C105.441 178.542 105.024 177.649 105.319 176.84L159.483 28.0254Z" fill="#D8D8D8"/>
<path d="M159.409 28.0977L182.397 43.2438C184.287 44.4889 186.398 45.3604 188.615 45.811C200.617 48.2496 208.442 59.8677 206.19 71.9061L200.76 100.939C200.735 101.073 200.544 101.077 200.511 100.944C197.992 90.7827 188.405 83.9422 177.982 84.9259C173.233 85.3741 168.519 83.7717 165.028 80.5222L146.578 63.3511L159.409 28.0977Z" fill="#38B89A"/>
<circle cx="160.696" cy="27.5976" r="2.07692" transform="rotate(20 160.696 27.5976)" fill="#D8D8D8"/>
<path d="M125.916 117.029C125.916 117.029 127.473 116.251 127.473 116.51C127.473 116.77 127.473 119.626 127.473 119.626L126.435 120.145L125.916 117.029Z" fill="#FFE9E9"/>
<path d="M155.418 169.032C155.418 169.032 154.894 167.122 153.516 166.999C152.138 166.875 148.256 170.981 147.444 172.677C146.633 174.372 148.85 176.749 151.38 174.465C153.911 172.181 155.418 169.032 155.418 169.032Z" fill="#677285"/>
<path d="M157.039 174.603L155.457 170.187C154.819 168.408 152.396 168.182 151.441 169.812C151.25 170.137 151.144 170.502 151.15 170.879C151.177 172.665 151.468 178.067 154 178.796C157.039 179.67 157.039 174.603 157.039 174.603Z" fill="url(#paint9_linear_7189_10180)"/>
<path d="M176.582 169.032C176.582 169.032 177.106 167.122 178.484 166.999C179.862 166.875 183.744 170.981 184.556 172.677C185.367 174.372 183.151 176.749 180.62 174.465C178.09 172.181 176.582 169.032 176.582 169.032Z" fill="#677285"/>
<path d="M174.961 174.603L176.544 170.187C177.181 168.408 179.604 168.182 180.56 169.812C180.75 170.137 180.856 170.502 180.85 170.879C180.824 172.665 180.532 178.067 178.001 178.796C174.961 179.67 174.961 174.603 174.961 174.603Z" fill="url(#paint10_linear_7189_10180)"/>
<path d="M157.485 161.342C157.485 161.342 156.617 163.047 156.617 164.246C155.748 166.191 154.318 168.809 151.84 174.268C150.217 177.845 153.145 178.793 155.356 179.022C156.737 179.165 158.061 178.593 159.134 177.713L165.76 172.281L173.647 178.793C175.077 179.974 177.147 179.966 178.568 178.774C180.029 177.547 180.411 175.412 179.569 173.7C178.622 171.777 177.217 168.763 175.29 164.246C175.29 163.06 174.532 161.922 174.532 161.922L157.485 161.342Z" fill="url(#paint11_linear_7189_10180)"/>
<path d="M176.384 147.842C177.801 149.912 177.423 155.085 177.423 155.085H173.269L174.928 166.24C175.009 166.782 174.706 167.307 174.191 167.495C172.334 168.174 167.936 169.684 165.106 169.851C162.269 170.019 157.451 168.549 155.42 167.876C154.871 167.694 154.56 167.138 154.713 166.58C155.156 164.966 156.326 161.283 159.125 155.085C159.992 156.099 155.096 155.085 155.096 155.085C155.096 155.085 155.401 150.478 156.653 147.842C157.905 145.207 160.807 143.446 160.807 143.446L168.145 142.332C168.145 142.332 171.192 142.927 172.749 143.757C174.307 144.587 174.968 145.773 176.384 147.842Z" fill="url(#paint12_linear_7189_10180)"/>
<path d="M177.03 155.064L176.865 159.985L176.307 162.447L172.473 178.265L173.084 179.585L173.479 181.298L173.084 182.389L172.046 182.001L169.969 180.312L169.595 179.191C169.502 178.913 169.532 178.608 169.675 178.353L170.694 176.544L173.479 161.776L173.199 155.25L177.03 155.064Z" fill="#FDE7E6"/>
<path d="M155.2 155.25L155.648 159.985L156.206 162.448L160.04 178.265L159.429 179.585L159.033 181.299L159.429 182.389L160.467 182.001L162.544 180.312L162.918 179.191C163.01 178.913 162.981 178.609 162.838 178.353L161.819 176.544L159.033 161.776L159.25 155.25L155.2 155.25Z" fill="#FDE7E6"/>
<path fill-rule="evenodd" clip-rule="evenodd" d="M167.701 138.305H163.611V143.786H167.701V138.305ZM165.247 146.923C165.247 146.145 163.611 143.786 163.611 143.786H167.701C167.701 143.786 165.247 147.702 165.247 146.923Z" fill="#FECECD"/>
<ellipse cx="165.419" cy="137.398" rx="3.62618" ry="5.4" fill="#FFE9E9"/>
<path fill-rule="evenodd" clip-rule="evenodd" d="M161.438 138.298C161.729 137.268 161.729 134.999 162.309 134.925C162.889 134.85 164.049 135.28 165.21 134.446C165.79 133.989 166.08 133.931 166.08 133.701C168.981 134.249 167.246 135.902 168.691 137.723C168.842 137.913 169.271 137.723 169.271 137.723C169.271 137.723 169.271 133.24 168.981 132.84C168.691 132.44 167.53 130.829 166.95 131.978C166.95 131.403 165.79 130.811 164.63 131.251C163.469 131.691 161.729 132.552 161.438 133.701C161.148 134.85 160.858 137.149 161.438 138.298Z" fill="#513450"/>
<path d="M15.9545 285.545V303H13.9091L4.39773 289.295H4.22727V303H2.11364V285.545H4.15909L13.7045 299.284H13.875V285.545H15.9545ZM25.2294 303.273C24.0476 303.273 23.0107 302.991 22.1186 302.429C21.2322 301.866 20.5391 301.08 20.0391 300.068C19.5447 299.057 19.2976 297.875 19.2976 296.523C19.2976 295.159 19.5447 293.969 20.0391 292.952C20.5391 291.935 21.2322 291.145 22.1186 290.582C23.0107 290.02 24.0476 289.739 25.2294 289.739C26.4112 289.739 27.4453 290.02 28.3317 290.582C29.2237 291.145 29.9169 291.935 30.4112 292.952C30.9112 293.969 31.1612 295.159 31.1612 296.523C31.1612 297.875 30.9112 299.057 30.4112 300.068C29.9169 301.08 29.2237 301.866 28.3317 302.429C27.4453 302.991 26.4112 303.273 25.2294 303.273ZM25.2294 301.466C26.1271 301.466 26.8658 301.236 27.4453 300.776C28.0249 300.315 28.4538 299.71 28.7322 298.96C29.0107 298.21 29.1499 297.398 29.1499 296.523C29.1499 295.648 29.0107 294.832 28.7322 294.077C28.4538 293.321 28.0249 292.71 27.4453 292.244C26.8658 291.778 26.1271 291.545 25.2294 291.545C24.3317 291.545 23.593 291.778 23.0135 292.244C22.4339 292.71 22.005 293.321 21.7266 294.077C21.4482 294.832 21.3089 295.648 21.3089 296.523C21.3089 297.398 21.4482 298.21 21.7266 298.96C22.005 299.71 22.4339 300.315 23.0135 300.776C23.593 301.236 24.3317 301.466 25.2294 301.466ZM41.2543 303V285.545H43.3679V301.125H51.4815V303H41.2543ZM54.4815 303V289.909H56.4929V303H54.4815ZM55.5043 287.727C55.1122 287.727 54.7741 287.594 54.4901 287.327C54.2116 287.06 54.0724 286.739 54.0724 286.364C54.0724 285.989 54.2116 285.668 54.4901 285.401C54.7741 285.134 55.1122 285 55.5043 285C55.8963 285 56.2315 285.134 56.5099 285.401C56.794 285.668 56.9361 285.989 56.9361 286.364C56.9361 286.739 56.794 287.06 56.5099 287.327C56.2315 287.594 55.8963 287.727 55.5043 287.727ZM66.0064 289.909V291.614H58.9496V289.909H66.0064ZM61.0632 303V288.102C61.0632 287.352 61.2393 286.727 61.5916 286.227C61.9439 285.727 62.4013 285.352 62.9638 285.102C63.5263 284.852 64.12 284.727 64.745 284.727C65.2393 284.727 65.6428 284.767 65.9553 284.847C66.2678 284.926 66.5007 285 66.6541 285.068L66.0746 286.807C65.9723 286.773 65.8303 286.73 65.6484 286.679C65.4723 286.628 65.2393 286.602 64.9496 286.602C64.2848 286.602 63.8047 286.77 63.5092 287.105C63.2195 287.44 63.0746 287.932 63.0746 288.58V303H61.0632ZM73.7749 303.273C72.5135 303.273 71.4254 302.994 70.5107 302.438C69.6016 301.875 68.8999 301.091 68.4055 300.085C67.9169 299.074 67.6726 297.898 67.6726 296.557C67.6726 295.216 67.9169 294.034 68.4055 293.011C68.8999 291.983 69.5874 291.182 70.468 290.608C71.3544 290.028 72.3885 289.739 73.5703 289.739C74.2521 289.739 74.9254 289.852 75.5902 290.08C76.255 290.307 76.8601 290.676 77.4055 291.188C77.951 291.693 78.3857 292.364 78.7095 293.199C79.0334 294.034 79.1953 295.062 79.1953 296.284V297.136H69.1044V295.398H77.1499C77.1499 294.659 77.0021 294 76.7067 293.42C76.4169 292.841 76.0021 292.384 75.4624 292.048C74.9283 291.713 74.2976 291.545 73.5703 291.545C72.7692 291.545 72.076 291.744 71.4908 292.142C70.9112 292.534 70.4652 293.045 70.1527 293.676C69.8402 294.307 69.6839 294.983 69.6839 295.705V296.864C69.6839 297.852 69.8544 298.69 70.1953 299.378C70.5419 300.06 71.022 300.58 71.6357 300.938C72.2493 301.29 72.9624 301.466 73.7749 301.466C74.3033 301.466 74.7805 301.392 75.2067 301.244C75.6385 301.091 76.0107 300.864 76.3232 300.562C76.6357 300.256 76.8771 299.875 77.0476 299.42L78.9908 299.966C78.7862 300.625 78.4425 301.205 77.9595 301.705C77.4766 302.199 76.88 302.585 76.1697 302.864C75.4595 303.136 74.6612 303.273 73.7749 303.273ZM103.323 291H101.21C101.085 290.392 100.866 289.858 100.553 289.398C100.246 288.938 99.8714 288.551 99.4283 288.239C98.9908 287.92 98.505 287.682 97.9709 287.523C97.4368 287.364 96.88 287.284 96.3004 287.284C95.2436 287.284 94.2862 287.551 93.4283 288.085C92.576 288.619 91.897 289.406 91.3913 290.446C90.8913 291.486 90.6413 292.761 90.6413 294.273C90.6413 295.784 90.8913 297.06 91.3913 298.099C91.897 299.139 92.576 299.926 93.4283 300.46C94.2862 300.994 95.2436 301.261 96.3004 301.261C96.88 301.261 97.4368 301.182 97.9709 301.023C98.505 300.864 98.9908 300.628 99.4283 300.315C99.8714 299.997 100.246 299.608 100.553 299.148C100.866 298.682 101.085 298.148 101.21 297.545H103.323C103.164 298.437 102.874 299.236 102.454 299.94C102.033 300.645 101.511 301.244 100.886 301.739C100.261 302.227 99.5589 302.599 98.7805 302.855C98.0078 303.111 97.1811 303.239 96.3004 303.239C94.8118 303.239 93.4879 302.875 92.3288 302.148C91.1697 301.42 90.2578 300.386 89.593 299.045C88.9283 297.705 88.5959 296.114 88.5959 294.273C88.5959 292.432 88.9283 290.841 89.593 289.5C90.2578 288.159 91.1697 287.125 92.3288 286.398C93.4879 285.67 94.8118 285.307 96.3004 285.307C97.1811 285.307 98.0078 285.435 98.7805 285.69C99.5589 285.946 100.261 286.321 100.886 286.815C101.511 287.304 102.033 287.901 102.454 288.605C102.874 289.304 103.164 290.102 103.323 291ZM111.784 303.273C110.602 303.273 109.565 302.991 108.673 302.429C107.787 301.866 107.094 301.08 106.594 300.068C106.099 299.057 105.852 297.875 105.852 296.523C105.852 295.159 106.099 293.969 106.594 292.952C107.094 291.935 107.787 291.145 108.673 290.582C109.565 290.02 110.602 289.739 111.784 289.739C112.966 289.739 114 290.02 114.886 290.582C115.778 291.145 116.472 291.935 116.966 292.952C117.466 293.969 117.716 295.159 117.716 296.523C117.716 297.875 117.466 299.057 116.966 300.068C116.472 301.08 115.778 301.866 114.886 302.429C114 302.991 112.966 303.273 111.784 303.273ZM111.784 301.466C112.682 301.466 113.42 301.236 114 300.776C114.58 300.315 115.009 299.71 115.287 298.96C115.565 298.21 115.705 297.398 115.705 296.523C115.705 295.648 115.565 294.832 115.287 294.077C115.009 293.321 114.58 292.71 114 292.244C113.42 291.778 112.682 291.545 111.784 291.545C110.886 291.545 110.148 291.778 109.568 292.244C108.989 292.71 108.56 293.321 108.281 294.077C108.003 294.832 107.864 295.648 107.864 296.523C107.864 297.398 108.003 298.21 108.281 298.96C108.56 299.71 108.989 300.315 109.568 300.776C110.148 301.236 110.886 301.466 111.784 301.466ZM124.638 303.307C123.809 303.307 123.056 303.151 122.38 302.838C121.704 302.52 121.167 302.062 120.769 301.466C120.371 300.864 120.173 300.136 120.173 299.284C120.173 298.534 120.32 297.926 120.616 297.46C120.911 296.989 121.306 296.619 121.8 296.352C122.295 296.085 122.84 295.886 123.437 295.756C124.039 295.619 124.644 295.511 125.252 295.432C126.048 295.33 126.692 295.253 127.187 295.202C127.687 295.145 128.05 295.051 128.278 294.92C128.511 294.79 128.627 294.562 128.627 294.239V294.17C128.627 293.33 128.397 292.676 127.937 292.21C127.482 291.744 126.792 291.511 125.866 291.511C124.906 291.511 124.153 291.722 123.607 292.142C123.062 292.562 122.678 293.011 122.457 293.489L120.548 292.807C120.888 292.011 121.343 291.392 121.911 290.949C122.485 290.5 123.11 290.187 123.786 290.011C124.468 289.83 125.138 289.739 125.798 289.739C126.218 289.739 126.701 289.79 127.246 289.892C127.798 289.989 128.329 290.19 128.84 290.497C129.357 290.804 129.786 291.267 130.127 291.886C130.468 292.506 130.638 293.335 130.638 294.375V303H128.627V301.227H128.525C128.388 301.511 128.161 301.815 127.843 302.139C127.525 302.463 127.102 302.739 126.573 302.966C126.045 303.193 125.4 303.307 124.638 303.307ZM124.945 301.5C125.741 301.5 126.411 301.344 126.957 301.031C127.508 300.719 127.923 300.315 128.201 299.821C128.485 299.327 128.627 298.807 128.627 298.261V296.42C128.542 296.523 128.354 296.616 128.065 296.702C127.781 296.781 127.451 296.852 127.076 296.915C126.707 296.972 126.346 297.023 125.994 297.068C125.647 297.108 125.366 297.142 125.15 297.17C124.627 297.239 124.138 297.349 123.684 297.503C123.235 297.651 122.871 297.875 122.593 298.176C122.32 298.472 122.184 298.875 122.184 299.386C122.184 300.085 122.442 300.614 122.96 300.972C123.482 301.324 124.144 301.5 124.945 301.5ZM139.628 303.273C138.401 303.273 137.344 302.983 136.457 302.403C135.571 301.824 134.889 301.026 134.412 300.009C133.935 298.991 133.696 297.83 133.696 296.523C133.696 295.193 133.94 294.02 134.429 293.003C134.923 291.98 135.611 291.182 136.491 290.608C137.378 290.028 138.412 289.739 139.594 289.739C140.514 289.739 141.344 289.909 142.082 290.25C142.821 290.591 143.426 291.068 143.898 291.682C144.369 292.295 144.662 293.011 144.776 293.83H142.764C142.611 293.233 142.27 292.705 141.741 292.244C141.219 291.778 140.514 291.545 139.628 291.545C138.844 291.545 138.156 291.75 137.565 292.159C136.98 292.562 136.523 293.134 136.193 293.872C135.869 294.605 135.707 295.466 135.707 296.455C135.707 297.466 135.866 298.347 136.185 299.097C136.509 299.847 136.963 300.429 137.548 300.844C138.139 301.259 138.832 301.466 139.628 301.466C140.151 301.466 140.625 301.375 141.051 301.193C141.477 301.011 141.838 300.75 142.134 300.409C142.429 300.068 142.639 299.659 142.764 299.182H144.776C144.662 299.955 144.381 300.651 143.932 301.27C143.489 301.884 142.901 302.372 142.168 302.736C141.44 303.094 140.594 303.273 139.628 303.273ZM149.727 295.125V303H147.716V285.545H149.727V291.955H149.898C150.205 291.278 150.665 290.741 151.278 290.344C151.898 289.94 152.722 289.739 153.75 289.739C154.642 289.739 155.423 289.918 156.094 290.276C156.764 290.628 157.284 291.17 157.653 291.903C158.028 292.631 158.216 293.557 158.216 294.682V303H156.205V294.818C156.205 293.778 155.935 292.974 155.395 292.406C154.861 291.832 154.119 291.545 153.17 291.545C152.511 291.545 151.92 291.685 151.398 291.963C150.881 292.241 150.472 292.648 150.17 293.182C149.875 293.716 149.727 294.364 149.727 295.125ZM168.646 303V289.909H170.589V291.886H170.725C170.964 291.239 171.396 290.713 172.021 290.31C172.646 289.906 173.35 289.705 174.134 289.705C174.282 289.705 174.467 289.707 174.688 289.713C174.91 289.719 175.077 289.727 175.191 289.739V291.784C175.123 291.767 174.967 291.741 174.722 291.707C174.484 291.668 174.231 291.648 173.964 291.648C173.327 291.648 172.759 291.781 172.259 292.048C171.765 292.31 171.373 292.673 171.083 293.139C170.799 293.599 170.657 294.125 170.657 294.716V303H168.646ZM182.665 303.273C181.404 303.273 180.316 302.994 179.401 302.438C178.492 301.875 177.79 301.091 177.296 300.085C176.808 299.074 176.563 297.898 176.563 296.557C176.563 295.216 176.808 294.034 177.296 293.011C177.79 291.983 178.478 291.182 179.359 290.608C180.245 290.028 181.279 289.739 182.461 289.739C183.143 289.739 183.816 289.852 184.481 290.08C185.146 290.307 185.751 290.676 186.296 291.188C186.842 291.693 187.276 292.364 187.6 293.199C187.924 294.034 188.086 295.062 188.086 296.284V297.136H177.995V295.398H186.04C186.04 294.659 185.893 294 185.597 293.42C185.308 292.841 184.893 292.384 184.353 292.048C183.819 291.713 183.188 291.545 182.461 291.545C181.66 291.545 180.967 291.744 180.381 292.142C179.802 292.534 179.356 293.045 179.043 293.676C178.731 294.307 178.575 294.983 178.575 295.705V296.864C178.575 297.852 178.745 298.69 179.086 299.378C179.433 300.06 179.913 300.58 180.526 300.938C181.14 301.29 181.853 301.466 182.665 301.466C183.194 301.466 183.671 301.392 184.097 301.244C184.529 301.091 184.901 300.864 185.214 300.562C185.526 300.256 185.768 299.875 185.938 299.42L187.881 299.966C187.677 300.625 187.333 301.205 186.85 301.705C186.367 302.199 185.771 302.585 185.06 302.864C184.35 303.136 183.552 303.273 182.665 303.273ZM196.43 308.182C195.458 308.182 194.623 308.057 193.924 307.807C193.225 307.562 192.643 307.239 192.177 306.835C191.717 306.438 191.35 306.011 191.077 305.557L192.68 304.432C192.862 304.67 193.092 304.943 193.37 305.25C193.648 305.562 194.029 305.832 194.512 306.06C195.001 306.293 195.64 306.409 196.43 306.409C197.487 306.409 198.359 306.153 199.046 305.642C199.734 305.131 200.077 304.33 200.077 303.239V300.58H199.907C199.759 300.818 199.549 301.114 199.276 301.466C199.009 301.812 198.623 302.122 198.117 302.395C197.617 302.662 196.941 302.795 196.089 302.795C195.032 302.795 194.083 302.545 193.242 302.045C192.407 301.545 191.745 300.818 191.256 299.864C190.773 298.909 190.532 297.75 190.532 296.386C190.532 295.045 190.768 293.878 191.239 292.884C191.711 291.884 192.367 291.111 193.208 290.565C194.049 290.014 195.021 289.739 196.123 289.739C196.975 289.739 197.651 289.881 198.151 290.165C198.657 290.443 199.043 290.761 199.31 291.119C199.583 291.472 199.793 291.761 199.941 291.989H200.146V289.909H202.089V303.375C202.089 304.5 201.833 305.415 201.322 306.119C200.816 306.83 200.134 307.349 199.276 307.679C198.424 308.014 197.475 308.182 196.43 308.182ZM196.362 300.989C197.168 300.989 197.85 300.804 198.407 300.435C198.964 300.065 199.387 299.534 199.677 298.841C199.967 298.148 200.112 297.318 200.112 296.352C200.112 295.409 199.969 294.577 199.685 293.855C199.401 293.134 198.981 292.568 198.424 292.159C197.867 291.75 197.18 291.545 196.362 291.545C195.509 291.545 194.799 291.761 194.231 292.193C193.668 292.625 193.245 293.205 192.961 293.932C192.683 294.659 192.543 295.466 192.543 296.352C192.543 297.261 192.685 298.065 192.969 298.764C193.259 299.457 193.685 300.003 194.248 300.401C194.816 300.793 195.521 300.989 196.362 300.989ZM205.771 303V289.909H207.782V303H205.771ZM206.793 287.727C206.401 287.727 206.063 287.594 205.779 287.327C205.501 287.06 205.362 286.739 205.362 286.364C205.362 285.989 205.501 285.668 205.779 285.401C206.063 285.134 206.401 285 206.793 285C207.185 285 207.521 285.134 207.799 285.401C208.083 285.668 208.225 285.989 208.225 286.364C208.225 286.739 208.083 287.06 207.799 287.327C207.521 287.594 207.185 287.727 206.793 287.727ZM220.739 292.841L218.932 293.352C218.818 293.051 218.651 292.759 218.429 292.474C218.213 292.185 217.918 291.946 217.543 291.759C217.168 291.571 216.688 291.477 216.102 291.477C215.301 291.477 214.634 291.662 214.099 292.031C213.571 292.395 213.307 292.858 213.307 293.42C213.307 293.92 213.489 294.315 213.852 294.605C214.216 294.895 214.784 295.136 215.557 295.33L217.5 295.807C218.67 296.091 219.543 296.526 220.116 297.111C220.69 297.69 220.977 298.437 220.977 299.352C220.977 300.102 220.761 300.773 220.33 301.364C219.903 301.955 219.307 302.42 218.54 302.761C217.773 303.102 216.881 303.273 215.864 303.273C214.528 303.273 213.423 302.983 212.548 302.403C211.673 301.824 211.119 300.977 210.886 299.864L212.795 299.386C212.977 300.091 213.321 300.619 213.827 300.972C214.338 301.324 215.006 301.5 215.83 301.5C216.767 301.5 217.511 301.301 218.062 300.903C218.619 300.5 218.898 300.017 218.898 299.455C218.898 299 218.739 298.619 218.42 298.312C218.102 298 217.614 297.767 216.955 297.614L214.773 297.102C213.574 296.818 212.693 296.378 212.131 295.781C211.574 295.179 211.295 294.426 211.295 293.523C211.295 292.784 211.503 292.131 211.918 291.562C212.338 290.994 212.909 290.548 213.631 290.224C214.358 289.901 215.182 289.739 216.102 289.739C217.398 289.739 218.415 290.023 219.153 290.591C219.898 291.159 220.426 291.909 220.739 292.841ZM229.698 289.909V291.614H222.914V289.909H229.698ZM224.891 286.773H226.903V299.25C226.903 299.818 226.985 300.244 227.15 300.528C227.32 300.807 227.536 300.994 227.798 301.091C228.065 301.182 228.346 301.227 228.641 301.227C228.863 301.227 229.045 301.216 229.187 301.193C229.329 301.165 229.442 301.142 229.528 301.125L229.937 302.932C229.8 302.983 229.61 303.034 229.366 303.085C229.121 303.142 228.812 303.17 228.437 303.17C227.869 303.17 227.312 303.048 226.766 302.804C226.227 302.56 225.778 302.188 225.42 301.688C225.067 301.188 224.891 300.557 224.891 299.795V286.773ZM238.072 303.273C236.81 303.273 235.722 302.994 234.808 302.438C233.898 301.875 233.197 301.091 232.702 300.085C232.214 299.074 231.969 297.898 231.969 296.557C231.969 295.216 232.214 294.034 232.702 293.011C233.197 291.983 233.884 291.182 234.765 290.608C235.651 290.028 236.685 289.739 237.867 289.739C238.549 289.739 239.222 289.852 239.887 290.08C240.552 290.307 241.157 290.676 241.702 291.188C242.248 291.693 242.683 292.364 243.006 293.199C243.33 294.034 243.492 295.062 243.492 296.284V297.136H233.401V295.398H241.447C241.447 294.659 241.299 294 241.004 293.42C240.714 292.841 240.299 292.384 239.759 292.048C239.225 291.713 238.594 291.545 237.867 291.545C237.066 291.545 236.373 291.744 235.788 292.142C235.208 292.534 234.762 293.045 234.45 293.676C234.137 294.307 233.981 294.983 233.981 295.705V296.864C233.981 297.852 234.151 298.69 234.492 299.378C234.839 300.06 235.319 300.58 235.933 300.938C236.546 301.29 237.259 301.466 238.072 301.466C238.6 301.466 239.077 301.392 239.504 301.244C239.935 301.091 240.308 300.864 240.62 300.562C240.933 300.256 241.174 299.875 241.344 299.42L243.288 299.966C243.083 300.625 242.739 301.205 242.256 301.705C241.773 302.199 241.177 302.585 240.467 302.864C239.756 303.136 238.958 303.273 238.072 303.273ZM246.552 303V289.909H248.495V291.886H248.631C248.87 291.239 249.302 290.713 249.927 290.31C250.552 289.906 251.256 289.705 252.04 289.705C252.188 289.705 252.373 289.707 252.594 289.713C252.816 289.719 252.984 289.727 253.097 289.739V291.784C253.029 291.767 252.873 291.741 252.629 291.707C252.39 291.668 252.137 291.648 251.87 291.648C251.234 291.648 250.665 291.781 250.165 292.048C249.671 292.31 249.279 292.673 248.989 293.139C248.705 293.599 248.563 294.125 248.563 294.716V303H246.552ZM260.572 303.273C259.31 303.273 258.222 302.994 257.308 302.438C256.398 301.875 255.697 301.091 255.202 300.085C254.714 299.074 254.469 297.898 254.469 296.557C254.469 295.216 254.714 294.034 255.202 293.011C255.697 291.983 256.384 291.182 257.265 290.608C258.151 290.028 259.185 289.739 260.367 289.739C261.049 289.739 261.722 289.852 262.387 290.08C263.052 290.307 263.657 290.676 264.202 291.188C264.748 291.693 265.183 292.364 265.506 293.199C265.83 294.034 265.992 295.062 265.992 296.284V297.136H255.901V295.398H263.947C263.947 294.659 263.799 294 263.504 293.42C263.214 292.841 262.799 292.384 262.259 292.048C261.725 291.713 261.094 291.545 260.367 291.545C259.566 291.545 258.873 291.744 258.288 292.142C257.708 292.534 257.262 293.045 256.95 293.676C256.637 294.307 256.481 294.983 256.481 295.705V296.864C256.481 297.852 256.651 298.69 256.992 299.378C257.339 300.06 257.819 300.58 258.433 300.938C259.046 301.29 259.759 301.466 260.572 301.466C261.1 301.466 261.577 301.392 262.004 301.244C262.435 301.091 262.808 300.864 263.12 300.562C263.433 300.256 263.674 299.875 263.844 299.42L265.788 299.966C265.583 300.625 265.239 301.205 264.756 301.705C264.273 302.199 263.677 302.585 262.967 302.864C262.256 303.136 261.458 303.273 260.572 303.273ZM273.995 303.273C272.904 303.273 271.941 302.997 271.106 302.446C270.271 301.889 269.617 301.105 269.146 300.094C268.674 299.077 268.438 297.875 268.438 296.489C268.438 295.114 268.674 293.92 269.146 292.909C269.617 291.898 270.273 291.116 271.114 290.565C271.955 290.014 272.927 289.739 274.029 289.739C274.881 289.739 275.555 289.881 276.049 290.165C276.549 290.443 276.93 290.761 277.191 291.119C277.458 291.472 277.665 291.761 277.813 291.989H277.984V285.545H279.995V303H278.052V300.989H277.813C277.665 301.227 277.455 301.528 277.183 301.892C276.91 302.25 276.521 302.571 276.015 302.855C275.509 303.134 274.836 303.273 273.995 303.273ZM274.268 301.466C275.075 301.466 275.756 301.256 276.313 300.835C276.87 300.409 277.293 299.821 277.583 299.071C277.873 298.315 278.018 297.443 278.018 296.455C278.018 295.477 277.876 294.622 277.592 293.889C277.308 293.151 276.887 292.577 276.33 292.168C275.773 291.753 275.086 291.545 274.268 291.545C273.415 291.545 272.705 291.764 272.137 292.202C271.575 292.634 271.151 293.222 270.867 293.966C270.589 294.705 270.45 295.534 270.45 296.455C270.45 297.386 270.592 298.233 270.876 298.994C271.165 299.75 271.592 300.352 272.154 300.801C272.722 301.244 273.427 301.466 274.268 301.466ZM292.004 307.909C291.663 307.909 291.359 307.881 291.092 307.824C290.825 307.773 290.64 307.722 290.538 307.67L291.049 305.898C291.538 306.023 291.969 306.068 292.344 306.034C292.719 306 293.052 305.832 293.342 305.531C293.637 305.236 293.907 304.756 294.151 304.091L294.526 303.068L289.685 289.909H291.867L295.481 300.341H295.617L299.231 289.909H301.413L295.856 304.909C295.606 305.585 295.296 306.145 294.927 306.588C294.558 307.037 294.129 307.369 293.64 307.585C293.157 307.801 292.612 307.909 292.004 307.909ZM309.087 303.273C307.826 303.273 306.738 302.994 305.823 302.438C304.914 301.875 304.212 301.091 303.718 300.085C303.229 299.074 302.985 297.898 302.985 296.557C302.985 295.216 303.229 294.034 303.718 293.011C304.212 291.983 304.9 291.182 305.781 290.608C306.667 290.028 307.701 289.739 308.883 289.739C309.565 289.739 310.238 289.852 310.903 290.08C311.567 290.307 312.173 290.676 312.718 291.188C313.263 291.693 313.698 292.364 314.022 293.199C314.346 294.034 314.508 295.062 314.508 296.284V297.136H304.417V295.398H312.462C312.462 294.659 312.315 294 312.019 293.42C311.729 292.841 311.315 292.384 310.775 292.048C310.241 291.713 309.61 291.545 308.883 291.545C308.082 291.545 307.388 291.744 306.803 292.142C306.224 292.534 305.778 293.045 305.465 293.676C305.153 294.307 304.996 294.983 304.996 295.705V296.864C304.996 297.852 305.167 298.69 305.508 299.378C305.854 300.06 306.335 300.58 306.948 300.938C307.562 301.29 308.275 301.466 309.087 301.466C309.616 301.466 310.093 301.392 310.519 301.244C310.951 301.091 311.323 300.864 311.636 300.562C311.948 300.256 312.19 299.875 312.36 299.42L314.303 299.966C314.099 300.625 313.755 301.205 313.272 301.705C312.789 302.199 312.192 302.585 311.482 302.864C310.772 303.136 309.974 303.273 309.087 303.273ZM323.261 289.909V291.614H316.477V289.909H323.261ZM318.454 286.773H320.465V299.25C320.465 299.818 320.548 300.244 320.712 300.528C320.883 300.807 321.099 300.994 321.36 301.091C321.627 301.182 321.908 301.227 322.204 301.227C322.425 301.227 322.607 301.216 322.749 301.193C322.891 301.165 323.005 301.142 323.09 301.125L323.499 302.932C323.363 302.983 323.173 303.034 322.928 303.085C322.684 303.142 322.374 303.17 321.999 303.17C321.431 303.17 320.874 303.048 320.329 302.804C319.789 302.56 319.34 302.188 318.982 301.688C318.63 301.188 318.454 300.557 318.454 299.795V286.773ZM328.945 285.545L328.775 298.091H326.798L326.627 285.545H328.945ZM327.786 303.136C327.366 303.136 327.005 302.986 326.704 302.685C326.403 302.384 326.252 302.023 326.252 301.602C326.252 301.182 326.403 300.821 326.704 300.52C327.005 300.219 327.366 300.068 327.786 300.068C328.207 300.068 328.567 300.219 328.869 300.52C329.17 300.821 329.32 301.182 329.32 301.602C329.32 301.881 329.249 302.136 329.107 302.369C328.971 302.602 328.786 302.79 328.553 302.932C328.326 303.068 328.07 303.136 327.786 303.136Z" fill="#7B849A"/>
<defs>
<radialGradient id="paint0_radial_7189_10180" cx="0" cy="0" r="1" gradientUnits="userSpaceOnUse" gradientTransform="translate(148.1 192.814) rotate(-90) scale(46.2063 482.578)">
<stop stop-color="#EBEDF0" stop-opacity="0.24"/>
<stop offset="0.536775" stop-color="#EBEDF0" stop-opacity="0.845525"/>
<stop offset="1" stop-color="#E0E4E7" stop-opacity="0.01"/>
</radialGradient>
<linearGradient id="paint1_linear_7189_10180" x1="133.115" y1="200.344" x2="135.277" y2="204.968" gradientUnits="userSpaceOnUse">
<stop stop-color="#E1E7EA"/>
<stop offset="1" stop-color="#D0D6DC"/>
</linearGradient>
<linearGradient id="paint2_linear_7189_10180" x1="201.861" y1="194.797" x2="205.817" y2="203.049" gradientUnits="userSpaceOnUse">
<stop stop-color="#E1E7EA"/>
<stop offset="1" stop-color="#D0D6DC"/>
</linearGradient>
<linearGradient id="paint3_linear_7189_10180" x1="76.6932" y1="179.071" x2="78.9319" y2="187.99" gradientUnits="userSpaceOnUse">
<stop stop-color="#FBFBFB"/>
<stop offset="1" stop-color="#D9DFE3"/>
</linearGradient>
<linearGradient id="paint4_linear_7189_10180" x1="230.079" y1="52.5639" x2="233.863" y2="65.6501" gradientUnits="userSpaceOnUse">
<stop stop-color="#ECECEC"/>
<stop offset="0.717538" stop-color="#E1E7EA"/>
<stop offset="1" stop-color="#BCC3CA"/>
</linearGradient>
<linearGradient id="paint5_linear_7189_10180" x1="235.37" y1="57.9402" x2="251.42" y2="63.782" gradientUnits="userSpaceOnUse">
<stop stop-color="#BAC6D2"/>
<stop offset="1" stop-color="#7F8F9F"/>
</linearGradient>
<linearGradient id="paint6_linear_7189_10180" x1="237.636" y1="57.1243" x2="240.112" y2="62.125" gradientUnits="userSpaceOnUse">
<stop stop-color="#E1E7EA"/>
<stop offset="1" stop-color="#D0D6DC"/>
</linearGradient>
<linearGradient id="paint7_linear_7189_10180" x1="85.7007" y1="105.046" x2="76.8866" y2="90.1611" gradientUnits="userSpaceOnUse">
<stop stop-color="#DAE2E6"/>
<stop offset="0.58" stop-color="#E3EBEF"/>
<stop offset="1" stop-color="#EDF6F9"/>
</linearGradient>
<linearGradient id="paint8_linear_7189_10180" x1="149.758" y1="178.576" x2="164.632" y2="201.714" gradientUnits="userSpaceOnUse">
<stop stop-color="#C4CDD1"/>
<stop offset="1" stop-color="#C6CFD3" stop-opacity="0.01"/>
</linearGradient>
<linearGradient id="paint9_linear_7189_10180" x1="157.039" y1="178.924" x2="157.039" y2="167.396" gradientUnits="userSpaceOnUse">
<stop stop-color="#7A87AF"/>
<stop offset="1" stop-color="#444F77"/>
</linearGradient>
<linearGradient id="paint10_linear_7189_10180" x1="174.961" y1="178.924" x2="174.961" y2="167.396" gradientUnits="userSpaceOnUse">
<stop stop-color="#7A87AF"/>
<stop offset="1" stop-color="#444F77"/>
</linearGradient>
<linearGradient id="paint11_linear_7189_10180" x1="180.057" y1="179.646" x2="180.057" y2="161.342" gradientUnits="userSpaceOnUse">
<stop stop-color="#7A87AF"/>
<stop offset="1" stop-color="#444F77"/>
</linearGradient>
<linearGradient id="paint12_linear_7189_10180" x1="189.05" y1="154.905" x2="165.453" y2="180.198" gradientUnits="userSpaceOnUse">
<stop stop-color="#E5E9F0"/>
<stop offset="1" stop-color="#D2DAE8"/>
</linearGradient>
</defs>
</svg>
