<svg width="366" height="230" viewBox="0 0 366 230" fill="none" xmlns="http://www.w3.org/2000/svg">
<path d="M265.447 0H105.873C98.5288 0 92.5752 5.95367 92.5752 13.2979V172.873C92.5752 180.217 98.5288 186.171 105.873 186.171H265.447C272.791 186.171 278.745 180.217 278.745 172.873V13.2979C278.745 5.95367 272.791 0 265.447 0Z" fill="#E1E3E7"/>
<g filter="url(#filter0_d_7189_12704)">
<path d="M244.172 13.2949H64.6509C60.9788 13.2949 58.002 16.2718 58.002 19.9439V53.1886C58.002 56.8607 60.9788 59.8376 64.6509 59.8376H244.172C247.844 59.8376 250.821 56.8607 250.821 53.1886V19.9439C250.821 16.2718 247.844 13.2949 244.172 13.2949Z" fill="white"/>
</g>
<path d="M149.755 23.9336H115.181C112.978 23.9336 111.192 25.7197 111.192 27.923C111.192 30.1262 112.978 31.9123 115.181 31.9123H149.755C151.959 31.9123 153.745 30.1262 153.745 27.923C153.745 25.7197 151.959 23.9336 149.755 23.9336Z" fill="#38B89A"/>
<path d="M173.691 41.2207H115.181C112.978 41.2207 111.192 43.0068 111.192 45.2101C111.192 47.4133 112.978 49.1994 115.181 49.1994H173.691C175.895 49.1994 177.681 47.4133 177.681 45.2101C177.681 43.0068 175.895 41.2207 173.691 41.2207Z" fill="#38B89A" fill-opacity="0.19"/>
<path d="M93.9053 17.2871H68.6394C64.9673 17.2871 61.9905 20.2639 61.9905 23.9361V49.2021C61.9905 52.8742 64.9673 55.851 68.6394 55.851H93.9053C97.5774 55.851 100.554 52.8742 100.554 49.2021V23.9361C100.554 20.2639 97.5774 17.2871 93.9053 17.2871Z" fill="#38B89A"/>
<path d="M78.2418 40.9318H80.9014L80.9307 39.9079C80.9307 38.5621 81.7791 38.2111 82.9785 37.8307C84.1817 37.4885 85.2408 36.7638 85.9956 35.7662C86.7503 34.7686 87.1598 33.5524 87.162 32.3015C87.1884 31.5377 87.0559 30.7768 86.7729 30.0669C86.49 29.357 86.0627 28.7135 85.5183 28.1773C84.9738 27.6411 84.3239 27.2237 83.6097 26.9516C82.8956 26.6795 82.1328 26.5587 81.3695 26.5967C80.5629 26.5791 79.7611 26.7255 79.0127 27.0271C78.2644 27.3287 77.5851 27.7792 77.0161 28.3512C76.4471 28.9232 76.0002 29.6048 75.7025 30.3547C75.4048 31.1046 75.2626 31.9072 75.2844 32.7137H78.0344C78.024 32.2684 78.1025 31.8255 78.2654 31.4109C78.4284 30.9963 78.6724 30.6184 78.9833 30.2994C79.2942 29.9804 79.6656 29.7266 80.0758 29.5529C80.486 29.3793 80.9267 29.2893 81.3722 29.2882C81.7738 29.2649 82.1759 29.3283 82.5508 29.4742C82.9258 29.6201 83.265 29.8451 83.5453 30.1337C83.8257 30.4224 84.0406 30.768 84.1754 31.1471C84.3103 31.5262 84.362 31.9299 84.3269 32.3307C84.3092 32.9795 84.0836 33.6055 83.6833 34.1164C83.283 34.6273 82.7292 34.9961 82.1035 35.1685L81.1381 35.5515C80.1929 35.7792 79.3677 36.3536 78.8259 37.1609C78.2841 37.9682 78.0652 38.9495 78.2126 39.9105L78.2418 40.9318ZM79.5583 47.2536C79.8188 47.2629 80.0784 47.2198 80.3219 47.127C80.5654 47.0342 80.7878 46.8935 80.976 46.7132C81.1642 46.533 81.3143 46.3168 81.4176 46.0775C81.5208 45.8383 81.575 45.5807 81.5769 45.3201C81.5746 45.0598 81.5202 44.8025 81.4168 44.5635C81.3134 44.3246 81.1632 44.1087 80.9751 43.9287C80.7869 43.7488 80.5646 43.6083 80.3213 43.5156C80.078 43.423 79.8185 43.38 79.5583 43.3893C79.2981 43.38 79.0387 43.423 78.7954 43.5156C78.552 43.6083 78.3297 43.7488 78.1416 43.9287C77.9534 44.1087 77.8032 44.3246 77.6999 44.5635C77.5965 44.8025 77.542 45.0598 77.5397 45.3201C77.5417 45.5807 77.5959 45.8383 77.6991 46.0775C77.8023 46.3168 77.9524 46.533 78.1406 46.7132C78.3288 46.8935 78.5513 47.0342 78.7948 47.127C79.0383 47.2198 79.2979 47.2629 79.5583 47.2536Z" fill="white"/>
<g filter="url(#filter1_d_7189_12704)">
<path d="M121.83 70.4785H301.351C303.114 70.4785 304.805 71.179 306.052 72.4259C307.299 73.6729 308 75.3641 308 77.1275V110.372C308 112.136 307.299 113.827 306.052 115.074C304.805 116.321 303.114 117.021 301.351 117.021H121.83C120.067 117.021 118.375 116.321 117.129 115.074C115.882 113.827 115.181 112.136 115.181 110.372V77.1275C115.181 75.3641 115.882 73.6729 117.129 72.4259C118.375 71.179 120.067 70.4785 121.83 70.4785V70.4785Z" fill="white"/>
</g>
<path d="M206.935 81.1191H172.361C170.157 81.1191 168.371 82.9052 168.371 85.1085C168.371 87.3118 170.157 89.0979 172.361 89.0979H206.935C209.138 89.0979 210.924 87.3118 210.924 85.1085C210.924 82.9052 209.138 81.1191 206.935 81.1191Z" fill="#38B89A"/>
<path d="M230.871 98.4043H172.36C170.157 98.4043 168.371 100.19 168.371 102.394C168.371 104.597 170.157 106.383 172.36 106.383H230.871C233.074 106.383 234.86 104.597 234.86 102.394C234.86 100.19 233.074 98.4043 230.871 98.4043Z" fill="#38B89A" fill-opacity="0.19"/>
<path d="M151.087 74.4688H125.821C122.149 74.4688 119.172 77.4456 119.172 81.1177V106.384C119.172 110.056 122.149 113.033 125.821 113.033H151.087C154.759 113.033 157.736 110.056 157.736 106.384V81.1177C157.736 77.4456 154.759 74.4688 151.087 74.4688Z" fill="#D9F2EC"/>
<path d="M135.423 98.1135H138.083L138.112 97.0895C138.112 95.7438 138.961 95.3927 140.16 95.0124C141.363 94.6701 142.422 93.9454 143.177 92.9478C143.932 91.9503 144.341 90.7341 144.344 89.4831C144.37 88.7194 144.238 87.9584 143.955 87.2485C143.672 86.5386 143.244 85.8952 142.7 85.3589C142.155 84.8227 141.506 84.4053 140.791 84.1333C140.077 83.8612 139.314 83.7403 138.551 83.7783C137.745 83.7607 136.943 83.9072 136.194 84.2088C135.446 84.5104 134.767 84.9608 134.198 85.5328C133.629 86.1048 133.182 86.7865 132.884 87.5364C132.586 88.2863 132.444 89.0888 132.466 89.8953H135.216C135.206 89.45 135.284 89.0071 135.447 88.5925C135.61 88.178 135.854 87.8001 136.165 87.481C136.476 87.162 136.847 86.9082 137.257 86.7346C137.668 86.5609 138.108 86.4709 138.554 86.4698C138.955 86.4465 139.357 86.51 139.732 86.6559C140.107 86.8018 140.447 87.0267 140.727 87.3154C141.007 87.604 141.222 87.9496 141.357 88.3287C141.492 88.7078 141.544 89.1115 141.509 89.5124C141.491 90.1612 141.265 90.7871 140.865 91.298C140.465 91.8089 139.911 92.1777 139.285 92.3501L138.32 92.7331C137.375 92.9609 136.549 93.5353 136.008 94.3425C135.466 95.1498 135.247 96.1312 135.394 97.0922L135.423 98.1135ZM136.74 104.435C137 104.445 137.26 104.401 137.504 104.309C137.747 104.216 137.969 104.075 138.158 103.895C138.346 103.715 138.496 103.498 138.599 103.259C138.702 103.02 138.757 102.762 138.759 102.502C138.756 102.241 138.702 101.984 138.598 101.745C138.495 101.506 138.345 101.29 138.157 101.11C137.969 100.93 137.746 100.79 137.503 100.697C137.26 100.605 137 100.562 136.74 100.571C136.48 100.562 136.22 100.605 135.977 100.697C135.734 100.79 135.511 100.93 135.323 101.11C135.135 101.29 134.985 101.506 134.882 101.745C134.778 101.984 134.724 102.241 134.721 102.502C134.723 102.762 134.778 103.02 134.881 103.259C134.984 103.498 135.134 103.715 135.322 103.895C135.51 104.075 135.733 104.216 135.976 104.309C136.22 104.401 136.48 104.445 136.74 104.435Z" fill="white"/>
<g filter="url(#filter2_d_7189_12704)">
<path d="M64.6492 127.656H244.17C245.933 127.656 247.624 128.357 248.871 129.604C250.118 130.851 250.819 132.542 250.819 134.305V167.55C250.819 169.313 250.118 171.005 248.871 172.251C247.624 173.498 245.933 174.199 244.17 174.199H64.6492C62.8858 174.199 61.1946 173.498 59.9477 172.251C58.7008 171.005 58.0002 169.313 58.0002 167.55V134.305C58.0002 132.542 58.7008 130.851 59.9477 129.604C61.1946 128.357 62.8858 127.656 64.6492 127.656V127.656Z" fill="white"/>
</g>
<path d="M149.755 138.299H115.18C112.977 138.299 111.191 140.085 111.191 142.288C111.191 144.491 112.977 146.278 115.18 146.278H149.755C151.958 146.278 153.744 144.491 153.744 142.288C153.744 140.085 151.958 138.299 149.755 138.299Z" fill="#38B89A"/>
<path d="M173.691 155.584H115.18C112.977 155.584 111.191 157.37 111.191 159.573C111.191 161.777 112.977 163.563 115.18 163.563H173.691C175.894 163.563 177.68 161.777 177.68 159.573C177.68 157.37 175.894 155.584 173.691 155.584Z" fill="#38B89A" fill-opacity="0.19"/>
<path d="M93.905 131.648H68.6392C64.9671 131.648 61.9902 134.625 61.9902 138.297V163.563C61.9902 167.236 64.9671 170.212 68.6392 170.212H93.905C97.5771 170.212 100.554 167.236 100.554 163.563V138.297C100.554 134.625 97.5771 131.648 93.905 131.648Z" fill="#D9F2EC"/>
<path d="M78.2414 155.293H80.9009L80.9302 154.269C80.9302 152.923 81.7786 152.572 82.978 152.192C84.1812 151.85 85.2403 151.125 85.9951 150.128C86.7498 149.13 87.1593 147.914 87.1615 146.663C87.1879 145.899 87.0554 145.138 86.7724 144.428C86.4895 143.718 86.0623 143.075 85.5178 142.539C84.9733 142.002 84.3234 141.585 83.6093 141.313C82.8951 141.041 82.1323 140.92 81.369 140.958C80.5624 140.94 79.7606 141.087 79.0122 141.388C78.2639 141.69 77.5846 142.141 77.0156 142.713C76.4466 143.285 75.9997 143.966 75.702 144.716C75.4044 145.466 75.2621 146.269 75.2839 147.075H78.0339C78.0235 146.63 78.102 146.187 78.265 145.772C78.4279 145.358 78.6719 144.98 78.9828 144.661C79.2937 144.342 79.6651 144.088 80.0753 143.914C80.4855 143.741 80.9262 143.651 81.3717 143.649C81.7734 143.626 82.1754 143.69 82.5503 143.836C82.9253 143.981 83.2645 144.206 83.5448 144.495C83.8252 144.784 84.0401 145.129 84.1749 145.508C84.3098 145.888 84.3615 146.291 84.3264 146.692C84.3087 147.341 84.0831 147.967 83.6828 148.478C83.2825 148.989 82.7288 149.357 82.103 149.53L81.1376 149.913C80.1924 150.141 79.3672 150.715 78.8254 151.522C78.2836 152.33 78.0647 153.311 78.2121 154.272L78.2414 155.293ZM79.5578 161.615C79.8183 161.624 80.0779 161.581 80.3214 161.488C80.5649 161.396 80.7873 161.255 80.9755 161.075C81.1637 160.894 81.3139 160.678 81.4171 160.439C81.5203 160.2 81.5745 159.942 81.5764 159.681C81.5741 159.421 81.5197 159.164 81.4163 158.925C81.3129 158.686 81.1627 158.47 80.9746 158.29C80.7864 158.11 80.5641 157.97 80.3208 157.877C80.0775 157.784 79.818 157.741 79.5578 157.751C79.2976 157.741 79.0382 157.784 78.7949 157.877C78.5516 157.97 78.3293 158.11 78.1411 158.29C77.9529 158.47 77.8027 158.686 77.6994 158.925C77.596 159.164 77.5415 159.421 77.5392 159.681C77.5412 159.942 77.5954 160.2 77.6986 160.439C77.8018 160.678 77.952 160.894 78.1402 161.075C78.3283 161.255 78.5508 161.396 78.7943 161.488C79.0378 161.581 79.2974 161.624 79.5578 161.615Z" fill="white"/>
<path d="M15.9545 206.715V224.17H13.9091L4.39773 210.465H4.22727V224.17H2.11364V206.715H4.15909L13.7045 220.454H13.875V206.715H15.9545ZM25.2294 224.443C24.0476 224.443 23.0107 224.161 22.1186 223.599C21.2322 223.036 20.5391 222.249 20.0391 221.238C19.5447 220.227 19.2976 219.045 19.2976 217.693C19.2976 216.329 19.5447 215.139 20.0391 214.122C20.5391 213.105 21.2322 212.315 22.1186 211.752C23.0107 211.19 24.0476 210.909 25.2294 210.909C26.4112 210.909 27.4453 211.19 28.3317 211.752C29.2237 212.315 29.9169 213.105 30.4112 214.122C30.9112 215.139 31.1612 216.329 31.1612 217.693C31.1612 219.045 30.9112 220.227 30.4112 221.238C29.9169 222.249 29.2237 223.036 28.3317 223.599C27.4453 224.161 26.4112 224.443 25.2294 224.443ZM25.2294 222.636C26.1271 222.636 26.8658 222.406 27.4453 221.945C28.0249 221.485 28.4538 220.88 28.7322 220.13C29.0107 219.38 29.1499 218.568 29.1499 217.693C29.1499 216.818 29.0107 216.002 28.7322 215.247C28.4538 214.491 28.0249 213.88 27.4453 213.414C26.8658 212.948 26.1271 212.715 25.2294 212.715C24.3317 212.715 23.593 212.948 23.0135 213.414C22.4339 213.88 22.005 214.491 21.7266 215.247C21.4482 216.002 21.3089 216.818 21.3089 217.693C21.3089 218.568 21.4482 219.38 21.7266 220.13C22.005 220.88 22.4339 221.485 23.0135 221.945C23.593 222.406 24.3317 222.636 25.2294 222.636ZM50.7997 211.079C50.6974 210.215 50.2827 209.545 49.5554 209.068C48.8281 208.59 47.9361 208.352 46.8793 208.352C46.1065 208.352 45.4304 208.477 44.8509 208.727C44.277 208.977 43.8281 209.32 43.5043 209.758C43.1861 210.195 43.027 210.693 43.027 211.249C43.027 211.715 43.1378 212.116 43.3594 212.451C43.5866 212.781 43.8764 213.056 44.2287 213.278C44.581 213.494 44.9503 213.673 45.3366 213.815C45.723 213.951 46.0781 214.062 46.402 214.147L48.1747 214.624C48.6293 214.744 49.1349 214.909 49.6918 215.119C50.2543 215.329 50.7912 215.616 51.3026 215.98C51.8196 216.338 52.2457 216.798 52.581 217.36C52.9162 217.923 53.0838 218.613 53.0838 219.431C53.0838 220.374 52.8366 221.227 52.3423 221.988C51.8537 222.749 51.1378 223.355 50.1946 223.803C49.2571 224.252 48.1179 224.477 46.777 224.477C45.527 224.477 44.4446 224.275 43.5298 223.872C42.6207 223.468 41.9048 222.906 41.3821 222.184C40.8651 221.463 40.5724 220.624 40.5043 219.67H42.6861C42.7429 220.329 42.9645 220.874 43.3509 221.306C43.7429 221.732 44.2372 222.051 44.8338 222.261C45.4361 222.465 46.0838 222.568 46.777 222.568C47.5838 222.568 48.3082 222.437 48.9503 222.176C49.5923 221.909 50.1009 221.539 50.4759 221.068C50.8509 220.59 51.0384 220.034 51.0384 219.397C51.0384 218.818 50.8764 218.346 50.5526 217.982C50.2287 217.619 49.8026 217.323 49.2741 217.096C48.7457 216.869 48.1747 216.67 47.5611 216.499L45.4134 215.886C44.0497 215.494 42.9702 214.934 42.1747 214.207C41.3793 213.48 40.9815 212.528 40.9815 211.352C40.9815 210.374 41.2457 209.522 41.7741 208.795C42.3082 208.062 43.0241 207.494 43.9219 207.09C44.8253 206.681 45.8338 206.477 46.9474 206.477C48.0724 206.477 49.0724 206.678 49.9474 207.082C50.8224 207.48 51.5156 208.025 52.027 208.718C52.544 209.411 52.8168 210.198 52.8452 211.079H50.7997ZM61.6044 224.443C60.3771 224.443 59.3203 224.153 58.4339 223.573C57.5476 222.994 56.8658 222.195 56.3885 221.178C55.9112 220.161 55.6726 218.999 55.6726 217.693C55.6726 216.363 55.9169 215.19 56.4055 214.173C56.8999 213.15 57.5874 212.352 58.468 211.778C59.3544 211.198 60.3885 210.909 61.5703 210.909C62.4908 210.909 63.3203 211.079 64.0589 211.42C64.7976 211.761 65.4027 212.238 65.8743 212.852C66.3459 213.465 66.6385 214.181 66.7521 214.999H64.7408C64.5874 214.403 64.2464 213.874 63.718 213.414C63.1953 212.948 62.4908 212.715 61.6044 212.715C60.8203 212.715 60.1328 212.92 59.5419 213.329C58.9567 213.732 58.4993 214.303 58.1697 215.042C57.8459 215.775 57.6839 216.636 57.6839 217.624C57.6839 218.636 57.843 219.517 58.1612 220.267C58.4851 221.017 58.9396 221.599 59.5249 222.014C60.1158 222.428 60.8089 222.636 61.6044 222.636C62.1271 222.636 62.6016 222.545 63.0277 222.363C63.4538 222.181 63.8146 221.92 64.1101 221.579C64.4055 221.238 64.6158 220.829 64.7408 220.352H66.7521C66.6385 221.124 66.3572 221.82 65.9084 222.44C65.4652 223.053 64.8771 223.542 64.1442 223.906C63.4169 224.264 62.5703 224.443 61.6044 224.443ZM71.7038 216.295V224.17H69.6925V206.715H71.7038V213.124H71.8743C72.1811 212.448 72.6413 211.911 73.255 211.514C73.8743 211.11 74.6982 210.909 75.7266 210.909C76.6186 210.909 77.3999 211.088 78.0703 211.445C78.7408 211.798 79.2607 212.34 79.63 213.073C80.005 213.801 80.1925 214.727 80.1925 215.852V224.17H78.1811V215.988C78.1811 214.948 77.9112 214.144 77.3714 213.576C76.8374 213.002 76.0959 212.715 75.147 212.715C74.4879 212.715 73.897 212.855 73.3743 213.133C72.8572 213.411 72.4482 213.818 72.147 214.352C71.8516 214.886 71.7038 215.534 71.7038 216.295ZM89.1903 224.443C88.0085 224.443 86.9716 224.161 86.0795 223.599C85.1932 223.036 84.5 222.249 84 221.238C83.5057 220.227 83.2585 219.045 83.2585 217.693C83.2585 216.329 83.5057 215.139 84 214.122C84.5 213.105 85.1932 212.315 86.0795 211.752C86.9716 211.19 88.0085 210.909 89.1903 210.909C90.3722 210.909 91.4063 211.19 92.2926 211.752C93.1847 212.315 93.8778 213.105 94.3722 214.122C94.8722 215.139 95.1222 216.329 95.1222 217.693C95.1222 219.045 94.8722 220.227 94.3722 221.238C93.8778 222.249 93.1847 223.036 92.2926 223.599C91.4063 224.161 90.3722 224.443 89.1903 224.443ZM89.1903 222.636C90.0881 222.636 90.8267 222.406 91.4062 221.945C91.9858 221.485 92.4148 220.88 92.6932 220.13C92.9716 219.38 93.1108 218.568 93.1108 217.693C93.1108 216.818 92.9716 216.002 92.6932 215.247C92.4148 214.491 91.9858 213.88 91.4062 213.414C90.8267 212.948 90.0881 212.715 89.1903 212.715C88.2926 212.715 87.554 212.948 86.9744 213.414C86.3949 213.88 85.9659 214.491 85.6875 215.247C85.4091 216.002 85.2699 216.818 85.2699 217.693C85.2699 218.568 85.4091 219.38 85.6875 220.13C85.9659 220.88 86.3949 221.485 86.9744 221.945C87.554 222.406 88.2926 222.636 89.1903 222.636ZM100.204 206.715V224.17H98.1925V206.715H100.204ZM107.74 224.477C106.911 224.477 106.158 224.32 105.482 224.008C104.805 223.69 104.268 223.232 103.871 222.636C103.473 222.034 103.274 221.306 103.274 220.454C103.274 219.704 103.422 219.096 103.717 218.63C104.013 218.159 104.408 217.789 104.902 217.522C105.396 217.255 105.942 217.056 106.538 216.926C107.141 216.789 107.746 216.681 108.354 216.602C109.149 216.499 109.794 216.423 110.288 216.372C110.788 216.315 111.152 216.221 111.379 216.09C111.612 215.96 111.729 215.732 111.729 215.409V215.34C111.729 214.499 111.499 213.846 111.038 213.38C110.584 212.914 109.893 212.681 108.967 212.681C108.007 212.681 107.254 212.892 106.709 213.312C106.163 213.732 105.78 214.181 105.558 214.659L103.649 213.977C103.99 213.181 104.445 212.562 105.013 212.119C105.587 211.67 106.212 211.357 106.888 211.181C107.57 210.999 108.24 210.909 108.899 210.909C109.32 210.909 109.803 210.96 110.348 211.062C110.899 211.159 111.43 211.36 111.942 211.667C112.459 211.974 112.888 212.437 113.229 213.056C113.57 213.676 113.74 214.505 113.74 215.545V224.17H111.729V222.397H111.626C111.49 222.681 111.263 222.985 110.945 223.309C110.626 223.633 110.203 223.909 109.675 224.136C109.146 224.363 108.501 224.477 107.74 224.477ZM108.047 222.67C108.842 222.67 109.513 222.514 110.058 222.201C110.609 221.889 111.024 221.485 111.303 220.991C111.587 220.497 111.729 219.977 111.729 219.431V217.59C111.643 217.693 111.456 217.786 111.166 217.872C110.882 217.951 110.553 218.022 110.178 218.085C109.808 218.142 109.447 218.193 109.095 218.238C108.749 218.278 108.467 218.312 108.251 218.34C107.729 218.409 107.24 218.519 106.786 218.673C106.337 218.82 105.973 219.045 105.695 219.346C105.422 219.642 105.286 220.045 105.286 220.556C105.286 221.255 105.544 221.784 106.061 222.142C106.584 222.494 107.246 222.67 108.047 222.67ZM117.411 224.17V211.079H119.354V213.056H119.491C119.729 212.409 120.161 211.883 120.786 211.48C121.411 211.076 122.116 210.874 122.9 210.874C123.048 210.874 123.232 210.877 123.454 210.883C123.675 210.889 123.843 210.897 123.957 210.909V212.954C123.888 212.937 123.732 212.911 123.488 212.877C123.249 212.838 122.996 212.818 122.729 212.818C122.093 212.818 121.525 212.951 121.025 213.218C120.531 213.48 120.138 213.843 119.849 214.309C119.565 214.769 119.423 215.295 119.423 215.886V224.17H117.411ZM131.691 205.897L126.066 226.795H124.225L129.85 205.897H131.691ZM134.348 224.17V206.715H136.462V222.295H144.575V224.17H134.348ZM147.575 224.17V211.079H149.587V224.17H147.575ZM148.598 208.897C148.206 208.897 147.868 208.764 147.584 208.497C147.305 208.23 147.166 207.909 147.166 207.534C147.166 207.159 147.305 206.838 147.584 206.57C147.868 206.303 148.206 206.17 148.598 206.17C148.99 206.17 149.325 206.303 149.604 206.57C149.888 206.838 150.03 207.159 150.03 207.534C150.03 207.909 149.888 208.23 149.604 208.497C149.325 208.764 148.99 208.897 148.598 208.897ZM159.1 211.079V212.784H152.043V211.079H159.1ZM154.157 224.17V209.272C154.157 208.522 154.333 207.897 154.685 207.397C155.038 206.897 155.495 206.522 156.058 206.272C156.62 206.022 157.214 205.897 157.839 205.897C158.333 205.897 158.737 205.937 159.049 206.017C159.362 206.096 159.594 206.17 159.748 206.238L159.168 207.977C159.066 207.943 158.924 207.9 158.742 207.849C158.566 207.798 158.333 207.772 158.043 207.772C157.379 207.772 156.898 207.94 156.603 208.275C156.313 208.61 156.168 209.102 156.168 209.749V224.17H154.157ZM166.869 224.443C165.607 224.443 164.519 224.164 163.604 223.607C162.695 223.045 161.994 222.261 161.499 221.255C161.011 220.244 160.766 219.068 160.766 217.727C160.766 216.386 161.011 215.204 161.499 214.181C161.994 213.153 162.681 212.352 163.562 211.778C164.448 211.198 165.482 210.909 166.664 210.909C167.346 210.909 168.019 211.022 168.684 211.249C169.349 211.477 169.954 211.846 170.499 212.357C171.045 212.863 171.479 213.534 171.803 214.369C172.127 215.204 172.289 216.232 172.289 217.454V218.306H162.198V216.568H170.244C170.244 215.829 170.096 215.17 169.8 214.59C169.511 214.011 169.096 213.553 168.556 213.218C168.022 212.883 167.391 212.715 166.664 212.715C165.863 212.715 165.17 212.914 164.585 213.312C164.005 213.704 163.559 214.215 163.246 214.846C162.934 215.477 162.778 216.153 162.778 216.874V218.034C162.778 219.022 162.948 219.86 163.289 220.548C163.636 221.23 164.116 221.749 164.729 222.107C165.343 222.46 166.056 222.636 166.869 222.636C167.397 222.636 167.874 222.562 168.3 222.414C168.732 222.261 169.104 222.034 169.417 221.732C169.729 221.426 169.971 221.045 170.141 220.59L172.085 221.136C171.88 221.795 171.536 222.374 171.053 222.874C170.57 223.369 169.974 223.755 169.263 224.034C168.553 224.306 167.755 224.443 166.869 224.443ZM196.417 212.17H194.303C194.178 211.562 193.96 211.028 193.647 210.568C193.34 210.107 192.965 209.721 192.522 209.409C192.085 209.09 191.599 208.852 191.065 208.693C190.531 208.534 189.974 208.454 189.394 208.454C188.337 208.454 187.38 208.721 186.522 209.255C185.67 209.789 184.991 210.576 184.485 211.616C183.985 212.656 183.735 213.931 183.735 215.443C183.735 216.954 183.985 218.23 184.485 219.269C184.991 220.309 185.67 221.096 186.522 221.63C187.38 222.164 188.337 222.431 189.394 222.431C189.974 222.431 190.531 222.352 191.065 222.193C191.599 222.034 192.085 221.798 192.522 221.485C192.965 221.167 193.34 220.778 193.647 220.318C193.96 219.852 194.178 219.318 194.303 218.715H196.417C196.258 219.607 195.968 220.406 195.548 221.11C195.127 221.815 194.604 222.414 193.979 222.909C193.354 223.397 192.653 223.769 191.874 224.025C191.102 224.281 190.275 224.409 189.394 224.409C187.906 224.409 186.582 224.045 185.423 223.318C184.263 222.59 183.352 221.556 182.687 220.215C182.022 218.874 181.69 217.284 181.69 215.443C181.69 213.602 182.022 212.011 182.687 210.67C183.352 209.329 184.263 208.295 185.423 207.568C186.582 206.84 187.906 206.477 189.394 206.477C190.275 206.477 191.102 206.605 191.874 206.86C192.653 207.116 193.354 207.491 193.979 207.985C194.604 208.474 195.127 209.07 195.548 209.775C195.968 210.474 196.258 211.272 196.417 212.17ZM204.878 224.443C203.696 224.443 202.659 224.161 201.767 223.599C200.881 223.036 200.188 222.249 199.688 221.238C199.193 220.227 198.946 219.045 198.946 217.693C198.946 216.329 199.193 215.139 199.688 214.122C200.188 213.105 200.881 212.315 201.767 211.752C202.659 211.19 203.696 210.909 204.878 210.909C206.06 210.909 207.094 211.19 207.98 211.752C208.872 212.315 209.565 213.105 210.06 214.122C210.56 215.139 210.81 216.329 210.81 217.693C210.81 219.045 210.56 220.227 210.06 221.238C209.565 222.249 208.872 223.036 207.98 223.599C207.094 224.161 206.06 224.443 204.878 224.443ZM204.878 222.636C205.776 222.636 206.514 222.406 207.094 221.945C207.673 221.485 208.102 220.88 208.381 220.13C208.659 219.38 208.798 218.568 208.798 217.693C208.798 216.818 208.659 216.002 208.381 215.247C208.102 214.491 207.673 213.88 207.094 213.414C206.514 212.948 205.776 212.715 204.878 212.715C203.98 212.715 203.241 212.948 202.662 213.414C202.082 213.88 201.653 214.491 201.375 215.247C201.097 216.002 200.957 216.818 200.957 217.693C200.957 218.568 201.097 219.38 201.375 220.13C201.653 220.88 202.082 221.485 202.662 221.945C203.241 222.406 203.98 222.636 204.878 222.636ZM217.732 224.477C216.903 224.477 216.15 224.32 215.474 224.008C214.798 223.69 214.261 223.232 213.863 222.636C213.465 222.034 213.266 221.306 213.266 220.454C213.266 219.704 213.414 219.096 213.71 218.63C214.005 218.159 214.4 217.789 214.894 217.522C215.388 217.255 215.934 217.056 216.531 216.926C217.133 216.789 217.738 216.681 218.346 216.602C219.141 216.499 219.786 216.423 220.281 216.372C220.781 216.315 221.144 216.221 221.371 216.09C221.604 215.96 221.721 215.732 221.721 215.409V215.34C221.721 214.499 221.491 213.846 221.031 213.38C220.576 212.914 219.886 212.681 218.96 212.681C217.999 212.681 217.246 212.892 216.701 213.312C216.156 213.732 215.772 214.181 215.55 214.659L213.641 213.977C213.982 213.181 214.437 212.562 215.005 212.119C215.579 211.67 216.204 211.357 216.88 211.181C217.562 210.999 218.232 210.909 218.891 210.909C219.312 210.909 219.795 210.96 220.34 211.062C220.891 211.159 221.423 211.36 221.934 211.667C222.451 211.974 222.88 212.437 223.221 213.056C223.562 213.676 223.732 214.505 223.732 215.545V224.17H221.721V222.397H221.619C221.482 222.681 221.255 222.985 220.937 223.309C220.619 223.633 220.195 223.909 219.667 224.136C219.138 224.363 218.494 224.477 217.732 224.477ZM218.039 222.67C218.835 222.67 219.505 222.514 220.05 222.201C220.602 221.889 221.016 221.485 221.295 220.991C221.579 220.497 221.721 219.977 221.721 219.431V217.59C221.636 217.693 221.448 217.786 221.158 217.872C220.874 217.951 220.545 218.022 220.17 218.085C219.8 218.142 219.44 218.193 219.087 218.238C218.741 218.278 218.46 218.312 218.244 218.34C217.721 218.409 217.232 218.519 216.778 218.673C216.329 218.82 215.965 219.045 215.687 219.346C215.414 219.642 215.278 220.045 215.278 220.556C215.278 221.255 215.536 221.784 216.053 222.142C216.576 222.494 217.238 222.67 218.039 222.67ZM232.722 224.443C231.494 224.443 230.438 224.153 229.551 223.573C228.665 222.994 227.983 222.195 227.506 221.178C227.028 220.161 226.79 218.999 226.79 217.693C226.79 216.363 227.034 215.19 227.523 214.173C228.017 213.15 228.705 212.352 229.585 211.778C230.472 211.198 231.506 210.909 232.688 210.909C233.608 210.909 234.438 211.079 235.176 211.42C235.915 211.761 236.52 212.238 236.991 212.852C237.463 213.465 237.756 214.181 237.869 214.999H235.858C235.705 214.403 235.364 213.874 234.835 213.414C234.313 212.948 233.608 212.715 232.722 212.715C231.938 212.715 231.25 212.92 230.659 213.329C230.074 213.732 229.616 214.303 229.287 215.042C228.963 215.775 228.801 216.636 228.801 217.624C228.801 218.636 228.96 219.517 229.278 220.267C229.602 221.017 230.057 221.599 230.642 222.014C231.233 222.428 231.926 222.636 232.722 222.636C233.244 222.636 233.719 222.545 234.145 222.363C234.571 222.181 234.932 221.92 235.227 221.579C235.523 221.238 235.733 220.829 235.858 220.352H237.869C237.756 221.124 237.474 221.82 237.026 222.44C236.582 223.053 235.994 223.542 235.261 223.906C234.534 224.264 233.688 224.443 232.722 224.443ZM242.821 216.295V224.17H240.81V206.715H242.821V213.124H242.991C243.298 212.448 243.759 211.911 244.372 211.514C244.991 211.11 245.815 210.909 246.844 210.909C247.736 210.909 248.517 211.088 249.188 211.445C249.858 211.798 250.378 212.34 250.747 213.073C251.122 213.801 251.31 214.727 251.31 215.852V224.17H249.298V215.988C249.298 214.948 249.028 214.144 248.489 213.576C247.955 213.002 247.213 212.715 246.264 212.715C245.605 212.715 245.014 212.855 244.491 213.133C243.974 213.411 243.565 213.818 243.264 214.352C242.969 214.886 242.821 215.534 242.821 216.295ZM262.012 224.17V206.715H267.91C269.273 206.715 270.393 206.948 271.268 207.414C272.143 207.874 272.79 208.508 273.211 209.315C273.631 210.122 273.842 211.039 273.842 212.068C273.842 213.096 273.631 214.008 273.211 214.803C272.79 215.599 272.146 216.224 271.276 216.678C270.407 217.127 269.296 217.352 267.944 217.352H263.171V215.443H267.876C268.808 215.443 269.558 215.306 270.126 215.034C270.7 214.761 271.114 214.374 271.37 213.874C271.631 213.369 271.762 212.767 271.762 212.068C271.762 211.369 271.631 210.758 271.37 210.235C271.109 209.713 270.691 209.309 270.117 209.025C269.543 208.735 268.785 208.59 267.842 208.59H264.126V224.17H262.012ZM270.228 216.329L274.523 224.17H272.069L267.842 216.329H270.228ZM282.439 224.443C281.178 224.443 280.089 224.164 279.175 223.607C278.266 223.045 277.564 222.261 277.07 221.255C276.581 220.244 276.337 219.068 276.337 217.727C276.337 216.386 276.581 215.204 277.07 214.181C277.564 213.153 278.251 212.352 279.132 211.778C280.018 211.198 281.053 210.909 282.234 210.909C282.916 210.909 283.589 211.022 284.254 211.249C284.919 211.477 285.524 211.846 286.07 212.357C286.615 212.863 287.05 213.534 287.374 214.369C287.697 215.204 287.859 216.232 287.859 217.454V218.306H277.768V216.568H285.814C285.814 215.829 285.666 215.17 285.371 214.59C285.081 214.011 284.666 213.553 284.126 213.218C283.592 212.883 282.962 212.715 282.234 212.715C281.433 212.715 280.74 212.914 280.155 213.312C279.575 213.704 279.129 214.215 278.817 214.846C278.504 215.477 278.348 216.153 278.348 216.874V218.034C278.348 219.022 278.518 219.86 278.859 220.548C279.206 221.23 279.686 221.749 280.3 222.107C280.913 222.46 281.626 222.636 282.439 222.636C282.967 222.636 283.445 222.562 283.871 222.414C284.303 222.261 284.675 222.034 284.987 221.732C285.3 221.426 285.541 221.045 285.712 220.59L287.655 221.136C287.45 221.795 287.107 222.374 286.624 222.874C286.141 223.369 285.544 223.755 284.834 224.034C284.124 224.306 283.325 224.443 282.439 224.443ZM299.851 229.079V222.159H299.68C299.533 222.397 299.322 222.698 299.05 223.062C298.777 223.42 298.388 223.741 297.882 224.025C297.376 224.303 296.703 224.443 295.862 224.443C294.771 224.443 293.808 224.167 292.973 223.616C292.138 223.059 291.484 222.275 291.013 221.264C290.541 220.247 290.305 219.045 290.305 217.659C290.305 216.284 290.541 215.09 291.013 214.079C291.484 213.068 292.141 212.286 292.982 211.735C293.822 211.184 294.794 210.909 295.896 210.909C296.749 210.909 297.422 211.051 297.916 211.335C298.416 211.613 298.797 211.931 299.058 212.289C299.325 212.642 299.533 212.931 299.68 213.159H299.919V211.079H301.862V229.079H299.851ZM296.135 222.636C296.942 222.636 297.624 222.426 298.18 222.005C298.737 221.579 299.161 220.991 299.45 220.241C299.74 219.485 299.885 218.613 299.885 217.624C299.885 216.647 299.743 215.792 299.459 215.059C299.175 214.32 298.754 213.747 298.197 213.338C297.641 212.923 296.953 212.715 296.135 212.715C295.283 212.715 294.572 212.934 294.004 213.372C293.442 213.803 293.018 214.392 292.734 215.136C292.456 215.874 292.317 216.704 292.317 217.624C292.317 218.556 292.459 219.403 292.743 220.164C293.033 220.92 293.459 221.522 294.021 221.971C294.589 222.414 295.294 222.636 296.135 222.636ZM313.794 218.818V211.079H315.805V224.17H313.794V221.954H313.658C313.351 222.619 312.874 223.184 312.226 223.65C311.578 224.11 310.76 224.34 309.771 224.34C308.953 224.34 308.226 224.161 307.589 223.803C306.953 223.44 306.453 222.894 306.089 222.167C305.726 221.434 305.544 220.511 305.544 219.397V211.079H307.555V219.261C307.555 220.215 307.822 220.977 308.357 221.545C308.896 222.113 309.584 222.397 310.419 222.397C310.919 222.397 311.428 222.269 311.945 222.014C312.467 221.758 312.905 221.366 313.257 220.838C313.615 220.309 313.794 219.636 313.794 218.818ZM324.978 224.443C323.717 224.443 322.629 224.164 321.714 223.607C320.805 223.045 320.103 222.261 319.609 221.255C319.12 220.244 318.876 219.068 318.876 217.727C318.876 216.386 319.12 215.204 319.609 214.181C320.103 213.153 320.79 212.352 321.671 211.778C322.558 211.198 323.592 210.909 324.773 210.909C325.455 210.909 326.129 211.022 326.793 211.249C327.458 211.477 328.063 211.846 328.609 212.357C329.154 212.863 329.589 213.534 329.913 214.369C330.237 215.204 330.398 216.232 330.398 217.454V218.306H320.308V216.568H328.353C328.353 215.829 328.205 215.17 327.91 214.59C327.62 214.011 327.205 213.553 326.665 213.218C326.131 212.883 325.501 212.715 324.773 212.715C323.972 212.715 323.279 212.914 322.694 213.312C322.114 213.704 321.668 214.215 321.356 214.846C321.043 215.477 320.887 216.153 320.887 216.874V218.034C320.887 219.022 321.058 219.86 321.398 220.548C321.745 221.23 322.225 221.749 322.839 222.107C323.452 222.46 324.165 222.636 324.978 222.636C325.506 222.636 325.984 222.562 326.41 222.414C326.842 222.261 327.214 222.034 327.526 221.732C327.839 221.426 328.08 221.045 328.251 220.59L330.194 221.136C329.989 221.795 329.646 222.374 329.163 222.874C328.68 223.369 328.083 223.755 327.373 224.034C326.663 224.306 325.864 224.443 324.978 224.443ZM342.731 214.011L340.924 214.522C340.81 214.221 340.643 213.928 340.421 213.644C340.205 213.355 339.91 213.116 339.535 212.928C339.16 212.741 338.68 212.647 338.094 212.647C337.293 212.647 336.626 212.832 336.092 213.201C335.563 213.565 335.299 214.028 335.299 214.59C335.299 215.09 335.481 215.485 335.844 215.775C336.208 216.065 336.776 216.306 337.549 216.499L339.492 216.977C340.663 217.261 341.535 217.695 342.109 218.281C342.683 218.86 342.969 219.607 342.969 220.522C342.969 221.272 342.754 221.943 342.322 222.534C341.896 223.124 341.299 223.59 340.532 223.931C339.765 224.272 338.873 224.443 337.856 224.443C336.521 224.443 335.415 224.153 334.54 223.573C333.665 222.994 333.112 222.147 332.879 221.034L334.788 220.556C334.969 221.261 335.313 221.789 335.819 222.142C336.33 222.494 336.998 222.67 337.822 222.67C338.759 222.67 339.504 222.471 340.055 222.073C340.612 221.67 340.89 221.187 340.89 220.624C340.89 220.17 340.731 219.789 340.413 219.482C340.094 219.17 339.606 218.937 338.947 218.784L336.765 218.272C335.566 217.988 334.685 217.548 334.123 216.951C333.566 216.349 333.288 215.596 333.288 214.693C333.288 213.954 333.495 213.301 333.91 212.732C334.33 212.164 334.901 211.718 335.623 211.394C336.35 211.07 337.174 210.909 338.094 210.909C339.39 210.909 340.407 211.193 341.146 211.761C341.89 212.329 342.418 213.079 342.731 214.011ZM351.69 211.079V212.784H344.906V211.079H351.69ZM346.884 207.943H348.895V220.42C348.895 220.988 348.977 221.414 349.142 221.698C349.313 221.977 349.528 222.164 349.79 222.261C350.057 222.352 350.338 222.397 350.634 222.397C350.855 222.397 351.037 222.386 351.179 222.363C351.321 222.335 351.435 222.312 351.52 222.295L351.929 224.102C351.793 224.153 351.602 224.204 351.358 224.255C351.114 224.312 350.804 224.34 350.429 224.34C349.861 224.34 349.304 224.218 348.759 223.974C348.219 223.73 347.77 223.357 347.412 222.857C347.06 222.357 346.884 221.727 346.884 220.965V207.943ZM363.754 214.011L361.947 214.522C361.834 214.221 361.666 213.928 361.445 213.644C361.229 213.355 360.933 213.116 360.558 212.928C360.183 212.741 359.703 212.647 359.118 212.647C358.317 212.647 357.649 212.832 357.115 213.201C356.587 213.565 356.322 214.028 356.322 214.59C356.322 215.09 356.504 215.485 356.868 215.775C357.232 216.065 357.8 216.306 358.572 216.499L360.516 216.977C361.686 217.261 362.558 217.695 363.132 218.281C363.706 218.86 363.993 219.607 363.993 220.522C363.993 221.272 363.777 221.943 363.345 222.534C362.919 223.124 362.322 223.59 361.555 223.931C360.788 224.272 359.896 224.443 358.879 224.443C357.544 224.443 356.439 224.153 355.564 223.573C354.689 222.994 354.135 222.147 353.902 221.034L355.811 220.556C355.993 221.261 356.337 221.789 356.842 222.142C357.354 222.494 358.021 222.67 358.845 222.67C359.783 222.67 360.527 222.471 361.078 222.073C361.635 221.67 361.913 221.187 361.913 220.624C361.913 220.17 361.754 219.789 361.436 219.482C361.118 219.17 360.629 218.937 359.97 218.784L357.788 218.272C356.589 217.988 355.709 217.548 355.146 216.951C354.589 216.349 354.311 215.596 354.311 214.693C354.311 213.954 354.518 213.301 354.933 212.732C355.354 212.164 355.925 211.718 356.646 211.394C357.374 211.07 358.197 210.909 359.118 210.909C360.413 210.909 361.43 211.193 362.169 211.761C362.913 212.329 363.442 213.079 363.754 214.011Z" fill="#7B849A"/>
<defs>
<filter id="filter0_d_7189_12704" x="55.7896" y="11.0825" width="203.881" height="57.6049" filterUnits="userSpaceOnUse" color-interpolation-filters="sRGB">
<feFlood flood-opacity="0" result="BackgroundImageFix"/>
<feColorMatrix in="SourceAlpha" type="matrix" values="0 0 0 0 0 0 0 0 0 0 0 0 0 0 0 0 0 0 127 0" result="hardAlpha"/>
<feOffset dx="3.31858" dy="3.31858"/>
<feGaussianBlur stdDeviation="2.76549"/>
<feColorMatrix type="matrix" values="0 0 0 0 0.230539 0 0 0 0 0.370572 0 0 0 0 0.482993 0 0 0 0.1 0"/>
<feBlend mode="normal" in2="BackgroundImageFix" result="effect1_dropShadow_7189_12704"/>
<feBlend mode="normal" in="SourceGraphic" in2="effect1_dropShadow_7189_12704" result="shape"/>
</filter>
<filter id="filter1_d_7189_12704" x="112.969" y="68.2661" width="203.881" height="57.6049" filterUnits="userSpaceOnUse" color-interpolation-filters="sRGB">
<feFlood flood-opacity="0" result="BackgroundImageFix"/>
<feColorMatrix in="SourceAlpha" type="matrix" values="0 0 0 0 0 0 0 0 0 0 0 0 0 0 0 0 0 0 127 0" result="hardAlpha"/>
<feOffset dx="3.31858" dy="3.31858"/>
<feGaussianBlur stdDeviation="2.76549"/>
<feColorMatrix type="matrix" values="0 0 0 0 0.230539 0 0 0 0 0.370572 0 0 0 0 0.482993 0 0 0 0.1 0"/>
<feBlend mode="normal" in2="BackgroundImageFix" result="effect1_dropShadow_7189_12704"/>
<feBlend mode="normal" in="SourceGraphic" in2="effect1_dropShadow_7189_12704" result="shape"/>
</filter>
<filter id="filter2_d_7189_12704" x="55.7879" y="125.444" width="203.881" height="57.6049" filterUnits="userSpaceOnUse" color-interpolation-filters="sRGB">
<feFlood flood-opacity="0" result="BackgroundImageFix"/>
<feColorMatrix in="SourceAlpha" type="matrix" values="0 0 0 0 0 0 0 0 0 0 0 0 0 0 0 0 0 0 127 0" result="hardAlpha"/>
<feOffset dx="3.31858" dy="3.31858"/>
<feGaussianBlur stdDeviation="2.76549"/>
<feColorMatrix type="matrix" values="0 0 0 0 0.230539 0 0 0 0 0.370572 0 0 0 0 0.482993 0 0 0 0.1 0"/>
<feBlend mode="normal" in2="BackgroundImageFix" result="effect1_dropShadow_7189_12704"/>
<feBlend mode="normal" in="SourceGraphic" in2="effect1_dropShadow_7189_12704" result="shape"/>
</filter>
</defs>
</svg>
