<svg width="239" height="263" viewBox="0 0 239 263" fill="none" xmlns="http://www.w3.org/2000/svg">
<g clip-path="url(#clip0_3455_6223)">
<path d="M169.74 127.544L168.346 130.081C166.176 134.029 161.587 135.362 157.639 133.192C153.977 131.179 152.363 126.436 154.533 122.488L155.927 119.951C158.019 116.147 162.964 114.83 166.626 116.842C170.574 119.012 171.832 123.739 169.74 127.544ZM186.708 96.6749L181.671 105.84C179.503 109.782 174.914 111.116 170.966 108.946C167.305 106.933 165.69 102.19 167.857 98.2474L175.917 83.5846C175.992 83.4466 176.136 83.5257 176.215 83.3819C176.147 83.1653 176.147 83.1653 176.226 83.022C178.241 79.355 183.266 77.8946 186.928 79.9075C195.811 84.7903 206.875 81.6959 211.68 72.9555C216.56 64.0777 213.167 53.2157 204.283 48.3324C198.504 45.1557 191.725 45.472 186.49 48.6476C182.66 50.9513 177.813 49.7514 175.511 45.9162C173.351 42.1653 174.476 37.4555 178.308 35.1603C188.185 29.2087 201.024 28.5538 211.876 34.5192C228.232 43.5095 234.337 64.1197 225.349 80.4695C217.678 94.4259 201.519 100.781 186.708 96.6749Z" fill="#38B89A" fill-opacity="0.28"/>
<path d="M158.273 6.46391L158.566 4.53168C159.022 1.52325 161.62 -0.390923 164.628 0.0649338C167.417 0.487885 169.546 3.11795 169.09 6.12586L168.797 8.05861C168.358 10.9572 165.53 12.9441 162.74 12.5211C159.733 12.0658 157.834 9.3625 158.273 6.46391ZM154.71 29.9822L155.768 22.9995C156.223 19.9958 158.821 18.0816 161.829 18.5375C164.619 18.9599 166.747 21.5905 166.292 24.5942L164.599 35.765C164.583 35.8701 164.474 35.8531 164.458 35.9625C164.551 36.084 164.551 36.084 164.535 36.1933C164.111 38.9874 161.267 41.083 158.477 40.6606C151.709 39.6353 145.417 44.1742 144.409 50.8333C143.384 57.5968 148.064 63.6912 154.833 64.7165C159.235 65.3835 163.459 63.6036 166.037 60.3718C167.928 58.0192 171.28 57.6504 173.632 59.5455C175.875 61.4193 176.259 64.6666 174.365 67.0138C169.491 73.0869 161.506 76.4929 153.238 75.2405C140.778 73.3523 132.107 61.7117 133.994 49.255C135.605 38.6222 144.367 30.8297 154.71 29.9822Z" fill="#38B89A" fill-opacity="0.28"/>
<path d="M22.8831 23.9929L22.052 22.2237C20.7589 19.4699 21.8543 16.4344 24.608 15.1417C27.1617 13.9418 30.3931 14.9453 31.6864 17.6991L32.5173 19.4684C33.7635 22.1218 32.5173 25.3457 29.9635 26.545C27.2098 27.8383 24.1294 26.6469 22.8831 23.9929ZM32.9943 45.5233L29.9922 39.1312C28.7009 36.3812 29.7963 33.3457 32.55 32.0524C35.1037 30.8531 38.3351 31.8566 39.6265 34.6066L44.4294 44.8334C44.4746 44.9289 44.3745 44.9762 44.4216 45.0765C44.5667 45.1253 44.5667 45.1253 44.6137 45.2256C45.8148 47.7829 44.6154 51.1066 42.0617 52.306C35.8657 55.2157 33.1588 62.4866 36.0216 68.5826C38.9296 74.7746 46.2083 77.2385 52.4042 74.3288C56.4351 72.4358 58.9565 68.6085 59.3029 64.4883C59.5669 61.482 62.1482 59.312 65.1566 59.58C68.0631 59.891 70.1875 62.3762 69.9179 65.3804C69.2423 73.1385 64.498 80.4083 56.9289 83.9628C45.5215 89.32 31.8427 84.4638 26.4872 73.0599C21.9156 63.3256 24.8673 51.978 32.9943 45.5233Z" fill="#38B89A" fill-opacity="0.28"/>
<path d="M166.139 213.413C165.276 212.291 164.383 211.143 163.54 210.066C163.541 210.066 163.542 210.067 163.543 210.067C164.385 211.143 165.278 212.29 166.139 213.411C166.139 213.412 166.139 213.412 166.139 213.413Z" fill="#38B89A" fill-opacity="0.19"/>
<path d="M166.561 222.641C165.58 222.157 164.473 221.607 163.271 221.006L163.206 220.601C164.425 221.238 165.547 221.829 166.539 222.354C166.546 222.451 166.554 222.547 166.561 222.641Z" fill="#38B89A" fill-opacity="0.19"/>
<path d="M162.828 209.156C162.827 209.155 162.825 209.154 162.823 209.153C162.498 208.738 162.185 208.342 161.889 207.967C161.89 207.967 161.892 207.968 161.893 207.968C162.189 208.343 162.503 208.742 162.828 209.156Z" fill="#38B89A" fill-opacity="0.19"/>
<path d="M161.025 206.87C161.024 206.87 161.022 206.868 161.021 206.868C161.016 206.861 161.01 206.855 161.005 206.848L161.004 206.844C161.011 206.852 161.018 206.862 161.025 206.87Z" fill="#38B89A" fill-opacity="0.19"/>
<path d="M161.023 206.867C161.017 206.864 161.013 206.861 161.007 206.858L161.005 206.845C161.011 206.852 161.017 206.86 161.023 206.867Z" fill="#142228"/>
<path d="M164.2 77.8999C164.196 77.8372 164.102 77.8495 164.095 77.9057C163.766 80.3171 163.579 82.8193 162.414 85.0078C161.345 87.0154 159.481 88.3097 157.45 89.2161C156.276 89.7399 155.054 90.1528 153.832 90.5503C153.745 90.579 153.764 90.7164 153.86 90.6962C156.165 90.2176 158.508 89.6805 160.512 88.3856C162.657 86.9995 163.76 84.7823 164.112 82.2992C164.32 80.8399 164.298 79.3656 164.2 77.8999Z" fill="#273E47"/>
<path d="M204.232 48.9355V48.935C204.401 48.822 204.571 48.7074 204.741 48.5917C204.571 48.7079 204.401 48.8225 204.232 48.9355Z" fill="#38B89A" fill-opacity="0.19"/>
<path d="M204.741 48.5918C205.084 48.3567 205.428 48.1163 205.77 47.8711L205.77 47.8722C205.428 48.1168 205.084 48.3572 204.741 48.5918ZM200.437 35.5853H200.437C200.859 35.1305 201.279 34.6784 201.685 34.2453L201.668 34.231L201.685 34.2453C201.279 34.6789 200.859 35.1305 200.437 35.5853Z" fill="#38B89A" fill-opacity="0.22"/>
<path d="M210.641 26.2227C210.704 26.159 210.743 26.1144 210.757 26.0921C211.736 24.5096 212.22 21.1913 213.376 20.3204C212.22 21.1923 211.737 24.5101 210.758 26.091C210.744 26.1139 210.704 26.1584 210.641 26.2227ZM215.138 22.3816V22.381C215.234 22.1125 215.449 21.5744 215.774 21.117C215.449 21.5749 215.234 22.1136 215.138 22.3816ZM217.586 20.538C217.472 20.4541 217.338 20.392 217.181 20.3586C217.116 20.3448 217.052 20.3374 216.99 20.3358C217.053 20.3374 217.117 20.3448 217.182 20.3586C217.34 20.392 217.474 20.4536 217.586 20.538Z" fill="#38B89A" fill-opacity="0.19"/>
<path d="M203.974 29.9541C204.067 29.7753 204.153 29.6076 204.229 29.4553C204.301 29.3125 204.379 29.1427 204.464 28.9527C204.379 29.1432 204.301 29.313 204.229 29.4563C204.153 29.6081 204.067 29.7758 203.974 29.9541ZM205.133 27.3893C205.962 25.4544 207.049 23.0987 208.075 22.8987C208.131 22.8875 208.186 22.8822 208.238 22.8822C208.378 22.8822 208.505 22.9204 208.617 22.9926C208.505 22.921 208.378 22.8822 208.238 22.8822C208.186 22.8822 208.132 22.8875 208.075 22.8987C207.049 23.0998 205.962 25.4544 205.133 27.3893Z" fill="#38B89A" fill-opacity="0.19"/>
<path d="M189.419 47.457C189.357 47.4294 189.283 47.3965 189.195 47.3573C189.225 47.2623 189.255 47.1673 189.285 47.0733L189.507 47.2288C189.478 47.3042 189.448 47.3806 189.419 47.457Z" fill="#142228"/>
<path d="M171.509 40.678L168.479 46.1865C168.33 46.0061 168.197 45.8257 168.081 45.6505L170.877 40.5719C171.079 40.5984 171.291 40.6303 171.509 40.678Z" fill="#273E47"/>
<path d="M171.597 49.8612C172.398 50.0814 173.033 50.4768 173.626 51.0547C172.8 50.9761 172.082 50.5277 171.597 49.8612Z" fill="#17282F"/>
<path d="M130.723 198.375V203.843C130.723 212.354 124.34 218.737 115.829 218.737C107.937 218.737 100.935 212.354 100.935 203.843V198.375C100.935 190.174 107.937 183.494 115.829 183.494C124.34 183.494 130.723 190.174 130.723 198.375ZM130.723 131.835V151.591C130.723 160.089 124.34 166.472 115.829 166.472C107.937 166.472 100.935 160.089 100.935 151.591V119.985C100.935 119.687 101.257 119.687 101.257 119.379C100.935 119.081 100.935 119.081 100.935 118.772C100.935 110.867 107.937 103.878 115.829 103.878C134.979 103.878 150.466 88.6876 150.466 69.8472C150.466 50.7103 134.979 35.8167 115.829 35.8167C103.384 35.8167 92.4491 42.5091 86.6599 52.5289C82.4043 59.8274 73.2999 62.2521 66.0015 57.9966C59.0243 53.7532 56.5751 44.9333 60.8305 37.6475C71.7657 18.8072 92.4491 6.04109 115.829 6.04109C151.085 6.04109 179.957 34.604 179.957 69.8472C179.957 99.9322 158.977 125.156 130.723 131.835Z" fill="#38B89A"/>
<path d="M174.745 69.5156C168.548 44.3565 148.257 17.0873 121.476 12.5776C122.92 12.3956 124.362 12.3075 125.787 12.3075C149.53 12.3075 170.211 36.6934 174.123 58.7948C174.598 61.3734 174.825 64.213 174.86 66.8389C174.828 67.7368 174.804 68.6283 174.745 69.5156Z" fill="#40CDAC"/>
<path d="M169.314 197.91L167.952 200.39C165.83 204.249 161.344 205.553 157.485 203.431C153.906 201.464 152.327 196.827 154.448 192.968L155.812 190.488C157.856 186.769 162.69 185.481 166.27 187.448C170.13 189.57 171.359 194.191 169.314 197.91ZM185.901 167.734L180.977 176.693C178.858 180.548 174.372 181.851 170.513 179.729C166.934 177.762 165.355 173.125 167.474 169.271L175.352 154.938C175.426 154.803 175.566 154.881 175.643 154.74C175.577 154.528 175.577 154.528 175.655 154.388C177.625 150.803 182.536 149.376 186.116 151.344C194.8 156.117 205.616 153.092 210.312 144.548C215.083 135.869 211.766 125.251 203.082 120.477C197.433 117.372 190.805 117.682 185.688 120.786C181.944 123.038 177.205 121.865 174.956 118.115C172.844 114.449 173.943 109.845 177.689 107.601C187.345 101.784 199.896 101.144 210.504 106.975C226.492 115.763 232.46 135.91 223.675 151.893C216.175 165.536 200.38 171.748 185.901 167.734Z" fill="#3A3A3A"/>
<path d="M161.319 204.444C160.386 204.444 159.433 204.269 158.501 203.907C158.159 203.774 157.819 203.615 157.485 203.431C157.353 203.359 157.224 203.283 157.097 203.203C154.853 201.79 153.492 199.287 153.492 196.661C153.492 195.424 153.794 194.159 154.449 192.968L155.812 190.488C157.212 187.94 159.924 186.533 162.643 186.533C163.893 186.533 165.143 186.829 166.27 187.449C168.886 188.887 170.294 191.472 170.293 194.147C170.293 195.42 169.974 196.712 169.315 197.91L167.952 200.39C167.905 200.476 167.856 200.561 167.806 200.644C167.769 200.707 167.731 200.769 167.693 200.83C167.107 201.76 166.377 202.523 165.551 203.104C164.303 203.981 162.836 204.444 161.319 204.444Z" fill="#38B89A"/>
<path d="M174.348 180.742C173.072 180.742 171.76 180.414 170.513 179.729C170.184 179.548 169.873 179.345 169.579 179.122C169.399 178.986 169.226 178.842 169.061 178.691C167.963 177.693 167.176 176.395 166.79 174.976C166.612 174.325 166.519 173.647 166.519 172.961C166.518 171.724 166.82 170.46 167.473 169.27L175.352 154.937C175.426 154.802 175.566 154.88 175.643 154.739C175.612 154.638 175.595 154.585 175.595 154.542C175.595 154.495 175.614 154.46 175.655 154.387C177.02 151.903 179.799 150.455 182.567 150.455C183.793 150.455 185.017 150.739 186.116 151.343C188.904 152.876 191.913 153.604 194.868 153.604C201.115 153.604 207.124 150.347 210.312 144.547C211.798 141.844 212.499 138.951 212.498 136.107C212.495 129.82 209.06 123.763 203.082 120.477C200.457 119.034 197.618 118.328 194.82 118.298C194.758 118.297 194.695 118.297 194.632 118.297C191.883 118.297 189.177 118.948 186.751 120.191C186.508 120.315 186.268 120.446 186.031 120.582C185.916 120.648 185.802 120.716 185.688 120.785C184.402 121.558 182.999 121.928 181.62 121.928C178.983 121.928 176.433 120.577 174.956 118.115C174.24 116.872 173.894 115.522 173.893 114.193C173.893 111.599 175.212 109.084 177.689 107.601C182.778 104.535 188.673 102.906 194.662 102.906C200.037 102.906 205.486 104.216 210.504 106.974C221.48 113.007 227.734 124.394 227.733 136.112C227.733 141.463 226.429 146.882 223.675 151.892C217.689 162.782 206.417 168.937 194.749 168.937C194.531 168.937 194.314 168.935 194.096 168.931C191.36 168.877 188.608 168.484 185.901 167.734L180.977 176.693C179.543 179.301 177.023 180.742 174.348 180.742Z" fill="#38B89A"/>
<path d="M15.4988 95.5614L14.6559 93.0327C13.3441 89.0966 15.312 85.161 19.248 83.8492C22.8979 82.6323 27.1141 84.5072 28.4261 88.4428L29.2688 90.9715C30.5329 94.7643 28.3303 98.9312 24.6805 100.148C20.7447 101.459 16.7629 99.3541 15.4988 95.5614ZM25.7555 126.334L22.7103 117.197C21.4001 113.267 23.3682 109.331 27.3042 108.02C30.9541 106.803 35.1704 108.677 36.4803 112.608L41.3522 127.225C41.3978 127.361 41.2548 127.409 41.3025 127.553C41.4913 127.642 41.4913 127.642 41.539 127.785C42.7575 131.441 40.6024 135.75 36.9525 136.967C28.0967 139.919 23.2702 149.333 26.174 158.046C29.1239 166.896 38.5879 171.394 47.4436 168.443C53.2047 166.523 57.2302 161.742 58.3573 156.218C59.1948 152.188 63.0368 149.662 67.0684 150.505C70.9546 151.39 73.4356 155.095 72.5907 159.12C70.4372 169.519 62.8516 178.607 52.0335 182.213C35.729 187.647 17.9795 178.886 12.5471 162.588C7.90982 148.674 13.7187 133.778 25.7555 126.334Z" fill="#3A3A3A"/>
<path d="M42.1447 183.823C29.0951 183.823 16.8884 175.613 12.5471 162.588C11.4671 159.348 10.9536 156.054 10.9536 152.813C10.9536 142.14 16.5222 132.044 25.7555 126.334L22.7103 117.198C22.4377 116.38 22.3071 115.563 22.3065 114.768C22.3042 111.744 24.1869 109.058 27.3042 108.02C28.0476 107.772 28.8152 107.652 29.5762 107.652C32.5516 107.652 35.437 109.478 36.4803 112.608L41.3522 127.225C41.3586 127.244 41.3613 127.261 41.3613 127.278C41.3613 127.361 41.2923 127.411 41.2927 127.496C41.2927 127.514 41.2956 127.532 41.3025 127.553C41.4913 127.642 41.4913 127.642 41.539 127.785C41.771 128.481 41.8806 129.201 41.881 129.919C41.8825 132.97 39.9075 135.982 36.9525 136.967C29.8439 139.337 25.3312 145.87 25.3295 152.863C25.3293 154.581 25.6013 156.327 26.174 158.046C28.5132 165.064 34.9492 169.346 41.9291 169.346C43.7515 169.346 45.6103 169.054 47.4437 168.443C53.2047 166.523 57.2302 161.742 58.3573 156.218C59.0862 152.711 62.0907 150.343 65.5151 150.343C66.0256 150.343 66.5452 150.396 67.0684 150.505C70.4425 151.273 72.7568 154.167 72.7558 157.551C72.7558 158.065 72.7022 158.59 72.5907 159.12C70.4372 169.519 62.8516 178.607 52.0335 182.213C48.7584 183.305 45.4246 183.823 42.1447 183.823ZM22.3092 100.539C19.2447 100.539 16.5073 98.587 15.4988 95.5616L14.656 93.0329C14.3817 92.2104 14.2509 91.3878 14.2513 90.5891C14.2526 87.5664 16.1346 84.8869 19.248 83.8494C19.9914 83.6016 20.7586 83.4817 21.5196 83.4817C24.4952 83.4817 27.3813 85.3088 28.4262 88.443L29.2688 90.9717C29.5132 91.7051 29.628 92.4523 29.6278 93.19C29.627 96.2658 27.6247 99.1665 24.6805 100.148C23.8845 100.413 23.0862 100.539 22.3092 100.539Z" fill="#38B89A"/>
<path d="M81.7747 104.709C78.1336 102.497 72.8586 99.1814 69.9521 96.8443C72.8586 99.1793 78.1299 102.491 81.7736 104.704L81.7747 104.709ZM67.0466 88.7036C67.0424 88.1904 67.045 87.6592 67.0556 87.1137C67.0599 86.8568 67.0662 86.5946 67.0753 86.332C67.0503 87.1535 67.0402 87.9484 67.0466 88.7036ZM67.1018 85.5773C67.105 85.4972 67.1082 85.4171 67.1113 85.3375C67.1082 85.4176 67.105 85.4972 67.1018 85.5773ZM67.1368 84.7797C67.158 84.2915 67.1856 83.7979 67.2191 83.3023C67.3507 81.2358 67.546 79.1051 67.7768 77.0774C67.7965 76.8991 67.8145 76.7255 67.8368 76.5536C67.5269 79.2261 67.2679 82.0982 67.1368 84.7797ZM67.8442 76.4888C67.8814 76.1338 67.926 75.7873 67.97 75.4407C68.0103 75.0804 68.0586 74.7296 68.1048 74.3831C68.1499 74.0222 68.1993 73.6661 68.2486 73.3185C68.109 74.3221 67.9721 75.3887 67.8442 76.4888ZM68.3213 72.8038C68.3229 72.7889 68.325 72.7741 68.3266 72.7597C68.3701 72.4594 68.4136 72.1659 68.4572 71.8783C68.4121 72.1786 68.3664 72.4885 68.3213 72.8038ZM68.5118 71.5227C68.515 71.4988 68.5187 71.4749 68.5219 71.4511C68.5224 71.45 68.523 71.449 68.5235 71.4484C68.5193 71.4728 68.5155 71.4978 68.5118 71.5227Z" fill="#E1E1DE"/>
<path d="M68.522 71.4512C68.5427 71.3143 68.565 71.1789 68.5862 71.0463C68.5655 71.1784 68.5443 71.3127 68.5236 71.4485C68.523 71.4491 68.5225 71.4501 68.522 71.4512Z" fill="#38B89A" fill-opacity="0.22"/>
<path d="M68.5864 71.0459C68.5891 71.03 68.5912 71.0141 68.5939 70.9987C68.6368 70.7243 68.6798 70.46 68.7249 70.2026C68.6788 70.4738 68.6331 70.7556 68.5864 71.0459ZM68.7727 69.9209C68.9064 69.1392 69.038 68.4482 69.1612 67.8729C69.0386 68.4487 68.907 69.1402 68.7727 69.9209ZM70.4757 64.0032C70.5823 63.8021 70.6895 63.6179 70.7983 63.4508C70.9002 63.2947 71.0032 63.1531 71.1093 63.0241C70.8944 63.29 70.6826 63.6142 70.4757 64.0032ZM71.562 62.5518C71.58 62.5359 71.5986 62.5199 71.6166 62.5051C71.8215 62.3353 72.0332 62.2159 72.2349 62.1437C72.3511 62.1018 72.4663 62.0742 72.5809 62.0604C72.2465 62.1023 71.9032 62.2588 71.562 62.5518Z" fill="#142228"/>
<path d="M116.38 96.5771C114.85 96.5771 113.309 96.4456 111.771 96.1781C110.879 96.0226 110 95.8236 109.14 95.5832C108.902 94.4539 106.945 93.4084 104.712 93.4084C104.424 93.4084 104.132 93.426 103.839 93.4626C100.879 91.8886 98.2796 89.7828 96.1425 87.2934C95.5832 86.6406 95.0525 85.9571 94.551 85.245C94.0363 84.5121 93.5602 83.7596 93.1251 82.9906C90.9206 79.0832 89.6852 74.6053 89.6836 69.9369C89.6836 69.4438 89.6969 68.9498 89.7245 68.4531C89.7834 67.4172 89.9028 66.3792 90.0832 65.3422C91.1249 59.3497 94.1047 54.1713 98.2653 50.3377C99.125 49.5475 100.043 48.8077 101.014 48.1237C101.964 47.4555 102.947 46.8543 103.957 46.3209C107.214 44.6058 110.838 43.5529 114.624 43.3082C115.181 43.2727 115.74 43.2546 116.302 43.2546C117.834 43.2546 119.376 43.3873 120.916 43.6564C125.808 44.5055 130.267 46.6574 133.91 49.8654C133.588 52.4615 133.721 55.0167 134.249 57.4472C132.863 55.4529 131.148 53.6582 129.18 52.1558C126.843 50.3695 124.104 49.072 121.233 48.3853C119.794 48.0685 118.331 47.8695 116.871 47.8313C116.739 47.8297 116.607 47.8286 116.475 47.8286C115.148 47.8286 113.826 47.9199 112.537 48.1619C109.707 48.6734 106.97 49.6568 104.643 51.242C107.307 50.3462 110.028 49.8027 112.754 49.5735C113.487 49.5188 114.22 49.4902 114.953 49.4902C116.946 49.4902 118.93 49.7014 120.86 50.1657C122.188 50.447 123.476 50.9055 124.734 51.4341C126.01 51.9302 127.2 52.626 128.393 53.3254C130.511 54.6532 132.483 56.2553 134.379 58.014C135.648 63.2057 138.721 67.795 142.985 70.9696C142.937 72.1392 142.811 73.3131 142.607 74.4859C141.391 81.4893 137.505 87.6049 131.673 91.7103C127.123 94.9097 121.819 96.5771 116.38 96.5771ZM94.1334 75.1062C94.9029 77.8769 96.2073 80.5309 97.9681 82.8866C99.7284 85.2433 102.009 87.2398 104.583 88.6843C105.881 89.3827 107.233 89.9739 108.628 90.4095C110.027 90.8267 111.451 91.1445 112.887 91.2751C113.678 91.3531 114.472 91.3945 115.264 91.394C117.336 91.394 119.39 91.1127 121.322 90.4695C120.785 90.495 120.25 90.5077 119.717 90.5077C117.46 90.5077 115.235 90.2822 113.064 89.8582C110.385 89.3094 107.794 88.4062 105.428 87.0742C104.227 86.4406 103.113 85.6477 102.049 84.7955C100.956 83.9703 100.002 82.9757 99.0454 81.9765C97.189 79.919 95.5965 77.5861 94.1334 75.1062Z" fill="#6AE59E" fill-opacity="0.22"/>
<path d="M89.1682 65.1876C86.5594 80.173 96.6286 94.4866 111.614 97.0954C126.599 99.7043 140.913 89.6351 143.521 74.6497C146.13 59.6648 136.061 45.3512 121.076 42.7423C106.091 40.1335 91.7771 50.2027 89.1682 65.1876ZM85.6493 64.5752C88.5956 47.6496 104.763 36.277 121.688 39.2234C138.614 42.1697 149.987 58.337 147.04 75.2626C144.094 92.1877 127.927 103.561 111.001 100.614C94.076 97.668 82.7029 81.5008 85.6493 64.5752Z" fill="white"/>
<path d="M115.264 91.3945C114.472 91.3951 113.678 91.3537 112.887 91.2757C111.45 91.1451 110.026 90.8272 108.627 90.4101C107.233 89.9744 105.881 89.3832 104.582 88.6849C102.008 87.2403 99.7278 85.2439 97.9675 82.8871C96.2067 80.5314 94.9023 77.8775 94.1328 75.1068C95.5959 77.5867 97.1885 79.9196 99.0448 81.977C100.001 82.9763 100.956 83.9708 102.048 84.796C103.112 85.6483 104.227 86.4411 105.428 87.0748C107.794 88.4068 110.384 89.31 113.063 89.8587C115.235 90.2827 117.46 90.5083 119.716 90.5083C120.25 90.5083 120.785 90.4956 121.322 90.4701C119.389 91.1133 117.335 91.3945 115.264 91.3945Z" fill="#F9F9F8"/>
<path d="M32.5591 25.6804C32.5591 33.7701 39.1207 40.332 47.2107 40.332C50.4802 40.332 53.4987 39.2595 55.9394 37.4425L63.1171 39.2749L60.1287 32.5915C61.2387 30.5308 61.8623 28.1741 61.8623 25.6804C61.8623 17.5901 55.3007 11.0288 47.2107 11.0288C39.1207 11.0288 32.5591 17.5901 32.5591 25.6804Z" fill="white"/>
<path d="M32.5588 25.6802C32.5967 13.2096 47.141 6.38558 56.7704 14.3267C62.0872 18.63 63.7207 26.7208 60.3533 32.7128L60.3618 32.4872L63.3291 39.1797L63.526 39.6228L63.059 39.5007L55.8923 37.6258C46.7131 44.581 32.6369 38.0429 32.5588 25.6802ZM32.5588 25.6802C32.7878 37.8949 46.1982 44.3438 55.9858 37.2591L63.1741 39.0491L62.904 39.3697L59.8954 32.6958L59.8442 32.5822C64.3666 24.441 59.7747 13.8751 50.7355 11.624C41.6782 9.15628 32.5084 16.312 32.5588 25.6802Z" fill="#17282F"/>
<path d="M48.1684 33.0814V33.5299C48.1684 34.2277 47.6451 34.751 46.9476 34.751C46.3006 34.751 45.7266 34.2277 45.7266 33.5299V33.0814C45.7266 32.4096 46.3006 31.8619 46.9476 31.8619C47.6451 31.8619 48.1684 32.4096 48.1684 33.0814ZM48.1684 27.6271V29.2462C48.1684 29.943 47.6451 30.4662 46.9476 30.4662C46.3006 30.4662 45.7266 29.943 45.7266 29.2462V26.6554L45.7529 26.6055L45.7266 26.5562C45.7266 25.9082 46.3006 25.3351 46.9476 25.3351C48.5173 25.3351 49.787 24.0901 49.787 22.5453C49.787 20.9766 48.5173 19.756 46.9476 19.756C45.9273 19.756 45.0309 20.3042 44.5562 21.1257C44.2075 21.7238 43.461 21.9228 42.8628 21.5741C42.2909 21.226 42.09 20.5032 42.4389 19.9056C43.3354 18.3614 45.0309 17.3148 46.9476 17.3148C49.8378 17.3148 52.2045 19.6562 52.2045 22.5453C52.2045 25.0113 50.4847 27.0794 48.1684 27.6271Z" fill="#38B89A"/>
</g>
<path d="M15.9545 242.99V260.444H13.9091L4.39773 246.74H4.22727V260.444H2.11364V242.99H4.15909L13.7045 256.728H13.875V242.99H15.9545ZM25.2294 260.717C24.0476 260.717 23.0107 260.436 22.1186 259.873C21.2322 259.311 20.5391 258.524 20.0391 257.513C19.5447 256.501 19.2976 255.319 19.2976 253.967C19.2976 252.603 19.5447 251.413 20.0391 250.396C20.5391 249.379 21.2322 248.589 22.1186 248.027C23.0107 247.464 24.0476 247.183 25.2294 247.183C26.4112 247.183 27.4453 247.464 28.3317 248.027C29.2237 248.589 29.9169 249.379 30.4112 250.396C30.9112 251.413 31.1612 252.603 31.1612 253.967C31.1612 255.319 30.9112 256.501 30.4112 257.513C29.9169 258.524 29.2237 259.311 28.3317 259.873C27.4453 260.436 26.4112 260.717 25.2294 260.717ZM25.2294 258.91C26.1271 258.91 26.8658 258.68 27.4453 258.22C28.0249 257.76 28.4538 257.155 28.7322 256.405C29.0107 255.655 29.1499 254.842 29.1499 253.967C29.1499 253.092 29.0107 252.277 28.7322 251.521C28.4538 250.765 28.0249 250.155 27.4453 249.689C26.8658 249.223 26.1271 248.99 25.2294 248.99C24.3317 248.99 23.593 249.223 23.0135 249.689C22.4339 250.155 22.005 250.765 21.7266 251.521C21.4482 252.277 21.3089 253.092 21.3089 253.967C21.3089 254.842 21.4482 255.655 21.7266 256.405C22.005 257.155 22.4339 257.76 23.0135 258.22C23.593 258.68 24.3317 258.91 25.2294 258.91ZM41.2543 260.444V242.99H47.152C48.5213 242.99 49.6406 243.237 50.5099 243.731C51.3849 244.22 52.0327 244.882 52.4531 245.717C52.8736 246.552 53.0838 247.484 53.0838 248.513C53.0838 249.541 52.8736 250.476 52.4531 251.316C52.0384 252.157 51.3963 252.828 50.527 253.328C49.6577 253.822 48.544 254.069 47.1861 254.069H42.9588V252.194H47.1179C48.0554 252.194 48.8082 252.032 49.3764 251.709C49.9446 251.385 50.3565 250.947 50.6122 250.396C50.8736 249.839 51.0043 249.211 51.0043 248.513C51.0043 247.814 50.8736 247.189 50.6122 246.638C50.3565 246.086 49.9418 245.655 49.3679 245.342C48.794 245.024 48.0327 244.865 47.0838 244.865H43.3679V260.444H41.2543ZM56.2159 260.444V247.353H58.1591V249.331H58.2955C58.5341 248.683 58.9659 248.157 59.5909 247.754C60.2159 247.351 60.9205 247.149 61.7045 247.149C61.8523 247.149 62.0369 247.152 62.2585 247.157C62.4801 247.163 62.6477 247.172 62.7614 247.183V249.228C62.6932 249.211 62.5369 249.186 62.2926 249.152C62.054 249.112 61.8011 249.092 61.5341 249.092C60.8977 249.092 60.3295 249.226 59.8295 249.493C59.3352 249.754 58.9432 250.118 58.6534 250.584C58.3693 251.044 58.2273 251.569 58.2273 252.16V260.444H56.2159ZM65.1456 260.444V247.353H67.157V260.444H65.1456ZM66.1683 245.172C65.7763 245.172 65.4382 245.038 65.1541 244.771C64.8757 244.504 64.7365 244.183 64.7365 243.808C64.7365 243.433 64.8757 243.112 65.1541 242.845C65.4382 242.578 65.7763 242.444 66.1683 242.444C66.5604 242.444 66.8956 242.578 67.174 242.845C67.4581 243.112 67.6001 243.433 67.6001 243.808C67.6001 244.183 67.4581 244.504 67.174 244.771C66.8956 245.038 66.5604 245.172 66.1683 245.172ZM81.5455 247.353L76.7045 260.444H74.6591L69.8182 247.353H72L75.6136 257.785H75.75L79.3636 247.353H81.5455ZM87.6541 260.751C86.8246 260.751 86.0717 260.595 85.3956 260.282C84.7195 259.964 84.1825 259.507 83.7848 258.91C83.3871 258.308 83.1882 257.581 83.1882 256.728C83.1882 255.978 83.3359 255.37 83.6314 254.905C83.9268 254.433 84.3217 254.064 84.8161 253.797C85.3104 253.53 85.8558 253.331 86.4524 253.2C87.0547 253.064 87.6598 252.956 88.2678 252.876C89.0632 252.774 89.7081 252.697 90.2024 252.646C90.7024 252.589 91.0661 252.495 91.2933 252.365C91.5263 252.234 91.6428 252.007 91.6428 251.683V251.615C91.6428 250.774 91.4126 250.12 90.9524 249.655C90.4979 249.189 89.8075 248.956 88.8814 248.956C87.9212 248.956 87.1683 249.166 86.6229 249.586C86.0774 250.007 85.6939 250.456 85.4723 250.933L83.5632 250.251C83.9041 249.456 84.3587 248.836 84.9268 248.393C85.5007 247.944 86.1257 247.632 86.8018 247.456C87.4837 247.274 88.1541 247.183 88.8132 247.183C89.2337 247.183 89.7166 247.234 90.2621 247.336C90.8132 247.433 91.3445 247.635 91.8558 247.941C92.3729 248.248 92.8018 248.711 93.1428 249.331C93.4837 249.95 93.6541 250.78 93.6541 251.819V260.444H91.6428V258.672H91.5405C91.4041 258.956 91.1768 259.26 90.8587 259.584C90.5405 259.907 90.1172 260.183 89.5888 260.41C89.0604 260.638 88.4155 260.751 87.6541 260.751ZM87.9609 258.944C88.7564 258.944 89.4268 258.788 89.9723 258.476C90.5234 258.163 90.9382 257.76 91.2166 257.265C91.5007 256.771 91.6428 256.251 91.6428 255.706V253.865C91.5575 253.967 91.37 254.061 91.0803 254.146C90.7962 254.226 90.4666 254.297 90.0916 254.359C89.7223 254.416 89.3615 254.467 89.0092 254.513C88.6626 254.552 88.3814 254.586 88.1655 254.615C87.6428 254.683 87.1541 254.794 86.6996 254.947C86.2507 255.095 85.8871 255.319 85.6087 255.62C85.3359 255.916 85.1996 256.319 85.1996 256.831C85.1996 257.53 85.4581 258.058 85.9751 258.416C86.4979 258.768 87.1598 258.944 87.9609 258.944ZM103.018 247.353V249.058H96.2344V247.353H103.018ZM98.2116 244.217H100.223V256.694C100.223 257.263 100.305 257.689 100.47 257.973C100.641 258.251 100.857 258.439 101.118 258.535C101.385 258.626 101.666 258.672 101.962 258.672C102.183 258.672 102.365 258.66 102.507 258.638C102.649 258.609 102.763 258.586 102.848 258.569L103.257 260.376C103.121 260.427 102.93 260.478 102.686 260.53C102.442 260.586 102.132 260.615 101.757 260.615C101.189 260.615 100.632 260.493 100.087 260.248C99.5469 260.004 99.098 259.632 98.7401 259.132C98.3878 258.632 98.2116 258.001 98.2116 257.24V244.217ZM111.392 260.717C110.131 260.717 109.043 260.439 108.128 259.882C107.219 259.319 106.517 258.535 106.023 257.53C105.534 256.518 105.29 255.342 105.29 254.001C105.29 252.66 105.534 251.478 106.023 250.456C106.517 249.427 107.205 248.626 108.085 248.052C108.972 247.473 110.006 247.183 111.188 247.183C111.869 247.183 112.543 247.297 113.207 247.524C113.872 247.751 114.477 248.12 115.023 248.632C115.568 249.138 116.003 249.808 116.327 250.643C116.651 251.478 116.812 252.507 116.812 253.728V254.581H106.722V252.842H114.767C114.767 252.103 114.619 251.444 114.324 250.865C114.034 250.285 113.619 249.828 113.08 249.493C112.545 249.157 111.915 248.99 111.188 248.99C110.386 248.99 109.693 249.189 109.108 249.586C108.528 249.978 108.082 250.49 107.77 251.12C107.457 251.751 107.301 252.427 107.301 253.149V254.308C107.301 255.297 107.472 256.135 107.812 256.822C108.159 257.504 108.639 258.024 109.253 258.382C109.866 258.734 110.58 258.91 111.392 258.91C111.92 258.91 112.398 258.836 112.824 258.689C113.256 258.535 113.628 258.308 113.94 258.007C114.253 257.7 114.494 257.319 114.665 256.865L116.608 257.41C116.403 258.069 116.06 258.649 115.577 259.149C115.094 259.643 114.497 260.03 113.787 260.308C113.077 260.581 112.278 260.717 111.392 260.717ZM133.236 254.99H135.554L137.497 257.547L138.009 258.228L140.906 262.081H138.588L136.679 259.524L136.202 258.876L133.236 254.99ZM141.622 251.717C141.622 253.558 141.29 255.149 140.625 256.49C139.96 257.831 139.048 258.865 137.889 259.592C136.73 260.319 135.406 260.683 133.918 260.683C132.429 260.683 131.105 260.319 129.946 259.592C128.787 258.865 127.875 257.831 127.21 256.49C126.545 255.149 126.213 253.558 126.213 251.717C126.213 249.876 126.545 248.285 127.21 246.944C127.875 245.603 128.787 244.569 129.946 243.842C131.105 243.115 132.429 242.751 133.918 242.751C135.406 242.751 136.73 243.115 137.889 243.842C139.048 244.569 139.96 245.603 140.625 246.944C141.29 248.285 141.622 249.876 141.622 251.717ZM139.577 251.717C139.577 250.206 139.324 248.93 138.818 247.89C138.318 246.851 137.639 246.064 136.781 245.53C135.929 244.995 134.974 244.728 133.918 244.728C132.861 244.728 131.903 244.995 131.045 245.53C130.193 246.064 129.514 246.851 129.009 247.89C128.509 248.93 128.259 250.206 128.259 251.717C128.259 253.228 128.509 254.504 129.009 255.544C129.514 256.584 130.193 257.37 131.045 257.905C131.903 258.439 132.861 258.706 133.918 258.706C134.974 258.706 135.929 258.439 136.781 257.905C137.639 257.37 138.318 256.584 138.818 255.544C139.324 254.504 139.577 253.228 139.577 251.717ZM153.153 255.092V247.353H155.165V260.444H153.153V258.228H153.017C152.71 258.893 152.233 259.459 151.585 259.924C150.938 260.385 150.119 260.615 149.131 260.615C148.312 260.615 147.585 260.436 146.949 260.078C146.313 259.714 145.813 259.169 145.449 258.441C145.085 257.709 144.903 256.785 144.903 255.672V247.353H146.915V255.535C146.915 256.49 147.182 257.251 147.716 257.819C148.256 258.388 148.943 258.672 149.778 258.672C150.278 258.672 150.787 258.544 151.304 258.288C151.827 258.032 152.264 257.64 152.616 257.112C152.974 256.584 153.153 255.91 153.153 255.092ZM164.337 260.717C163.076 260.717 161.988 260.439 161.073 259.882C160.164 259.319 159.462 258.535 158.968 257.53C158.479 256.518 158.235 255.342 158.235 254.001C158.235 252.66 158.479 251.478 158.968 250.456C159.462 249.427 160.15 248.626 161.031 248.052C161.917 247.473 162.951 247.183 164.133 247.183C164.815 247.183 165.488 247.297 166.153 247.524C166.817 247.751 167.423 248.12 167.968 248.632C168.513 249.138 168.948 249.808 169.272 250.643C169.596 251.478 169.758 252.507 169.758 253.728V254.581H159.667V252.842H167.712C167.712 252.103 167.565 251.444 167.269 250.865C166.979 250.285 166.565 249.828 166.025 249.493C165.491 249.157 164.86 248.99 164.133 248.99C163.332 248.99 162.638 249.189 162.053 249.586C161.474 249.978 161.028 250.49 160.715 251.12C160.403 251.751 160.246 252.427 160.246 253.149V254.308C160.246 255.297 160.417 256.135 160.758 256.822C161.104 257.504 161.585 258.024 162.198 258.382C162.812 258.734 163.525 258.91 164.337 258.91C164.866 258.91 165.343 258.836 165.769 258.689C166.201 258.535 166.573 258.308 166.886 258.007C167.198 257.7 167.44 257.319 167.61 256.865L169.553 257.41C169.349 258.069 169.005 258.649 168.522 259.149C168.039 259.643 167.442 260.03 166.732 260.308C166.022 260.581 165.224 260.717 164.337 260.717ZM182.09 250.285L180.283 250.797C180.17 250.495 180.002 250.203 179.781 249.919C179.565 249.629 179.269 249.39 178.894 249.203C178.519 249.015 178.039 248.922 177.454 248.922C176.653 248.922 175.985 249.106 175.451 249.476C174.923 249.839 174.658 250.302 174.658 250.865C174.658 251.365 174.84 251.76 175.204 252.049C175.567 252.339 176.136 252.581 176.908 252.774L178.852 253.251C180.022 253.535 180.894 253.97 181.468 254.555C182.042 255.135 182.329 255.882 182.329 256.797C182.329 257.547 182.113 258.217 181.681 258.808C181.255 259.399 180.658 259.865 179.891 260.206C179.124 260.547 178.232 260.717 177.215 260.717C175.88 260.717 174.775 260.427 173.9 259.848C173.025 259.268 172.471 258.422 172.238 257.308L174.147 256.831C174.329 257.535 174.673 258.064 175.178 258.416C175.69 258.768 176.357 258.944 177.181 258.944C178.119 258.944 178.863 258.745 179.414 258.348C179.971 257.944 180.249 257.461 180.249 256.899C180.249 256.444 180.09 256.064 179.772 255.757C179.454 255.444 178.965 255.211 178.306 255.058L176.124 254.547C174.925 254.263 174.045 253.822 173.482 253.226C172.925 252.623 172.647 251.87 172.647 250.967C172.647 250.228 172.854 249.575 173.269 249.007C173.69 248.439 174.261 247.993 174.982 247.669C175.71 247.345 176.533 247.183 177.454 247.183C178.749 247.183 179.766 247.467 180.505 248.035C181.249 248.603 181.778 249.353 182.09 250.285ZM191.05 247.353V249.058H184.266V247.353H191.05ZM186.243 244.217H188.254V256.694C188.254 257.263 188.337 257.689 188.501 257.973C188.672 258.251 188.888 258.439 189.149 258.535C189.416 258.626 189.697 258.672 189.993 258.672C190.214 258.672 190.396 258.66 190.538 258.638C190.68 258.609 190.794 258.586 190.879 258.569L191.288 260.376C191.152 260.427 190.962 260.478 190.717 260.53C190.473 260.586 190.163 260.615 189.788 260.615C189.22 260.615 188.663 260.493 188.118 260.248C187.578 260.004 187.129 259.632 186.771 259.132C186.419 258.632 186.243 258.001 186.243 257.24V244.217ZM194.075 260.444V247.353H196.087V260.444H194.075ZM195.098 245.172C194.706 245.172 194.368 245.038 194.084 244.771C193.805 244.504 193.666 244.183 193.666 243.808C193.666 243.433 193.805 243.112 194.084 242.845C194.368 242.578 194.706 242.444 195.098 242.444C195.49 242.444 195.825 242.578 196.104 242.845C196.388 243.112 196.53 243.433 196.53 243.808C196.53 244.183 196.388 244.504 196.104 244.771C195.825 245.038 195.49 245.172 195.098 245.172ZM205.089 260.717C203.907 260.717 202.87 260.436 201.978 259.873C201.092 259.311 200.398 258.524 199.898 257.513C199.404 256.501 199.157 255.319 199.157 253.967C199.157 252.603 199.404 251.413 199.898 250.396C200.398 249.379 201.092 248.589 201.978 248.027C202.87 247.464 203.907 247.183 205.089 247.183C206.271 247.183 207.305 247.464 208.191 248.027C209.083 248.589 209.776 249.379 210.271 250.396C210.771 251.413 211.021 252.603 211.021 253.967C211.021 255.319 210.771 256.501 210.271 257.513C209.776 258.524 209.083 259.311 208.191 259.873C207.305 260.436 206.271 260.717 205.089 260.717ZM205.089 258.91C205.987 258.91 206.725 258.68 207.305 258.22C207.884 257.76 208.313 257.155 208.592 256.405C208.87 255.655 209.009 254.842 209.009 253.967C209.009 253.092 208.87 252.277 208.592 251.521C208.313 250.765 207.884 250.155 207.305 249.689C206.725 249.223 205.987 248.99 205.089 248.99C204.191 248.99 203.452 249.223 202.873 249.689C202.293 250.155 201.864 250.765 201.586 251.521C201.308 252.277 201.168 253.092 201.168 253.967C201.168 254.842 201.308 255.655 201.586 256.405C201.864 257.155 202.293 257.76 202.873 258.22C203.452 258.68 204.191 258.91 205.089 258.91ZM216.102 252.569V260.444H214.091V247.353H216.034V249.399H216.205C216.511 248.734 216.977 248.2 217.602 247.797C218.227 247.388 219.034 247.183 220.023 247.183C220.909 247.183 221.685 247.365 222.349 247.728C223.014 248.086 223.531 248.632 223.901 249.365C224.27 250.092 224.455 251.013 224.455 252.126V260.444H222.443V252.263C222.443 251.234 222.176 250.433 221.642 249.859C221.108 249.28 220.375 248.99 219.443 248.99C218.801 248.99 218.227 249.129 217.722 249.407C217.222 249.686 216.827 250.092 216.537 250.626C216.247 251.16 216.102 251.808 216.102 252.569ZM237.403 250.285L235.596 250.797C235.482 250.495 235.315 250.203 235.093 249.919C234.877 249.629 234.582 249.39 234.207 249.203C233.832 249.015 233.352 248.922 232.766 248.922C231.965 248.922 231.298 249.106 230.763 249.476C230.235 249.839 229.971 250.302 229.971 250.865C229.971 251.365 230.153 251.76 230.516 252.049C230.88 252.339 231.448 252.581 232.221 252.774L234.164 253.251C235.335 253.535 236.207 253.97 236.781 254.555C237.354 255.135 237.641 255.882 237.641 256.797C237.641 257.547 237.425 258.217 236.994 258.808C236.567 259.399 235.971 259.865 235.204 260.206C234.437 260.547 233.545 260.717 232.528 260.717C231.192 260.717 230.087 260.427 229.212 259.848C228.337 259.268 227.783 258.422 227.55 257.308L229.46 256.831C229.641 257.535 229.985 258.064 230.491 258.416C231.002 258.768 231.67 258.944 232.494 258.944C233.431 258.944 234.175 258.745 234.727 258.348C235.283 257.944 235.562 257.461 235.562 256.899C235.562 256.444 235.403 256.064 235.085 255.757C234.766 255.444 234.278 255.211 233.619 255.058L231.437 254.547C230.238 254.263 229.357 253.822 228.795 253.226C228.238 252.623 227.96 251.87 227.96 250.967C227.96 250.228 228.167 249.575 228.582 249.007C229.002 248.439 229.573 247.993 230.295 247.669C231.022 247.345 231.846 247.183 232.766 247.183C234.062 247.183 235.079 247.467 235.817 248.035C236.562 248.603 237.09 249.353 237.403 250.285Z" fill="#7B849A"/>
<defs>
<clipPath id="clip0_3455_6223">
<rect width="220" height="222.444" fill="white" transform="translate(9.5)"/>
</clipPath>
</defs>
</svg>
