<svg width="229" height="263" viewBox="0 0 229 263" fill="none" xmlns="http://www.w3.org/2000/svg">
<g clip-path="url(#clip0_3358_3674)">
<path d="M164.74 127.545L163.346 130.081C161.176 134.03 156.587 135.363 152.639 133.193C148.977 131.18 147.363 126.437 149.533 122.488L150.927 119.952C153.019 116.147 157.964 114.83 161.626 116.843C165.574 119.013 166.832 123.74 164.74 127.545ZM181.708 96.6754L176.671 105.84C174.503 109.783 169.914 111.116 165.966 108.946C162.305 106.934 160.69 102.19 162.857 98.2478L170.917 83.5851C170.992 83.4471 171.136 83.5262 171.215 83.3823C171.147 83.1658 171.147 83.1658 171.226 83.0225C173.241 79.3555 178.266 77.8951 181.928 79.908C190.811 84.7908 201.875 81.6964 206.68 72.956C211.56 64.0782 208.167 53.2162 199.283 48.3328C193.504 45.1562 186.725 45.4725 181.49 48.6481C177.66 50.9518 172.813 49.7519 170.511 45.9166C168.351 42.1658 169.476 37.456 173.308 35.1608C183.185 29.2092 196.024 28.5543 206.876 34.5197C223.232 43.51 229.337 64.1201 220.349 80.47C212.678 94.4264 196.519 100.781 181.708 96.6754Z" fill="#38B89A" fill-opacity="0.28"/>
<path d="M153.273 6.46391L153.566 4.53168C154.022 1.52325 156.62 -0.390923 159.628 0.0649338C162.417 0.487885 164.546 3.11795 164.09 6.12586L163.797 8.05861C163.358 10.9572 160.53 12.9441 157.74 12.5211C154.733 12.0658 152.834 9.3625 153.273 6.46391ZM149.71 29.9822L150.768 22.9995C151.223 19.9958 153.821 18.0816 156.829 18.5375C159.619 18.9599 161.747 21.5905 161.292 24.5942L159.599 35.765C159.583 35.8701 159.474 35.8531 159.458 35.9625C159.551 36.084 159.551 36.084 159.535 36.1933C159.111 38.9874 156.267 41.083 153.477 40.6606C146.709 39.6353 140.417 44.1742 139.409 50.8333C138.384 57.5968 143.064 63.6912 149.833 64.7165C154.235 65.3835 158.459 63.6036 161.037 60.3718C162.928 58.0192 166.28 57.6504 168.632 59.5455C170.875 61.4193 171.259 64.6666 169.365 67.0138C164.491 73.0869 156.506 76.4929 148.238 75.2405C135.778 73.3523 127.107 61.7117 128.994 49.255C130.605 38.6222 139.367 30.8297 149.71 29.9822Z" fill="#38B89A" fill-opacity="0.28"/>
<path d="M17.8831 23.9939L17.052 22.2246C15.7589 19.4709 16.8543 16.4354 19.608 15.1427C22.1617 13.9428 25.3931 14.9463 26.6864 17.7L27.5173 19.4693C28.7635 22.1227 27.5173 25.3466 24.9635 26.546C22.2098 27.8393 19.1294 26.6479 17.8831 23.9939ZM27.9943 45.5243L24.9922 39.1322C23.7009 36.3822 24.7963 33.3467 27.55 32.0534C30.1037 30.8541 33.3351 31.8576 34.6265 34.6076L39.4294 44.8344C39.4746 44.9299 39.3745 44.9771 39.4216 45.0774C39.5667 45.1263 39.5667 45.1263 39.6137 45.2266C40.8148 47.7839 39.6154 51.1076 37.0617 52.3069C30.8657 55.2167 28.1588 62.4876 31.0216 68.5835C33.9296 74.7755 41.2083 77.2395 47.4042 74.3298C51.4351 72.4368 53.9565 68.6095 54.3029 64.4893C54.5669 61.483 57.1482 59.313 60.1566 59.581C63.0631 59.892 65.1875 62.3772 64.9179 65.3814C64.2423 73.1394 59.498 80.4093 51.9289 83.9638C40.5215 89.321 26.8427 84.4647 21.4872 73.0609C16.9156 63.3266 19.8673 51.979 27.9943 45.5243Z" fill="#38B89A" fill-opacity="0.28"/>
<path d="M161.139 213.414C160.276 212.292 159.383 211.143 158.54 210.066C158.541 210.067 158.542 210.067 158.543 210.068C159.385 211.143 160.278 212.291 161.139 213.412C161.139 213.412 161.139 213.413 161.139 213.414Z" fill="#38B89A" fill-opacity="0.19"/>
<path d="M161.561 222.641C160.58 222.157 159.473 221.607 158.271 221.007L158.206 220.601C159.425 221.239 160.547 221.83 161.539 222.354C161.546 222.452 161.554 222.547 161.561 222.641Z" fill="#38B89A" fill-opacity="0.19"/>
<path d="M157.828 209.156C157.827 209.155 157.825 209.154 157.823 209.153C157.498 208.738 157.185 208.342 156.889 207.967C156.89 207.967 156.892 207.968 156.893 207.968C157.189 208.343 157.503 208.742 157.828 209.156Z" fill="#38B89A" fill-opacity="0.19"/>
<path d="M156.025 206.87C156.024 206.87 156.022 206.868 156.021 206.868C156.016 206.861 156.01 206.855 156.005 206.848L156.004 206.844C156.011 206.852 156.018 206.862 156.025 206.87Z" fill="#38B89A" fill-opacity="0.19"/>
<path d="M156.023 206.868C156.017 206.865 156.013 206.862 156.007 206.859L156.005 206.846C156.011 206.853 156.017 206.861 156.023 206.868Z" fill="#142228"/>
<path d="M159.2 77.8999C159.196 77.8372 159.102 77.8495 159.095 77.9057C158.766 80.3171 158.579 82.8193 157.414 85.0078C156.345 87.0154 154.481 88.3097 152.45 89.2161C151.276 89.7399 150.054 90.1528 148.832 90.5503C148.745 90.579 148.764 90.7164 148.86 90.6962C151.165 90.2176 153.508 89.6805 155.512 88.3856C157.657 86.9995 158.76 84.7823 159.112 82.2992C159.32 80.8399 159.298 79.3656 159.2 77.8999Z" fill="#273E47"/>
<path d="M199.232 48.9365V48.936C199.401 48.823 199.571 48.7083 199.741 48.5926C199.571 48.7089 199.401 48.8235 199.232 48.9365Z" fill="#38B89A" fill-opacity="0.19"/>
<path d="M199.741 48.5923C200.084 48.3572 200.428 48.1168 200.77 47.8716L200.77 47.8727C200.428 48.1173 200.084 48.3577 199.741 48.5923ZM195.437 35.5858H195.437C195.859 35.131 196.279 34.6788 196.685 34.2458L196.668 34.2315L196.685 34.2458C196.279 34.6794 195.859 35.131 195.437 35.5858Z" fill="#38B89A" fill-opacity="0.22"/>
<path d="M205.641 26.2231C205.704 26.1595 205.743 26.1149 205.757 26.0926C206.736 24.5101 207.22 21.1917 208.376 20.3209C207.22 21.1928 206.737 24.5106 205.758 26.0915C205.744 26.1144 205.704 26.1589 205.641 26.2231ZM210.138 22.3821V22.3815C210.234 22.113 210.449 21.5749 210.774 21.1174C210.449 21.5754 210.234 22.1141 210.138 22.3821ZM212.586 20.5385C212.472 20.4546 212.338 20.3925 212.181 20.3591C212.116 20.3453 212.052 20.3379 211.99 20.3363C212.053 20.3379 212.117 20.3453 212.182 20.3591C212.34 20.3925 212.474 20.4541 212.586 20.5385Z" fill="#38B89A" fill-opacity="0.19"/>
<path d="M198.974 29.9541C199.067 29.7753 199.153 29.6076 199.229 29.4553C199.301 29.3125 199.379 29.1427 199.464 28.9527C199.379 29.1432 199.301 29.313 199.229 29.4563C199.153 29.6081 199.067 29.7758 198.974 29.9541ZM200.133 27.3893C200.962 25.4544 202.049 23.0987 203.075 22.8987C203.131 22.8875 203.186 22.8822 203.238 22.8822C203.378 22.8822 203.505 22.9204 203.617 22.9926C203.505 22.921 203.378 22.8822 203.238 22.8822C203.186 22.8822 203.132 22.8875 203.075 22.8987C202.049 23.0998 200.962 25.4544 200.133 27.3893Z" fill="#38B89A" fill-opacity="0.19"/>
<path d="M184.419 47.457C184.357 47.4294 184.283 47.3965 184.195 47.3573C184.225 47.2623 184.255 47.1673 184.285 47.0733L184.507 47.2288C184.478 47.3042 184.448 47.3806 184.419 47.457Z" fill="#142228"/>
<path d="M166.509 40.6785L163.479 46.187C163.33 46.0066 163.197 45.8261 163.081 45.651L165.877 40.5724C166.079 40.5989 166.291 40.6308 166.509 40.6785Z" fill="#273E47"/>
<path d="M166.597 49.8617C167.398 50.0819 168.033 50.4773 168.626 51.0552C167.8 50.9766 167.082 50.5282 166.597 49.8617Z" fill="#17282F"/>
<path d="M125.723 198.376V203.844C125.723 212.355 119.34 218.738 110.829 218.738C102.937 218.738 95.9353 212.355 95.9353 203.844V198.376C95.9353 190.174 102.937 183.495 110.829 183.495C119.34 183.495 125.723 190.174 125.723 198.376ZM125.723 131.836V151.592C125.723 160.09 119.34 166.473 110.829 166.473C102.937 166.473 95.9353 160.09 95.9353 151.592V119.985C95.9353 119.688 96.2569 119.688 96.2569 119.379C95.9353 119.082 95.9353 119.082 95.9353 118.772C95.9353 110.868 102.937 103.879 110.829 103.879C129.979 103.879 145.466 88.688 145.466 69.8477C145.466 50.7108 129.979 35.8171 110.829 35.8171C98.3844 35.8171 87.4491 42.5096 81.6599 52.5294C77.4043 59.8279 68.2999 62.2526 61.0015 57.997C54.0243 53.7537 51.5751 44.9337 55.8305 37.648C66.7657 18.8077 87.4491 6.04158 110.829 6.04158C146.085 6.04158 174.957 34.6045 174.957 69.8477C174.957 99.9327 153.977 125.156 125.723 131.836Z" fill="#38B89A"/>
<path d="M169.745 69.5161C163.548 44.357 143.257 17.0878 116.476 12.5781C117.92 12.396 119.362 12.3079 120.787 12.3079C144.53 12.3079 165.211 36.6939 169.123 58.7953C169.598 61.3738 169.825 64.2135 169.86 66.8394C169.828 67.7373 169.804 68.6288 169.745 69.5161Z" fill="#40CDAC"/>
<path d="M164.314 197.91L162.952 200.39C160.83 204.25 156.344 205.553 152.485 203.432C148.906 201.464 147.327 196.827 149.448 192.968L150.812 190.488C152.856 186.769 157.69 185.482 161.27 187.449C165.13 189.571 166.359 194.191 164.314 197.91ZM180.901 167.735L175.977 176.694C173.858 180.548 169.372 181.851 165.513 179.73C161.934 177.763 160.355 173.126 162.474 169.272L170.352 154.938C170.426 154.804 170.566 154.881 170.643 154.74C170.577 154.529 170.577 154.529 170.655 154.389C172.625 150.804 177.536 149.376 181.116 151.344C189.8 156.117 200.616 153.092 205.312 144.548C210.083 135.869 206.766 125.251 198.082 120.478C192.433 117.373 185.805 117.682 180.688 120.786C176.944 123.038 172.205 121.865 169.956 118.116C167.844 114.449 168.943 109.845 172.689 107.602C182.345 101.784 194.896 101.144 205.504 106.975C221.492 115.763 227.46 135.911 218.675 151.893C211.175 165.537 195.38 171.748 180.901 167.735Z" fill="#3A3A3A"/>
<path d="M156.319 204.444C155.386 204.444 154.433 204.269 153.501 203.907C153.159 203.774 152.819 203.615 152.485 203.431C152.353 203.359 152.224 203.283 152.097 203.203C149.853 201.79 148.492 199.287 148.492 196.661C148.492 195.424 148.794 194.159 149.449 192.968L150.812 190.488C152.212 187.94 154.924 186.533 157.643 186.533C158.893 186.533 160.143 186.829 161.27 187.449C163.886 188.887 165.294 191.472 165.293 194.147C165.293 195.42 164.974 196.712 164.315 197.91L162.952 200.39C162.905 200.476 162.856 200.561 162.806 200.644C162.769 200.707 162.731 200.769 162.693 200.83C162.107 201.76 161.377 202.523 160.551 203.104C159.303 203.981 157.836 204.444 156.319 204.444Z" fill="#38B89A"/>
<path d="M169.348 180.743C168.072 180.743 166.76 180.415 165.513 179.73C165.184 179.549 164.873 179.346 164.579 179.123C164.399 178.987 164.226 178.843 164.061 178.692C162.963 177.694 162.176 176.396 161.79 174.977C161.612 174.326 161.519 173.648 161.519 172.962C161.518 171.725 161.82 170.461 162.473 169.271L170.352 154.938C170.426 154.803 170.566 154.881 170.643 154.74C170.612 154.639 170.595 154.586 170.595 154.543C170.595 154.496 170.614 154.461 170.655 154.388C172.02 151.904 174.799 150.456 177.567 150.456C178.793 150.456 180.017 150.74 181.116 151.344C183.904 152.877 186.913 153.605 189.868 153.605C196.115 153.605 202.124 150.348 205.312 144.548C206.798 141.845 207.499 138.952 207.498 136.108C207.495 129.821 204.06 123.764 198.082 120.478C195.457 119.035 192.618 118.329 189.82 118.299C189.758 118.298 189.695 118.298 189.632 118.298C186.883 118.298 184.177 118.949 181.751 120.192C181.508 120.316 181.268 120.447 181.031 120.583C180.916 120.649 180.802 120.717 180.688 120.786C179.402 121.559 177.999 121.929 176.62 121.929C173.983 121.929 171.433 120.578 169.956 118.116C169.24 116.873 168.894 115.523 168.893 114.194C168.893 111.6 170.212 109.085 172.689 107.602C177.778 104.536 183.673 102.907 189.662 102.907C195.037 102.907 200.486 104.217 205.504 106.975C216.48 113.008 222.734 124.395 222.733 136.113C222.733 141.464 221.429 146.883 218.675 151.893C212.689 162.783 201.417 168.938 189.749 168.938C189.531 168.938 189.314 168.936 189.096 168.932C186.36 168.878 183.608 168.485 180.901 167.735L175.977 176.694C174.543 179.302 172.023 180.743 169.348 180.743Z" fill="#38B89A"/>
<path d="M10.4988 95.5623L9.65592 93.0336C8.34414 89.0976 10.312 85.162 14.248 83.8502C17.8979 82.6333 22.1141 84.5082 23.4261 88.4438L24.2688 90.9725C25.5329 94.7653 23.3303 98.9322 19.6805 100.148C15.7447 101.46 11.7629 99.3551 10.4988 95.5623ZM20.7555 126.335L17.7103 117.198C16.4001 113.268 18.3682 109.332 22.3042 108.021C25.9541 106.804 30.1704 108.678 31.4803 112.609L36.3522 127.226C36.3978 127.362 36.2548 127.41 36.3025 127.554C36.4913 127.643 36.4913 127.643 36.539 127.786C37.7575 131.442 35.6024 135.751 31.9525 136.968C23.0967 139.919 18.2702 149.334 21.174 158.047C24.1239 166.897 33.5879 171.395 42.4436 168.444C48.2047 166.524 52.2302 161.743 53.3573 156.219C54.1948 152.189 58.0368 149.663 62.0684 150.506C65.9546 151.391 68.4356 155.096 67.5907 159.121C65.4372 169.52 57.8516 178.608 47.0335 182.214C30.729 187.648 12.9795 178.887 7.54708 162.589C2.90982 148.675 8.71873 133.779 20.7555 126.335Z" fill="#3A3A3A"/>
<path d="M37.1447 183.824C24.0951 183.824 11.8884 175.613 7.54712 162.588C6.46709 159.348 5.95361 156.054 5.95361 152.813C5.95361 142.14 11.5222 132.045 20.7555 126.334L17.7103 117.198C17.4377 116.381 17.3071 115.563 17.3065 114.769C17.3042 111.744 19.1869 109.059 22.3042 108.02C23.0476 107.773 23.8152 107.653 24.5762 107.653C27.5516 107.653 30.437 109.479 31.4803 112.609L36.3522 127.225C36.3586 127.244 36.3613 127.262 36.3613 127.278C36.3613 127.361 36.2923 127.411 36.2927 127.496C36.2927 127.514 36.2956 127.533 36.3025 127.553C36.4913 127.643 36.4913 127.643 36.539 127.786C36.771 128.482 36.8806 129.202 36.881 129.92C36.8825 132.97 34.9075 135.983 31.9525 136.968C24.8439 139.337 20.3312 145.871 20.3295 152.863C20.3293 154.581 20.6013 156.327 21.174 158.046C23.5132 165.064 29.9492 169.346 36.9291 169.346C38.7515 169.346 40.6103 169.055 42.4437 168.443C48.2047 166.523 52.2302 161.743 53.3573 156.219C54.0862 152.712 57.0907 150.343 60.5151 150.343C61.0256 150.343 61.5452 150.396 62.0684 150.505C65.4425 151.274 67.7568 154.168 67.7558 157.551C67.7558 158.065 67.7022 158.59 67.5907 159.121C65.4372 169.52 57.8516 178.608 47.0335 182.214C43.7584 183.305 40.4246 183.824 37.1447 183.824ZM17.3092 100.539C14.2447 100.539 11.5073 98.5875 10.4988 95.5621L9.65596 93.0334C9.3817 92.2108 9.2509 91.3883 9.25131 90.5896C9.25256 87.5668 11.1346 84.8874 14.248 83.8499C14.9914 83.6021 15.7586 83.4822 16.5196 83.4822C19.4952 83.4822 22.3813 85.3093 23.4262 88.4435L24.2688 90.9722C24.5132 91.7056 24.628 92.4528 24.6278 93.1905C24.627 96.2663 22.6247 99.167 19.6805 100.148C18.8845 100.414 18.0862 100.539 17.3092 100.539Z" fill="#38B89A"/>
<path d="M76.7747 104.709C73.1336 102.497 67.8586 99.1819 64.9521 96.8447C67.8586 99.1797 73.1299 102.491 76.7736 104.704L76.7747 104.709ZM62.0466 88.7041C62.0424 88.1909 62.045 87.6597 62.0556 87.1141C62.0599 86.8573 62.0662 86.5951 62.0753 86.3324C62.0503 87.1539 62.0402 87.9489 62.0466 88.7041ZM62.1018 85.5778C62.105 85.4977 62.1082 85.4175 62.1113 85.3379C62.1082 85.4181 62.105 85.4977 62.1018 85.5778ZM62.1368 84.7802C62.158 84.292 62.1856 83.7984 62.2191 83.3028C62.3507 81.2363 62.546 79.1056 62.7768 77.0779C62.7965 76.8995 62.8145 76.726 62.8368 76.5541C62.5269 79.2266 62.2679 82.0987 62.1368 84.7802ZM62.8442 76.4893C62.8814 76.1343 62.926 75.7878 62.97 75.4412C63.0103 75.0809 63.0586 74.7301 63.1048 74.3836C63.1499 74.0227 63.1993 73.6666 63.2486 73.319C63.109 74.3226 62.9721 75.3892 62.8442 76.4893ZM63.3213 72.8043C63.3229 72.7894 63.325 72.7746 63.3266 72.7602C63.3701 72.4599 63.4136 72.1664 63.4572 71.8788C63.4121 72.1791 63.3664 72.489 63.3213 72.8043ZM63.5118 71.5232C63.515 71.4993 63.5187 71.4754 63.5219 71.4516C63.5224 71.4505 63.523 71.4494 63.5235 71.4489C63.5193 71.4733 63.5155 71.4983 63.5118 71.5232Z" fill="#E1E1DE"/>
<path d="M63.522 71.4517C63.5427 71.3147 63.565 71.1794 63.5862 71.0468C63.5655 71.1789 63.5443 71.3132 63.5236 71.449C63.523 71.4495 63.5225 71.4506 63.522 71.4517Z" fill="#38B89A" fill-opacity="0.22"/>
<path d="M63.5864 71.0469C63.5891 71.031 63.5912 71.015 63.5939 70.9996C63.6368 70.7253 63.6798 70.461 63.7249 70.2036C63.6788 70.4748 63.6331 70.7566 63.5864 71.0469ZM63.7727 69.9218C63.9064 69.1401 64.038 68.4492 64.1612 67.8739C64.0386 68.4497 63.907 69.1412 63.7727 69.9218ZM65.4757 64.0042C65.5823 63.8031 65.6895 63.6189 65.7983 63.4517C65.9002 63.2957 66.0032 63.154 66.1093 63.0251C65.8944 63.2909 65.6826 63.6152 65.4757 64.0042ZM66.562 62.5528C66.58 62.5368 66.5986 62.5209 66.6166 62.5061C66.8215 62.3362 67.0332 62.2168 67.2349 62.1447C67.3511 62.1027 67.4663 62.0751 67.5809 62.0613C67.2465 62.1033 66.9032 62.2598 66.562 62.5528Z" fill="#142228"/>
<path d="M111.38 96.5781C109.85 96.5781 108.309 96.4465 106.771 96.1791C105.879 96.0236 105 95.8246 104.14 95.5842C103.902 94.4549 101.945 93.4094 99.712 93.4094C99.4244 93.4094 99.132 93.4269 98.8385 93.4635C95.8794 91.8895 93.2796 89.7838 91.1425 87.2944C90.5832 86.6416 90.0525 85.9581 89.551 85.2459C89.0363 84.5131 88.5602 83.7605 88.1251 82.9916C85.9206 79.0842 84.6852 74.6062 84.6836 69.9378C84.6836 69.4448 84.6969 68.9508 84.7245 68.454C84.7834 67.4181 84.9028 66.3801 85.0832 65.3432C86.1249 59.3507 89.1047 54.1723 93.2653 50.3386C94.125 49.5485 95.0425 48.8087 96.0137 48.1246C96.9641 47.4565 97.947 46.8552 98.9574 46.3219C102.214 44.6067 105.838 43.5539 109.624 43.3092C110.181 43.2737 110.74 43.2556 111.302 43.2556C112.834 43.2556 114.376 43.3883 115.916 43.6573C120.808 44.5064 125.267 46.6583 128.91 49.8663C128.588 52.4624 128.721 55.0177 129.249 57.4482C127.863 55.4539 126.148 53.6591 124.18 52.1568C121.843 50.3705 119.104 49.073 116.233 48.3863C114.794 48.0694 113.331 47.8704 111.871 47.8322C111.739 47.8306 111.607 47.8296 111.475 47.8296C110.148 47.8296 108.826 47.9209 107.537 48.1628C104.707 48.6744 101.97 49.6578 99.643 51.2429C102.307 50.3471 105.028 49.8037 107.754 49.5745C108.487 49.5198 109.22 49.4911 109.953 49.4911C111.946 49.4911 113.93 49.7024 115.86 50.1667C117.188 50.448 118.476 50.9065 119.734 51.435C121.01 51.9312 122.2 52.627 123.393 53.3264C125.511 54.6542 127.483 56.2563 129.379 58.015C130.648 63.2066 133.721 67.796 137.985 70.9705C137.937 72.1402 137.811 73.314 137.607 74.4869C136.391 81.4903 132.505 87.6059 126.673 91.7112C122.123 94.9107 116.819 96.5781 111.38 96.5781ZM89.1334 75.1072C89.9029 77.8779 91.2073 80.5319 92.9681 82.8876C94.7284 85.2443 97.0087 87.2408 99.5825 88.6853C100.881 89.3837 102.233 89.9748 103.628 90.4105C105.027 90.8276 106.451 91.1455 107.887 91.2761C108.678 91.3541 109.472 91.3955 110.264 91.3949C112.336 91.3949 114.39 91.1137 116.322 90.4705C115.785 90.496 115.25 90.5087 114.717 90.5087C112.46 90.5087 110.235 90.2832 108.064 89.8592C105.385 89.3104 102.794 88.4072 100.428 87.0752C99.2275 86.4416 98.1131 85.6487 97.0485 84.7964C95.9564 83.9712 95.0017 82.9767 94.0454 81.9774C92.189 79.92 90.5965 77.5871 89.1334 75.1072Z" fill="#6AE59E" fill-opacity="0.22"/>
<path d="M84.1682 65.1881C81.5594 80.1735 91.6286 94.4871 106.614 97.0959C121.599 99.7048 135.913 89.6356 138.521 74.6502C141.13 59.6653 131.061 45.3517 116.076 42.7428C101.091 40.134 86.7771 50.2032 84.1682 65.1881ZM80.6493 64.5757C83.5956 47.6501 99.7629 36.2775 116.688 39.2239C133.614 42.1702 144.987 58.3375 142.04 75.2631C139.094 92.1882 122.927 103.561 106.001 100.615C89.076 97.6685 77.7029 81.5013 80.6493 64.5757Z" fill="white"/>
<path d="M110.264 91.3945C109.472 91.3951 108.678 91.3537 107.887 91.2757C106.45 91.1451 105.026 90.8272 103.627 90.4101C102.233 89.9744 100.881 89.3832 99.582 88.6849C97.0081 87.2403 94.7278 85.2439 92.9675 82.8871C91.2067 80.5314 89.9023 77.8775 89.1328 75.1068C90.5959 77.5867 92.1885 79.9196 94.0448 81.977C95.0011 82.9763 95.9558 83.9708 97.0479 84.796C98.1125 85.6483 99.2269 86.4411 100.428 87.0748C102.794 88.4068 105.384 89.31 108.063 89.8587C110.235 90.2827 112.46 90.5083 114.716 90.5083C115.25 90.5083 115.785 90.4956 116.322 90.4701C114.389 91.1133 112.335 91.3945 110.264 91.3945Z" fill="#F9F9F8"/>
<path d="M27.5591 25.6809C27.5591 33.7706 34.1207 40.3325 42.2107 40.3325C45.4802 40.3325 48.4987 39.26 50.9394 37.443L58.1171 39.2754L55.1287 32.592C56.2387 30.5313 56.8623 28.1746 56.8623 25.6809C56.8623 17.5906 50.3007 11.0293 42.2107 11.0293C34.1207 11.0293 27.5591 17.5906 27.5591 25.6809Z" fill="white"/>
<path d="M27.5588 25.6806C27.5967 13.2101 42.141 6.38607 51.7704 14.3272C57.0872 18.6305 58.7207 26.7213 55.3533 32.7133L55.3618 32.4877L58.3291 39.1802L58.526 39.6233L58.059 39.5012L50.8923 37.6263C41.7131 44.5815 27.6369 38.0434 27.5588 25.6806ZM27.5588 25.6806C27.7878 37.8954 41.1982 44.3442 50.9858 37.2596L58.1741 39.0496L57.904 39.3701L54.8954 32.6963L54.8442 32.5827C59.3666 24.4415 54.7747 13.8756 45.7355 11.6244C36.6782 9.15676 27.5084 16.3125 27.5588 25.6806Z" fill="#17282F"/>
<path d="M43.1684 33.0824V33.5309C43.1684 34.2287 42.6451 34.752 41.9476 34.752C41.3006 34.752 40.7266 34.2287 40.7266 33.5309V33.0824C40.7266 32.4106 41.3006 31.8629 41.9476 31.8629C42.6451 31.8629 43.1684 32.4106 43.1684 33.0824ZM43.1684 27.6281V29.2472C43.1684 29.944 42.6451 30.4672 41.9476 30.4672C41.3006 30.4672 40.7266 29.944 40.7266 29.2472V26.6564L40.7529 26.6065L40.7266 26.5571C40.7266 25.9092 41.3006 25.336 41.9476 25.336C43.5173 25.336 44.787 24.0911 44.787 22.5462C44.787 20.9775 43.5173 19.757 41.9476 19.757C40.9273 19.757 40.0309 20.3052 39.5562 21.1267C39.2075 21.7247 38.461 21.9237 37.8628 21.5751C37.2909 21.227 37.09 20.5042 37.4389 19.9066C38.3354 18.3623 40.0309 17.3158 41.9476 17.3158C44.8378 17.3158 47.2045 19.6572 47.2045 22.5462C47.2045 25.0123 45.4847 27.0804 43.1684 27.6281Z" fill="#38B89A"/>
</g>
<path d="M15.9545 242.99V260.444H13.9091L4.39773 246.74H4.22727V260.444H2.11364V242.99H4.15909L13.7045 256.728H13.875V242.99H15.9545ZM25.2294 260.717C24.0476 260.717 23.0107 260.436 22.1186 259.873C21.2322 259.311 20.5391 258.524 20.0391 257.513C19.5447 256.501 19.2976 255.319 19.2976 253.967C19.2976 252.603 19.5447 251.413 20.0391 250.396C20.5391 249.379 21.2322 248.589 22.1186 248.027C23.0107 247.464 24.0476 247.183 25.2294 247.183C26.4112 247.183 27.4453 247.464 28.3317 248.027C29.2237 248.589 29.9169 249.379 30.4112 250.396C30.9112 251.413 31.1612 252.603 31.1612 253.967C31.1612 255.319 30.9112 256.501 30.4112 257.513C29.9169 258.524 29.2237 259.311 28.3317 259.873C27.4453 260.436 26.4112 260.717 25.2294 260.717ZM25.2294 258.91C26.1271 258.91 26.8658 258.68 27.4453 258.22C28.0249 257.76 28.4538 257.155 28.7322 256.405C29.0107 255.655 29.1499 254.842 29.1499 253.967C29.1499 253.092 29.0107 252.277 28.7322 251.521C28.4538 250.765 28.0249 250.155 27.4453 249.689C26.8658 249.223 26.1271 248.99 25.2294 248.99C24.3317 248.99 23.593 249.223 23.0135 249.689C22.4339 250.155 22.005 250.765 21.7266 251.521C21.4482 252.277 21.3089 253.092 21.3089 253.967C21.3089 254.842 21.4482 255.655 21.7266 256.405C22.005 257.155 22.4339 257.76 23.0135 258.22C23.593 258.68 24.3317 258.91 25.2294 258.91ZM41.2543 260.444V242.99H47.152C48.5213 242.99 49.6406 243.237 50.5099 243.731C51.3849 244.22 52.0327 244.882 52.4531 245.717C52.8736 246.552 53.0838 247.484 53.0838 248.513C53.0838 249.541 52.8736 250.476 52.4531 251.316C52.0384 252.157 51.3963 252.828 50.527 253.328C49.6577 253.822 48.544 254.069 47.1861 254.069H42.9588V252.194H47.1179C48.0554 252.194 48.8082 252.032 49.3764 251.709C49.9446 251.385 50.3565 250.947 50.6122 250.396C50.8736 249.839 51.0043 249.211 51.0043 248.513C51.0043 247.814 50.8736 247.189 50.6122 246.638C50.3565 246.086 49.9418 245.655 49.3679 245.342C48.794 245.024 48.0327 244.865 47.0838 244.865H43.3679V260.444H41.2543ZM64.4659 255.092V247.353H66.4773V260.444H64.4659V258.228H64.3295C64.0227 258.893 63.5455 259.459 62.8977 259.924C62.25 260.385 61.4318 260.615 60.4432 260.615C59.625 260.615 58.8977 260.436 58.2614 260.078C57.625 259.714 57.125 259.169 56.7614 258.441C56.3977 257.709 56.2159 256.785 56.2159 255.672V247.353H58.2273V255.535C58.2273 256.49 58.4943 257.251 59.0284 257.819C59.5682 258.388 60.2557 258.672 61.0909 258.672C61.5909 258.672 62.0994 258.544 62.6165 258.288C63.1392 258.032 63.5767 257.64 63.929 257.112C64.2869 256.584 64.4659 255.91 64.4659 255.092ZM70.4339 260.444V242.99H72.4453V249.433H72.6158C72.7635 249.206 72.968 248.916 73.2294 248.564C73.4964 248.206 73.8771 247.888 74.3714 247.609C74.8714 247.325 75.5476 247.183 76.3999 247.183C77.5021 247.183 78.4737 247.459 79.3146 248.01C80.1555 248.561 80.8118 249.342 81.2834 250.353C81.755 251.365 81.9908 252.558 81.9908 253.933C81.9908 255.319 81.755 256.521 81.2834 257.538C80.8118 258.549 80.1584 259.334 79.3232 259.89C78.4879 260.441 77.5249 260.717 76.4339 260.717C75.593 260.717 74.9197 260.578 74.4141 260.299C73.9084 260.015 73.5192 259.694 73.2464 259.336C72.9737 258.973 72.7635 258.672 72.6158 258.433H72.3771V260.444H70.4339ZM72.4112 253.899C72.4112 254.888 72.5561 255.76 72.8459 256.515C73.1357 257.265 73.5589 257.853 74.1158 258.28C74.6726 258.7 75.3544 258.91 76.1612 258.91C77.0021 258.91 77.7038 258.689 78.2663 258.245C78.8345 257.797 79.2607 257.194 79.5447 256.439C79.8345 255.677 79.9794 254.831 79.9794 253.899C79.9794 252.978 79.8374 252.149 79.5533 251.41C79.2749 250.666 78.8516 250.078 78.2834 249.646C77.7209 249.209 77.0135 248.99 76.1612 248.99C75.343 248.99 74.6555 249.197 74.0987 249.612C73.5419 250.021 73.1214 250.595 72.8374 251.334C72.5533 252.066 72.4112 252.922 72.4112 253.899ZM87.0788 242.99V260.444H85.0675V242.99H87.0788ZM90.7628 260.444V247.353H92.7741V260.444H90.7628ZM91.7855 245.172C91.3935 245.172 91.0554 245.038 90.7713 244.771C90.4929 244.504 90.3537 244.183 90.3537 243.808C90.3537 243.433 90.4929 243.112 90.7713 242.845C91.0554 242.578 91.3935 242.444 91.7855 242.444C92.1776 242.444 92.5128 242.578 92.7912 242.845C93.0753 243.112 93.2173 243.433 93.2173 243.808C93.2173 244.183 93.0753 244.504 92.7912 244.771C92.5128 245.038 92.1776 245.172 91.7855 245.172ZM101.776 260.717C100.549 260.717 99.4922 260.427 98.6058 259.848C97.7195 259.268 97.0376 258.47 96.5604 257.453C96.0831 256.436 95.8445 255.274 95.8445 253.967C95.8445 252.638 96.0888 251.464 96.5774 250.447C97.0717 249.424 97.7592 248.626 98.6399 248.052C99.5263 247.473 100.56 247.183 101.742 247.183C102.663 247.183 103.492 247.353 104.231 247.694C104.969 248.035 105.575 248.513 106.046 249.126C106.518 249.74 106.81 250.456 106.924 251.274H104.913C104.759 250.677 104.418 250.149 103.89 249.689C103.367 249.223 102.663 248.99 101.776 248.99C100.992 248.99 100.305 249.194 99.7138 249.603C99.1286 250.007 98.6712 250.578 98.3416 251.316C98.0178 252.049 97.8558 252.91 97.8558 253.899C97.8558 254.91 98.0149 255.791 98.3331 256.541C98.657 257.291 99.1115 257.873 99.6967 258.288C100.288 258.703 100.981 258.91 101.776 258.91C102.299 258.91 102.773 258.819 103.2 258.638C103.626 258.456 103.987 258.194 104.282 257.853C104.577 257.513 104.788 257.103 104.913 256.626H106.924C106.81 257.399 106.529 258.095 106.08 258.714C105.637 259.328 105.049 259.816 104.316 260.18C103.589 260.538 102.742 260.717 101.776 260.717ZM123.228 254.99H125.546L127.489 257.547L128.001 258.228L130.898 262.081H128.58L126.671 259.524L126.194 258.876L123.228 254.99ZM131.614 251.717C131.614 253.558 131.282 255.149 130.617 256.49C129.952 257.831 129.04 258.865 127.881 259.592C126.722 260.319 125.398 260.683 123.91 260.683C122.421 260.683 121.097 260.319 119.938 259.592C118.779 258.865 117.867 257.831 117.202 256.49C116.538 255.149 116.205 253.558 116.205 251.717C116.205 249.876 116.538 248.285 117.202 246.944C117.867 245.603 118.779 244.569 119.938 243.842C121.097 243.115 122.421 242.751 123.91 242.751C125.398 242.751 126.722 243.115 127.881 243.842C129.04 244.569 129.952 245.603 130.617 246.944C131.282 248.285 131.614 249.876 131.614 251.717ZM129.569 251.717C129.569 250.206 129.316 248.93 128.81 247.89C128.31 246.851 127.631 246.064 126.773 245.53C125.921 244.995 124.967 244.728 123.91 244.728C122.853 244.728 121.896 244.995 121.038 245.53C120.185 246.064 119.506 246.851 119.001 247.89C118.501 248.93 118.251 250.206 118.251 251.717C118.251 253.228 118.501 254.504 119.001 255.544C119.506 256.584 120.185 257.37 121.038 257.905C121.896 258.439 122.853 258.706 123.91 258.706C124.967 258.706 125.921 258.439 126.773 257.905C127.631 257.37 128.31 256.584 128.81 255.544C129.316 254.504 129.569 253.228 129.569 251.717ZM143.146 255.092V247.353H145.157V260.444H143.146V258.228H143.009C142.702 258.893 142.225 259.459 141.577 259.924C140.93 260.385 140.112 260.615 139.123 260.615C138.305 260.615 137.577 260.436 136.941 260.078C136.305 259.714 135.805 259.169 135.441 258.441C135.077 257.709 134.896 256.785 134.896 255.672V247.353H136.907V255.535C136.907 256.49 137.174 257.251 137.708 257.819C138.248 258.388 138.935 258.672 139.771 258.672C140.271 258.672 140.779 258.544 141.296 258.288C141.819 258.032 142.256 257.64 142.609 257.112C142.967 256.584 143.146 255.91 143.146 255.092ZM154.33 260.717C153.068 260.717 151.98 260.439 151.065 259.882C150.156 259.319 149.455 258.535 148.96 257.53C148.472 256.518 148.227 255.342 148.227 254.001C148.227 252.66 148.472 251.478 148.96 250.456C149.455 249.427 150.142 248.626 151.023 248.052C151.909 247.473 152.943 247.183 154.125 247.183C154.807 247.183 155.48 247.297 156.145 247.524C156.81 247.751 157.415 248.12 157.96 248.632C158.506 249.138 158.94 249.808 159.264 250.643C159.588 251.478 159.75 252.507 159.75 253.728V254.581H149.659V252.842H157.705C157.705 252.103 157.557 251.444 157.261 250.865C156.972 250.285 156.557 249.828 156.017 249.493C155.483 249.157 154.852 248.99 154.125 248.99C153.324 248.99 152.631 249.189 152.045 249.586C151.466 249.978 151.02 250.49 150.707 251.12C150.395 251.751 150.239 252.427 150.239 253.149V254.308C150.239 255.297 150.409 256.135 150.75 256.822C151.097 257.504 151.577 258.024 152.19 258.382C152.804 258.734 153.517 258.91 154.33 258.91C154.858 258.91 155.335 258.836 155.761 258.689C156.193 258.535 156.565 258.308 156.878 258.007C157.19 257.7 157.432 257.319 157.602 256.865L159.545 257.41C159.341 258.069 158.997 258.649 158.514 259.149C158.031 259.643 157.435 260.03 156.724 260.308C156.014 260.581 155.216 260.717 154.33 260.717ZM172.082 250.285L170.276 250.797C170.162 250.495 169.994 250.203 169.773 249.919C169.557 249.629 169.261 249.39 168.886 249.203C168.511 249.015 168.031 248.922 167.446 248.922C166.645 248.922 165.977 249.106 165.443 249.476C164.915 249.839 164.651 250.302 164.651 250.865C164.651 251.365 164.832 251.76 165.196 252.049C165.56 252.339 166.128 252.581 166.901 252.774L168.844 253.251C170.014 253.535 170.886 253.97 171.46 254.555C172.034 255.135 172.321 255.882 172.321 256.797C172.321 257.547 172.105 258.217 171.673 258.808C171.247 259.399 170.651 259.865 169.884 260.206C169.116 260.547 168.224 260.717 167.207 260.717C165.872 260.717 164.767 260.427 163.892 259.848C163.017 259.268 162.463 258.422 162.23 257.308L164.139 256.831C164.321 257.535 164.665 258.064 165.17 258.416C165.682 258.768 166.349 258.944 167.173 258.944C168.111 258.944 168.855 258.745 169.406 258.348C169.963 257.944 170.241 257.461 170.241 256.899C170.241 256.444 170.082 256.064 169.764 255.757C169.446 255.444 168.957 255.211 168.298 255.058L166.116 254.547C164.918 254.263 164.037 253.822 163.474 253.226C162.918 252.623 162.639 251.87 162.639 250.967C162.639 250.228 162.847 249.575 163.261 249.007C163.682 248.439 164.253 247.993 164.974 247.669C165.702 247.345 166.526 247.183 167.446 247.183C168.741 247.183 169.759 247.467 170.497 248.035C171.241 248.603 171.77 249.353 172.082 250.285ZM181.042 247.353V249.058H174.258V247.353H181.042ZM176.235 244.217H178.246V256.694C178.246 257.263 178.329 257.689 178.494 257.973C178.664 258.251 178.88 258.439 179.141 258.535C179.408 258.626 179.69 258.672 179.985 258.672C180.207 258.672 180.388 258.66 180.531 258.638C180.673 258.609 180.786 258.586 180.871 258.569L181.281 260.376C181.144 260.427 180.954 260.478 180.71 260.53C180.465 260.586 180.156 260.615 179.781 260.615C179.212 260.615 178.656 260.493 178.11 260.248C177.57 260.004 177.121 259.632 176.763 259.132C176.411 258.632 176.235 258.001 176.235 257.24V244.217ZM184.067 260.444V247.353H186.079V260.444H184.067ZM185.09 245.172C184.698 245.172 184.36 245.038 184.076 244.771C183.798 244.504 183.658 244.183 183.658 243.808C183.658 243.433 183.798 243.112 184.076 242.845C184.36 242.578 184.698 242.444 185.09 242.444C185.482 242.444 185.817 242.578 186.096 242.845C186.38 243.112 186.522 243.433 186.522 243.808C186.522 244.183 186.38 244.504 186.096 244.771C185.817 245.038 185.482 245.172 185.09 245.172ZM195.081 260.717C193.899 260.717 192.862 260.436 191.97 259.873C191.084 259.311 190.391 258.524 189.891 257.513C189.396 256.501 189.149 255.319 189.149 253.967C189.149 252.603 189.396 251.413 189.891 250.396C190.391 249.379 191.084 248.589 191.97 248.027C192.862 247.464 193.899 247.183 195.081 247.183C196.263 247.183 197.297 247.464 198.183 248.027C199.075 248.589 199.768 249.379 200.263 250.396C200.763 251.413 201.013 252.603 201.013 253.967C201.013 255.319 200.763 256.501 200.263 257.513C199.768 258.524 199.075 259.311 198.183 259.873C197.297 260.436 196.263 260.717 195.081 260.717ZM195.081 258.91C195.979 258.91 196.717 258.68 197.297 258.22C197.876 257.76 198.305 257.155 198.584 256.405C198.862 255.655 199.001 254.842 199.001 253.967C199.001 253.092 198.862 252.277 198.584 251.521C198.305 250.765 197.876 250.155 197.297 249.689C196.717 249.223 195.979 248.99 195.081 248.99C194.183 248.99 193.445 249.223 192.865 249.689C192.286 250.155 191.857 250.765 191.578 251.521C191.3 252.277 191.161 253.092 191.161 253.967C191.161 254.842 191.3 255.655 191.578 256.405C191.857 257.155 192.286 257.76 192.865 258.22C193.445 258.68 194.183 258.91 195.081 258.91ZM206.094 252.569V260.444H204.083V247.353H206.026V249.399H206.197C206.504 248.734 206.969 248.2 207.594 247.797C208.219 247.388 209.026 247.183 210.015 247.183C210.901 247.183 211.677 247.365 212.342 247.728C213.006 248.086 213.523 248.632 213.893 249.365C214.262 250.092 214.447 251.013 214.447 252.126V260.444H212.435V252.263C212.435 251.234 212.168 250.433 211.634 249.859C211.1 249.28 210.367 248.99 209.435 248.99C208.793 248.99 208.219 249.129 207.714 249.407C207.214 249.686 206.819 250.092 206.529 250.626C206.239 251.16 206.094 251.808 206.094 252.569ZM227.395 250.285L225.588 250.797C225.474 250.495 225.307 250.203 225.085 249.919C224.869 249.629 224.574 249.39 224.199 249.203C223.824 249.015 223.344 248.922 222.759 248.922C221.957 248.922 221.29 249.106 220.756 249.476C220.227 249.839 219.963 250.302 219.963 250.865C219.963 251.365 220.145 251.76 220.509 252.049C220.872 252.339 221.44 252.581 222.213 252.774L224.156 253.251C225.327 253.535 226.199 253.97 226.773 254.555C227.347 255.135 227.634 255.882 227.634 256.797C227.634 257.547 227.418 258.217 226.986 258.808C226.56 259.399 225.963 259.865 225.196 260.206C224.429 260.547 223.537 260.717 222.52 260.717C221.185 260.717 220.08 260.427 219.205 259.848C218.33 259.268 217.776 258.422 217.543 257.308L219.452 256.831C219.634 257.535 219.977 258.064 220.483 258.416C220.994 258.768 221.662 258.944 222.486 258.944C223.423 258.944 224.168 258.745 224.719 258.348C225.276 257.944 225.554 257.461 225.554 256.899C225.554 256.444 225.395 256.064 225.077 255.757C224.759 255.444 224.27 255.211 223.611 255.058L221.429 254.547C220.23 254.263 219.349 253.822 218.787 253.226C218.23 252.623 217.952 251.87 217.952 250.967C217.952 250.228 218.159 249.575 218.574 249.007C218.994 248.439 219.565 247.993 220.287 247.669C221.014 247.345 221.838 247.183 222.759 247.183C224.054 247.183 225.071 247.467 225.81 248.035C226.554 248.603 227.082 249.353 227.395 250.285Z" fill="#7B849A"/>
<defs>
<clipPath id="clip0_3358_3674">
<rect width="220" height="222.444" fill="white" transform="translate(4.5)"/>
</clipPath>
</defs>
</svg>
