<svg width="279" height="266" viewBox="0 0 279 266" fill="none" xmlns="http://www.w3.org/2000/svg">
<g clip-path="url(#clip0_5069_3665)">
<path d="M189.74 127.544L188.346 130.081C186.175 134.029 181.587 135.362 177.638 133.192C173.977 131.179 172.362 126.436 174.533 122.488L175.927 119.951C178.018 116.147 182.964 114.83 186.625 116.842C190.574 119.012 191.831 123.739 189.74 127.544ZM206.708 96.6749L201.67 105.84C199.503 109.782 194.914 111.116 190.966 108.946C187.305 106.933 185.69 102.19 187.857 98.2474L195.917 83.5846C195.992 83.4466 196.135 83.5257 196.214 83.3819C196.146 83.1653 196.146 83.1653 196.226 83.022C198.241 79.355 203.266 77.8946 206.927 79.9075C215.811 84.7903 226.875 81.6959 231.679 72.9555C236.56 64.0777 233.167 53.2157 224.283 48.3324C218.504 45.1557 211.725 45.472 206.489 48.6476C202.66 50.9513 197.812 49.7514 195.511 45.9162C193.351 42.1653 194.475 37.4555 198.307 35.1603C208.184 29.2087 221.024 28.5538 231.876 34.5192C248.231 43.5095 254.336 64.1197 245.349 80.4695C237.678 94.4259 221.519 100.781 206.708 96.6749Z" fill="#38B89A" fill-opacity="0.28"/>
<path d="M178.273 6.46391L178.566 4.53168C179.022 1.52325 181.62 -0.390923 184.628 0.0649338C187.417 0.487885 189.546 3.11795 189.09 6.12586L188.797 8.05861C188.358 10.9572 185.53 12.9441 182.74 12.5211C179.733 12.0658 177.834 9.3625 178.273 6.46391ZM174.71 29.9822L175.768 22.9995C176.223 19.9958 178.821 18.0816 181.829 18.5375C184.619 18.9599 186.747 21.5905 186.292 24.5942L184.599 35.765C184.583 35.8701 184.474 35.8531 184.458 35.9625C184.551 36.084 184.551 36.084 184.535 36.1933C184.111 38.9874 181.267 41.083 178.477 40.6606C171.709 39.6353 165.417 44.1742 164.409 50.8333C163.384 57.5968 168.064 63.6912 174.833 64.7165C179.235 65.3835 183.459 63.6036 186.037 60.3718C187.928 58.0192 191.28 57.6504 193.632 59.5455C195.875 61.4193 196.259 64.6666 194.365 67.0138C189.491 73.0869 181.506 76.4929 173.238 75.2405C160.778 73.3523 152.107 61.7117 153.994 49.255C155.605 38.6222 164.367 30.8297 174.71 29.9822Z" fill="#38B89A" fill-opacity="0.28"/>
<path d="M42.8829 23.9939L42.0518 22.2246C40.7586 19.4709 41.854 16.4354 44.6078 15.1427C47.1615 13.9428 50.3928 14.9463 51.6861 17.7L52.517 19.4693C53.7633 22.1227 52.517 25.3466 49.9633 26.546C47.2096 27.8393 44.1291 26.6479 42.8829 23.9939ZM52.994 45.5243L49.9919 39.1322C48.7007 36.3822 49.796 33.3467 52.5498 32.0534C55.1035 30.8541 58.3348 31.8576 59.6263 34.6076L64.4292 44.8344C64.4744 44.9299 64.3743 44.9771 64.4213 45.0774C64.5664 45.1263 64.5664 45.1263 64.6135 45.2266C65.8146 47.7839 64.6151 51.1076 62.0614 52.3069C55.8655 55.2167 53.1586 62.4876 56.0214 68.5835C58.9294 74.7755 66.208 77.2395 72.404 74.3298C76.4349 72.4368 78.9563 68.6095 79.3026 64.4893C79.5667 61.483 82.148 59.313 85.1563 59.581C88.0629 59.892 90.1872 62.3772 89.9176 65.3814C89.2421 73.1394 84.4978 80.4093 76.9286 83.9638C65.5212 89.321 51.8425 84.4647 46.4869 73.0609C41.9154 63.3266 44.8671 51.979 52.994 45.5243Z" fill="#38B89A" fill-opacity="0.28"/>
<path d="M186.139 213.412C185.276 212.29 184.383 211.142 183.54 210.065C183.541 210.065 183.542 210.066 183.543 210.066C184.385 211.142 185.278 212.289 186.139 213.41C186.139 213.411 186.139 213.411 186.139 213.412Z" fill="#38B89A" fill-opacity="0.19"/>
<path d="M186.561 222.641C185.58 222.157 184.473 221.607 183.271 221.006L183.206 220.601C184.425 221.238 185.547 221.829 186.539 222.354C186.546 222.451 186.554 222.547 186.561 222.641Z" fill="#38B89A" fill-opacity="0.19"/>
<path d="M182.828 209.156C182.826 209.155 182.825 209.154 182.823 209.153C182.498 208.738 182.185 208.342 181.889 207.967C181.89 207.967 181.891 207.968 181.893 207.968C182.189 208.343 182.503 208.742 182.828 209.156Z" fill="#38B89A" fill-opacity="0.19"/>
<path d="M181.025 206.869C181.024 206.869 181.022 206.867 181.021 206.867C181.016 206.86 181.01 206.854 181.005 206.847L181.004 206.843C181.011 206.852 181.018 206.861 181.025 206.869Z" fill="#38B89A" fill-opacity="0.19"/>
<path d="M181.023 206.867C181.017 206.864 181.013 206.861 181.007 206.858L181.005 206.845C181.011 206.852 181.017 206.86 181.023 206.867Z" fill="#142228"/>
<path d="M184.2 77.8989C184.196 77.8363 184.103 77.8485 184.095 77.9047C183.767 80.3162 183.579 82.8183 182.414 85.0069C181.345 87.0144 179.481 88.3088 177.45 89.2152C176.276 89.739 175.054 90.1518 173.832 90.5493C173.745 90.578 173.764 90.7154 173.86 90.6953C176.165 90.2166 178.509 89.6795 180.512 88.3847C182.657 86.9985 183.76 84.7813 184.113 82.2983C184.32 80.8389 184.298 79.3646 184.2 77.8989Z" fill="#273E47"/>
<path d="M224.232 48.9355V48.935C224.401 48.822 224.571 48.7074 224.741 48.5917C224.571 48.7079 224.402 48.8225 224.232 48.9355Z" fill="#38B89A" fill-opacity="0.19"/>
<path d="M224.741 48.5918C225.084 48.3567 225.428 48.1163 225.77 47.8711L225.77 47.8722C225.428 48.1168 225.084 48.3572 224.741 48.5918ZM220.437 35.5853H220.437C220.859 35.1305 221.279 34.6784 221.685 34.2453L221.668 34.231L221.685 34.2453C221.279 34.6789 220.859 35.1305 220.437 35.5853Z" fill="#38B89A" fill-opacity="0.22"/>
<path d="M230.641 26.2227C230.704 26.159 230.743 26.1144 230.757 26.0921C231.736 24.5096 232.22 21.1913 233.376 20.3204C232.22 21.1923 231.737 24.5101 230.758 26.091C230.744 26.1139 230.704 26.1584 230.641 26.2227ZM235.138 22.3816V22.381C235.234 22.1125 235.449 21.5744 235.774 21.117C235.449 21.5749 235.234 22.1136 235.138 22.3816ZM237.586 20.538C237.472 20.4541 237.338 20.392 237.181 20.3586C237.116 20.3448 237.052 20.3374 236.99 20.3358C237.053 20.3374 237.117 20.3448 237.182 20.3586C237.34 20.392 237.474 20.4536 237.586 20.538Z" fill="#38B89A" fill-opacity="0.19"/>
<path d="M223.975 29.9531C224.067 29.7743 224.153 29.6066 224.229 29.4543C224.301 29.3115 224.38 29.1417 224.464 28.9517C224.38 29.1422 224.301 29.3121 224.229 29.4554C224.153 29.6071 224.067 29.7748 223.975 29.9531ZM225.134 27.3883C225.962 25.4535 227.049 23.0978 228.076 22.8977C228.131 22.8866 228.186 22.8812 228.238 22.8812C228.379 22.8812 228.505 22.9195 228.618 22.9916C228.505 22.92 228.379 22.8812 228.239 22.8812C228.187 22.8812 228.132 22.8866 228.076 22.8977C227.049 23.0988 225.962 25.4535 225.134 27.3883Z" fill="#38B89A" fill-opacity="0.19"/>
<path d="M209.419 47.457C209.358 47.4294 209.283 47.3965 209.195 47.3573C209.225 47.2623 209.255 47.1673 209.286 47.0733L209.507 47.2288C209.478 47.3042 209.448 47.3806 209.419 47.457Z" fill="#142228"/>
<path d="M191.509 40.6771L188.479 46.1855C188.33 46.0051 188.197 45.8247 188.081 45.6496L190.877 40.5709C191.079 40.5975 191.291 40.6293 191.509 40.6771Z" fill="#273E47"/>
<path d="M191.597 49.8612C192.398 50.0814 193.033 50.4768 193.626 51.0547C192.8 50.9761 192.082 50.5277 191.597 49.8612Z" fill="#17282F"/>
<path d="M150.723 198.376V203.844C150.723 212.355 144.34 218.738 135.83 218.738C127.937 218.738 120.936 212.355 120.936 203.844V198.376C120.936 190.175 127.937 183.495 135.83 183.495C144.34 183.495 150.723 190.175 150.723 198.376ZM150.723 131.836V151.592C150.723 160.09 144.34 166.473 135.83 166.473C127.937 166.473 120.936 160.09 120.936 151.592V119.986C120.936 119.688 121.257 119.688 121.257 119.38C120.936 119.082 120.936 119.082 120.936 118.773C120.936 110.868 127.937 103.879 135.83 103.879C154.979 103.879 170.466 88.6885 170.466 69.8482C170.466 50.7113 154.979 35.8176 135.83 35.8176C123.385 35.8176 112.449 42.5101 106.66 52.5299C102.405 59.8284 93.3002 62.2531 86.0017 57.9975C79.0245 53.7542 76.5753 44.9342 80.8307 37.6485C91.766 18.8082 112.449 6.04207 135.83 6.04207C171.085 6.04207 199.957 34.605 199.957 69.8482C199.957 99.9332 178.977 125.157 150.723 131.836Z" fill="#38B89A"/>
<path d="M194.745 69.5156C188.549 44.3565 168.258 17.0873 141.476 12.5776C142.921 12.3956 144.362 12.3075 145.787 12.3075C169.531 12.3075 190.211 36.6934 194.124 58.7948C194.598 61.3734 194.826 64.213 194.861 66.8389C194.828 67.7368 194.804 68.6283 194.745 69.5156Z" fill="#40CDAC"/>
<path d="M189.314 197.909L187.952 200.389C185.83 204.248 181.344 205.552 177.485 203.43C173.906 201.463 172.327 196.826 174.448 192.967L175.812 190.487C177.856 186.768 182.69 185.48 186.27 187.448C190.13 189.569 191.359 194.19 189.314 197.909ZM205.901 167.733L200.977 176.692C198.858 180.547 194.372 181.85 190.513 179.728C186.934 177.761 185.355 173.124 187.474 169.27L195.352 154.937C195.426 154.802 195.566 154.88 195.643 154.739C195.577 154.527 195.577 154.527 195.655 154.387C197.625 150.802 202.536 149.375 206.116 151.343C214.8 156.116 225.616 153.091 230.312 144.547C235.083 135.868 231.766 125.25 223.082 120.476C217.433 117.371 210.805 117.681 205.688 120.785C201.944 123.037 197.205 121.864 194.956 118.114C192.844 114.448 193.943 109.844 197.689 107.6C207.345 101.783 219.896 101.143 230.504 106.974C246.492 115.762 252.46 135.909 243.675 151.892C236.175 165.535 220.38 171.747 205.901 167.733Z" fill="#3A3A3A"/>
<path d="M181.319 204.443C180.386 204.443 179.433 204.268 178.501 203.906C178.159 203.773 177.819 203.614 177.485 203.43C177.353 203.358 177.224 203.282 177.097 203.202C174.853 201.789 173.492 199.286 173.492 196.66C173.492 195.423 173.794 194.158 174.449 192.967L175.812 190.487C177.212 187.939 179.924 186.532 182.643 186.532C183.893 186.532 185.143 186.828 186.27 187.448C188.886 188.886 190.294 191.471 190.293 194.146C190.293 195.419 189.974 196.711 189.315 197.909L187.952 200.389C187.905 200.475 187.856 200.56 187.806 200.643C187.769 200.706 187.731 200.768 187.693 200.829C187.107 201.759 186.377 202.522 185.551 203.103C184.303 203.98 182.836 204.443 181.319 204.443Z" fill="#38B89A"/>
<path d="M194.348 180.742C193.071 180.742 191.76 180.414 190.512 179.729C190.184 179.548 189.872 179.345 189.578 179.122C189.399 178.986 189.226 178.842 189.061 178.691C187.963 177.693 187.176 176.395 186.79 174.976C186.612 174.325 186.519 173.647 186.519 172.961C186.518 171.724 186.82 170.46 187.473 169.27L195.352 154.937C195.426 154.802 195.566 154.88 195.643 154.739C195.611 154.638 195.595 154.585 195.595 154.542C195.595 154.495 195.614 154.46 195.654 154.387C197.02 151.903 199.798 150.455 202.567 150.455C203.793 150.455 205.017 150.739 206.116 151.343C208.904 152.876 211.913 153.604 214.868 153.604C221.115 153.604 227.124 150.347 230.312 144.547C231.798 141.844 232.499 138.951 232.498 136.107C232.495 129.82 229.06 123.763 223.082 120.477C220.456 119.034 217.618 118.328 214.82 118.298C214.757 118.297 214.695 118.297 214.632 118.297C211.883 118.297 209.177 118.948 206.75 120.191C206.508 120.315 206.268 120.446 206.031 120.582C205.916 120.648 205.801 120.716 205.687 120.785C204.402 121.558 202.999 121.928 201.62 121.928C198.983 121.928 196.433 120.577 194.956 118.115C194.24 116.872 193.893 115.522 193.893 114.193C193.893 111.599 195.212 109.084 197.689 107.601C202.778 104.535 208.673 102.906 214.662 102.906C220.036 102.906 225.486 104.216 230.504 106.974C241.48 113.007 247.733 124.394 247.733 136.112C247.733 141.463 246.428 146.882 243.675 151.892C237.689 162.782 226.416 168.937 214.749 168.937C214.531 168.937 214.314 168.935 214.096 168.931C211.36 168.877 208.608 168.484 205.901 167.734L200.976 176.693C199.543 179.301 197.023 180.742 194.348 180.742Z" fill="#38B89A"/>
<path d="M35.4988 95.5623L34.6559 93.0336C33.3441 89.0976 35.312 85.162 39.248 83.8502C42.8979 82.6333 47.1141 84.5082 48.4261 88.4438L49.2688 90.9725C50.5329 94.7653 48.3303 98.9322 44.6805 100.148C40.7447 101.46 36.7629 99.3551 35.4988 95.5623ZM45.7555 126.335L42.7103 117.198C41.4001 113.268 43.3682 109.332 47.3042 108.021C50.9541 106.804 55.1704 108.678 56.4803 112.609L61.3522 127.226C61.3978 127.362 61.2548 127.41 61.3025 127.554C61.4913 127.643 61.4913 127.643 61.539 127.786C62.7575 131.442 60.6024 135.751 56.9525 136.968C48.0967 139.919 43.2702 149.334 46.174 158.047C49.1239 166.897 58.5879 171.395 67.4436 168.444C73.2047 166.524 77.2302 161.743 78.3573 156.219C79.1948 152.189 83.0368 149.663 87.0684 150.506C90.9546 151.391 93.4356 155.096 92.5907 159.121C90.4372 169.52 82.8516 178.608 72.0335 182.214C55.729 187.648 37.9795 178.887 32.5471 162.589C27.9098 148.675 33.7187 133.779 45.7555 126.335Z" fill="#3A3A3A"/>
<path d="M62.1447 183.822C49.0951 183.822 36.8884 175.612 32.5471 162.587C31.4671 159.347 30.9536 156.053 30.9536 152.812C30.9536 142.139 36.5222 132.044 45.7555 126.333L42.7103 117.197C42.4377 116.379 42.3071 115.562 42.3065 114.767C42.3042 111.743 44.1869 109.058 47.3042 108.019C48.0476 107.771 48.8152 107.651 49.5762 107.651C52.5516 107.651 55.437 109.477 56.4803 112.607L61.3522 127.224C61.3586 127.243 61.3613 127.26 61.3613 127.277C61.3613 127.36 61.2923 127.41 61.2927 127.495C61.2927 127.513 61.2956 127.531 61.3025 127.552C61.4913 127.641 61.4913 127.641 61.539 127.784C61.771 128.481 61.8806 129.2 61.881 129.918C61.8825 132.969 59.9075 135.981 56.9525 136.966C49.8439 139.336 45.3312 145.869 45.3295 152.862C45.3293 154.58 45.6013 156.326 46.174 158.045C48.5132 165.063 54.9492 169.345 61.9291 169.345C63.7515 169.345 65.6103 169.053 67.4437 168.442C73.2047 166.522 77.2302 161.741 78.3573 156.217C79.0862 152.71 82.0907 150.342 85.5151 150.342C86.0256 150.342 86.5452 150.395 87.0684 150.504C90.4425 151.272 92.7568 154.166 92.7558 157.55C92.7558 158.064 92.7022 158.589 92.5907 159.119C90.4372 169.518 82.8516 178.606 72.0335 182.212C68.7584 183.304 65.4246 183.822 62.1447 183.822ZM42.3092 100.538C39.2447 100.538 36.5073 98.5861 35.4988 95.5606L34.656 93.0319C34.3817 92.2094 34.2509 91.3868 34.2513 90.5881C34.2526 87.5654 36.1346 84.886 39.248 83.8485C39.9914 83.6006 40.7586 83.4807 41.5196 83.4807C44.4952 83.4807 47.3813 85.3078 48.4262 88.4421L49.2688 90.9708C49.5132 91.7042 49.628 92.4514 49.6278 93.189C49.627 96.2649 47.6247 99.1656 44.6805 100.147C43.8845 100.412 43.0862 100.538 42.3092 100.538Z" fill="#38B89A"/>
<path d="M101.775 104.709C98.1339 102.497 92.8589 99.1814 89.9523 96.8443C92.8589 99.1793 98.1302 102.491 101.774 104.704L101.775 104.709ZM87.0469 88.7036C87.0426 88.1904 87.0453 87.6592 87.0559 87.1137C87.0601 86.8568 87.0665 86.5946 87.0755 86.332C87.0506 87.1535 87.0405 87.9484 87.0469 88.7036ZM87.102 85.5773C87.1052 85.4972 87.1084 85.4171 87.1116 85.3375C87.1084 85.4176 87.1052 85.4972 87.102 85.5773ZM87.1371 84.7797C87.1583 84.2915 87.1859 83.7979 87.2193 83.3023C87.3509 81.2358 87.5462 79.1051 87.7771 77.0774C87.7967 76.8991 87.8148 76.7255 87.837 76.5536C87.5271 79.2261 87.2681 82.0982 87.1371 84.7797ZM87.8445 76.4888C87.8816 76.1338 87.9262 75.7873 87.9702 75.4407C88.0106 75.0804 88.0589 74.7296 88.105 74.3831C88.1501 74.0222 88.1995 73.6661 88.2488 73.3185C88.1093 74.3221 87.9724 75.3887 87.8445 76.4888ZM88.3216 72.8038C88.3231 72.7889 88.3253 72.7741 88.3269 72.7597C88.3704 72.4594 88.4139 72.1659 88.4574 71.8783C88.4123 72.1786 88.3667 72.4885 88.3216 72.8038ZM88.5121 71.5227C88.5153 71.4988 88.519 71.4749 88.5222 71.4511C88.5227 71.45 88.5232 71.449 88.5237 71.4484C88.5195 71.4728 88.5158 71.4978 88.5121 71.5227Z" fill="#E1E1DE"/>
<path d="M88.522 71.4512C88.5427 71.3143 88.565 71.1789 88.5862 71.0463C88.5655 71.1784 88.5443 71.3127 88.5236 71.4485C88.523 71.4491 88.5225 71.4501 88.522 71.4512Z" fill="#38B89A" fill-opacity="0.22"/>
<path d="M88.5864 71.0469C88.5891 71.031 88.5912 71.015 88.5939 70.9996C88.6368 70.7253 88.6798 70.461 88.7249 70.2036C88.6788 70.4748 88.6331 70.7566 88.5864 71.0469ZM88.7727 69.9218C88.9064 69.1401 89.038 68.4492 89.1612 67.8739C89.0386 68.4497 88.907 69.1412 88.7727 69.9218ZM90.4757 64.0042C90.5823 63.8031 90.6895 63.6189 90.7983 63.4517C90.9002 63.2957 91.0032 63.154 91.1093 63.0251C90.8944 63.2909 90.6826 63.6152 90.4757 64.0042ZM91.562 62.5528C91.58 62.5368 91.5986 62.5209 91.6166 62.5061C91.8215 62.3362 92.0332 62.2168 92.2349 62.1447C92.3511 62.1027 92.4663 62.0751 92.5809 62.0613C92.2465 62.1033 91.9032 62.2598 91.562 62.5528Z" fill="#142228"/>
<path d="M136.38 96.5781C134.85 96.5781 133.309 96.4465 131.771 96.1791C130.879 96.0236 130 95.8246 129.14 95.5842C128.902 94.4549 126.945 93.4094 124.712 93.4094C124.424 93.4094 124.132 93.4269 123.839 93.4635C120.879 91.8895 118.28 89.7838 116.143 87.2944C115.583 86.6416 115.053 85.9581 114.551 85.2459C114.036 84.5131 113.56 83.7605 113.125 82.9916C110.921 79.0842 109.685 74.6062 109.684 69.9378C109.684 69.4448 109.697 68.9508 109.724 68.454C109.783 67.4181 109.903 66.3801 110.083 65.3432C111.125 59.3507 114.105 54.1723 118.265 50.3386C119.125 49.5485 120.043 48.8087 121.014 48.1246C121.964 47.4565 122.947 46.8552 123.957 46.3219C127.214 44.6067 130.838 43.5539 134.624 43.3092C135.181 43.2737 135.74 43.2556 136.302 43.2556C137.834 43.2556 139.376 43.3883 140.916 43.6573C145.808 44.5064 150.267 46.6583 153.91 49.8663C153.588 52.4624 153.721 55.0177 154.249 57.4482C152.863 55.4539 151.148 53.6591 149.18 52.1568C146.843 50.3705 144.104 49.073 141.233 48.3863C139.794 48.0694 138.331 47.8704 136.871 47.8322C136.739 47.8306 136.607 47.8296 136.475 47.8296C135.148 47.8296 133.826 47.9209 132.537 48.1628C129.707 48.6744 126.97 49.6578 124.643 51.2429C127.307 50.3471 130.028 49.8037 132.754 49.5745C133.487 49.5198 134.22 49.4911 134.953 49.4911C136.946 49.4911 138.93 49.7024 140.86 50.1667C142.188 50.448 143.476 50.9065 144.734 51.435C146.01 51.9312 147.2 52.627 148.393 53.3264C150.511 54.6542 152.483 56.2563 154.379 58.015C155.648 63.2066 158.721 67.796 162.985 70.9705C162.937 72.1402 162.811 73.314 162.607 74.4869C161.391 81.4903 157.505 87.6059 151.673 91.7112C147.123 94.9107 141.819 96.5781 136.38 96.5781ZM114.133 75.1072C114.903 77.8779 116.207 80.5319 117.968 82.8876C119.728 85.2443 122.009 87.2408 124.583 88.6853C125.881 89.3837 127.233 89.9748 128.628 90.4105C130.027 90.8276 131.451 91.1455 132.887 91.2761C133.678 91.3541 134.472 91.3955 135.264 91.3949C137.336 91.3949 139.39 91.1137 141.322 90.4705C140.785 90.496 140.25 90.5087 139.717 90.5087C137.46 90.5087 135.235 90.2832 133.064 89.8592C130.385 89.3104 127.794 88.4072 125.428 87.0752C124.227 86.4416 123.113 85.6487 122.049 84.7964C120.956 83.9712 120.002 82.9767 119.045 81.9774C117.189 79.92 115.596 77.5871 114.133 75.1072Z" fill="#6AE59E" fill-opacity="0.22"/>
<path d="M109.168 65.1866C106.559 80.172 116.629 94.4856 131.614 97.0945C146.599 99.7033 160.913 89.6341 163.521 74.6487C166.13 59.6638 156.061 45.3502 141.076 42.7414C126.091 40.1325 111.777 50.2017 109.168 65.1866ZM105.649 64.5742C108.596 47.6486 124.763 36.2761 141.688 39.2224C158.614 42.1688 169.987 58.336 167.04 75.2616C164.094 92.1867 147.927 103.56 131.001 100.613C114.076 97.6671 102.703 81.4998 105.649 64.5742Z" fill="white"/>
<path d="M135.264 91.3945C134.472 91.3951 133.678 91.3537 132.887 91.2757C131.45 91.1451 130.026 90.8272 128.627 90.4101C127.233 89.9744 125.881 89.3832 124.582 88.6849C122.008 87.2403 119.728 85.2439 117.968 82.8871C116.207 80.5314 114.902 77.8775 114.133 75.1068C115.596 77.5867 117.188 79.9196 119.045 81.977C120.001 82.9763 120.956 83.9708 122.048 84.796C123.112 85.6483 124.227 86.4411 125.428 87.0748C127.794 88.4068 130.384 89.31 133.063 89.8587C135.235 90.2827 137.46 90.5083 139.716 90.5083C140.25 90.5083 140.785 90.4956 141.322 90.4701C139.389 91.1133 137.335 91.3945 135.264 91.3945Z" fill="#F9F9F8"/>
<path d="M52.5591 25.6804C52.5591 33.7701 59.1207 40.332 67.2107 40.332C70.4802 40.332 73.4987 39.2595 75.9394 37.4425L83.1171 39.2749L80.1287 32.5915C81.2387 30.5308 81.8623 28.1741 81.8623 25.6804C81.8623 17.5901 75.3007 11.0288 67.2107 11.0288C59.1207 11.0288 52.5591 17.5901 52.5591 25.6804Z" fill="white"/>
<path d="M52.5588 25.6802C52.5967 13.2096 67.141 6.38558 76.7704 14.3267C82.0872 18.63 83.7207 26.7208 80.3533 32.7128L80.3618 32.4872L83.3291 39.1797L83.526 39.6228L83.059 39.5007L75.8923 37.6258C66.7131 44.581 52.6369 38.0429 52.5588 25.6802ZM52.5588 25.6802C52.7878 37.8949 66.1982 44.3438 75.9858 37.2591L83.1741 39.0491L82.904 39.3697L79.8954 32.6958L79.8442 32.5822C84.3666 24.441 79.7747 13.8751 70.7355 11.624C61.6782 9.15628 52.5084 16.312 52.5588 25.6802Z" fill="#17282F"/>
<path d="M68.1684 33.0824V33.5309C68.1684 34.2287 67.6451 34.752 66.9476 34.752C66.3006 34.752 65.7266 34.2287 65.7266 33.5309V33.0824C65.7266 32.4106 66.3006 31.8629 66.9476 31.8629C67.6451 31.8629 68.1684 32.4106 68.1684 33.0824ZM68.1684 27.6281V29.2472C68.1684 29.944 67.6451 30.4672 66.9476 30.4672C66.3006 30.4672 65.7266 29.944 65.7266 29.2472V26.6564L65.7529 26.6065L65.7266 26.5571C65.7266 25.9092 66.3006 25.336 66.9476 25.336C68.5173 25.336 69.787 24.0911 69.787 22.5462C69.787 20.9775 68.5173 19.757 66.9476 19.757C65.9273 19.757 65.0309 20.3052 64.5562 21.1267C64.2075 21.7247 63.461 21.9237 62.8628 21.5751C62.2909 21.227 62.09 20.5042 62.4389 19.9066C63.3354 18.3623 65.0309 17.3158 66.9476 17.3158C69.8378 17.3158 72.2045 19.6572 72.2045 22.5462C72.2045 25.0123 70.4847 27.0804 68.1684 27.6281Z" fill="#38B89A"/>
</g>
<path d="M15.9545 242.991V260.445H13.9091L4.39773 246.741H4.22727V260.445H2.11364V242.991H4.15909L13.7045 256.729H13.875V242.991H15.9545ZM25.2294 260.718C24.0476 260.718 23.0107 260.437 22.1186 259.874C21.2322 259.312 20.5391 258.525 20.0391 257.513C19.5447 256.502 19.2976 255.32 19.2976 253.968C19.2976 252.604 19.5447 251.414 20.0391 250.397C20.5391 249.38 21.2322 248.59 22.1186 248.028C23.0107 247.465 24.0476 247.184 25.2294 247.184C26.4112 247.184 27.4453 247.465 28.3317 248.028C29.2237 248.59 29.9169 249.38 30.4112 250.397C30.9112 251.414 31.1612 252.604 31.1612 253.968C31.1612 255.32 30.9112 256.502 30.4112 257.513C29.9169 258.525 29.2237 259.312 28.3317 259.874C27.4453 260.437 26.4112 260.718 25.2294 260.718ZM25.2294 258.911C26.1271 258.911 26.8658 258.681 27.4453 258.221C28.0249 257.761 28.4538 257.156 28.7322 256.406C29.0107 255.656 29.1499 254.843 29.1499 253.968C29.1499 253.093 29.0107 252.278 28.7322 251.522C28.4538 250.766 28.0249 250.156 27.4453 249.69C26.8658 249.224 26.1271 248.991 25.2294 248.991C24.3317 248.991 23.593 249.224 23.0135 249.69C22.4339 250.156 22.005 250.766 21.7266 251.522C21.4482 252.278 21.3089 253.093 21.3089 253.968C21.3089 254.843 21.4482 255.656 21.7266 256.406C22.005 257.156 22.4339 257.761 23.0135 258.221C23.593 258.681 24.3317 258.911 25.2294 258.911ZM41.2543 260.445V242.991H47.152C48.5156 242.991 49.6349 243.224 50.5099 243.69C51.3849 244.15 52.0327 244.783 52.4531 245.59C52.8736 246.397 53.0838 247.315 53.0838 248.343C53.0838 249.371 52.8736 250.283 52.4531 251.079C52.0327 251.874 51.3878 252.499 50.5185 252.954C49.6491 253.403 48.5384 253.627 47.1861 253.627H42.4134V251.718H47.1179C48.0497 251.718 48.7997 251.582 49.3679 251.309C49.9418 251.036 50.3565 250.65 50.6122 250.15C50.8736 249.644 51.0043 249.042 51.0043 248.343C51.0043 247.644 50.8736 247.033 50.6122 246.511C50.3509 245.988 49.9332 245.585 49.3594 245.3C48.7855 245.011 48.027 244.866 47.0838 244.866H43.3679V260.445H41.2543ZM49.4702 252.604L53.7656 260.445H51.3111L47.0838 252.604H49.4702ZM61.6811 260.718C60.4197 260.718 59.3317 260.44 58.4169 259.883C57.5078 259.32 56.8061 258.536 56.3118 257.531C55.8232 256.519 55.5788 255.343 55.5788 254.002C55.5788 252.661 55.8232 251.479 56.3118 250.457C56.8061 249.428 57.4936 248.627 58.3743 248.053C59.2607 247.474 60.2947 247.184 61.4766 247.184C62.1584 247.184 62.8317 247.298 63.4964 247.525C64.1612 247.752 64.7663 248.121 65.3118 248.633C65.8572 249.138 66.2919 249.809 66.6158 250.644C66.9396 251.479 67.1016 252.508 67.1016 253.729V254.582H57.0107V252.843H65.0561C65.0561 252.104 64.9084 251.445 64.6129 250.866C64.3232 250.286 63.9084 249.829 63.3686 249.494C62.8345 249.158 62.2038 248.991 61.4766 248.991C60.6754 248.991 59.9822 249.19 59.397 249.587C58.8175 249.979 58.3714 250.491 58.0589 251.121C57.7464 251.752 57.5902 252.428 57.5902 253.15V254.309C57.5902 255.298 57.7607 256.136 58.1016 256.823C58.4482 257.505 58.9283 258.025 59.5419 258.383C60.1555 258.735 60.8686 258.911 61.6811 258.911C62.2095 258.911 62.6868 258.837 63.1129 258.69C63.5447 258.536 63.9169 258.309 64.2294 258.008C64.5419 257.701 64.7834 257.32 64.9538 256.866L66.897 257.411C66.6925 258.07 66.3487 258.65 65.8658 259.15C65.3828 259.644 64.7862 260.031 64.076 260.309C63.3658 260.582 62.5675 260.718 61.6811 260.718ZM70.1612 265.354V247.354H72.1044V249.434H72.343C72.4908 249.207 72.6953 248.917 72.9567 248.565C73.2237 248.207 73.6044 247.888 74.0987 247.61C74.5987 247.326 75.2749 247.184 76.1271 247.184C77.2294 247.184 78.201 247.46 79.0419 248.011C79.8828 248.562 80.5391 249.343 81.0107 250.354C81.4822 251.366 81.718 252.559 81.718 253.934C81.718 255.32 81.4822 256.522 81.0107 257.539C80.5391 258.55 79.8857 259.335 79.0504 259.891C78.2152 260.442 77.2521 260.718 76.1612 260.718C75.3203 260.718 74.647 260.579 74.1413 260.3C73.6357 260.016 73.2464 259.695 72.9737 259.337C72.701 258.974 72.4908 258.673 72.343 258.434H72.1726V265.354H70.1612ZM72.1385 253.9C72.1385 254.888 72.2834 255.761 72.5732 256.516C72.8629 257.266 73.2862 257.854 73.843 258.281C74.3999 258.701 75.0817 258.911 75.8885 258.911C76.7294 258.911 77.4311 258.69 77.9936 258.246C78.5618 257.798 78.9879 257.195 79.272 256.44C79.5618 255.678 79.7067 254.832 79.7067 253.9C79.7067 252.979 79.5646 252.15 79.2805 251.411C79.0021 250.667 78.5788 250.079 78.0107 249.647C77.4482 249.21 76.7408 248.991 75.8885 248.991C75.0703 248.991 74.3828 249.198 73.826 249.613C73.2692 250.022 72.8487 250.596 72.5646 251.335C72.2805 252.067 72.1385 252.923 72.1385 253.9ZM90.1044 260.718C88.9226 260.718 87.8857 260.437 86.9936 259.874C86.1072 259.312 85.4141 258.525 84.9141 257.513C84.4197 256.502 84.1726 255.32 84.1726 253.968C84.1726 252.604 84.4197 251.414 84.9141 250.397C85.4141 249.38 86.1072 248.59 86.9936 248.028C87.8857 247.465 88.9226 247.184 90.1044 247.184C91.2862 247.184 92.3203 247.465 93.2067 248.028C94.0987 248.59 94.7919 249.38 95.2862 250.397C95.7862 251.414 96.0362 252.604 96.0362 253.968C96.0362 255.32 95.7862 256.502 95.2862 257.513C94.7919 258.525 94.0987 259.312 93.2067 259.874C92.3203 260.437 91.2862 260.718 90.1044 260.718ZM90.1044 258.911C91.0021 258.911 91.7408 258.681 92.3203 258.221C92.8999 257.761 93.3288 257.156 93.6072 256.406C93.8857 255.656 94.0249 254.843 94.0249 253.968C94.0249 253.093 93.8857 252.278 93.6072 251.522C93.3288 250.766 92.8999 250.156 92.3203 249.69C91.7408 249.224 91.0021 248.991 90.1044 248.991C89.2067 248.991 88.468 249.224 87.8885 249.69C87.3089 250.156 86.88 250.766 86.6016 251.522C86.3232 252.278 86.1839 253.093 86.1839 253.968C86.1839 254.843 86.3232 255.656 86.6016 256.406C86.88 257.156 87.3089 257.761 87.8885 258.221C88.468 258.681 89.2067 258.911 90.1044 258.911ZM99.1065 260.445V247.354H101.05V249.332H101.186C101.425 248.684 101.857 248.158 102.482 247.755C103.107 247.352 103.811 247.15 104.595 247.15C104.743 247.15 104.928 247.153 105.149 247.158C105.371 247.164 105.538 247.173 105.652 247.184V249.229C105.584 249.212 105.428 249.187 105.183 249.153C104.945 249.113 104.692 249.093 104.425 249.093C103.788 249.093 103.22 249.227 102.72 249.494C102.226 249.755 101.834 250.119 101.544 250.585C101.26 251.045 101.118 251.57 101.118 252.161V260.445H99.1065ZM114.55 247.354V249.059H107.766V247.354H114.55ZM109.743 244.218H111.754V256.695C111.754 257.263 111.837 257.69 112.001 257.974C112.172 258.252 112.388 258.44 112.649 258.536C112.916 258.627 113.197 258.673 113.493 258.673C113.714 258.673 113.896 258.661 114.038 258.638C114.18 258.61 114.294 258.587 114.379 258.57L114.788 260.377C114.652 260.428 114.462 260.479 114.217 260.531C113.973 260.587 113.663 260.616 113.288 260.616C112.72 260.616 112.163 260.494 111.618 260.249C111.078 260.005 110.629 259.633 110.271 259.133C109.919 258.633 109.743 258.002 109.743 257.241V244.218ZM122.923 260.718C121.662 260.718 120.574 260.44 119.659 259.883C118.75 259.32 118.048 258.536 117.554 257.531C117.065 256.519 116.821 255.343 116.821 254.002C116.821 252.661 117.065 251.479 117.554 250.457C118.048 249.428 118.736 248.627 119.616 248.053C120.503 247.474 121.537 247.184 122.719 247.184C123.401 247.184 124.074 247.298 124.739 247.525C125.403 247.752 126.009 248.121 126.554 248.633C127.099 249.138 127.534 249.809 127.858 250.644C128.182 251.479 128.344 252.508 128.344 253.729V254.582H118.253V252.843H126.298C126.298 252.104 126.151 251.445 125.855 250.866C125.565 250.286 125.151 249.829 124.611 249.494C124.077 249.158 123.446 248.991 122.719 248.991C121.918 248.991 121.224 249.19 120.639 249.587C120.06 249.979 119.614 250.491 119.301 251.121C118.989 251.752 118.832 252.428 118.832 253.15V254.309C118.832 255.298 119.003 256.136 119.344 256.823C119.69 257.505 120.17 258.025 120.784 258.383C121.398 258.735 122.111 258.911 122.923 258.911C123.452 258.911 123.929 258.837 124.355 258.69C124.787 258.536 125.159 258.309 125.472 258.008C125.784 257.701 126.026 257.32 126.196 256.866L128.139 257.411C127.935 258.07 127.591 258.65 127.108 259.15C126.625 259.644 126.028 260.031 125.318 260.309C124.608 260.582 123.81 260.718 122.923 260.718ZM136.347 260.718C135.256 260.718 134.293 260.442 133.457 259.891C132.622 259.335 131.969 258.55 131.497 257.539C131.026 256.522 130.79 255.32 130.79 253.934C130.79 252.559 131.026 251.366 131.497 250.354C131.969 249.343 132.625 248.562 133.466 248.011C134.307 247.46 135.278 247.184 136.381 247.184C137.233 247.184 137.906 247.326 138.401 247.61C138.901 247.888 139.281 248.207 139.543 248.565C139.81 248.917 140.017 249.207 140.165 249.434H140.335V242.991H142.347V260.445H140.403V258.434H140.165C140.017 258.673 139.807 258.974 139.534 259.337C139.261 259.695 138.872 260.016 138.366 260.3C137.861 260.579 137.188 260.718 136.347 260.718ZM136.619 258.911C137.426 258.911 138.108 258.701 138.665 258.281C139.222 257.854 139.645 257.266 139.935 256.516C140.224 255.761 140.369 254.888 140.369 253.9C140.369 252.923 140.227 252.067 139.943 251.335C139.659 250.596 139.239 250.022 138.682 249.613C138.125 249.198 137.438 248.991 136.619 248.991C135.767 248.991 135.057 249.21 134.489 249.647C133.926 250.079 133.503 250.667 133.219 251.411C132.94 252.15 132.801 252.979 132.801 253.9C132.801 254.832 132.943 255.678 133.227 256.44C133.517 257.195 133.943 257.798 134.506 258.246C135.074 258.69 135.778 258.911 136.619 258.911ZM159.673 254.991H161.991L163.935 257.548L164.446 258.229L167.344 262.082H165.026L163.116 259.525L162.639 258.877L159.673 254.991ZM168.06 251.718C168.06 253.559 167.727 255.15 167.062 256.491C166.398 257.832 165.486 258.866 164.327 259.593C163.168 260.32 161.844 260.684 160.355 260.684C158.866 260.684 157.543 260.32 156.384 259.593C155.224 258.866 154.313 257.832 153.648 256.491C152.983 255.15 152.651 253.559 152.651 251.718C152.651 249.877 152.983 248.286 153.648 246.945C154.313 245.604 155.224 244.57 156.384 243.843C157.543 243.116 158.866 242.752 160.355 242.752C161.844 242.752 163.168 243.116 164.327 243.843C165.486 244.57 166.398 245.604 167.062 246.945C167.727 248.286 168.06 249.877 168.06 251.718ZM166.014 251.718C166.014 250.207 165.761 248.931 165.256 247.891C164.756 246.852 164.077 246.065 163.219 245.531C162.366 244.996 161.412 244.729 160.355 244.729C159.298 244.729 158.341 244.996 157.483 245.531C156.631 246.065 155.952 246.852 155.446 247.891C154.946 248.931 154.696 250.207 154.696 251.718C154.696 253.229 154.946 254.505 155.446 255.545C155.952 256.585 156.631 257.371 157.483 257.906C158.341 258.44 159.298 258.707 160.355 258.707C161.412 258.707 162.366 258.44 163.219 257.906C164.077 257.371 164.756 256.585 165.256 255.545C165.761 254.505 166.014 253.229 166.014 251.718ZM179.591 255.093V247.354H181.602V260.445H179.591V258.229H179.455C179.148 258.894 178.67 259.46 178.023 259.925C177.375 260.386 176.557 260.616 175.568 260.616C174.75 260.616 174.023 260.437 173.386 260.079C172.75 259.715 172.25 259.17 171.886 258.442C171.523 257.71 171.341 256.786 171.341 255.673V247.354H173.352V255.536C173.352 256.491 173.619 257.252 174.153 257.82C174.693 258.388 175.381 258.673 176.216 258.673C176.716 258.673 177.224 258.545 177.741 258.289C178.264 258.033 178.702 257.641 179.054 257.113C179.412 256.585 179.591 255.911 179.591 255.093ZM190.775 260.718C189.513 260.718 188.425 260.44 187.511 259.883C186.602 259.32 185.9 258.536 185.406 257.531C184.917 256.519 184.673 255.343 184.673 254.002C184.673 252.661 184.917 251.479 185.406 250.457C185.9 249.428 186.587 248.627 187.468 248.053C188.354 247.474 189.388 247.184 190.57 247.184C191.252 247.184 191.925 247.298 192.59 247.525C193.255 247.752 193.86 248.121 194.406 248.633C194.951 249.138 195.386 249.809 195.71 250.644C196.033 251.479 196.195 252.508 196.195 253.729V254.582H186.104V252.843H194.15C194.15 252.104 194.002 251.445 193.707 250.866C193.417 250.286 193.002 249.829 192.462 249.494C191.928 249.158 191.298 248.991 190.57 248.991C189.769 248.991 189.076 249.19 188.491 249.587C187.911 249.979 187.465 250.491 187.153 251.121C186.84 251.752 186.684 252.428 186.684 253.15V254.309C186.684 255.298 186.854 256.136 187.195 256.823C187.542 257.505 188.022 258.025 188.636 258.383C189.249 258.735 189.962 258.911 190.775 258.911C191.303 258.911 191.781 258.837 192.207 258.69C192.638 258.536 193.011 258.309 193.323 258.008C193.636 257.701 193.877 257.32 194.048 256.866L195.991 257.411C195.786 258.07 195.442 258.65 194.96 259.15C194.477 259.644 193.88 260.031 193.17 260.309C192.46 260.582 191.661 260.718 190.775 260.718ZM208.528 250.286L206.721 250.798C206.607 250.496 206.44 250.204 206.218 249.92C206.002 249.63 205.707 249.391 205.332 249.204C204.957 249.016 204.477 248.923 203.891 248.923C203.09 248.923 202.423 249.107 201.888 249.477C201.36 249.84 201.096 250.303 201.096 250.866C201.096 251.366 201.278 251.761 201.641 252.05C202.005 252.34 202.573 252.582 203.346 252.775L205.289 253.252C206.46 253.536 207.332 253.971 207.906 254.556C208.479 255.136 208.766 255.883 208.766 256.798C208.766 257.548 208.55 258.218 208.119 258.809C207.692 259.4 207.096 259.866 206.329 260.207C205.562 260.548 204.67 260.718 203.653 260.718C202.317 260.718 201.212 260.428 200.337 259.849C199.462 259.269 198.908 258.423 198.675 257.309L200.585 256.832C200.766 257.536 201.11 258.065 201.616 258.417C202.127 258.769 202.795 258.945 203.619 258.945C204.556 258.945 205.3 258.746 205.852 258.349C206.408 257.945 206.687 257.462 206.687 256.9C206.687 256.445 206.528 256.065 206.21 255.758C205.891 255.445 205.403 255.212 204.744 255.059L202.562 254.548C201.363 254.263 200.482 253.823 199.92 253.227C199.363 252.624 199.085 251.871 199.085 250.968C199.085 250.229 199.292 249.576 199.707 249.008C200.127 248.44 200.698 247.994 201.42 247.67C202.147 247.346 202.971 247.184 203.891 247.184C205.187 247.184 206.204 247.468 206.942 248.036C207.687 248.604 208.215 249.354 208.528 250.286ZM217.487 247.354V249.059H210.703V247.354H217.487ZM212.68 244.218H214.692V256.695C214.692 257.263 214.774 257.69 214.939 257.974C215.109 258.252 215.325 258.44 215.587 258.536C215.854 258.627 216.135 258.673 216.43 258.673C216.652 258.673 216.834 258.661 216.976 258.638C217.118 258.61 217.232 258.587 217.317 258.57L217.726 260.377C217.589 260.428 217.399 260.479 217.155 260.531C216.911 260.587 216.601 260.616 216.226 260.616C215.658 260.616 215.101 260.494 214.555 260.249C214.016 260.005 213.567 259.633 213.209 259.133C212.857 258.633 212.68 258.002 212.68 257.241V244.218ZM220.513 260.445V247.354H222.524V260.445H220.513ZM221.536 245.173C221.143 245.173 220.805 245.039 220.521 244.772C220.243 244.505 220.104 244.184 220.104 243.809C220.104 243.434 220.243 243.113 220.521 242.846C220.805 242.579 221.143 242.445 221.536 242.445C221.928 242.445 222.263 242.579 222.541 242.846C222.825 243.113 222.967 243.434 222.967 243.809C222.967 244.184 222.825 244.505 222.541 244.772C222.263 245.039 221.928 245.173 221.536 245.173ZM231.526 260.718C230.344 260.718 229.308 260.437 228.415 259.874C227.529 259.312 226.836 258.525 226.336 257.513C225.842 256.502 225.594 255.32 225.594 253.968C225.594 252.604 225.842 251.414 226.336 250.397C226.836 249.38 227.529 248.59 228.415 248.028C229.308 247.465 230.344 247.184 231.526 247.184C232.708 247.184 233.742 247.465 234.629 248.028C235.521 248.59 236.214 249.38 236.708 250.397C237.208 251.414 237.458 252.604 237.458 253.968C237.458 255.32 237.208 256.502 236.708 257.513C236.214 258.525 235.521 259.312 234.629 259.874C233.742 260.437 232.708 260.718 231.526 260.718ZM231.526 258.911C232.424 258.911 233.163 258.681 233.742 258.221C234.322 257.761 234.751 257.156 235.029 256.406C235.308 255.656 235.447 254.843 235.447 253.968C235.447 253.093 235.308 252.278 235.029 251.522C234.751 250.766 234.322 250.156 233.742 249.69C233.163 249.224 232.424 248.991 231.526 248.991C230.629 248.991 229.89 249.224 229.31 249.69C228.731 250.156 228.302 250.766 228.023 251.522C227.745 252.278 227.606 253.093 227.606 253.968C227.606 254.843 227.745 255.656 228.023 256.406C228.302 257.156 228.731 257.761 229.31 258.221C229.89 258.681 230.629 258.911 231.526 258.911ZM242.54 252.57V260.445H240.528V247.354H242.472V249.4H242.642C242.949 248.735 243.415 248.201 244.04 247.798C244.665 247.388 245.472 247.184 246.46 247.184C247.347 247.184 248.122 247.366 248.787 247.729C249.452 248.087 249.969 248.633 250.338 249.366C250.707 250.093 250.892 251.013 250.892 252.127V260.445H248.881V252.263C248.881 251.235 248.614 250.434 248.08 249.86C247.545 249.281 246.813 248.991 245.881 248.991C245.239 248.991 244.665 249.13 244.159 249.408C243.659 249.687 243.264 250.093 242.974 250.627C242.685 251.161 242.54 251.809 242.54 252.57ZM263.84 250.286L262.033 250.798C261.92 250.496 261.752 250.204 261.531 249.92C261.315 249.63 261.019 249.391 260.644 249.204C260.269 249.016 259.789 248.923 259.204 248.923C258.403 248.923 257.735 249.107 257.201 249.477C256.673 249.84 256.408 250.303 256.408 250.866C256.408 251.366 256.59 251.761 256.954 252.05C257.317 252.34 257.886 252.582 258.658 252.775L260.602 253.252C261.772 253.536 262.644 253.971 263.218 254.556C263.792 255.136 264.079 255.883 264.079 256.798C264.079 257.548 263.863 258.218 263.431 258.809C263.005 259.4 262.408 259.866 261.641 260.207C260.874 260.548 259.982 260.718 258.965 260.718C257.63 260.718 256.525 260.428 255.65 259.849C254.775 259.269 254.221 258.423 253.988 257.309L255.897 256.832C256.079 257.536 256.423 258.065 256.928 258.417C257.44 258.769 258.107 258.945 258.931 258.945C259.869 258.945 260.613 258.746 261.164 258.349C261.721 257.945 261.999 257.462 261.999 256.9C261.999 256.445 261.84 256.065 261.522 255.758C261.204 255.445 260.715 255.212 260.056 255.059L257.874 254.548C256.675 254.263 255.795 253.823 255.232 253.227C254.675 252.624 254.397 251.871 254.397 250.968C254.397 250.229 254.604 249.576 255.019 249.008C255.44 248.44 256.011 247.994 256.732 247.67C257.46 247.346 258.283 247.184 259.204 247.184C260.499 247.184 261.516 247.468 262.255 248.036C262.999 248.604 263.528 249.354 263.84 250.286ZM269.766 242.991L269.595 255.536H267.618L267.447 242.991H269.766ZM268.607 260.582C268.186 260.582 267.825 260.431 267.524 260.13C267.223 259.829 267.072 259.468 267.072 259.048C267.072 258.627 267.223 258.266 267.524 257.965C267.825 257.664 268.186 257.513 268.607 257.513C269.027 257.513 269.388 257.664 269.689 257.965C269.99 258.266 270.141 258.627 270.141 259.048C270.141 259.326 270.07 259.582 269.928 259.815C269.791 260.048 269.607 260.235 269.374 260.377C269.146 260.513 268.891 260.582 268.607 260.582ZM276.445 242.991L276.275 255.536H274.298L274.127 242.991H276.445ZM275.286 260.582C274.866 260.582 274.505 260.431 274.204 260.13C273.903 259.829 273.752 259.468 273.752 259.048C273.752 258.627 273.903 258.266 274.204 257.965C274.505 257.664 274.866 257.513 275.286 257.513C275.707 257.513 276.067 257.664 276.369 257.965C276.67 258.266 276.82 258.627 276.82 259.048C276.82 259.326 276.749 259.582 276.607 259.815C276.471 260.048 276.286 260.235 276.053 260.377C275.826 260.513 275.57 260.582 275.286 260.582Z" fill="#7B849A"/>
<defs>
<clipPath id="clip0_5069_3665">
<rect width="220" height="222.444" fill="white" transform="translate(29.5)"/>
</clipPath>
</defs>
</svg>
