<svg width="262" height="230" viewBox="0 0 262 230" fill="none" xmlns="http://www.w3.org/2000/svg">
<path d="M210.447 0.136719H50.873C43.5288 0.136719 37.5752 6.09039 37.5752 13.4346V173.009C37.5752 180.354 43.5288 186.307 50.873 186.307H210.447C217.791 186.307 223.745 180.354 223.745 173.009V13.4346C223.745 6.09039 217.791 0.136719 210.447 0.136719Z" fill="#E1E3E7"/>
<g filter="url(#filter0_d_3382_5602)">
<path d="M189.172 13.4321H9.65087C5.97877 13.4321 3.00195 16.409 3.00195 20.0811V53.3258C3.00195 56.9979 5.97877 59.9748 9.65087 59.9748H189.172C192.844 59.9748 195.821 56.9979 195.821 53.3258V20.0811C195.821 16.409 192.844 13.4321 189.172 13.4321Z" fill="white"/>
</g>
<path d="M94.7556 24.0703H60.1812C57.978 24.0703 56.1919 25.8564 56.1919 28.0597C56.1919 30.263 57.978 32.0491 60.1812 32.0491H94.7556C96.9589 32.0491 98.745 30.263 98.745 28.0597C98.745 25.8564 96.9589 24.0703 94.7556 24.0703Z" fill="#38B89A"/>
<path d="M118.692 41.3564H60.1812C57.978 41.3564 56.1919 43.1425 56.1919 45.3458C56.1919 47.5491 57.978 49.3352 60.1812 49.3352H118.692C120.895 49.3352 122.681 47.5491 122.681 45.3458C122.681 43.1425 120.895 41.3564 118.692 41.3564Z" fill="#38B89A" fill-opacity="0.19"/>
<path d="M38.905 17.4233H13.6392C9.96706 17.4233 6.99023 20.4002 6.99023 24.0723V49.3383C6.99023 53.0104 9.96706 55.9872 13.6392 55.9872H38.905C42.5771 55.9872 45.554 53.0104 45.554 49.3383V24.0723C45.554 20.4002 42.5771 17.4233 38.905 17.4233Z" fill="#38B89A"/>
<path d="M23.2418 41.0685H25.9014L25.9307 40.0446C25.9307 38.6988 26.7791 38.3478 27.9785 37.9675C29.1817 37.6252 30.2408 36.9005 30.9956 35.9029C31.7503 34.9053 32.1598 33.6891 32.162 32.4382C32.1884 31.6744 32.0559 30.9135 31.7729 30.2036C31.49 29.4937 31.0627 28.8503 30.5183 28.314C29.9738 27.7778 29.3239 27.3604 28.6097 27.0883C27.8956 26.8163 27.1328 26.6954 26.3695 26.7334C25.5629 26.7158 24.7611 26.8623 24.0127 27.1639C23.2644 27.4654 22.5851 27.9159 22.0161 28.4879C21.4471 29.0599 21.0002 29.7415 20.7025 30.4914C20.4048 31.2413 20.2626 32.0439 20.2844 32.8504H23.0344C23.024 32.4051 23.1025 31.9622 23.2654 31.5476C23.4284 31.133 23.6724 30.7552 23.9833 30.4361C24.2942 30.1171 24.6656 29.8633 25.0758 29.6897C25.486 29.516 25.9267 29.426 26.3722 29.4249C26.7738 29.4016 27.1759 29.4651 27.5508 29.611C27.9258 29.7569 28.265 29.9818 28.5453 30.2704C28.8257 30.5591 29.0406 30.9047 29.1754 31.2838C29.3103 31.6629 29.362 32.0666 29.3269 32.4674C29.3092 33.1162 29.0836 33.7422 28.6833 34.2531C28.283 34.764 27.7292 35.1328 27.1035 35.3052L26.1381 35.6882C25.1929 35.9159 24.3677 36.4903 23.8259 37.2976C23.2841 38.1049 23.0652 39.0862 23.2126 40.0473L23.2418 41.0685ZM24.5583 47.3904C24.8188 47.3996 25.0784 47.3565 25.3219 47.2637C25.5654 47.1709 25.7878 47.0302 25.976 46.85C26.1642 46.6697 26.3143 46.4535 26.4176 46.2143C26.5208 45.975 26.575 45.7174 26.5769 45.4568C26.5746 45.1965 26.5202 44.9392 26.4168 44.7002C26.3134 44.4613 26.1632 44.2454 25.9751 44.0655C25.7869 43.8855 25.5646 43.745 25.3213 43.6524C25.078 43.5597 24.8185 43.5167 24.5583 43.526C24.2981 43.5167 24.0387 43.5597 23.7954 43.6524C23.552 43.745 23.3297 43.8855 23.1416 44.0655C22.9534 44.2454 22.8032 44.4613 22.6999 44.7002C22.5965 44.9392 22.542 45.1965 22.5397 45.4568C22.5417 45.7174 22.5959 45.975 22.6991 46.2143C22.8023 46.4535 22.9524 46.6697 23.1406 46.85C23.3288 47.0302 23.5513 47.1709 23.7948 47.2637C24.0383 47.3565 24.2979 47.3996 24.5583 47.3904Z" fill="white"/>
<g filter="url(#filter1_d_3382_5602)">
<path d="M66.8301 70.6143H246.351C248.114 70.6143 249.805 71.3148 251.052 72.5617C252.299 73.8086 253 75.4998 253 77.2632V110.508C253 112.271 252.299 113.963 251.052 115.209C249.805 116.456 248.114 117.157 246.351 117.157H66.8301C65.0667 117.157 63.3755 116.456 62.1286 115.209C60.8817 113.963 60.1812 112.271 60.1812 110.508V77.2632C60.1812 75.4998 60.8817 73.8086 62.1286 72.5617C63.3755 71.3148 65.0667 70.6143 66.8301 70.6143V70.6143Z" fill="white"/>
</g>
<path d="M151.935 81.2549H117.361C115.158 81.2549 113.372 83.041 113.372 85.2443C113.372 87.4475 115.158 89.2336 117.361 89.2336H151.935C154.139 89.2336 155.925 87.4475 155.925 85.2443C155.925 83.041 154.139 81.2549 151.935 81.2549Z" fill="#38B89A"/>
<path d="M175.871 98.54H117.361C115.158 98.54 113.372 100.326 113.372 102.529C113.372 104.733 115.158 106.519 117.361 106.519H175.871C178.075 106.519 179.861 104.733 179.861 102.529C179.861 100.326 178.075 98.54 175.871 98.54Z" fill="#38B89A" fill-opacity="0.19"/>
<path d="M96.0867 74.6045H70.8208C67.1487 74.6045 64.1719 77.5813 64.1719 81.2534V106.519C64.1719 110.192 67.1487 113.168 70.8208 113.168H96.0867C99.7588 113.168 102.736 110.192 102.736 106.519V81.2534C102.736 77.5813 99.7588 74.6045 96.0867 74.6045Z" fill="#D9F2EC"/>
<path d="M80.4235 98.2492H83.083L83.1123 97.2253C83.1123 95.8795 83.9607 95.5284 85.1602 95.1481C86.3634 94.8059 87.4224 94.0811 88.1772 93.0836C88.932 92.086 89.3414 90.8698 89.3437 89.6189C89.37 88.8551 89.2375 88.0942 88.9546 87.3843C88.6716 86.6744 88.2444 86.0309 87.6999 85.4947C87.1554 84.9584 86.5055 84.5411 85.7914 84.269C85.0772 83.9969 84.3144 83.8761 83.5511 83.9141C82.7445 83.8965 81.9427 84.0429 81.1944 84.3445C80.446 84.6461 79.7668 85.0966 79.1978 85.6686C78.6287 86.2406 78.1818 86.9222 77.8842 87.6721C77.5865 88.422 77.4442 89.2246 77.466 90.0311H80.216C80.2056 89.5858 80.2841 89.1428 80.4471 88.7283C80.61 88.3137 80.8541 87.9358 81.1649 87.6168C81.4758 87.2978 81.8472 87.044 82.2574 86.8703C82.6676 86.6967 83.1084 86.6067 83.5538 86.6056C83.9555 86.5823 84.3575 86.6457 84.7325 86.7916C85.1075 86.9375 85.4466 87.1625 85.727 87.4511C86.0073 87.7398 86.2222 88.0854 86.3571 88.4645C86.4919 88.8436 86.5436 89.2473 86.5086 89.6481C86.4909 90.2969 86.2652 90.9229 85.865 91.4337C85.4647 91.9446 84.9109 92.3135 84.2852 92.4859L83.3197 92.8689C82.3746 93.0966 81.5493 93.671 81.0075 94.4783C80.4657 95.2856 80.2469 96.2669 80.3942 97.2279L80.4235 98.2492ZM81.74 104.571C82.0004 104.58 82.26 104.537 82.5035 104.444C82.747 104.352 82.9695 104.211 83.1577 104.031C83.3458 103.85 83.496 103.634 83.5992 103.395C83.7024 103.156 83.7566 102.898 83.7586 102.638C83.7563 102.377 83.7018 102.12 83.5984 101.881C83.4951 101.642 83.3449 101.426 83.1567 101.246C82.9686 101.066 82.7463 100.926 82.5029 100.833C82.2596 100.74 82.0002 100.697 81.74 100.707C81.4798 100.697 81.2203 100.74 80.977 100.833C80.7337 100.926 80.5114 101.066 80.3232 101.246C80.1351 101.426 79.9849 101.642 79.8815 101.881C79.7781 102.12 79.7237 102.377 79.7214 102.638C79.7233 102.898 79.7775 103.156 79.8807 103.395C79.9839 103.634 80.1341 103.85 80.3223 104.031C80.5105 104.211 80.7329 104.352 80.9764 104.444C81.2199 104.537 81.4795 104.58 81.74 104.571Z" fill="white"/>
<g filter="url(#filter2_d_3382_5602)">
<path d="M9.64892 127.794H189.17C190.933 127.794 192.624 128.494 193.871 129.741C195.118 130.988 195.819 132.679 195.819 134.443V167.688C195.819 169.451 195.118 171.142 193.871 172.389C192.624 173.636 190.933 174.337 189.17 174.337H9.64892C7.88551 174.337 6.19434 173.636 4.94742 172.389C3.70051 171.142 3 169.451 3 167.688L3 134.443C3 132.679 3.70051 130.988 4.94742 129.741C6.19434 128.494 7.88551 127.794 9.64892 127.794V127.794Z" fill="white"/>
</g>
<path d="M94.7546 138.436H60.1803C57.977 138.436 56.1909 140.222 56.1909 142.425C56.1909 144.628 57.977 146.414 60.1803 146.414H94.7546C96.9579 146.414 98.744 144.628 98.744 142.425C98.744 140.222 96.9579 138.436 94.7546 138.436Z" fill="#38B89A"/>
<path d="M118.691 155.721H60.1803C57.977 155.721 56.1909 157.507 56.1909 159.71C56.1909 161.913 57.977 163.699 60.1803 163.699H118.691C120.894 163.699 122.68 161.913 122.68 159.71C122.68 157.507 120.894 155.721 118.691 155.721Z" fill="#38B89A" fill-opacity="0.19"/>
<path d="M38.905 131.785H13.6392C9.96706 131.785 6.99023 134.762 6.99023 138.434V163.7C6.99023 167.372 9.96706 170.349 13.6392 170.349H38.905C42.5771 170.349 45.554 167.372 45.554 163.7V138.434C45.554 134.762 42.5771 131.785 38.905 131.785Z" fill="#D9F2EC"/>
<path d="M23.2414 155.43H25.9009L25.9302 154.406C25.9302 153.06 26.7786 152.709 27.978 152.329C29.1812 151.987 30.2403 151.262 30.9951 150.264C31.7498 149.267 32.1593 148.05 32.1615 146.8C32.1879 146.036 32.0554 145.275 31.7724 144.565C31.4895 143.855 31.0623 143.212 30.5178 142.675C29.9733 142.139 29.3234 141.722 28.6093 141.45C27.8951 141.178 27.1323 141.057 26.369 141.095C25.5624 141.077 24.7606 141.224 24.0122 141.525C23.2639 141.827 22.5846 142.277 22.0156 142.849C21.4466 143.421 20.9997 144.103 20.702 144.853C20.4044 145.603 20.2621 146.405 20.2839 147.212H23.0339C23.0235 146.766 23.102 146.324 23.265 145.909C23.4279 145.494 23.6719 145.116 23.9828 144.797C24.2937 144.478 24.6651 144.225 25.0753 144.051C25.4855 143.877 25.9262 143.787 26.3717 143.786C26.7734 143.763 27.1754 143.826 27.5503 143.972C27.9253 144.118 28.2645 144.343 28.5448 144.632C28.8252 144.92 29.0401 145.266 29.1749 145.645C29.3098 146.024 29.3615 146.428 29.3264 146.829C29.3087 147.478 29.0831 148.104 28.6828 148.614C28.2825 149.125 27.7288 149.494 27.103 149.667L26.1376 150.05C25.1924 150.277 24.3672 150.852 23.8254 151.659C23.2836 152.466 23.0647 153.448 23.2121 154.409L23.2414 155.43ZM24.5578 161.752C24.8183 161.761 25.0779 161.718 25.3214 161.625C25.5649 161.532 25.7873 161.392 25.9755 161.211C26.1637 161.031 26.3139 160.815 26.4171 160.576C26.5203 160.336 26.5745 160.079 26.5764 159.818C26.5741 159.558 26.5197 159.301 26.4163 159.062C26.3129 158.823 26.1627 158.607 25.9746 158.427C25.7864 158.247 25.5641 158.106 25.3208 158.014C25.0775 157.921 24.818 157.878 24.5578 157.887C24.2976 157.878 24.0382 157.921 23.7949 158.014C23.5516 158.106 23.3293 158.247 23.1411 158.427C22.9529 158.607 22.8027 158.823 22.6994 159.062C22.596 159.301 22.5415 159.558 22.5392 159.818C22.5412 160.079 22.5954 160.336 22.6986 160.576C22.8018 160.815 22.952 161.031 23.1402 161.211C23.3283 161.392 23.5508 161.532 23.7943 161.625C24.0378 161.718 24.2974 161.761 24.5578 161.752Z" fill="white"/>
<path d="M18.9545 206.853V224.308H16.9091L7.39773 210.603H7.22727V224.308H5.11364V206.853H7.15909L16.7045 220.592H16.875V206.853H18.9545ZM28.2294 224.58C27.0476 224.58 26.0107 224.299 25.1186 223.737C24.2322 223.174 23.5391 222.387 23.0391 221.376C22.5447 220.364 22.2976 219.183 22.2976 217.83C22.2976 216.467 22.5447 215.276 23.0391 214.259C23.5391 213.242 24.2322 212.453 25.1186 211.89C26.0107 211.328 27.0476 211.046 28.2294 211.046C29.4112 211.046 30.4453 211.328 31.3317 211.89C32.2237 212.453 32.9169 213.242 33.4112 214.259C33.9112 215.276 34.1612 216.467 34.1612 217.83C34.1612 219.183 33.9112 220.364 33.4112 221.376C32.9169 222.387 32.2237 223.174 31.3317 223.737C30.4453 224.299 29.4112 224.58 28.2294 224.58ZM28.2294 222.774C29.1271 222.774 29.8658 222.543 30.4453 222.083C31.0249 221.623 31.4538 221.018 31.7322 220.268C32.0107 219.518 32.1499 218.705 32.1499 217.83C32.1499 216.955 32.0107 216.14 31.7322 215.384C31.4538 214.629 31.0249 214.018 30.4453 213.552C29.8658 213.086 29.1271 212.853 28.2294 212.853C27.3317 212.853 26.593 213.086 26.0135 213.552C25.4339 214.018 25.005 214.629 24.7266 215.384C24.4482 216.14 24.3089 216.955 24.3089 217.83C24.3089 218.705 24.4482 219.518 24.7266 220.268C25.005 221.018 25.4339 221.623 26.0135 222.083C26.593 222.543 27.3317 222.774 28.2294 222.774ZM53.7997 211.217C53.6974 210.353 53.2827 209.683 52.5554 209.205C51.8281 208.728 50.9361 208.489 49.8793 208.489C49.1065 208.489 48.4304 208.614 47.8509 208.864C47.277 209.114 46.8281 209.458 46.5043 209.896C46.1861 210.333 46.027 210.83 46.027 211.387C46.027 211.853 46.1378 212.254 46.3594 212.589C46.5866 212.918 46.8764 213.194 47.2287 213.416C47.581 213.631 47.9503 213.81 48.3366 213.953C48.723 214.089 49.0781 214.2 49.402 214.285L51.1747 214.762C51.6293 214.881 52.1349 215.046 52.6918 215.256C53.2543 215.467 53.7912 215.754 54.3026 216.117C54.8196 216.475 55.2457 216.935 55.581 217.498C55.9162 218.06 56.0838 218.751 56.0838 219.569C56.0838 220.512 55.8366 221.364 55.3423 222.126C54.8537 222.887 54.1378 223.492 53.1946 223.941C52.2571 224.39 51.1179 224.614 49.777 224.614C48.527 224.614 47.4446 224.413 46.5298 224.009C45.6207 223.606 44.9048 223.043 44.3821 222.322C43.8651 221.6 43.5724 220.762 43.5043 219.808H45.6861C45.7429 220.467 45.9645 221.012 46.3509 221.444C46.7429 221.87 47.2372 222.188 47.8338 222.399C48.4361 222.603 49.0838 222.705 49.777 222.705C50.5838 222.705 51.3082 222.575 51.9503 222.313C52.5923 222.046 53.1009 221.677 53.4759 221.205C53.8509 220.728 54.0384 220.171 54.0384 219.535C54.0384 218.955 53.8764 218.484 53.5526 218.12C53.2287 217.756 52.8026 217.461 52.2741 217.234C51.7457 217.006 51.1747 216.808 50.5611 216.637L48.4134 216.024C47.0497 215.631 45.9702 215.072 45.1747 214.345C44.3793 213.617 43.9815 212.666 43.9815 211.489C43.9815 210.512 44.2457 209.66 44.7741 208.933C45.3082 208.2 46.0241 207.631 46.9219 207.228C47.8253 206.819 48.8338 206.614 49.9474 206.614C51.0724 206.614 52.0724 206.816 52.9474 207.22C53.8224 207.617 54.5156 208.163 55.027 208.856C55.544 209.549 55.8168 210.336 55.8452 211.217H53.7997ZM64.6044 224.58C63.3771 224.58 62.3203 224.291 61.4339 223.711C60.5476 223.131 59.8658 222.333 59.3885 221.316C58.9112 220.299 58.6726 219.137 58.6726 217.83C58.6726 216.501 58.9169 215.328 59.4055 214.31C59.8999 213.288 60.5874 212.489 61.468 211.916C62.3544 211.336 63.3885 211.046 64.5703 211.046C65.4908 211.046 66.3203 211.217 67.0589 211.558C67.7976 211.899 68.4027 212.376 68.8743 212.989C69.3459 213.603 69.6385 214.319 69.7521 215.137H67.7408C67.5874 214.541 67.2464 214.012 66.718 213.552C66.1953 213.086 65.4908 212.853 64.6044 212.853C63.8203 212.853 63.1328 213.058 62.5419 213.467C61.9567 213.87 61.4993 214.441 61.1697 215.18C60.8459 215.913 60.6839 216.774 60.6839 217.762C60.6839 218.774 60.843 219.654 61.1612 220.404C61.4851 221.154 61.9396 221.737 62.5249 222.151C63.1158 222.566 63.8089 222.774 64.6044 222.774C65.1271 222.774 65.6016 222.683 66.0277 222.501C66.4538 222.319 66.8146 222.058 67.1101 221.717C67.4055 221.376 67.6158 220.967 67.7408 220.489H69.7521C69.6385 221.262 69.3572 221.958 68.9084 222.578C68.4652 223.191 67.8771 223.68 67.1442 224.043C66.4169 224.401 65.5703 224.58 64.6044 224.58ZM74.7038 216.433V224.308H72.6925V206.853H74.7038V213.262H74.8743C75.1811 212.586 75.6413 212.049 76.255 211.651C76.8743 211.248 77.6982 211.046 78.7266 211.046C79.6186 211.046 80.3999 211.225 81.0703 211.583C81.7408 211.935 82.2607 212.478 82.63 213.211C83.005 213.938 83.1925 214.864 83.1925 215.989V224.308H81.1811V216.126C81.1811 215.086 80.9112 214.282 80.3714 213.714C79.8374 213.14 79.0959 212.853 78.147 212.853C77.4879 212.853 76.897 212.992 76.3743 213.271C75.8572 213.549 75.4482 213.955 75.147 214.489C74.8516 215.024 74.7038 215.671 74.7038 216.433ZM92.1903 224.58C91.0085 224.58 89.9716 224.299 89.0795 223.737C88.1932 223.174 87.5 222.387 87 221.376C86.5057 220.364 86.2585 219.183 86.2585 217.83C86.2585 216.467 86.5057 215.276 87 214.259C87.5 213.242 88.1932 212.453 89.0795 211.89C89.9716 211.328 91.0085 211.046 92.1903 211.046C93.3722 211.046 94.4063 211.328 95.2926 211.89C96.1847 212.453 96.8778 213.242 97.3722 214.259C97.8722 215.276 98.1222 216.467 98.1222 217.83C98.1222 219.183 97.8722 220.364 97.3722 221.376C96.8778 222.387 96.1847 223.174 95.2926 223.737C94.4063 224.299 93.3722 224.58 92.1903 224.58ZM92.1903 222.774C93.0881 222.774 93.8267 222.543 94.4062 222.083C94.9858 221.623 95.4148 221.018 95.6932 220.268C95.9716 219.518 96.1108 218.705 96.1108 217.83C96.1108 216.955 95.9716 216.14 95.6932 215.384C95.4148 214.629 94.9858 214.018 94.4062 213.552C93.8267 213.086 93.0881 212.853 92.1903 212.853C91.2926 212.853 90.554 213.086 89.9744 213.552C89.3949 214.018 88.9659 214.629 88.6875 215.384C88.4091 216.14 88.2699 216.955 88.2699 217.83C88.2699 218.705 88.4091 219.518 88.6875 220.268C88.9659 221.018 89.3949 221.623 89.9744 222.083C90.554 222.543 91.2926 222.774 92.1903 222.774ZM103.204 206.853V224.308H101.192V206.853H103.204ZM110.74 224.614C109.911 224.614 109.158 224.458 108.482 224.146C107.805 223.828 107.268 223.37 106.871 222.774C106.473 222.171 106.274 221.444 106.274 220.592C106.274 219.842 106.422 219.234 106.717 218.768C107.013 218.296 107.408 217.927 107.902 217.66C108.396 217.393 108.942 217.194 109.538 217.063C110.141 216.927 110.746 216.819 111.354 216.739C112.149 216.637 112.794 216.56 113.288 216.509C113.788 216.453 114.152 216.359 114.379 216.228C114.612 216.097 114.729 215.87 114.729 215.546V215.478C114.729 214.637 114.499 213.984 114.038 213.518C113.584 213.052 112.893 212.819 111.967 212.819C111.007 212.819 110.254 213.029 109.709 213.45C109.163 213.87 108.78 214.319 108.558 214.796L106.649 214.114C106.99 213.319 107.445 212.7 108.013 212.256C108.587 211.808 109.212 211.495 109.888 211.319C110.57 211.137 111.24 211.046 111.899 211.046C112.32 211.046 112.803 211.097 113.348 211.2C113.899 211.296 114.43 211.498 114.942 211.805C115.459 212.112 115.888 212.575 116.229 213.194C116.57 213.813 116.74 214.643 116.74 215.683V224.308H114.729V222.535H114.626C114.49 222.819 114.263 223.123 113.945 223.447C113.626 223.771 113.203 224.046 112.675 224.274C112.146 224.501 111.501 224.614 110.74 224.614ZM111.047 222.808C111.842 222.808 112.513 222.651 113.058 222.339C113.609 222.026 114.024 221.623 114.303 221.129C114.587 220.634 114.729 220.114 114.729 219.569V217.728C114.643 217.83 114.456 217.924 114.166 218.009C113.882 218.089 113.553 218.16 113.178 218.222C112.808 218.279 112.447 218.33 112.095 218.376C111.749 218.416 111.467 218.45 111.251 218.478C110.729 218.546 110.24 218.657 109.786 218.81C109.337 218.958 108.973 219.183 108.695 219.484C108.422 219.779 108.286 220.183 108.286 220.694C108.286 221.393 108.544 221.921 109.061 222.279C109.584 222.631 110.246 222.808 111.047 222.808ZM120.411 224.308V211.217H122.354V213.194H122.491C122.729 212.546 123.161 212.021 123.786 211.617C124.411 211.214 125.116 211.012 125.9 211.012C126.048 211.012 126.232 211.015 126.454 211.021C126.675 211.026 126.843 211.035 126.957 211.046V213.092C126.888 213.075 126.732 213.049 126.488 213.015C126.249 212.975 125.996 212.955 125.729 212.955C125.093 212.955 124.525 213.089 124.025 213.356C123.531 213.617 123.138 213.981 122.849 214.447C122.565 214.907 122.423 215.433 122.423 216.024V224.308H120.411ZM138.614 214.149L136.807 214.66C136.693 214.359 136.526 214.066 136.304 213.782C136.088 213.492 135.793 213.254 135.418 213.066C135.043 212.879 134.562 212.785 133.977 212.785C133.176 212.785 132.509 212.97 131.974 213.339C131.446 213.703 131.182 214.166 131.182 214.728C131.182 215.228 131.364 215.623 131.727 215.913C132.091 216.203 132.659 216.444 133.432 216.637L135.375 217.114C136.545 217.399 137.418 217.833 137.991 218.418C138.565 218.998 138.852 219.745 138.852 220.66C138.852 221.41 138.636 222.08 138.205 222.671C137.778 223.262 137.182 223.728 136.415 224.069C135.648 224.41 134.756 224.58 133.739 224.58C132.403 224.58 131.298 224.291 130.423 223.711C129.548 223.131 128.994 222.285 128.761 221.171L130.67 220.694C130.852 221.399 131.196 221.927 131.702 222.279C132.213 222.631 132.881 222.808 133.705 222.808C134.642 222.808 135.386 222.609 135.938 222.211C136.494 221.808 136.773 221.325 136.773 220.762C136.773 220.308 136.614 219.927 136.295 219.62C135.977 219.308 135.489 219.075 134.83 218.921L132.648 218.41C131.449 218.126 130.568 217.685 130.006 217.089C129.449 216.487 129.17 215.734 129.17 214.83C129.17 214.092 129.378 213.438 129.793 212.87C130.213 212.302 130.784 211.856 131.506 211.532C132.233 211.208 133.057 211.046 133.977 211.046C135.273 211.046 136.29 211.33 137.028 211.899C137.773 212.467 138.301 213.217 138.614 214.149ZM148.903 224.308V206.853H154.8C156.164 206.853 157.283 207.086 158.158 207.552C159.033 208.012 159.681 208.646 160.102 209.453C160.522 210.259 160.732 211.177 160.732 212.205C160.732 213.234 160.522 214.146 160.102 214.941C159.681 215.737 159.036 216.362 158.167 216.816C157.298 217.265 156.187 217.489 154.835 217.489H150.062V215.58H154.766C155.698 215.58 156.448 215.444 157.016 215.171C157.59 214.899 158.005 214.512 158.261 214.012C158.522 213.506 158.653 212.904 158.653 212.205C158.653 211.506 158.522 210.896 158.261 210.373C157.999 209.85 157.582 209.447 157.008 209.163C156.434 208.873 155.675 208.728 154.732 208.728H151.016V224.308H148.903ZM157.119 216.467L161.414 224.308H158.96L154.732 216.467H157.119ZM169.33 224.58C168.068 224.58 166.98 224.302 166.065 223.745C165.156 223.183 164.455 222.399 163.96 221.393C163.472 220.381 163.227 219.205 163.227 217.864C163.227 216.524 163.472 215.342 163.96 214.319C164.455 213.291 165.142 212.489 166.023 211.916C166.909 211.336 167.943 211.046 169.125 211.046C169.807 211.046 170.48 211.16 171.145 211.387C171.81 211.614 172.415 211.984 172.96 212.495C173.506 213.001 173.94 213.671 174.264 214.506C174.588 215.342 174.75 216.37 174.75 217.592V218.444H164.659V216.705H172.705C172.705 215.967 172.557 215.308 172.261 214.728C171.972 214.149 171.557 213.691 171.017 213.356C170.483 213.021 169.852 212.853 169.125 212.853C168.324 212.853 167.631 213.052 167.045 213.45C166.466 213.842 166.02 214.353 165.707 214.984C165.395 215.614 165.239 216.291 165.239 217.012V218.171C165.239 219.16 165.409 219.998 165.75 220.685C166.097 221.367 166.577 221.887 167.19 222.245C167.804 222.597 168.517 222.774 169.33 222.774C169.858 222.774 170.335 222.7 170.761 222.552C171.193 222.399 171.565 222.171 171.878 221.87C172.19 221.563 172.432 221.183 172.602 220.728L174.545 221.274C174.341 221.933 173.997 222.512 173.514 223.012C173.031 223.506 172.435 223.893 171.724 224.171C171.014 224.444 170.216 224.58 169.33 224.58ZM186.741 229.217V222.296H186.571C186.423 222.535 186.213 222.836 185.94 223.2C185.668 223.558 185.278 223.879 184.773 224.163C184.267 224.441 183.594 224.58 182.753 224.58C181.662 224.58 180.699 224.305 179.864 223.754C179.028 223.197 178.375 222.413 177.903 221.401C177.432 220.384 177.196 219.183 177.196 217.796C177.196 216.421 177.432 215.228 177.903 214.217C178.375 213.205 179.031 212.424 179.872 211.873C180.713 211.322 181.685 211.046 182.787 211.046C183.639 211.046 184.313 211.188 184.807 211.472C185.307 211.751 185.688 212.069 185.949 212.427C186.216 212.779 186.423 213.069 186.571 213.296H186.81V211.217H188.753V229.217H186.741ZM183.026 222.774C183.832 222.774 184.514 222.563 185.071 222.143C185.628 221.717 186.051 221.129 186.341 220.379C186.631 219.623 186.776 218.751 186.776 217.762C186.776 216.785 186.634 215.93 186.349 215.197C186.065 214.458 185.645 213.884 185.088 213.475C184.531 213.06 183.844 212.853 183.026 212.853C182.173 212.853 181.463 213.072 180.895 213.509C180.332 213.941 179.909 214.529 179.625 215.274C179.347 216.012 179.207 216.842 179.207 217.762C179.207 218.694 179.349 219.541 179.634 220.302C179.923 221.058 180.349 221.66 180.912 222.109C181.48 222.552 182.185 222.774 183.026 222.774ZM200.685 218.955V211.217H202.696V224.308H200.685V222.092H200.548C200.241 222.756 199.764 223.322 199.116 223.788C198.469 224.248 197.651 224.478 196.662 224.478C195.844 224.478 195.116 224.299 194.48 223.941C193.844 223.578 193.344 223.032 192.98 222.305C192.616 221.572 192.435 220.649 192.435 219.535V211.217H194.446V219.399C194.446 220.353 194.713 221.114 195.247 221.683C195.787 222.251 196.474 222.535 197.31 222.535C197.81 222.535 198.318 222.407 198.835 222.151C199.358 221.896 199.795 221.504 200.148 220.975C200.506 220.447 200.685 219.774 200.685 218.955ZM211.869 224.58C210.607 224.58 209.519 224.302 208.604 223.745C207.695 223.183 206.994 222.399 206.499 221.393C206.011 220.381 205.766 219.205 205.766 217.864C205.766 216.524 206.011 215.342 206.499 214.319C206.994 213.291 207.681 212.489 208.562 211.916C209.448 211.336 210.482 211.046 211.664 211.046C212.346 211.046 213.019 211.16 213.684 211.387C214.349 211.614 214.954 211.984 215.499 212.495C216.045 213.001 216.479 213.671 216.803 214.506C217.127 215.342 217.289 216.37 217.289 217.592V218.444H207.198V216.705H215.244C215.244 215.967 215.096 215.308 214.8 214.728C214.511 214.149 214.096 213.691 213.556 213.356C213.022 213.021 212.391 212.853 211.664 212.853C210.863 212.853 210.17 213.052 209.585 213.45C209.005 213.842 208.559 214.353 208.246 214.984C207.934 215.614 207.778 216.291 207.778 217.012V218.171C207.778 219.16 207.948 219.998 208.289 220.685C208.636 221.367 209.116 221.887 209.729 222.245C210.343 222.597 211.056 222.774 211.869 222.774C212.397 222.774 212.874 222.7 213.3 222.552C213.732 222.399 214.104 222.171 214.417 221.87C214.729 221.563 214.971 221.183 215.141 220.728L217.085 221.274C216.88 221.933 216.536 222.512 216.053 223.012C215.57 223.506 214.974 223.893 214.263 224.171C213.553 224.444 212.755 224.58 211.869 224.58ZM229.621 214.149L227.815 214.66C227.701 214.359 227.533 214.066 227.312 213.782C227.096 213.492 226.8 213.254 226.425 213.066C226.05 212.879 225.57 212.785 224.985 212.785C224.184 212.785 223.516 212.97 222.982 213.339C222.454 213.703 222.19 214.166 222.19 214.728C222.19 215.228 222.371 215.623 222.735 215.913C223.099 216.203 223.667 216.444 224.44 216.637L226.383 217.114C227.553 217.399 228.425 217.833 228.999 218.418C229.573 218.998 229.86 219.745 229.86 220.66C229.86 221.41 229.644 222.08 229.212 222.671C228.786 223.262 228.19 223.728 227.423 224.069C226.656 224.41 225.763 224.58 224.746 224.58C223.411 224.58 222.306 224.291 221.431 223.711C220.556 223.131 220.002 222.285 219.769 221.171L221.678 220.694C221.86 221.399 222.204 221.927 222.71 222.279C223.221 222.631 223.888 222.808 224.712 222.808C225.65 222.808 226.394 222.609 226.945 222.211C227.502 221.808 227.781 221.325 227.781 220.762C227.781 220.308 227.621 219.927 227.303 219.62C226.985 219.308 226.496 219.075 225.837 218.921L223.656 218.41C222.457 218.126 221.576 217.685 221.013 217.089C220.457 216.487 220.178 215.734 220.178 214.83C220.178 214.092 220.386 213.438 220.8 212.87C221.221 212.302 221.792 211.856 222.513 211.532C223.241 211.208 224.065 211.046 224.985 211.046C226.281 211.046 227.298 211.33 228.036 211.899C228.781 212.467 229.309 213.217 229.621 214.149ZM238.581 211.217V212.921H231.797V211.217H238.581ZM233.774 208.08H235.786V220.558C235.786 221.126 235.868 221.552 236.033 221.836C236.203 222.114 236.419 222.302 236.68 222.399C236.947 222.489 237.229 222.535 237.524 222.535C237.746 222.535 237.928 222.524 238.07 222.501C238.212 222.472 238.325 222.45 238.411 222.433L238.82 224.239C238.683 224.291 238.493 224.342 238.249 224.393C238.004 224.45 237.695 224.478 237.32 224.478C236.751 224.478 236.195 224.356 235.649 224.112C235.109 223.867 234.661 223.495 234.303 222.995C233.95 222.495 233.774 221.864 233.774 221.103V208.08ZM250.645 214.149L248.838 214.66C248.724 214.359 248.557 214.066 248.335 213.782C248.119 213.492 247.824 213.254 247.449 213.066C247.074 212.879 246.594 212.785 246.009 212.785C245.207 212.785 244.54 212.97 244.006 213.339C243.477 213.703 243.213 214.166 243.213 214.728C243.213 215.228 243.395 215.623 243.759 215.913C244.122 216.203 244.69 216.444 245.463 216.637L247.406 217.114C248.577 217.399 249.449 217.833 250.023 218.418C250.597 218.998 250.884 219.745 250.884 220.66C250.884 221.41 250.668 222.08 250.236 222.671C249.81 223.262 249.213 223.728 248.446 224.069C247.679 224.41 246.787 224.58 245.77 224.58C244.435 224.58 243.33 224.291 242.455 223.711C241.58 223.131 241.026 222.285 240.793 221.171L242.702 220.694C242.884 221.399 243.227 221.927 243.733 222.279C244.244 222.631 244.912 222.808 245.736 222.808C246.673 222.808 247.418 222.609 247.969 222.211C248.526 221.808 248.804 221.325 248.804 220.762C248.804 220.308 248.645 219.927 248.327 219.62C248.009 219.308 247.52 219.075 246.861 218.921L244.679 218.41C243.48 218.126 242.599 217.685 242.037 217.089C241.48 216.487 241.202 215.734 241.202 214.83C241.202 214.092 241.409 213.438 241.824 212.87C242.244 212.302 242.815 211.856 243.537 211.532C244.264 211.208 245.088 211.046 246.009 211.046C247.304 211.046 248.321 211.33 249.06 211.899C249.804 212.467 250.332 213.217 250.645 214.149Z" fill="#7B849A"/>
<defs>
<filter id="filter0_d_3382_5602" x="0.789564" y="11.2197" width="203.88" height="57.6044" filterUnits="userSpaceOnUse" color-interpolation-filters="sRGB">
<feFlood flood-opacity="0" result="BackgroundImageFix"/>
<feColorMatrix in="SourceAlpha" type="matrix" values="0 0 0 0 0 0 0 0 0 0 0 0 0 0 0 0 0 0 127 0" result="hardAlpha"/>
<feOffset dx="3.31858" dy="3.31858"/>
<feGaussianBlur stdDeviation="2.76549"/>
<feColorMatrix type="matrix" values="0 0 0 0 0.230539 0 0 0 0 0.370572 0 0 0 0 0.482993 0 0 0 0.1 0"/>
<feBlend mode="normal" in2="BackgroundImageFix" result="effect1_dropShadow_3382_5602"/>
<feBlend mode="normal" in="SourceGraphic" in2="effect1_dropShadow_3382_5602" result="shape"/>
</filter>
<filter id="filter1_d_3382_5602" x="57.9688" y="68.4019" width="203.88" height="57.6049" filterUnits="userSpaceOnUse" color-interpolation-filters="sRGB">
<feFlood flood-opacity="0" result="BackgroundImageFix"/>
<feColorMatrix in="SourceAlpha" type="matrix" values="0 0 0 0 0 0 0 0 0 0 0 0 0 0 0 0 0 0 127 0" result="hardAlpha"/>
<feOffset dx="3.31858" dy="3.31858"/>
<feGaussianBlur stdDeviation="2.76549"/>
<feColorMatrix type="matrix" values="0 0 0 0 0.230539 0 0 0 0 0.370572 0 0 0 0 0.482993 0 0 0 0.1 0"/>
<feBlend mode="normal" in2="BackgroundImageFix" result="effect1_dropShadow_3382_5602"/>
<feBlend mode="normal" in="SourceGraphic" in2="effect1_dropShadow_3382_5602" result="shape"/>
</filter>
<filter id="filter2_d_3382_5602" x="0.787611" y="125.582" width="203.88" height="57.6049" filterUnits="userSpaceOnUse" color-interpolation-filters="sRGB">
<feFlood flood-opacity="0" result="BackgroundImageFix"/>
<feColorMatrix in="SourceAlpha" type="matrix" values="0 0 0 0 0 0 0 0 0 0 0 0 0 0 0 0 0 0 127 0" result="hardAlpha"/>
<feOffset dx="3.31858" dy="3.31858"/>
<feGaussianBlur stdDeviation="2.76549"/>
<feColorMatrix type="matrix" values="0 0 0 0 0.230539 0 0 0 0 0.370572 0 0 0 0 0.482993 0 0 0 0.1 0"/>
<feBlend mode="normal" in2="BackgroundImageFix" result="effect1_dropShadow_3382_5602"/>
<feBlend mode="normal" in="SourceGraphic" in2="effect1_dropShadow_3382_5602" result="shape"/>
</filter>
</defs>
</svg>
