<svg width="273" height="272" viewBox="0 0 273 272" fill="none" xmlns="http://www.w3.org/2000/svg">
<rect x="36.5059" y="-0.00195312" width="177.91" height="221.47" rx="22.8571" fill="#38B89A" fill-opacity="0.1"/>
<rect x="52.2168" y="28.5693" width="71.4286" height="14" rx="7" fill="#38B89A"/>
<rect x="52.2168" y="68.2832" width="142.857" height="14" rx="7" fill="#38B89A" fill-opacity="0.21"/>
<rect x="52.2168" y="107.998" width="142.857" height="14" rx="7" fill="#38B89A" fill-opacity="0.21"/>
<rect x="52.2168" y="147.712" width="142.857" height="14" rx="7" fill="#38B89A" fill-opacity="0.21"/>
<rect x="52.2168" y="187.427" width="142.857" height="14" rx="7" fill="#38B89A" fill-opacity="0.21"/>
<path fill-rule="evenodd" clip-rule="evenodd" d="M142.181 188.519C154.248 188.519 165.462 184.868 174.78 178.611L212.907 215.007L226.734 198.965L189.941 163.843C196.734 154.282 200.728 142.593 200.728 129.972C200.728 97.6365 174.515 71.4238 142.181 71.4238C109.846 71.4238 83.6328 97.6365 83.6328 129.972C83.6328 162.307 109.846 188.519 142.181 188.519ZM192.127 129.973C192.127 157.348 169.935 179.54 142.559 179.54C115.184 179.54 92.9922 157.348 92.9922 129.973C92.9922 102.598 115.184 80.4058 142.559 80.4058C169.935 80.4058 192.127 102.598 192.127 129.973Z" fill="#38B89A"/>
<g filter="url(#filter0_b_3382_8531)">
<path d="M142.558 180.5C170.754 180.5 193.611 157.852 193.611 129.914C193.611 101.977 170.754 79.3291 142.558 79.3291C114.361 79.3291 91.5039 101.977 91.5039 129.914C91.5039 157.852 114.361 180.5 142.558 180.5Z" fill="#38B89A" fill-opacity="0.05"/>
</g>
<path d="M151.383 129.914L163.738 117.607C164.895 116.39 165.529 114.771 165.505 113.097C165.482 111.422 164.802 109.822 163.61 108.638C162.418 107.453 160.809 106.777 159.124 106.754C157.438 106.73 155.81 107.36 154.585 108.511L142.203 120.818L129.848 108.511C129.254 107.885 128.539 107.385 127.746 107.039C126.954 106.693 126.099 106.508 125.234 106.496C124.368 106.484 123.509 106.644 122.707 106.968C121.905 107.291 121.176 107.771 120.564 108.38C119.952 108.988 119.469 109.712 119.143 110.51C118.818 111.307 118.656 112.161 118.669 113.021C118.681 113.881 118.867 114.73 119.215 115.518C119.563 116.306 120.067 117.016 120.696 117.607L133.071 129.914L120.696 142.221C120.067 142.812 119.563 143.522 119.215 144.31C118.867 145.098 118.681 145.947 118.669 146.807C118.656 147.668 118.818 148.522 119.143 149.319C119.469 150.116 119.952 150.84 120.564 151.449C121.176 152.057 121.905 152.537 122.707 152.861C123.509 153.184 124.368 153.345 125.234 153.333C126.099 153.32 126.954 153.136 127.746 152.79C128.539 152.444 129.254 151.943 129.848 151.318L142.231 139.011L154.613 151.318C155.85 152.4 157.455 152.974 159.102 152.92C160.749 152.867 162.314 152.192 163.477 151.032C164.641 149.872 165.315 148.315 165.364 146.678C165.412 145.041 164.831 143.447 163.738 142.221L151.383 129.914Z" fill="#38B89A"/>
<path d="M212.896 215.013L226.723 198.97L228.806 200.958C230.827 202.887 232.036 205.582 232.169 208.45C232.302 211.317 231.347 214.123 229.514 216.249C227.681 218.376 225.121 219.649 222.396 219.789C219.671 219.929 217.005 218.924 214.984 216.995L212.902 215.007L212.896 215.013Z" fill="#38B89A"/>
<path d="M16.7257 247.988V266.286H14.5814L4.61028 251.919H4.43159V266.286H2.2158V247.988H4.36011L14.3669 262.391H14.5456V247.988H16.7257ZM26.4488 266.572C25.2099 266.572 24.1228 266.277 23.1877 265.688C22.2585 265.098 21.5318 264.273 21.0076 263.213C20.4894 262.152 20.2303 260.913 20.2303 259.496C20.2303 258.066 20.4894 256.818 21.0076 255.752C21.5318 254.686 22.2585 253.858 23.1877 253.268C24.1228 252.679 25.2099 252.384 26.4488 252.384C27.6878 252.384 28.7718 252.679 29.701 253.268C30.6362 253.858 31.3629 254.686 31.8811 255.752C32.4053 256.818 32.6673 258.066 32.6673 259.496C32.6673 260.913 32.4053 262.152 31.8811 263.213C31.3629 264.273 30.6362 265.098 29.701 265.688C28.7718 266.277 27.6878 266.572 26.4488 266.572ZM26.4488 264.678C27.3899 264.678 28.1643 264.437 28.7718 263.954C29.3794 263.472 29.8291 262.837 30.121 262.051C30.4128 261.265 30.5588 260.413 30.5588 259.496C30.5588 258.579 30.4128 257.724 30.121 256.932C29.8291 256.139 29.3794 255.499 28.7718 255.011C28.1643 254.522 27.3899 254.278 26.4488 254.278C25.5077 254.278 24.7334 254.522 24.1258 255.011C23.5183 255.499 23.0685 256.139 22.7767 256.932C22.4848 257.724 22.3389 258.579 22.3389 259.496C22.3389 260.413 22.4848 261.265 22.7767 262.051C23.0685 262.837 23.5183 263.472 24.1258 263.954C24.7334 264.437 25.5077 264.678 26.4488 264.678ZM43.2482 266.286V247.988H54.2915V249.954H45.464V256.136H53.7196V258.102H45.464V264.321H54.4344V266.286H43.2482ZM69.2213 252.562L64.1464 266.286H62.0021L56.9272 252.562H59.2145L63.0027 263.499H63.1457L66.934 252.562H69.2213ZM77.2669 266.572C75.9446 266.572 74.8039 266.28 73.845 265.696C72.8919 265.107 72.1563 264.285 71.6381 263.23C71.1258 262.17 70.8697 260.937 70.8697 259.532C70.8697 258.126 71.1258 256.887 71.6381 255.815C72.1563 254.737 72.877 253.897 73.8003 253.295C74.7295 252.688 75.8136 252.384 77.0525 252.384C77.7673 252.384 78.4731 252.503 79.17 252.741C79.8669 252.979 80.5013 253.367 81.0731 253.903C81.6449 254.433 82.1006 255.136 82.4401 256.011C82.7796 256.887 82.9494 257.965 82.9494 259.246V260.139H72.3707V258.316H80.8051C80.8051 257.542 80.6502 256.851 80.3405 256.244C80.0367 255.636 79.6019 255.157 79.036 254.805C78.4761 254.454 77.8149 254.278 77.0525 254.278C76.2126 254.278 75.486 254.486 74.8724 254.903C74.2649 255.314 73.7973 255.85 73.4697 256.512C73.1421 257.173 72.9783 257.882 72.9783 258.638V259.853C72.9783 260.89 73.157 261.768 73.5144 262.489C73.8777 263.204 74.381 263.749 75.0243 264.124C75.6676 264.493 76.4152 264.678 77.2669 264.678C77.8209 264.678 78.3212 264.6 78.768 264.446C79.2206 264.285 79.6108 264.047 79.9384 263.731C80.266 263.409 80.5191 263.01 80.6978 262.534L82.7349 263.105C82.5205 263.796 82.1601 264.404 81.6538 264.928C81.1475 265.446 80.5221 265.851 79.7776 266.143C79.033 266.429 78.1961 266.572 77.2669 266.572ZM88.2655 258.031V266.286H86.1569V252.562H88.194V254.707H88.3727C88.6944 254.01 89.1828 253.45 89.838 253.027C90.4932 252.598 91.339 252.384 92.3754 252.384C93.3046 252.384 94.1177 252.574 94.8146 252.956C95.5115 253.331 96.0535 253.903 96.4407 254.671C96.8279 255.434 97.0215 256.398 97.0215 257.566V266.286H94.9129V257.709C94.9129 256.631 94.6329 255.791 94.073 255.189C93.5131 254.582 92.7447 254.278 91.7679 254.278C91.0948 254.278 90.4932 254.424 89.9631 254.716C89.4389 255.008 89.0249 255.434 88.7212 255.993C88.4174 256.553 88.2655 257.232 88.2655 258.031ZM106.843 252.562V254.349H99.7309V252.562H106.843ZM101.804 249.275H103.912V262.355C103.912 262.951 103.999 263.397 104.171 263.695C104.35 263.987 104.576 264.184 104.85 264.285C105.13 264.38 105.425 264.428 105.735 264.428C105.967 264.428 106.158 264.416 106.307 264.392C106.456 264.362 106.575 264.338 106.664 264.321L107.093 266.215C106.95 266.268 106.751 266.322 106.494 266.375C106.238 266.435 105.914 266.465 105.521 266.465C104.925 266.465 104.341 266.337 103.769 266.081C103.204 265.825 102.733 265.434 102.358 264.91C101.988 264.386 101.804 263.725 101.804 262.927V249.275ZM117.377 266.286V247.988H123.56C124.989 247.988 126.163 248.232 127.08 248.721C127.997 249.203 128.676 249.867 129.117 250.713C129.558 251.559 129.778 252.521 129.778 253.599C129.778 254.677 129.558 255.633 129.117 256.467C128.676 257.301 128 257.956 127.089 258.433C126.177 258.903 125.013 259.138 123.595 259.138H118.592V257.137H123.524C124.501 257.137 125.287 256.994 125.883 256.708C126.484 256.422 126.919 256.017 127.187 255.493C127.461 254.963 127.598 254.332 127.598 253.599C127.598 252.866 127.461 252.226 127.187 251.678C126.913 251.13 126.475 250.707 125.874 250.409C125.272 250.105 124.477 249.954 123.488 249.954H119.593V266.286H117.377ZM125.99 258.066L130.493 266.286H127.92L123.488 258.066H125.99ZM138.791 266.572C137.469 266.572 136.328 266.28 135.369 265.696C134.416 265.107 133.68 264.285 133.162 263.23C132.65 262.17 132.394 260.937 132.394 259.532C132.394 258.126 132.65 256.887 133.162 255.815C133.68 254.737 134.401 253.897 135.324 253.295C136.254 252.688 137.338 252.384 138.577 252.384C139.291 252.384 139.997 252.503 140.694 252.741C141.391 252.979 142.025 253.367 142.597 253.903C143.169 254.433 143.625 255.136 143.964 256.011C144.304 256.887 144.473 257.965 144.473 259.246V260.139H133.895V258.316H142.329C142.329 257.542 142.174 256.851 141.865 256.244C141.561 255.636 141.126 255.157 140.56 254.805C140 254.454 139.339 254.278 138.577 254.278C137.737 254.278 137.01 254.486 136.397 254.903C135.789 255.314 135.321 255.85 134.994 256.512C134.666 257.173 134.502 257.882 134.502 258.638V259.853C134.502 260.89 134.681 261.768 135.038 262.489C135.402 263.204 135.905 263.749 136.548 264.124C137.192 264.493 137.939 264.678 138.791 264.678C139.345 264.678 139.845 264.6 140.292 264.446C140.745 264.285 141.135 264.047 141.462 263.731C141.79 263.409 142.043 263.01 142.222 262.534L144.259 263.105C144.045 263.796 143.684 264.404 143.178 264.928C142.672 265.446 142.046 265.851 141.302 266.143C140.557 266.429 139.72 266.572 138.791 266.572ZM157.045 271.432V264.178H156.866C156.711 264.428 156.491 264.743 156.205 265.125C155.919 265.5 155.511 265.836 154.981 266.134C154.45 266.426 153.745 266.572 152.863 266.572C151.719 266.572 150.71 266.283 149.834 265.705C148.959 265.122 148.274 264.3 147.779 263.239C147.285 262.173 147.038 260.913 147.038 259.46C147.038 258.019 147.285 256.768 147.779 255.707C148.274 254.647 148.962 253.828 149.843 253.25C150.725 252.673 151.743 252.384 152.899 252.384C153.792 252.384 154.498 252.533 155.016 252.831C155.541 253.122 155.94 253.456 156.214 253.831C156.494 254.201 156.711 254.504 156.866 254.743H157.116V252.562H159.153V271.432H157.045ZM153.149 264.678C153.995 264.678 154.71 264.458 155.293 264.017C155.877 263.57 156.321 262.954 156.625 262.167C156.928 261.375 157.08 260.461 157.08 259.424C157.08 258.4 156.931 257.503 156.634 256.735C156.336 255.961 155.895 255.359 155.311 254.93C154.727 254.495 154.007 254.278 153.149 254.278C152.256 254.278 151.511 254.507 150.915 254.966C150.326 255.419 149.882 256.035 149.584 256.815C149.292 257.59 149.146 258.459 149.146 259.424C149.146 260.401 149.295 261.289 149.593 262.087C149.897 262.879 150.344 263.51 150.933 263.981C151.529 264.446 152.267 264.678 153.149 264.678ZM171.662 260.675V252.562H173.77V266.286H171.662V263.963H171.519C171.197 264.66 170.697 265.253 170.018 265.741C169.339 266.224 168.481 266.465 167.444 266.465C166.587 266.465 165.824 266.277 165.157 265.902C164.49 265.521 163.966 264.949 163.585 264.186C163.203 263.418 163.013 262.45 163.013 261.283V252.562H165.121V261.14C165.121 262.14 165.401 262.939 165.961 263.534C166.527 264.13 167.248 264.428 168.123 264.428C168.648 264.428 169.181 264.294 169.723 264.026C170.271 263.758 170.729 263.347 171.099 262.793C171.474 262.239 171.662 261.533 171.662 260.675ZM183.386 266.572C182.064 266.572 180.923 266.28 179.964 265.696C179.011 265.107 178.275 264.285 177.757 263.23C177.245 262.17 176.989 260.937 176.989 259.532C176.989 258.126 177.245 256.887 177.757 255.815C178.275 254.737 178.996 253.897 179.919 253.295C180.849 252.688 181.933 252.384 183.172 252.384C183.886 252.384 184.592 252.503 185.289 252.741C185.986 252.979 186.62 253.367 187.192 253.903C187.764 254.433 188.22 255.136 188.559 256.011C188.899 256.887 189.069 257.965 189.069 259.246V260.139H178.49V258.316H186.924C186.924 257.542 186.769 256.851 186.46 256.244C186.156 255.636 185.721 255.157 185.155 254.805C184.595 254.454 183.934 254.278 183.172 254.278C182.332 254.278 181.605 254.486 180.992 254.903C180.384 255.314 179.916 255.85 179.589 256.512C179.261 257.173 179.097 257.882 179.097 258.638V259.853C179.097 260.89 179.276 261.768 179.634 262.489C179.997 263.204 180.5 263.749 181.144 264.124C181.787 264.493 182.534 264.678 183.386 264.678C183.94 264.678 184.44 264.6 184.887 264.446C185.34 264.285 185.73 264.047 186.058 263.731C186.385 263.409 186.638 263.01 186.817 262.534L188.854 263.105C188.64 263.796 188.279 264.404 187.773 264.928C187.267 265.446 186.641 265.851 185.897 266.143C185.152 266.429 184.315 266.572 183.386 266.572ZM201.997 255.636L200.103 256.172C199.984 255.856 199.808 255.55 199.576 255.252C199.349 254.948 199.04 254.698 198.647 254.501C198.253 254.305 197.75 254.206 197.137 254.206C196.297 254.206 195.597 254.4 195.037 254.787C194.483 255.168 194.206 255.654 194.206 256.244C194.206 256.768 194.397 257.182 194.778 257.485C195.159 257.789 195.755 258.042 196.565 258.245L198.602 258.745C199.829 259.043 200.743 259.499 201.345 260.112C201.946 260.72 202.247 261.503 202.247 262.462C202.247 263.248 202.021 263.951 201.568 264.571C201.121 265.19 200.496 265.679 199.692 266.036C198.888 266.393 197.953 266.572 196.886 266.572C195.487 266.572 194.328 266.268 193.411 265.661C192.494 265.053 191.913 264.166 191.669 262.998L193.67 262.498C193.861 263.236 194.221 263.79 194.751 264.16C195.287 264.529 195.987 264.714 196.851 264.714C197.833 264.714 198.614 264.505 199.192 264.088C199.775 263.665 200.067 263.159 200.067 262.569C200.067 262.093 199.9 261.694 199.567 261.372C199.233 261.044 198.721 260.8 198.03 260.639L195.743 260.103C194.486 259.806 193.563 259.344 192.973 258.718C192.389 258.087 192.097 257.298 192.097 256.351C192.097 255.576 192.315 254.891 192.75 254.296C193.19 253.7 193.789 253.233 194.545 252.893C195.308 252.554 196.172 252.384 197.137 252.384C198.495 252.384 199.561 252.682 200.335 253.277C201.115 253.873 201.669 254.659 201.997 255.636ZM211.39 252.562V254.349H204.278V252.562H211.39ZM206.35 249.275H208.459V262.355C208.459 262.951 208.545 263.397 208.718 263.695C208.897 263.987 209.123 264.184 209.397 264.285C209.677 264.38 209.972 264.428 210.282 264.428C210.514 264.428 210.705 264.416 210.853 264.392C211.002 264.362 211.122 264.338 211.211 264.321L211.64 266.215C211.497 266.268 211.297 266.322 211.041 266.375C210.785 266.435 210.46 266.465 210.067 266.465C209.472 266.465 208.888 266.337 208.316 266.081C207.75 265.825 207.28 265.434 206.904 264.91C206.535 264.386 206.35 263.725 206.35 262.927V249.275ZM220.351 247.988H222.888L227.963 256.529H228.178L233.253 247.988H235.79L229.178 258.745V266.286H226.963V258.745L220.351 247.988ZM242.183 266.572C240.861 266.572 239.72 266.28 238.761 265.696C237.808 265.107 237.072 264.285 236.554 263.23C236.042 262.17 235.786 260.937 235.786 259.532C235.786 258.126 236.042 256.887 236.554 255.815C237.072 254.737 237.793 253.897 238.716 253.295C239.645 252.688 240.729 252.384 241.968 252.384C242.683 252.384 243.389 252.503 244.086 252.741C244.783 252.979 245.417 253.367 245.989 253.903C246.561 254.433 247.017 255.136 247.356 256.011C247.696 256.887 247.865 257.965 247.865 259.246V260.139H237.287V258.316H245.721C245.721 257.542 245.566 256.851 245.256 256.244C244.953 255.636 244.518 255.157 243.952 254.805C243.392 254.454 242.731 254.278 241.968 254.278C241.129 254.278 240.402 254.486 239.788 254.903C239.181 255.314 238.713 255.85 238.386 256.512C238.058 257.173 237.894 257.882 237.894 258.638V259.853C237.894 260.89 238.073 261.768 238.43 262.489C238.794 263.204 239.297 263.749 239.94 264.124C240.584 264.493 241.331 264.678 242.183 264.678C242.737 264.678 243.237 264.6 243.684 264.446C244.137 264.285 244.527 264.047 244.854 263.731C245.182 263.409 245.435 263.01 245.614 262.534L247.651 263.105C247.436 263.796 247.076 264.404 246.57 264.928C246.063 265.446 245.438 265.851 244.693 266.143C243.949 266.429 243.112 266.572 242.183 266.572ZM257.041 252.562V254.349H249.929V252.562H257.041ZM252.002 249.275H254.111V262.355C254.111 262.951 254.197 263.397 254.37 263.695C254.548 263.987 254.775 264.184 255.049 264.285C255.329 264.38 255.624 264.428 255.933 264.428C256.166 264.428 256.356 264.416 256.505 264.392C256.654 264.362 256.773 264.338 256.863 264.321L257.291 266.215C257.148 266.268 256.949 266.322 256.693 266.375C256.437 266.435 256.112 266.465 255.719 266.465C255.123 266.465 254.54 266.337 253.968 266.081C253.402 265.825 252.931 265.434 252.556 264.91C252.187 264.386 252.002 263.725 252.002 262.927V249.275ZM263.001 247.988L262.822 261.14H260.749L260.57 247.988H263.001ZM261.785 266.429C261.345 266.429 260.966 266.271 260.651 265.956C260.335 265.64 260.177 265.262 260.177 264.821C260.177 264.38 260.335 264.002 260.651 263.686C260.966 263.37 261.345 263.213 261.785 263.213C262.226 263.213 262.605 263.37 262.92 263.686C263.236 264.002 263.394 264.38 263.394 264.821C263.394 265.113 263.319 265.381 263.17 265.625C263.027 265.869 262.834 266.066 262.59 266.215C262.351 266.358 262.083 266.429 261.785 266.429ZM270.003 247.988L269.824 261.14H267.752L267.573 247.988H270.003ZM268.788 266.429C268.347 266.429 267.969 266.271 267.653 265.956C267.338 265.64 267.18 265.262 267.18 264.821C267.18 264.38 267.338 264.002 267.653 263.686C267.969 263.37 268.347 263.213 268.788 263.213C269.229 263.213 269.607 263.37 269.923 263.686C270.238 264.002 270.396 264.38 270.396 264.821C270.396 265.113 270.322 265.381 270.173 265.625C270.03 265.869 269.836 266.066 269.592 266.215C269.354 266.358 269.086 266.429 268.788 266.429Z" fill="#7B849A"/>
<defs>
<filter id="filter0_b_3382_8531" x="84.0098" y="71.835" width="117.096" height="116.159" filterUnits="userSpaceOnUse" color-interpolation-filters="sRGB">
<feFlood flood-opacity="0" result="BackgroundImageFix"/>
<feGaussianBlur in="BackgroundImageFix" stdDeviation="3.74705"/>
<feComposite in2="SourceAlpha" operator="in" result="effect1_backgroundBlur_3382_8531"/>
<feBlend mode="normal" in="SourceGraphic" in2="effect1_backgroundBlur_3382_8531" result="shape"/>
</filter>
</defs>
</svg>
