<svg width="293" height="275" viewBox="0 0 293 275" fill="none" xmlns="http://www.w3.org/2000/svg">
<path d="M116.022 232.044C180.1 232.044 232.045 180.099 232.045 116.022C232.045 51.9449 180.1 0 116.022 0C51.945 0 0 51.9449 0 116.022C0 180.099 51.945 232.044 116.022 232.044Z" fill="#38B89A" fill-opacity="0.1"/>
<g filter="url(#filter0_d_3172_6832)">
<path d="M63.4253 52.5967H272.265C274.317 52.5967 276.284 53.4117 277.735 54.8622C279.185 56.3128 280 58.2801 280 60.3315V99.0056C280 101.057 279.185 103.024 277.735 104.475C276.284 105.925 274.317 106.74 272.265 106.74H63.4253C61.3738 106.74 59.4065 105.925 57.9559 104.475C56.5053 103.024 55.6904 101.057 55.6904 99.0056V60.3315C55.6904 58.2801 56.5053 56.3128 57.9559 54.8622C59.4065 53.4117 61.3738 52.5967 63.4253 52.5967V52.5967Z" fill="white"/>
</g>
<path d="M162.43 64.9723H122.209C119.646 64.9723 117.568 67.0501 117.568 69.6132C117.568 72.1763 119.646 74.2541 122.209 74.2541H162.43C164.993 74.2541 167.071 72.1763 167.071 69.6132C167.071 67.0501 164.993 64.9723 162.43 64.9723Z" fill="#38B89A"/>
<path d="M190.276 85.0829H122.209C119.646 85.0829 117.568 87.1607 117.568 89.7238C117.568 92.2869 119.646 94.3647 122.209 94.3647H190.276C192.839 94.3647 194.917 92.2869 194.917 89.7238C194.917 87.1607 192.839 85.0829 190.276 85.0829Z" fill="#38B89A" fill-opacity="0.08"/>
<path d="M105.193 79.6684C105.193 67.2802 95.1503 57.2375 82.762 57.2375C70.3737 57.2375 60.3311 67.2802 60.3311 79.6684C60.3311 92.0567 70.3737 102.099 82.762 102.099C95.1503 102.099 105.193 92.0567 105.193 79.6684Z" fill="#38B89A"/>
<path d="M81.3708 86.9301C83.2911 86.9298 85.1561 86.2873 86.6691 85.1047L91.426 89.8616L92.956 88.3316L88.1975 83.5732C89.3931 82.0275 90.0298 80.1224 90.004 78.1685C89.9783 76.2146 89.2914 74.327 88.0555 72.8133C86.8196 71.2997 85.1075 70.2493 83.1982 69.8333C81.2889 69.4173 79.295 69.6602 77.5414 70.5225C75.7878 71.3848 74.378 72.8156 73.5417 74.5817C72.7054 76.3478 72.4919 78.3451 72.936 80.248C73.3802 82.151 74.4557 83.8474 75.9874 85.0608C77.5191 86.2743 79.4167 86.9332 81.3708 86.9301ZM81.3708 71.7792C82.6558 71.7792 83.912 72.1602 84.9804 72.8741C86.0489 73.5881 86.8817 74.6028 87.3734 75.79C87.8652 76.9772 87.9939 78.2836 87.7432 79.5439C87.4925 80.8043 86.8737 81.962 85.965 82.8706C85.0564 83.7793 83.8987 84.3981 82.6383 84.6488C81.378 84.8995 80.0716 84.7708 78.8844 84.2791C77.6972 83.7873 76.6824 82.9545 75.9685 81.8861C75.2546 80.8176 74.8735 79.5614 74.8735 78.2764C74.8735 76.5532 75.558 74.9006 76.7765 73.6822C77.995 72.4637 79.6476 71.7792 81.3708 71.7792Z" fill="white"/>
<g filter="url(#filter1_d_3172_6832)">
<path d="M249.062 122.21H40.2214C35.9496 122.21 32.4866 125.673 32.4866 129.945V168.619C32.4866 172.891 35.9496 176.354 40.2214 176.354H249.062C253.333 176.354 256.796 172.891 256.796 168.619V129.945C256.796 125.673 253.333 122.21 249.062 122.21Z" fill="white"/>
</g>
<path d="M139.226 134.586H99.0054C96.4423 134.586 94.3645 136.663 94.3645 139.226C94.3645 141.79 96.4423 143.867 99.0054 143.867H139.226C141.79 143.867 143.867 141.79 143.867 139.226C143.867 136.663 141.79 134.586 139.226 134.586Z" fill="#38B89A"/>
<path d="M167.072 154.696H99.0054C96.4423 154.696 94.3645 156.774 94.3645 159.337C94.3645 161.9 96.4423 163.978 99.0054 163.978H167.072C169.635 163.978 171.713 161.9 171.713 159.337C171.713 156.774 169.635 154.696 167.072 154.696Z" fill="#38B89A" fill-opacity="0.08"/>
<path d="M81.9889 149.282C81.9889 136.893 71.9462 126.851 59.5579 126.851C47.1696 126.851 37.127 136.893 37.127 149.282C37.127 161.67 47.1696 171.713 59.5579 171.713C71.9462 171.713 81.9889 161.67 81.9889 149.282Z" fill="#38B89A"/>
<path d="M58.1652 156.543C60.0855 156.543 61.9506 155.9 63.4636 154.718L68.2205 159.475L69.7504 157.945L64.992 153.186C66.1875 151.64 66.8243 149.735 66.7985 147.781C66.7727 145.828 66.0859 143.94 64.85 142.426C63.6141 140.913 61.9019 139.862 59.9926 139.446C58.0833 139.03 56.0894 139.273 54.3358 140.135C52.5823 140.998 51.1724 142.429 50.3361 144.195C49.4998 145.961 49.2863 147.958 49.7305 149.861C50.1746 151.764 51.2502 153.46 52.7819 154.674C54.3136 155.887 56.2111 156.546 58.1652 156.543ZM58.1652 141.392C59.4502 141.392 60.7064 141.773 61.7749 142.487C62.8433 143.201 63.6761 144.216 64.1679 145.403C64.6596 146.59 64.7883 147.897 64.5376 149.157C64.2869 150.417 63.6681 151.575 62.7595 152.484C61.8508 153.392 60.6931 154.011 59.4328 154.262C58.1724 154.512 56.866 154.384 55.6788 153.892C54.4916 153.4 53.4769 152.568 52.7629 151.499C52.049 150.431 51.668 149.174 51.668 147.889C51.668 146.166 52.3525 144.514 53.571 143.295C54.7894 142.077 56.442 141.392 58.1652 141.392Z" fill="white"/>
<path d="M39.4545 252.59V270.044H37.4091L27.8977 256.34H27.7273V270.044H25.6136V252.59H27.6591L37.2045 266.328H37.375V252.59H39.4545ZM48.7294 270.317C47.5476 270.317 46.5107 270.036 45.6186 269.473C44.7322 268.911 44.0391 268.124 43.5391 267.112C43.0447 266.101 42.7976 264.919 42.7976 263.567C42.7976 262.203 43.0447 261.013 43.5391 259.996C44.0391 258.979 44.7322 258.189 45.6186 257.627C46.5107 257.064 47.5476 256.783 48.7294 256.783C49.9112 256.783 50.9453 257.064 51.8317 257.627C52.7237 258.189 53.4169 258.979 53.9112 259.996C54.4112 261.013 54.6612 262.203 54.6612 263.567C54.6612 264.919 54.4112 266.101 53.9112 267.112C53.4169 268.124 52.7237 268.911 51.8317 269.473C50.9453 270.036 49.9112 270.317 48.7294 270.317ZM48.7294 268.51C49.6271 268.51 50.3658 268.28 50.9453 267.82C51.5249 267.36 51.9538 266.754 52.2322 266.004C52.5107 265.254 52.6499 264.442 52.6499 263.567C52.6499 262.692 52.5107 261.877 52.2322 261.121C51.9538 260.365 51.5249 259.754 50.9453 259.289C50.3658 258.823 49.6271 258.59 48.7294 258.59C47.8317 258.59 47.093 258.823 46.5135 259.289C45.9339 259.754 45.505 260.365 45.2266 261.121C44.9482 261.877 44.8089 262.692 44.8089 263.567C44.8089 264.442 44.9482 265.254 45.2266 266.004C45.505 266.754 45.9339 267.36 46.5135 267.82C47.093 268.28 47.8317 268.51 48.7294 268.51ZM76.2088 252.59H78.3224V264.146C78.3224 265.34 78.0412 266.405 77.4787 267.342C76.9219 268.274 76.1349 269.01 75.1179 269.55C74.1009 270.084 72.9077 270.351 71.5384 270.351C70.169 270.351 68.9759 270.084 67.9588 269.55C66.9418 269.01 66.152 268.274 65.5895 267.342C65.0327 266.405 64.7543 265.34 64.7543 264.146V252.59H66.8679V263.976C66.8679 264.828 67.0554 265.587 67.4304 266.252C67.8054 266.911 68.3395 267.431 69.0327 267.811C69.7315 268.186 70.5668 268.374 71.5384 268.374C72.5099 268.374 73.3452 268.186 74.044 267.811C74.7429 267.431 75.277 266.911 75.6463 266.252C76.0213 265.587 76.2088 264.828 76.2088 263.976V252.59ZM91.5433 259.885L89.7365 260.396C89.6229 260.095 89.4553 259.803 89.2337 259.519C89.0178 259.229 88.7223 258.99 88.3473 258.803C87.9723 258.615 87.4922 258.521 86.907 258.521C86.1058 258.521 85.4382 258.706 84.9041 259.075C84.3757 259.439 84.1115 259.902 84.1115 260.465C84.1115 260.965 84.2933 261.36 84.657 261.649C85.0206 261.939 85.5888 262.181 86.3615 262.374L88.3047 262.851C89.4751 263.135 90.3473 263.57 90.9212 264.155C91.495 264.735 91.782 265.482 91.782 266.396C91.782 267.146 91.5661 267.817 91.1342 268.408C90.7081 268.999 90.1115 269.465 89.3445 269.806C88.5774 270.146 87.6854 270.317 86.6683 270.317C85.3331 270.317 84.228 270.027 83.353 269.448C82.478 268.868 81.924 268.021 81.6911 266.908L83.6001 266.431C83.782 267.135 84.1257 267.664 84.6314 268.016C85.1428 268.368 85.8104 268.544 86.6342 268.544C87.5717 268.544 88.3161 268.345 88.8672 267.948C89.424 267.544 89.7024 267.061 89.7024 266.499C89.7024 266.044 89.5433 265.664 89.2251 265.357C88.907 265.044 88.4183 264.811 87.7592 264.658L85.5774 264.146C84.3786 263.862 83.4979 263.422 82.9354 262.825C82.3786 262.223 82.1001 261.47 82.1001 260.567C82.1001 259.828 82.3075 259.175 82.7223 258.607C83.1428 258.039 83.7138 257.592 84.4354 257.269C85.1626 256.945 85.9865 256.783 86.907 256.783C88.2024 256.783 89.2195 257.067 89.9581 257.635C90.7024 258.203 91.2308 258.953 91.5433 259.885ZM100.298 270.317C99.0369 270.317 97.9489 270.039 97.0341 269.482C96.125 268.919 95.4233 268.135 94.929 267.129C94.4403 266.118 94.196 264.942 94.196 263.601C94.196 262.26 94.4403 261.078 94.929 260.056C95.4233 259.027 96.1108 258.226 96.9915 257.652C97.8778 257.073 98.9119 256.783 100.094 256.783C100.776 256.783 101.449 256.896 102.114 257.124C102.778 257.351 103.384 257.72 103.929 258.232C104.474 258.737 104.909 259.408 105.233 260.243C105.557 261.078 105.719 262.107 105.719 263.328V264.181H95.6278V262.442H103.673C103.673 261.703 103.526 261.044 103.23 260.465C102.94 259.885 102.526 259.428 101.986 259.092C101.452 258.757 100.821 258.59 100.094 258.59C99.2926 258.59 98.5994 258.789 98.0142 259.186C97.4347 259.578 96.9886 260.09 96.6761 260.72C96.3636 261.351 96.2074 262.027 96.2074 262.749V263.908C96.2074 264.896 96.3778 265.735 96.7188 266.422C97.0653 267.104 97.5455 267.624 98.1591 267.982C98.7727 268.334 99.4858 268.51 100.298 268.51C100.827 268.51 101.304 268.436 101.73 268.289C102.162 268.135 102.534 267.908 102.847 267.607C103.159 267.3 103.401 266.919 103.571 266.465L105.514 267.01C105.31 267.669 104.966 268.249 104.483 268.749C104 269.243 103.403 269.629 102.693 269.908C101.983 270.181 101.185 270.317 100.298 270.317ZM108.778 270.044V256.953H110.722V258.931H110.858C111.097 258.283 111.528 257.757 112.153 257.354C112.778 256.95 113.483 256.749 114.267 256.749C114.415 256.749 114.599 256.752 114.821 256.757C115.043 256.763 115.21 256.771 115.324 256.783V258.828C115.256 258.811 115.099 258.786 114.855 258.752C114.616 258.712 114.364 258.692 114.097 258.692C113.46 258.692 112.892 258.825 112.392 259.092C111.898 259.354 111.506 259.717 111.216 260.183C110.932 260.644 110.79 261.169 110.79 261.76V270.044H108.778ZM126.981 259.885L125.174 260.396C125.06 260.095 124.893 259.803 124.671 259.519C124.455 259.229 124.16 258.99 123.785 258.803C123.41 258.615 122.93 258.521 122.344 258.521C121.543 258.521 120.876 258.706 120.342 259.075C119.813 259.439 119.549 259.902 119.549 260.465C119.549 260.965 119.731 261.36 120.094 261.649C120.458 261.939 121.026 262.181 121.799 262.374L123.742 262.851C124.913 263.135 125.785 263.57 126.359 264.155C126.933 264.735 127.219 265.482 127.219 266.396C127.219 267.146 127.004 267.817 126.572 268.408C126.146 268.999 125.549 269.465 124.782 269.806C124.015 270.146 123.123 270.317 122.106 270.317C120.771 270.317 119.665 270.027 118.79 269.448C117.915 268.868 117.362 268.021 117.129 266.908L119.038 266.431C119.219 267.135 119.563 267.664 120.069 268.016C120.58 268.368 121.248 268.544 122.072 268.544C123.009 268.544 123.754 268.345 124.305 267.948C124.862 267.544 125.14 267.061 125.14 266.499C125.14 266.044 124.981 265.664 124.663 265.357C124.344 265.044 123.856 264.811 123.197 264.658L121.015 264.146C119.816 263.862 118.935 263.422 118.373 262.825C117.816 262.223 117.538 261.47 117.538 260.567C117.538 259.828 117.745 259.175 118.16 258.607C118.58 258.039 119.151 257.592 119.873 257.269C120.6 256.945 121.424 256.783 122.344 256.783C123.64 256.783 124.657 257.067 125.396 257.635C126.14 258.203 126.668 258.953 126.981 259.885ZM140.849 270.351C140.02 270.351 139.267 270.195 138.591 269.882C137.915 269.564 137.378 269.107 136.98 268.51C136.582 267.908 136.384 267.181 136.384 266.328C136.384 265.578 136.531 264.97 136.827 264.504C137.122 264.033 137.517 263.664 138.011 263.396C138.506 263.129 139.051 262.931 139.648 262.8C140.25 262.664 140.855 262.556 141.463 262.476C142.259 262.374 142.903 262.297 143.398 262.246C143.898 262.189 144.261 262.095 144.489 261.965C144.722 261.834 144.838 261.607 144.838 261.283V261.215C144.838 260.374 144.608 259.72 144.148 259.254C143.693 258.789 143.003 258.556 142.077 258.556C141.116 258.556 140.364 258.766 139.818 259.186C139.273 259.607 138.889 260.056 138.668 260.533L136.759 259.851C137.099 259.056 137.554 258.436 138.122 257.993C138.696 257.544 139.321 257.232 139.997 257.056C140.679 256.874 141.349 256.783 142.009 256.783C142.429 256.783 142.912 256.834 143.457 256.936C144.009 257.033 144.54 257.235 145.051 257.541C145.568 257.848 145.997 258.311 146.338 258.931C146.679 259.55 146.849 260.379 146.849 261.419V270.044H144.838V268.271H144.736C144.599 268.556 144.372 268.86 144.054 269.183C143.736 269.507 143.313 269.783 142.784 270.01C142.256 270.237 141.611 270.351 140.849 270.351ZM141.156 268.544C141.952 268.544 142.622 268.388 143.168 268.075C143.719 267.763 144.134 267.36 144.412 266.865C144.696 266.371 144.838 265.851 144.838 265.306V263.465C144.753 263.567 144.565 263.661 144.276 263.746C143.991 263.825 143.662 263.896 143.287 263.959C142.918 264.016 142.557 264.067 142.205 264.112C141.858 264.152 141.577 264.186 141.361 264.215C140.838 264.283 140.349 264.394 139.895 264.547C139.446 264.695 139.082 264.919 138.804 265.22C138.531 265.516 138.395 265.919 138.395 266.431C138.395 267.129 138.653 267.658 139.17 268.016C139.693 268.368 140.355 268.544 141.156 268.544ZM155.464 270.317C154.373 270.317 153.41 270.041 152.575 269.49C151.739 268.933 151.086 268.149 150.614 267.138C150.143 266.121 149.907 264.919 149.907 263.533C149.907 262.158 150.143 260.965 150.614 259.953C151.086 258.942 151.742 258.161 152.583 257.61C153.424 257.058 154.396 256.783 155.498 256.783C156.35 256.783 157.023 256.925 157.518 257.209C158.018 257.487 158.398 257.806 158.66 258.164C158.927 258.516 159.134 258.806 159.282 259.033H159.452V252.59H161.464V270.044H159.521V268.033H159.282C159.134 268.271 158.924 268.573 158.651 268.936C158.379 269.294 157.989 269.615 157.484 269.899C156.978 270.178 156.305 270.317 155.464 270.317ZM155.737 268.51C156.543 268.51 157.225 268.3 157.782 267.879C158.339 267.453 158.762 266.865 159.052 266.115C159.342 265.36 159.487 264.487 159.487 263.499C159.487 262.521 159.344 261.666 159.06 260.933C158.776 260.195 158.356 259.621 157.799 259.212C157.242 258.797 156.555 258.59 155.737 258.59C154.884 258.59 154.174 258.808 153.606 259.246C153.043 259.678 152.62 260.266 152.336 261.01C152.058 261.749 151.918 262.578 151.918 263.499C151.918 264.431 152.06 265.277 152.344 266.039C152.634 266.794 153.06 267.396 153.623 267.845C154.191 268.289 154.896 268.51 155.737 268.51ZM170.37 270.317C169.279 270.317 168.316 270.041 167.481 269.49C166.646 268.933 165.992 268.149 165.521 267.138C165.049 266.121 164.813 264.919 164.813 263.533C164.813 262.158 165.049 260.965 165.521 259.953C165.992 258.942 166.648 258.161 167.489 257.61C168.33 257.058 169.302 256.783 170.404 256.783C171.256 256.783 171.93 256.925 172.424 257.209C172.924 257.487 173.305 257.806 173.566 258.164C173.833 258.516 174.04 258.806 174.188 259.033H174.359V252.59H176.37V270.044H174.427V268.033H174.188C174.04 268.271 173.83 268.573 173.558 268.936C173.285 269.294 172.896 269.615 172.39 269.899C171.884 270.178 171.211 270.317 170.37 270.317ZM170.643 268.51C171.45 268.51 172.131 268.3 172.688 267.879C173.245 267.453 173.668 266.865 173.958 266.115C174.248 265.36 174.393 264.487 174.393 263.499C174.393 262.521 174.251 261.666 173.967 260.933C173.683 260.195 173.262 259.621 172.705 259.212C172.148 258.797 171.461 258.59 170.643 258.59C169.79 258.59 169.08 258.808 168.512 259.246C167.95 259.678 167.526 260.266 167.242 261.01C166.964 261.749 166.825 262.578 166.825 263.499C166.825 264.431 166.967 265.277 167.251 266.039C167.54 266.794 167.967 267.396 168.529 267.845C169.097 268.289 169.802 268.51 170.643 268.51ZM185.822 270.317C184.56 270.317 183.472 270.039 182.558 269.482C181.648 268.919 180.947 268.135 180.452 267.129C179.964 266.118 179.719 264.942 179.719 263.601C179.719 262.26 179.964 261.078 180.452 260.056C180.947 259.027 181.634 258.226 182.515 257.652C183.401 257.073 184.435 256.783 185.617 256.783C186.299 256.783 186.972 256.896 187.637 257.124C188.302 257.351 188.907 257.72 189.452 258.232C189.998 258.737 190.433 259.408 190.756 260.243C191.08 261.078 191.242 262.107 191.242 263.328V264.181H181.151V262.442H189.197C189.197 261.703 189.049 261.044 188.754 260.465C188.464 259.885 188.049 259.428 187.509 259.092C186.975 258.757 186.344 258.59 185.617 258.59C184.816 258.59 184.123 258.789 183.538 259.186C182.958 259.578 182.512 260.09 182.2 260.72C181.887 261.351 181.731 262.027 181.731 262.749V263.908C181.731 264.896 181.901 265.735 182.242 266.422C182.589 267.104 183.069 267.624 183.683 267.982C184.296 268.334 185.009 268.51 185.822 268.51C186.35 268.51 186.827 268.436 187.254 268.289C187.685 268.135 188.058 267.908 188.37 267.607C188.683 267.3 188.924 266.919 189.094 266.465L191.038 267.01C190.833 267.669 190.489 268.249 190.006 268.749C189.523 269.243 188.927 269.629 188.217 269.908C187.506 270.181 186.708 270.317 185.822 270.317ZM199.245 270.317C198.154 270.317 197.191 270.041 196.356 269.49C195.521 268.933 194.867 268.149 194.396 267.138C193.924 266.121 193.688 264.919 193.688 263.533C193.688 262.158 193.924 260.965 194.396 259.953C194.867 258.942 195.523 258.161 196.364 257.61C197.205 257.058 198.177 256.783 199.279 256.783C200.131 256.783 200.805 256.925 201.299 257.209C201.799 257.487 202.18 257.806 202.441 258.164C202.708 258.516 202.915 258.806 203.063 259.033H203.234V252.59H205.245V270.044H203.302V268.033H203.063C202.915 268.271 202.705 268.573 202.433 268.936C202.16 269.294 201.771 269.615 201.265 269.899C200.759 270.178 200.086 270.317 199.245 270.317ZM199.518 268.51C200.325 268.51 201.006 268.3 201.563 267.879C202.12 267.453 202.543 266.865 202.833 266.115C203.123 265.36 203.268 264.487 203.268 263.499C203.268 262.521 203.126 261.666 202.842 260.933C202.558 260.195 202.137 259.621 201.58 259.212C201.023 258.797 200.336 258.59 199.518 258.59C198.665 258.59 197.955 258.808 197.387 259.246C196.825 259.678 196.401 260.266 196.117 261.01C195.839 261.749 195.7 262.578 195.7 263.499C195.7 264.431 195.842 265.277 196.126 266.039C196.415 266.794 196.842 267.396 197.404 267.845C197.972 268.289 198.677 268.51 199.518 268.51ZM217.254 274.953C216.913 274.953 216.609 274.925 216.342 274.868C216.075 274.817 215.89 274.766 215.788 274.715L216.299 272.942C216.788 273.067 217.219 273.112 217.594 273.078C217.969 273.044 218.302 272.877 218.592 272.575C218.887 272.28 219.157 271.8 219.401 271.135L219.776 270.112L214.935 256.953H217.117L220.731 267.385H220.867L224.481 256.953H226.663L221.106 271.953C220.856 272.629 220.546 273.189 220.177 273.632C219.808 274.081 219.379 274.414 218.89 274.629C218.407 274.845 217.862 274.953 217.254 274.953ZM234.337 270.317C233.076 270.317 231.988 270.039 231.073 269.482C230.164 268.919 229.462 268.135 228.968 267.129C228.479 266.118 228.235 264.942 228.235 263.601C228.235 262.26 228.479 261.078 228.968 260.056C229.462 259.027 230.15 258.226 231.031 257.652C231.917 257.073 232.951 256.783 234.133 256.783C234.815 256.783 235.488 256.896 236.153 257.124C236.817 257.351 237.423 257.72 237.968 258.232C238.513 258.737 238.948 259.408 239.272 260.243C239.596 261.078 239.758 262.107 239.758 263.328V264.181H229.667V262.442H237.712C237.712 261.703 237.565 261.044 237.269 260.465C236.979 259.885 236.565 259.428 236.025 259.092C235.491 258.757 234.86 258.59 234.133 258.59C233.332 258.59 232.638 258.789 232.053 259.186C231.474 259.578 231.028 260.09 230.715 260.72C230.403 261.351 230.246 262.027 230.246 262.749V263.908C230.246 264.896 230.417 265.735 230.758 266.422C231.104 267.104 231.585 267.624 232.198 267.982C232.812 268.334 233.525 268.51 234.337 268.51C234.866 268.51 235.343 268.436 235.769 268.289C236.201 268.135 236.573 267.908 236.886 267.607C237.198 267.3 237.44 266.919 237.61 266.465L239.553 267.01C239.349 267.669 239.005 268.249 238.522 268.749C238.039 269.243 237.442 269.629 236.732 269.908C236.022 270.181 235.224 270.317 234.337 270.317ZM248.511 256.953V258.658H241.727V256.953H248.511ZM243.704 253.817H245.715V266.294C245.715 266.862 245.798 267.289 245.962 267.573C246.133 267.851 246.349 268.039 246.61 268.135C246.877 268.226 247.158 268.271 247.454 268.271C247.675 268.271 247.857 268.26 247.999 268.237C248.141 268.209 248.255 268.186 248.34 268.169L248.749 269.976C248.613 270.027 248.423 270.078 248.178 270.129C247.934 270.186 247.624 270.215 247.249 270.215C246.681 270.215 246.124 270.092 245.579 269.848C245.039 269.604 244.59 269.232 244.232 268.732C243.88 268.232 243.704 267.601 243.704 266.84V253.817ZM254.195 252.59L254.025 265.135H252.048L251.877 252.59H254.195ZM253.036 270.181C252.616 270.181 252.255 270.03 251.954 269.729C251.653 269.428 251.502 269.067 251.502 268.646C251.502 268.226 251.653 267.865 251.954 267.564C252.255 267.263 252.616 267.112 253.036 267.112C253.457 267.112 253.817 267.263 254.119 267.564C254.42 267.865 254.57 268.226 254.57 268.646C254.57 268.925 254.499 269.181 254.357 269.414C254.221 269.646 254.036 269.834 253.803 269.976C253.576 270.112 253.32 270.181 253.036 270.181Z" fill="#7B849A"/>
<defs>
<filter id="filter0_d_3172_6832" x="52.5965" y="49.5028" width="239.779" height="69.6132" filterUnits="userSpaceOnUse" color-interpolation-filters="sRGB">
<feFlood flood-opacity="0" result="BackgroundImageFix"/>
<feColorMatrix in="SourceAlpha" type="matrix" values="0 0 0 0 0 0 0 0 0 0 0 0 0 0 0 0 0 0 127 0" result="hardAlpha"/>
<feOffset dx="4.64089" dy="4.64089"/>
<feGaussianBlur stdDeviation="3.86741"/>
<feColorMatrix type="matrix" values="0 0 0 0 0.230539 0 0 0 0 0.370572 0 0 0 0 0.482993 0 0 0 0.1 0"/>
<feBlend mode="normal" in2="BackgroundImageFix" result="effect1_dropShadow_3172_6832"/>
<feBlend mode="normal" in="SourceGraphic" in2="effect1_dropShadow_3172_6832" result="shape"/>
</filter>
<filter id="filter1_d_3172_6832" x="29.3926" y="119.116" width="239.779" height="69.6132" filterUnits="userSpaceOnUse" color-interpolation-filters="sRGB">
<feFlood flood-opacity="0" result="BackgroundImageFix"/>
<feColorMatrix in="SourceAlpha" type="matrix" values="0 0 0 0 0 0 0 0 0 0 0 0 0 0 0 0 0 0 127 0" result="hardAlpha"/>
<feOffset dx="4.64089" dy="4.64089"/>
<feGaussianBlur stdDeviation="3.86741"/>
<feColorMatrix type="matrix" values="0 0 0 0 0.230539 0 0 0 0 0.370572 0 0 0 0 0.482993 0 0 0 0.1 0"/>
<feBlend mode="normal" in2="BackgroundImageFix" result="effect1_dropShadow_3172_6832"/>
<feBlend mode="normal" in="SourceGraphic" in2="effect1_dropShadow_3172_6832" result="shape"/>
</filter>
</defs>
</svg>
