<svg width="26" height="26" viewBox="0 0 26 26" fill="none" xmlns="http://www.w3.org/2000/svg">
<path fill-rule="evenodd" clip-rule="evenodd" d="M5.41675 21.6656C5.41675 21.3066 5.70776 21.0156 6.06675 21.0156H19.9334C20.2924 21.0156 20.5834 21.3066 20.5834 21.6656C20.5834 22.0246 20.2924 22.3156 19.9334 22.3156H6.06675C5.70776 22.3156 5.41675 22.0246 5.41675 21.6656Z" fill="white"/>
<path d="M12.584 15.541L12.5841 15.541L17.7119 10.4132C17.014 10.1228 16.1874 9.64563 15.4056 8.86388C14.6237 8.082 14.1466 7.25527 13.8561 6.55731L8.72824 11.6852L8.72821 11.6852C8.32807 12.0854 8.12798 12.2855 7.95591 12.5061C7.75293 12.7663 7.5789 13.0479 7.43691 13.3458C7.31655 13.5984 7.22707 13.8668 7.04811 14.4037L6.1044 17.2348C6.01633 17.499 6.0851 17.7903 6.28202 17.9872C6.47895 18.1842 6.77023 18.2529 7.03443 18.1649L9.86555 17.2211C10.4024 17.0422 10.6709 16.9527 10.9234 16.8323C11.2214 16.6904 11.503 16.5163 11.7632 16.3133C11.9838 16.1413 12.1839 15.9412 12.584 15.541Z" fill="white"/>
<path d="M19.1348 8.99032C20.1995 7.92557 20.1995 6.19926 19.1348 5.1345C18.07 4.06975 16.3437 4.06975 15.2789 5.1345L14.6639 5.74952C14.6723 5.77495 14.6811 5.80073 14.6901 5.82685C14.9156 6.4766 15.3409 7.32837 16.141 8.12849C16.9411 8.9286 17.7929 9.35393 18.4426 9.57935C18.4686 9.58837 18.4943 9.59707 18.5196 9.60545L19.1348 8.99032Z" fill="white"/>
</svg>
