<svg width="15" height="15" viewBox="0 0 15 15" fill="none" xmlns="http://www.w3.org/2000/svg">
<path d="M5.96037 1.99123L6.50597 2.96886C6.99835 3.85113 6.80069 5.00851 6.0252 5.784C6.0252 5.784 6.0252 5.784 6.0252 5.78401C6.02508 5.78412 5.08465 6.72477 6.79004 8.43016C8.49477 10.1349 9.43538 9.19581 9.43619 9.195C9.43622 9.19498 9.4362 9.19499 9.43623 9.19496C10.2117 8.4195 11.3691 8.22185 12.2513 8.71423L13.229 9.25983C14.5612 10.0033 14.7185 11.8716 13.5475 13.0426C12.8439 13.7463 11.9819 14.2938 11.029 14.3299C9.42491 14.3907 6.70073 13.9848 3.96808 11.2521C1.23543 8.51946 0.829462 5.79529 0.890273 4.19118C0.926397 3.2383 1.47391 2.37631 2.17755 1.67266C3.34855 0.501659 5.21687 0.658994 5.96037 1.99123Z" fill="#7B849A"/>
</svg>
