<svg width="40" height="40" viewBox="0 0 40 40" fill="none" xmlns="http://www.w3.org/2000/svg">
<path fill-rule="evenodd" clip-rule="evenodd" d="M33.3307 20.0013C33.3307 27.3651 27.3612 33.3346 19.9974 33.3346C12.6336 33.3346 6.66406 27.3651 6.66406 20.0013C6.66406 12.6375 12.6336 6.66797 19.9974 6.66797C27.3612 6.66797 33.3307 12.6375 33.3307 20.0013ZM15.9569 15.9608C16.3474 15.5703 16.9806 15.5703 17.3711 15.9608L19.9974 18.5871L22.6236 15.9609C23.0141 15.5703 23.6473 15.5703 24.0378 15.9609C24.4283 16.3514 24.4283 16.9846 24.0378 17.3751L21.4116 20.0013L24.0378 22.6275C24.4283 23.018 24.4283 23.6512 24.0378 24.0417C23.6472 24.4322 23.0141 24.4322 22.6235 24.0417L19.9974 21.4155L17.3711 24.0417C16.9806 24.4322 16.3475 24.4322 15.9569 24.0417C15.5664 23.6512 15.5664 23.018 15.9569 22.6275L18.5831 20.0013L15.9569 17.375C15.5664 16.9845 15.5664 16.3514 15.9569 15.9608Z" fill="#303030"/>
</svg>
