<svg width="70" height="74" viewBox="0 0 70 74" fill="none" xmlns="http://www.w3.org/2000/svg">
<path d="M11.2598 43.7157V0L34.181 18.5496L38.7888 15.0051L43.9875 11.1062L53.9121 3.66267C58.52 2.00856 59.7015 6.85273 58.1655 8.38869L34.181 26.2294L17.5217 12.8784V43.7157C15.395 48.4417 11.2598 45.7243 11.2598 43.7157Z" fill="#38B89A"/>
<path d="M58.52 12.1695L34.181 31.428L24.3745 23.0394C18.9396 21.6216 18.9396 26.9383 19.8848 27.6472L34.181 39.3441L52.3762 24.6935V43.7157C54.3847 48.5599 58.52 45.488 58.52 43.7157V12.1695Z" fill="#38B89A"/>
<path d="M1.11502 68.5923V57.1141H3.60742L7.26403 64.3946L10.8715 57.1141H13.3639V68.5923H11.265V60.6724L8.0675 66.9525H6.41137L3.21388 60.6724V68.5923H1.11502ZM16.5583 72.1997L18.444 68.0512H17.952L14.7873 60.4592H17.0666L19.3458 66.1819L21.7234 60.4592H23.9535L18.7883 72.1997H16.5583ZM29.282 68.5923V57.1141H31.7744L35.431 64.3946L39.0384 57.1141H41.5308V68.5923H39.4319V60.6724L36.2345 66.9525H34.5783L31.3808 60.6724V68.5923H29.282ZM46.7585 68.7891C45.7419 68.7891 44.9548 68.472 44.3973 67.838C43.8507 67.204 43.5774 66.2748 43.5774 65.0505V60.4592H45.6599V64.8537C45.6599 65.5533 45.802 66.089 46.0862 66.4606C46.3704 66.8323 46.8186 67.0181 47.4308 67.0181C48.0102 67.0181 48.4857 66.8104 48.8574 66.395C49.24 65.9796 49.4313 65.4003 49.4313 64.6569V60.4592H51.5301V68.5923H49.6772L49.5132 67.2149C49.2618 67.6959 48.8956 68.0785 48.4146 68.3627C47.9446 68.6469 47.3925 68.7891 46.7585 68.7891ZM54.0618 68.5923V62.2137H52.9468V60.4592H54.0618V59.5081C54.0618 58.5243 54.3078 57.8247 54.7997 57.4093C55.3026 56.9939 55.9803 56.7862 56.833 56.7862H57.7349V58.5735H57.1609C56.8002 58.5735 56.5433 58.6446 56.3903 58.7867C56.2372 58.9288 56.1607 59.1693 56.1607 59.5081V60.4592H57.9152V62.2137H56.1607V68.5923H54.0618ZM63.2013 68.5923C62.3487 68.5923 61.6654 68.3846 61.1517 67.9692C60.6379 67.5538 60.381 66.8159 60.381 65.7555V62.2137H58.9872V60.4592H60.381L60.6269 58.2783H62.4798V60.4592H64.6771V62.2137H62.4798V65.7719C62.4798 66.1655 62.5618 66.4388 62.7258 66.5918C62.9007 66.7339 63.1959 66.805 63.6113 66.805H64.6279V68.5923H63.2013ZM67.6105 59.1966C67.2279 59.1966 66.9109 59.0818 66.6595 58.8523C66.419 58.6227 66.2988 58.333 66.2988 57.9832C66.2988 57.6334 66.419 57.3492 66.6595 57.1305C66.9109 56.901 67.2279 56.7862 67.6105 56.7862C67.9932 56.7862 68.3047 56.901 68.5452 57.1305C68.7966 57.3492 68.9223 57.6334 68.9223 57.9832C68.9223 58.333 68.7966 58.6227 68.5452 58.8523C68.3047 59.0818 67.9932 59.1966 67.6105 59.1966ZM66.5611 68.5923V60.4592H68.66V68.5923H66.5611Z" fill="#14201B"/>
</svg>
