<svg width="18" height="18" viewBox="0 0 18 18" fill="none" xmlns="http://www.w3.org/2000/svg">
<path d="M5.03751 1.12361C5.03751 0.775391 4.75522 0.493103 4.407 0.493103C4.05878 0.493103 3.77649 0.775391 3.77649 1.12361V2.45126C2.56648 2.54815 1.77213 2.78595 1.18853 3.36954C0.604931 3.95314 0.367136 4.7475 0.270243 5.95751H16.9505C16.8536 4.7475 16.6159 3.95314 16.0323 3.36954C15.4487 2.78595 14.6543 2.54815 13.4443 2.45126V1.12361C13.4443 0.775391 13.162 0.493103 12.8138 0.493103C12.4656 0.493103 12.1833 0.775391 12.1833 1.12361V2.39547C11.624 2.38463 10.9971 2.38463 10.2917 2.38463H6.92904C6.22368 2.38463 5.59679 2.38463 5.03751 2.39547V1.12361Z" fill="#7B849A"/>
<path fill-rule="evenodd" clip-rule="evenodd" d="M0.203613 9.11005C0.203613 8.40469 0.203613 7.7778 0.21446 7.21853H17.0063C17.0172 7.7778 17.0172 8.40469 17.0172 9.11005V10.7914C17.0172 13.9618 17.0172 15.547 16.0323 16.5319C15.0473 17.5168 13.4621 17.5168 10.2917 17.5168H6.92904C3.75864 17.5168 2.17344 17.5168 1.18853 16.5319C0.203613 15.547 0.203613 13.9618 0.203613 10.7914V9.11005ZM12.8138 10.7914C13.2781 10.7914 13.6545 10.415 13.6545 9.95073C13.6545 9.48644 13.2781 9.11005 12.8138 9.11005C12.3495 9.11005 11.9731 9.48644 11.9731 9.95073C11.9731 10.415 12.3495 10.7914 12.8138 10.7914ZM12.8138 14.1541C13.2781 14.1541 13.6545 13.7777 13.6545 13.3134C13.6545 12.8491 13.2781 12.4728 12.8138 12.4728C12.3495 12.4728 11.9731 12.8491 11.9731 13.3134C11.9731 13.7777 12.3495 14.1541 12.8138 14.1541ZM9.45107 9.95073C9.45107 10.415 9.07469 10.7914 8.61039 10.7914C8.1461 10.7914 7.76971 10.415 7.76971 9.95073C7.76971 9.48644 8.1461 9.11005 8.61039 9.11005C9.07469 9.11005 9.45107 9.48644 9.45107 9.95073ZM9.45107 13.3134C9.45107 13.7777 9.07469 14.1541 8.61039 14.1541C8.1461 14.1541 7.76971 13.7777 7.76971 13.3134C7.76971 12.8491 8.1461 12.4728 8.61039 12.4728C9.07469 12.4728 9.45107 12.8491 9.45107 13.3134ZM4.407 10.7914C4.8713 10.7914 5.24768 10.415 5.24768 9.95073C5.24768 9.48644 4.8713 9.11005 4.407 9.11005C3.94271 9.11005 3.56632 9.48644 3.56632 9.95073C3.56632 10.415 3.94271 10.7914 4.407 10.7914ZM4.407 14.1541C4.8713 14.1541 5.24768 13.7777 5.24768 13.3134C5.24768 12.8491 4.8713 12.4728 4.407 12.4728C3.94271 12.4728 3.56632 12.8491 3.56632 13.3134C3.56632 13.7777 3.94271 14.1541 4.407 14.1541Z" fill="#7B849A"/>
</svg>
