<svg width="18" height="18" viewBox="0 0 18 18" fill="none" xmlns="http://www.w3.org/2000/svg">
<path d="M17.4911 9.39007C17.4911 14.0329 13.7273 17.7967 9.0844 17.7967C4.44153 17.7967 0.677734 14.0329 0.677734 9.39007C0.677734 4.74719 4.44153 0.983398 9.0844 0.983398C13.7273 0.983398 17.4911 4.74719 17.4911 9.39007Z" fill="#7B849A"/>
<path fill-rule="evenodd" clip-rule="evenodd" d="M9.0844 5.3969C9.43262 5.3969 9.7149 5.67918 9.7149 6.0274V9.1289L11.6319 11.0459C11.8781 11.2921 11.8781 11.6913 11.6319 11.9376C11.3857 12.1838 10.9865 12.1838 10.7402 11.9376L8.63857 9.8359C8.52033 9.71765 8.4539 9.55728 8.4539 9.39007V6.0274C8.4539 5.67918 8.73619 5.3969 9.0844 5.3969Z" fill="white"/>
</svg>
