<svg width="26" height="26" viewBox="0 0 26 26" fill="none" xmlns="http://www.w3.org/2000/svg">
<path d="M12.4329 21.6693H13.1339C15.5456 21.6693 16.7514 21.6693 17.5354 20.8837C18.3195 20.0982 18.3997 18.8097 18.5601 16.2327L18.7912 12.5194C18.8783 11.1211 18.9218 10.422 18.5285 9.97897C18.1352 9.53594 17.471 9.53594 16.1426 9.53594H9.42424C8.09583 9.53594 7.43163 9.53594 7.03831 9.97897C6.64499 10.422 6.68851 11.1211 6.77556 12.5194L7.00671 16.2327C7.16714 18.8097 7.24735 20.0982 8.03137 20.8837C8.81539 21.6693 10.0212 21.6693 12.4329 21.6693Z" fill="white"/>
<path d="M4.9834 7.94705C4.9834 7.54819 5.28273 7.22484 5.65197 7.22484L7.96098 7.22445C8.41975 7.21189 8.82448 6.89678 8.98059 6.43059C8.98469 6.41834 8.98941 6.40322 9.00634 6.34836L9.10583 6.02588C9.16671 5.82815 9.21976 5.65589 9.29398 5.50192C9.58721 4.89363 10.1297 4.47123 10.7567 4.36308C10.9154 4.33571 11.0834 4.33582 11.2763 4.33596H14.2906C14.4835 4.33582 14.6516 4.33571 14.8103 4.36308C15.4372 4.47123 15.9797 4.89363 16.273 5.50192C16.3472 5.65589 16.4002 5.82815 16.4611 6.02588L16.5606 6.34836C16.5775 6.40322 16.5823 6.41834 16.5864 6.43059C16.7425 6.89678 17.2275 7.21228 17.6863 7.22484H19.9148C20.2841 7.22484 20.5834 7.54819 20.5834 7.94705C20.5834 8.34592 20.2841 8.66927 19.9148 8.66927H5.65197C5.28273 8.66927 4.9834 8.34592 4.9834 7.94705Z" fill="white"/>
</svg>
