<svg width="18" height="14" viewBox="0 0 18 14" fill="none" xmlns="http://www.w3.org/2000/svg">
<path fill-rule="evenodd" clip-rule="evenodd" d="M1.18803 1.14939C0.203125 2.13429 0.203125 3.71947 0.203125 6.88982C0.203125 10.0602 0.203125 11.6454 1.18803 12.6303C2.17293 13.6152 3.75811 13.6152 6.92846 13.6152H10.2911C13.4615 13.6152 15.0467 13.6152 16.0316 12.6303C17.0165 11.6454 17.0165 10.0602 17.0165 6.88982C17.0165 3.71947 17.0165 2.13429 16.0316 1.14939C15.0467 0.16449 13.4615 0.16449 10.2911 0.16449H6.92846C3.75811 0.16449 2.17293 0.16449 1.18803 1.14939ZM14.1382 3.12352C14.3611 3.39103 14.3249 3.7886 14.0574 4.01152L12.2109 5.55028C11.4658 6.17124 10.8618 6.67455 10.3288 7.01737C9.77355 7.37449 9.23279 7.60008 8.60979 7.60008C7.98679 7.60008 7.44603 7.37449 6.89078 7.01737C6.35774 6.67455 5.7538 6.17125 5.00867 5.55029L3.16216 4.01152C2.89465 3.7886 2.85851 3.39103 3.08143 3.12352C3.30435 2.85601 3.70192 2.81987 3.96943 3.04279L5.78434 4.55522C6.56865 5.20881 7.11318 5.66112 7.5729 5.95679C8.01791 6.24301 8.3197 6.33908 8.60979 6.33908C8.89988 6.33908 9.20167 6.24301 9.64668 5.95679C10.1064 5.66112 10.6509 5.20881 11.4352 4.55522L13.2502 3.04279C13.5177 2.81987 13.9152 2.85601 14.1382 3.12352Z" fill="#7B849A"/>
</svg>
