<svg width="30" height="30" viewBox="0 0 30 30" fill="none" xmlns="http://www.w3.org/2000/svg">
<path fill-rule="evenodd" clip-rule="evenodd" d="M6.25 25C6.25 24.5858 6.58579 24.25 7 24.25H23C23.4142 24.25 23.75 24.5858 23.75 25C23.75 25.4142 23.4142 25.75 23 25.75H7C6.58579 25.75 6.25 25.4142 6.25 25Z" fill="#28A4AD"/>
<path d="M14.5201 17.929L14.5201 17.9289L20.4368 12.0123C19.6315 11.6771 18.6777 11.1266 17.7757 10.2245C16.8736 9.32238 16.323 8.36846 15.9879 7.56312L10.0711 13.4799L10.071 13.48C9.60932 13.9417 9.37846 14.1725 9.17992 14.4271C8.94571 14.7273 8.74491 15.0522 8.58107 15.396C8.44219 15.6874 8.33894 15.9972 8.13245 16.6167L7.04356 19.8833C6.94194 20.1882 7.02128 20.5243 7.2485 20.7515C7.47573 20.9787 7.81182 21.0581 8.11667 20.9564L11.3833 19.8676C12.0028 19.6611 12.3126 19.5578 12.604 19.4189C12.9478 19.2551 13.2727 19.0543 13.5729 18.8201C13.8275 18.6215 14.0584 18.3907 14.5201 17.929Z" fill="#28A4AD"/>
<path d="M22.0786 10.3704C23.3071 9.14188 23.3071 7.14999 22.0786 5.92142C20.85 4.69286 18.8581 4.69286 17.6296 5.92142L16.9199 6.63105C16.9296 6.6604 16.9397 6.69015 16.9502 6.72028C17.2103 7.47 17.701 8.45281 18.6243 9.37602C19.5475 10.2992 20.5303 10.79 21.28 11.0501C21.31 11.0605 21.3396 11.0705 21.3688 11.0802L22.0786 10.3704Z" fill="#28A4AD"/>
</svg>
