<svg width="16" height="16" viewBox="0 0 16 16" fill="none" xmlns="http://www.w3.org/2000/svg">
<path fill-rule="evenodd" clip-rule="evenodd" d="M3.3335 13.3333C3.3335 13.1124 3.51258 12.9333 3.7335 12.9333H12.2668C12.4877 12.9333 12.6668 13.1124 12.6668 13.3333C12.6668 13.5543 12.4877 13.7333 12.2668 13.7333H3.7335C3.51258 13.7333 3.3335 13.5543 3.3335 13.3333Z" fill="#99A1B7"/>
<path d="M7.23896 10.0373C7.37472 9.93145 7.49786 9.80831 7.74411 9.56206L10.8997 6.4065C10.4702 6.22775 9.96153 5.93413 9.48045 5.45305C8.9993 4.9719 8.70567 4.46314 8.52692 4.03362L5.3713 7.18925L5.37129 7.18926C5.12504 7.4355 5.00191 7.55864 4.89602 7.6944C4.77111 7.85454 4.66402 8.02783 4.57664 8.21117C4.50256 8.3666 4.4475 8.53179 4.33737 8.86218L3.75663 10.6044C3.70243 10.767 3.74475 10.9462 3.86593 11.0674C3.98712 11.1886 4.16637 11.2309 4.32896 11.1767L6.07118 10.596C6.40156 10.4859 6.56676 10.4308 6.72219 10.3567C6.90553 10.2693 7.07881 10.1622 7.23896 10.0373Z" fill="#99A1B7"/>
<path d="M11.7753 5.53086C12.4305 4.87563 12.4305 3.81329 11.7753 3.15805C11.1201 2.50282 10.0577 2.50282 9.4025 3.15805L9.02403 3.53652C9.02921 3.55217 9.03458 3.56804 9.04016 3.58411C9.17888 3.98396 9.44062 4.50812 9.933 5.0005C10.4254 5.49288 10.9495 5.75462 11.3494 5.89334C11.3654 5.89889 11.3812 5.90425 11.3968 5.9094L11.7753 5.53086Z" fill="#99A1B7"/>
</svg>
