<svg width="16" height="16" viewBox="0 0 16 16" fill="none" xmlns="http://www.w3.org/2000/svg">
<path d="M3.2002 5.07932C3.2002 4.86893 3.37444 4.69837 3.58938 4.69837H6.14306C6.14653 4.24972 6.19515 3.63465 6.64039 3.20886C6.99079 2.87377 7.47117 2.66663 8.00019 2.66663C8.52921 2.66663 9.00959 2.87376 9.35999 3.20886C9.80523 3.63465 9.85385 4.24972 9.85732 4.69837H12.411C12.6259 4.69837 12.8002 4.86893 12.8002 5.07932C12.8002 5.28972 12.6259 5.46028 12.411 5.46028H3.58938C3.37444 5.46028 3.2002 5.28972 3.2002 5.07932Z" fill="#99A1B7"/>
<path d="M7.79036 13.3333H8.21006C9.65405 13.3333 10.3761 13.3333 10.8455 12.8729C11.3149 12.4125 11.3629 11.6574 11.459 10.147L11.5974 7.97073C11.6495 7.15124 11.6756 6.74149 11.4401 6.48183C11.2046 6.22218 10.8069 6.22218 10.0115 6.22218H5.98891C5.19353 6.22218 4.79584 6.22218 4.56034 6.48183C4.32484 6.74149 4.3509 7.15124 4.40301 7.97074L4.54142 10.147C4.63747 11.6574 4.6855 12.4125 5.15493 12.8729C5.62436 13.3333 6.34636 13.3333 7.79036 13.3333Z" fill="#99A1B7"/>
</svg>
